<svg width="236" height="221" viewBox="0 0 236 221" fill="none" xmlns="http://www.w3.org/2000/svg">
<path d="M433.742 320.87C447.317 280.081 416.599 238.726 387.143 170.6C371.915 188.012 360.907 205.425 379.747 222.837C372.002 219.964 363.866 218.528 353.25 227.103C348.29 202.247 329.232 181.613 296.035 165.289C234.382 120.495 295.121 50.54 347.941 66.1678C411.465 118.014 317.528 162.416 314.004 93.8538C244.476 164.679 386.273 199.853 398.238 113.617C394.627 152.795 409.29 182.832 442.183 203.64C433.264 146.44 470.16 92.8525 401.937 56.5473C425.954 51.5847 437.266 39.1348 435.831 17.1079C380.748 41.616 357.47 30.9508 318.268 38.3947C324.968 28.426 320.4 18.5009 304.475 8.53216C303.779 54.0225 269.146 73.9164 251.524 106.608C246.738 85.6263 251.699 64.6877 278.022 43.7056C280.154 33.0404 269.537 32.3438 246.26 41.5725C252.612 27.7295 249.088 13.843 235.644 0C222.112 13.843 218.675 27.7295 224.984 41.5725C201.576 32.3438 190.829 33.0404 193.048 43.7056C219.502 64.6877 224.462 85.6263 219.676 106.608C201.88 73.9599 167.116 54.066 166.376 8.57569C150.408 18.5444 145.884 28.4696 152.497 38.4382C113.034 30.9944 89.6693 41.616 34.2382 17.1079C32.8459 39.1348 44.2454 51.5847 68.3932 56.5473C-0.221268 92.8525 36.8053 146.396 27.8858 203.596C61.0401 182.745 75.7027 152.621 72.0915 113.312C83.8825 199.896 226.811 164.723 156.761 93.8102C153.237 162.416 58.7776 118.014 122.736 66.1242C175.862 50.4965 236.862 120.451 174.904 165.245C141.489 181.57 122.345 202.203 117.298 227.06C106.725 218.484 98.4582 219.921 90.757 222.794C109.597 205.381 98.5887 187.969 83.2299 170.556C53.6435 238.683 22.7517 280.081 36.3702 320.827C10.1775 318.345 -1.96164 330.055 0.257341 356C36.0221 341.722 71.9174 344.943 107.856 350.689C149.06 337.76 195.484 336.629 233.947 349.122C222.33 341.504 206.753 322.873 195.093 315.516C179.125 306.984 163.113 306.984 147.189 315.516C168.857 216.743 22.1861 269.677 93.8897 309.117C92.8455 259.752 156.369 294.534 115.253 330.447C4.34724 335.018 53.1648 220.443 135.441 244.124C119.908 212.477 217.065 176.302 233.903 114.879C250.654 176.302 350.639 212.477 335.193 244.124C416.991 220.443 465.678 335.018 355.338 330.447C314.352 294.577 377.571 259.752 376.527 309.117C447.839 269.677 301.995 216.743 323.576 315.516C307.695 306.984 291.814 306.984 275.89 315.516C264.403 322.873 246.521 341.373 234.86 349.035C273.105 336.629 321.836 337.804 362.778 350.689C398.456 344.987 434.09 341.765 469.768 356C471.856 330.099 459.848 318.389 433.742 320.87Z" fill="white"/>
</svg>
