<?xml version="1.0" encoding="UTF-8"?>
<svg width="894px" height="677px" viewBox="0 0 894 677" version="1.1" xmlns="http://www.w3.org/2000/svg" xmlns:xlink="http://www.w3.org/1999/xlink">
    <!-- Generator: Sketch 50.2 (55047) - http://www.bohemiancoding.com/sketch -->
    <title>Shape</title>
    <desc>Created with Sketch.</desc>
    <defs></defs>
    <g id="Page-1" stroke="none" stroke-width="1" fill="none" fill-rule="evenodd">
        <g id="blog" transform="translate(-200.000000, -152.000000)" fill="#F0ECE7" fill-rule="nonzero">
            <path d="M1025.03287,762.194057 C1050.85417,684.626315 992.425216,605.982392 936.396322,476.426877 C907.430129,509.540108 886.49171,542.653338 922.327029,575.766569 C907.59565,570.302886 892.119427,567.571044 871.925853,583.87931 C862.49115,536.610174 826.242028,497.370995 763.095727,466.327342 C645.824025,381.143556 761.357755,248.111152 861.829065,277.830276 C982.659471,376.424921 803.979439,460.863659 797.275835,330.480313 C665.024473,465.168379 934.741111,532.057104 957.500263,368.06383 C950.631137,442.568599 978.521443,499.688921 1041.08842,539.259232 C1024.12251,430.48227 1094.30346,328.576302 964.53491,259.535216 C1010.21873,250.097946 1031.73648,226.421986 1029.00538,184.533749 C924.230521,231.140621 879.953626,210.858767 805.386369,225.014674 C818.131494,206.057349 809.441636,187.182808 779.151274,168.225483 C777.827105,254.733798 711.949706,292.565664 678.431682,354.735754 C669.328022,314.834312 678.762725,275.015652 728.832858,235.114209 C732.888125,214.832355 712.694551,213.507826 668.417656,231.057838 C680.500696,204.73282 673.797091,178.325018 648.224081,152 C622.485549,178.325018 615.947466,204.73282 627.947746,231.057838 C583.422569,213.507826 562.980712,214.832355 567.201501,235.114209 C617.519916,275.015652 626.954619,314.834312 617.850958,354.735754 C584.001893,292.648447 517.876212,254.816581 516.469282,168.308266 C486.09616,187.265591 477.489062,206.140132 490.068666,225.097457 C415.004846,210.941551 370.562429,231.140621 265.125486,184.533749 C262.477149,226.421986 284.160413,250.097946 330.09252,259.535216 C199.579129,328.576302 270.008359,430.399486 253.042446,539.176449 C316.105986,499.523355 343.996292,442.237466 337.127166,367.484348 C359.555276,532.139888 631.423689,465.251162 498.1792,330.39753 C491.475596,460.863659 311.802438,376.424921 433.460449,277.747493 C534.511083,248.028369 650.541376,381.060773 532.69035,466.244559 C469.130247,497.288212 432.715604,536.527391 423.11538,583.796527 C403.004566,567.488261 387.280061,570.220103 372.631443,575.683786 C408.466762,542.570555 387.528343,509.457325 358.313868,476.344094 C302.036692,605.899609 243.276701,684.626315 269.180753,762.111274 C219.358901,757.392639 196.268707,779.661286 200.489495,829 C268.518669,801.847151 336.796124,807.973099 405.15634,818.900465 C483.530583,794.313891 571.836092,792.161531 644.996419,815.920274 C622.899352,801.433236 593.271074,766.002079 571.091247,752.011739 C540.718124,735.786256 510.262241,735.786256 479.971879,752.011739 C521.186634,564.176938 242.200813,664.841159 378.590203,739.842627 C376.60395,645.966618 497.434355,712.110296 419.225634,780.406334 C208.268987,789.098557 301.126326,571.2135 457.62653,616.247493 C428.081013,556.064197 612.885325,487.27146 644.913659,370.464539 C676.776471,487.27146 866.960219,556.064197 837.580224,616.247493 C993.170061,571.2135 1085.77912,789.098557 875.898359,780.406334 C797.937919,712.193079 918.189001,645.966618 916.202748,739.842627 C1051.84729,664.841159 774.433922,564.176938 815.483156,752.011739 C785.275555,735.786256 755.067953,735.786256 724.777591,752.011739 C702.928806,766.002079 668.914219,801.184886 646.734391,815.754708 C719.480916,792.161531 812.172734,794.396674 890.050413,818.900465 C957.914066,808.055882 1025.69496,801.929934 1093.55861,829 C1097.53112,779.744069 1074.6892,757.475422 1025.03287,762.194057 Z" id="Shape" transform="translate(647.000000, 490.500000) rotate(180.000000) translate(-647.000000, -490.500000) "></path>
        </g>
    </g>
</svg>