<?xml version="1.0" encoding="UTF-8"?>
<svg width="894px" height="677px" viewBox="0 0 894 677" version="1.1" xmlns="http://www.w3.org/2000/svg" xmlns:xlink="http://www.w3.org/1999/xlink">
    <!-- Generator: Sketch 50.2 (55047) - http://www.bohemiancoding.com/sketch -->
    <title>Shape Copy</title>
    <desc>Created with Sketch.</desc>
    <defs></defs>
    <g id="Page-1" stroke="none" stroke-width="1" fill="none" fill-rule="evenodd">
        <g id="blog" transform="translate(-493.000000, -2786.000000)" fill="#F0ECE7" fill-rule="nonzero">
            <path d="M1318.03287,3396.19406 C1343.85417,3318.62631 1285.42522,3239.98239 1229.39632,3110.42688 C1200.43013,3143.54011 1179.49171,3176.65334 1215.32703,3209.76657 C1200.59565,3204.30289 1185.11943,3201.57104 1164.92585,3217.87931 C1155.49115,3170.61017 1119.24203,3131.371 1056.09573,3100.32734 C938.824025,3015.14356 1054.35776,2882.11115 1154.82907,2911.83028 C1275.65947,3010.42492 1096.97944,3094.86366 1090.27583,2964.48031 C958.024473,3099.16838 1227.74111,3166.0571 1250.50026,3002.06383 C1243.63114,3076.5686 1271.52144,3133.68892 1334.08842,3173.25923 C1317.12251,3064.48227 1387.30346,2962.5763 1257.53491,2893.53522 C1303.21873,2884.09795 1324.73648,2860.42199 1322.00538,2818.53375 C1217.23052,2865.14062 1172.95363,2844.85877 1098.38637,2859.01467 C1111.13149,2840.05735 1102.44164,2821.18281 1072.15127,2802.22548 C1070.82711,2888.7338 1004.94971,2926.56566 971.431682,2988.73575 C962.328022,2948.83431 971.762725,2909.01565 1021.83286,2869.11421 C1025.88813,2848.83236 1005.69455,2847.50783 961.417656,2865.05784 C973.500696,2838.73282 966.797091,2812.32502 941.224081,2786 C915.485549,2812.32502 908.947466,2838.73282 920.947746,2865.05784 C876.422569,2847.50783 855.980712,2848.83236 860.201501,2869.11421 C910.519916,2909.01565 919.954619,2948.83431 910.850958,2988.73575 C877.001893,2926.64845 810.876212,2888.81658 809.469282,2802.30827 C779.09616,2821.26559 770.489062,2840.14013 783.068666,2859.09746 C708.004846,2844.94155 663.562429,2865.14062 558.125486,2818.53375 C555.477149,2860.42199 577.160413,2884.09795 623.09252,2893.53522 C492.579129,2962.5763 563.008359,3064.39949 546.042446,3173.17645 C609.105986,3133.52336 636.996292,3076.23747 630.127166,3001.48435 C652.555276,3166.13989 924.423689,3099.25116 791.1792,2964.39753 C784.475596,3094.86366 604.802438,3010.42492 726.460449,2911.74749 C827.511083,2882.02837 943.541376,3015.06077 825.69035,3100.24456 C762.130247,3131.28821 725.715604,3170.52739 716.11538,3217.79653 C696.004566,3201.48826 680.280061,3204.2201 665.631443,3209.68379 C701.466762,3176.57056 680.528343,3143.45732 651.313868,3110.34409 C595.036692,3239.89961 536.276701,3318.62631 562.180753,3396.11127 C512.358901,3391.39264 489.268707,3413.66129 493.489495,3463 C561.518669,3435.84715 629.796124,3441.9731 698.15634,3452.90046 C776.530583,3428.31389 864.836092,3426.16153 937.996419,3449.92027 C915.899352,3435.43324 886.271074,3400.00208 864.091247,3386.01174 C833.718124,3369.78626 803.262241,3369.78626 772.971879,3386.01174 C814.186634,3198.17694 535.200813,3298.84116 671.590203,3373.84263 C669.60395,3279.96662 790.434355,3346.1103 712.225634,3414.40633 C501.268987,3423.09856 594.126326,3205.2135 750.62653,3250.24749 C721.081013,3190.0642 905.885325,3121.27146 937.913659,3004.46454 C969.776471,3121.27146 1159.96022,3190.0642 1130.58022,3250.24749 C1286.17006,3205.2135 1378.77912,3423.09856 1168.89836,3414.40633 C1090.93792,3346.19308 1211.189,3279.96662 1209.20275,3373.84263 C1344.84729,3298.84116 1067.43392,3198.17694 1108.48316,3386.01174 C1078.27555,3369.78626 1048.06795,3369.78626 1017.77759,3386.01174 C995.928806,3400.00208 961.914219,3435.18489 939.734391,3449.75471 C1012.48092,3426.16153 1105.17273,3428.39667 1183.05041,3452.90046 C1250.91407,3442.05588 1318.69496,3435.92993 1386.55861,3463 C1390.53112,3413.74407 1367.6892,3391.47542 1318.03287,3396.19406 Z" id="Shape-Copy"></path>
        </g>
    </g>
</svg>