<?xml version="1.0" encoding="UTF-8"?>
<svg width="484px" height="227px" viewBox="0 0 484 227" version="1.1" xmlns="http://www.w3.org/2000/svg" xmlns:xlink="http://www.w3.org/1999/xlink">
    <!-- Generator: Sketch 50.2 (55047) - http://www.bohemiancoding.com/sketch -->
    <title>Group 2</title>
    <desc>Created with Sketch.</desc>
    <defs></defs>
    <g id="Page-1" stroke="none" stroke-width="1" fill="none" fill-rule="evenodd">
        <g id="register-complete-02" transform="translate(-475.000000, -206.000000)">
            <g id="Group-2" transform="translate(477.000000, 208.000000)">
                <path d="M101.851303,207.228159 L388.476007,207.228159 C388.269648,210.27298 387.129739,212.856824 385.05628,214.979691 C382.98282,217.102558 380.191548,219.93618 376.682464,223.480557 L111.245557,223.480557 C108.13438,220.202281 105.790877,217.493548 104.215047,215.354358 C102.639218,213.215169 101.851303,210.506436 101.851303,207.228159 Z" id="Path-2" fill="#F0ECE7"></path>
                <path d="M205.333235,207.539763 C203.870952,210.036556 203.870952,211.797369 205.333235,212.822201 C206.795517,213.847033 210.180194,214.35945 215.487263,214.35945 L277.236374,214.35945 C278.895142,216.632678 280.468009,216.632678 281.954976,214.35945 C283.441943,212.086221 284.185427,209.812992 284.185427,207.539763 L205.333235,207.539763 Z" id="Path-3" fill="#F1F1F1"></path>
                <rect id="Rectangle-3-Copy" fill="#C3C3C3" x="394" y="151.194045" width="53" height="5.98426661"></rect>
                <rect id="Rectangle-3-Copy-3" fill="#F0ECE7" x="397" y="137.230756" width="44" height="5.98426661" rx="2.99213331"></rect>
                <ellipse id="Oval" fill="#4F6B81" cx="21.2322275" cy="222.720836" rx="1.51658768" ry="1.5194427"></ellipse>
                <path d="M116.398104,221.201393 L371.943128,221.201393 C379.307895,221.201393 385.347138,215.515465 385.926118,208.28613 L102.415114,208.28613 C102.994094,215.515465 109.033337,221.201393 116.398104,221.201393 Z M389.004739,205.247245 L389.004739,207.146548 C389.004739,216.587155 381.365996,224.240279 371.943128,224.240279 L116.398104,224.240279 C106.975236,224.240279 99.3364929,216.587155 99.3364929,207.146548 L99.3364929,205.247245 L389.004739,205.247245 Z" id="Combined-Shape" fill="#4F6B81" fill-rule="nonzero"></path>
                <path d="M360.947867,76.0946159 C360.947867,72.7379558 358.23187,70.0168451 354.881517,70.0168451 L134.218009,70.0168451 C130.867656,70.0168451 128.151659,72.7379558 128.151659,76.0946159 L128.151659,205.247245 L360.947867,205.247245 L360.947867,76.0946159 Z M363.981043,208.28613 L125.118483,208.28613 L125.118483,76.0946159 C125.118483,71.0596257 129.19248,66.9779597 134.218009,66.9779597 L354.881517,66.9779597 C359.907046,66.9779597 363.981043,71.0596257 363.981043,76.0946159 L363.981043,208.28613 Z" id="Combined-Shape" fill="#4F6B81" fill-rule="nonzero"></path>
                <polygon id="Path-16" fill="#F0ECE7" points="193 168.266347 202.275391 170.709144 293.283203 168.266347 296.328125 153.405029 293.283203 101.325157 274.558594 101.325157 274.558594 118.12279 254.113281 136.01715 244.664062 132.804892 233.232422 138.927467 212.175781 118.12279 212.175781 101.325157 193 101.325157"></polygon>
                <polygon id="Path-17" fill="#C3C3C3" points="196.246094 101.107954 214.499023 101.107954 214.499023 119.209776 196.246094 105.39064"></polygon>
                <polygon id="Path-17-Copy" fill="#C3C3C3" transform="translate(283.126465, 109.378690) scale(-1, 1) translate(-283.126465, -109.378690) " points="274 100.327779 292.25293 100.327779 292.25293 118.429601 274 104.610464"></polygon>
                <path d="M351.090047,80.652944 L138.009479,80.652944 L138.009479,205.247245 L351.090047,205.247245 L351.090047,80.652944 Z M354.123223,208.28613 L134.976303,208.28613 L134.976303,79.1335013 C134.976303,78.2943362 135.655303,77.6140586 136.492891,77.6140586 L352.606635,77.6140586 C353.444223,77.6140586 354.123223,78.2943362 354.123223,79.1335013 L354.123223,208.28613 Z" id="Combined-Shape" fill="#4F6B81" fill-rule="nonzero"></path>
                <path d="M205.49763,207.526409 L205.49763,205.247245 L202.464455,205.247245 L202.464455,207.526409 C202.464455,207.782248 202.474974,208.035625 202.495601,208.28613 L205.544564,208.28613 C205.513587,208.03725 205.49763,207.783696 205.49763,207.526409 Z M211.563981,213.60418 L276.777251,213.60418 C279.8708,213.60418 282.423513,211.284228 282.796668,208.28613 L205.544564,208.28613 C205.917719,211.284228 208.470432,213.60418 211.563981,213.60418 Z M285.876777,205.247245 L285.876777,207.526409 C285.876777,212.561399 281.802781,216.643065 276.777251,216.643065 L211.563981,216.643065 C206.538452,216.643065 202.464455,212.561399 202.464455,207.526409 L202.464455,205.247245 L285.876777,205.247245 Z" id="Combined-Shape" fill="#4F6B81" fill-rule="nonzero"></path>
                <path d="M28.056872,224.240279 L461.800948,224.240279 C462.638536,224.240279 463.317536,223.560001 463.317536,222.720836 C463.317536,221.881671 462.638536,221.201393 461.800948,221.201393 L28.056872,221.201393 C27.2192838,221.201393 26.5402844,221.881671 26.5402844,222.720836 C26.5402844,223.560001 27.2192838,224.240279 28.056872,224.240279 Z" id="Path-4" fill="#4F6B81" fill-rule="nonzero"></path>
                <path d="M0,222.720836 L14.4075829,222.720836" id="Path-4-Copy-2" stroke="#4F6B81" stroke-width="3.03317536" stroke-linecap="round" stroke-linejoin="round"></path>
                <path d="M469.383886,222.720836 L480,222.720836" id="Path-4-Copy" stroke="#4F6B81" stroke-width="3.03317536" stroke-linecap="round" stroke-linejoin="round"></path>
                <path d="M196.027914,102.99593 C195.566251,102.99593 195.191999,103.370886 195.191999,103.833418 L195.191999,167.632065 C195.191999,168.094597 195.566251,168.469553 196.027914,168.469553 L293.829906,168.469553 C294.291569,168.469553 294.665821,168.094597 294.665821,167.632065 L294.665821,103.833418 C294.665821,103.370886 294.291569,102.99593 293.829906,102.99593 L196.027914,102.99593 Z M196.027914,99.6459776 L293.829906,99.6459776 C296.13822,99.6459776 298.009479,101.520759 298.009479,103.833418 L298.009479,167.632065 C298.009479,169.944725 296.13822,171.819506 293.829906,171.819506 L196.027914,171.819506 C193.7196,171.819506 191.848341,169.944725 191.848341,167.632065 L191.848341,103.833418 C191.848341,101.520759 193.7196,99.6459776 196.027914,99.6459776 Z" id="Rectangle-28" fill="#4F6B81" fill-rule="nonzero"></path>
                <path d="M214.813534,121.55671 L214.63401,114.422067 L213,49.4829275 C213.536619,44.7832186 214.14113,41.5325866 214.813534,39.7310315 C215.822139,37.0286989 216.597738,34.6429439 219.621923,33.8172312 C221.638047,33.266756 241.421261,32.9915184 278.971564,32.9915184 C277.187903,31.8622828 276.088051,32.7032261 275.672008,35.5143483 C275.282311,38.1474612 274.668939,63.0155125 273.831894,110.118502 C273.794169,112.241406 273.736559,115.527382 273.659064,119.97643 L254.528436,135.068472 L250.563685,135.068472 L247.991586,135.068472 L244.090047,131.028001 L234.53436,138.978367 L214.813534,121.55671 Z" id="Path-9" fill="#FFFFFF"></path>
                <rect id="Rectangle-29" fill="#DEDEDE" x="222.72" y="97.5763919" width="43.2" height="14.3710836"></rect>
                <rect id="Rectangle-29-Copy-3" fill="#DEDEDE" x="222.72" y="118.653981" width="43.2" height="3.83228897"></rect>
                <rect id="Rectangle-29-Copy-4" fill="#DEDEDE" x="222.72" y="124.402415" width="43.2" height="3.83228897"></rect>
                <ellipse id="Oval-11" stroke="#4F6B81" stroke-width="3.80976378" fill="#92F6C5" cx="243.84" cy="63.0857912" rx="19.2" ry="19.1614448"></ellipse>
                <ellipse id="Oval-3" fill="#E5FFF2" cx="240.96" cy="59.2535023" rx="9.6" ry="9.58072241"></ellipse>
                <g id="check-mark" transform="translate(236.160000, 56.379286)" fill="#4F6B81" fill-rule="nonzero">
                    <path d="M8.25651255,13.7156286 C7.42954421,14.5895686 6.08771624,14.5895686 5.26114702,13.7156286 L0.620226253,8.81110404 C-0.206742084,7.93758578 -0.206742084,6.51954213 0.620226253,5.64602387 C1.44679547,4.77208382 2.78862344,4.77208382 3.61559178,5.64602387 L6.38066738,8.56773367 C6.58940505,8.78790582 6.92825452,8.78790582 7.1373913,8.56773367 L14.6244082,0.655455035 C15.4509774,-0.218485012 16.7928054,-0.218485012 17.6197737,0.655455035 C18.0168942,1.07513184 18.24,1.64454259 18.24,2.23799512 C18.24,2.83144765 18.0168942,3.40085839 17.6197737,3.8205352 L8.25651255,13.7156286 Z" id="Shape"></path>
                </g>
                <polygon id="Path-6" fill="#4F6B81" fill-rule="nonzero" points="192.267332 103.948305 233.2152 139.655209 235.410393 137.128324 194.462526 101.421421"></polygon>
                <path d="M293.120413,100.661699 L295.315606,103.188584 L254.367739,138.895487 L252.172546,136.368603 L293.120413,100.661699 Z M295.315606,103.188584 L254.367739,138.895487 L252.172546,136.368603 L293.120413,100.661699 L295.315606,103.188584 Z" id="Path-6-Copy" fill="#4F6B81" fill-rule="nonzero"></path>
                <path d="M195.122152,170.123723 L242.212878,134.968123 C243.04178,134.295241 243.915127,133.988972 244.952425,133.988972 C246.008624,133.988972 246.954867,134.308149 247.841144,134.968827 L295.501599,170.129391 L297.484183,167.43185 L249.830421,132.27625 C248.378466,131.193858 246.733573,130.639019 244.952425,130.639019 C243.152374,130.639019 241.533404,131.206767 240.159677,132.325071 L193.124293,167.437518 L195.122152,170.123723 Z" id="Path-5" fill="#4F6B81" fill-rule="nonzero"></path>
                <path d="M279.57456,34.4912702 C280.972883,34.3799775 285.093276,35.6834126 284.205849,39.1799897 L273.12858,39.1799897 L273.12858,118.662011 L276.472238,118.662011 L276.472238,42.5299421 L287.356555,42.5299421 L287.475899,40.9841409 C287.791146,36.9009243 287.100969,34.1026968 285.093276,32.6964328 C283.405804,31.5144646 281.522973,30.9886623 279.508272,31.1413178 L222.985019,31.1413178 C219.323942,31.4320877 216.64766,32.4901098 214.893656,34.3931805 C213.197289,36.2337161 212.275937,38.382863 212.16871,40.7799755 L212.167034,116.82577 L212.167034,120.918175 L215.510691,120.918175 L215.510691,40.8549659 C215.580338,39.3355097 216.181024,37.9343472 217.350185,36.665823 C218.452854,35.4694422 220.330615,34.7210429 223.053822,34.4912702 L279.57456,34.4912702 Z" id="Path-7" fill="#4F6B81" fill-rule="nonzero"></path>
                <rect id="Rectangle-3" fill="#C3C3C3" x="32" y="170.144223" width="65" height="5.98426661"></rect>
                <path d="M391.232227,144.013704 C389.321479,144.013704 387.772512,145.555667 387.772512,147.457774 C387.772512,149.359882 389.321479,150.901845 391.232227,150.901845 L446.587678,150.901845 C448.498426,150.901845 450.047393,149.359882 450.047393,147.457774 C450.047393,145.555667 448.498426,144.013704 446.587678,144.013704 L391.232227,144.013704 Z M391.480801,141.430652 L447.192185,141.430652 C450.653647,141.430652 453.459716,144.321832 453.459716,147.888283 C453.459716,151.454735 450.653647,154.345915 447.192185,154.345915 L391.480801,154.345915 C388.019339,154.345915 385.21327,151.454735 385.21327,147.888283 C385.21327,144.321832 388.019339,141.430652 391.480801,141.430652 Z" id="Rectangle-30" fill="#4F6B81" fill-rule="nonzero"></path>
                <path d="M436.332166,137.398285 L403.099114,137.398285 C400.971104,137.398285 399.188065,138.894328 398.719227,140.904691 L440.712052,140.904691 C440.243214,138.894328 438.460176,137.398285 436.332166,137.398285 Z M443.394573,143.709816 L396.036707,143.709816 C395.901218,143.147932 395.829384,142.560769 395.829384,141.956613 C395.829384,137.88989 399.084153,134.59316 403.099114,134.59316 L436.332166,134.59316 C440.347127,134.59316 443.601896,137.88989 443.601896,141.956613 C443.601896,142.560769 443.530062,143.147932 443.394573,143.709816 Z" id="Combined-Shape" fill="#4F6B81" fill-rule="nonzero"></path>
                <path d="M391.279621,151.307029 L447.393365,151.307029 L440.238776,223.480557 L398.184763,223.480557 L391.279621,151.307029 Z M394.349854,154.098847 L400.720787,220.68874 L437.711465,220.68874 L444.312546,154.098847 L394.349854,154.098847 Z" id="Path-10" fill="#4F6B81" fill-rule="nonzero"></path>
                <path d="M418.578199,196.130589 C412.296287,196.130589 407.203791,191.028506 407.203791,184.734769 C407.203791,178.441031 412.296287,173.338948 418.578199,173.338948 C424.860111,173.338948 429.952607,178.441031 429.952607,184.734769 C429.952607,191.028506 424.860111,196.130589 418.578199,196.130589 Z M418.578199,193.367966 C423.337223,193.367966 427.195174,189.502752 427.195174,184.734769 C427.195174,179.966785 423.337223,176.101571 418.578199,176.101571 C413.819175,176.101571 409.961224,179.966785 409.961224,184.734769 C409.961224,189.502752 413.819175,193.367966 418.578199,193.367966 Z" id="Oval-12" fill="#4F6B81" fill-rule="nonzero"></path>
                <polygon id="Path-13" fill="#4F6B81" fill-rule="nonzero" points="424.425316 175.618112 410.995261 190.574839 413.489376 193.091703 426.919431 178.134977"></polygon>
                <polygon id="Path-11-Copy" fill="#4F6B81" fill-rule="nonzero" points="397.345972 209.235782 439.810427 209.235782 439.810427 205.817036 397.345972 205.817036"></polygon>
                <polygon id="Path-11" fill="#4F6B81" fill-rule="nonzero" points="395.07109 167.451108 445.118483 167.451108 445.118483 164.032362 395.07109 164.032362"></polygon>
                <polygon id="Path-12" fill="#4F6B81" fill-rule="nonzero" points="431.374318 118.077447 425.307968 135.551038 428.530895 136.674167 434.597246 119.200576"></polygon>
                <path d="M36.4486936,164.982014 C33.5651931,164.982014 31.52533,167.341436 31.8906727,170.251931 L37.4048916,216.363704 C37.7356447,219.274199 39.8593143,221.633621 42.1500996,221.633621 L86.2208329,221.633621 C88.5116182,221.633621 90.6352878,219.274199 90.9660409,216.363704 L96.4802598,170.251931 C96.8456024,167.341436 94.8057393,164.982014 91.9222388,164.982014 L36.4486936,164.982014 Z M36.4486936,161.943128 L91.9222388,161.943128 C96.6435759,161.943128 100.081312,165.91829 99.4918974,170.613431 L93.9797457,216.707477 C93.4881205,221.033582 90.2119092,224.672507 86.2208329,224.672507 L42.1500996,224.672507 C38.1590233,224.672507 34.882812,221.033582 34.393254,216.725205 L28.8812031,170.631121 C28.2896204,165.91829 31.7273566,161.943128 36.4486936,161.943128 Z" id="Rectangle-31" fill="#4F6B81" fill-rule="nonzero"></path>
                <path d="M47.4339142,189.424075 C48.0117334,190.036189 48.9763423,190.060413 49.5840449,189.47807 L57.0271685,182.345553 L63.5097559,189.408509 C64.1095152,190.061963 65.1383052,190.06331 65.739768,189.41143 L72.2473309,182.358371 L79.4620503,189.46362 C80.0744923,190.06677 81.0641566,190.040576 81.6439591,189.405872 L87.9404564,182.513154 L93.3703152,189.327966 C93.8928629,189.983796 94.8471276,190.091045 95.5017252,189.567513 C96.1563229,189.043982 96.2633705,188.087921 95.7408229,187.432091 L89.2044249,179.228503 C88.6232786,178.499128 87.5293137,178.462138 86.9004061,179.150597 L80.4675172,186.192622 L73.2583579,179.092848 C72.64803,178.491781 71.6624842,178.51541 71.0815522,179.145039 L64.6290316,186.138442 L58.212963,179.14796 C57.6381282,178.521662 56.6620573,178.490295 56.0483433,179.078399 L48.5896707,186.225816 L41.8936785,179.132394 C41.3066996,178.510576 40.3231705,178.496932 39.7192319,179.102229 L31.5340497,187.305816 C30.9418936,187.899304 30.9420691,188.861362 31.5344416,189.454633 C32.1268141,190.047904 33.0870643,190.047728 33.6792204,189.45424 L40.7616963,182.355838 L47.4339142,189.424075 Z" id="Path-14" fill="#4F6B81" fill-rule="nonzero"></path>
                <rect id="Rectangle-6" fill="#ECECEC" x="25.0236967" y="161.943128" width="78.1042654" height="8.35693482" rx="4.17846741"></rect>
                <path d="M29.9526066,163.462571 C28.4868272,163.462571 27.2985782,164.653057 27.2985782,166.121596 C27.2985782,167.590134 28.4868272,168.78062 29.9526066,168.78062 L98.1990521,168.78062 C99.6648316,168.78062 100.853081,167.590134 100.853081,166.121596 C100.853081,164.653057 99.6648316,163.462571 98.1990521,163.462571 L29.9526066,163.462571 Z M29.9526066,160.423685 L98.1990521,160.423685 C101.340008,160.423685 103.886256,162.974727 103.886256,166.121596 C103.886256,169.268464 101.340008,171.819506 98.1990521,171.819506 L29.9526066,171.819506 C26.8116507,171.819506 24.2654028,169.268464 24.2654028,166.121596 C24.2654028,162.974727 26.8116507,160.423685 29.9526066,160.423685 Z" id="Rectangle-32" fill="#4F6B81" fill-rule="nonzero"></path>
                <g id="Group" transform="translate(37.156398, 60.900189)" stroke="#4F6B81" stroke-width="3.03317536">
                    <path d="M39.2034562,22.9266238 C44.5784617,26.6130353 48.1042654,32.7994798 48.1042654,39.8093986 C48.1042654,44.6670538 46.4111541,49.1292718 43.5828502,52.6381483 C49.3889828,57.5065386 53.0805687,64.8141211 53.0805687,72.9838975 C53.0805687,87.6413133 41.1980787,99.5234965 26.5402844,99.5234965 C11.8824901,99.5234965 0,87.6413133 0,72.9838975 C0,64.1792164 4.28765566,56.3759451 10.888941,51.5480586 C8.55683483,48.2252507 7.18799368,44.1771755 7.18799368,39.8093986 C7.18799368,32.7994798 10.7137974,26.6130353 16.0888029,22.9266238 C14.3176594,20.536864 13.2701422,17.5785673 13.2701422,14.3756162 C13.2701422,6.43618259 19.706491,0 27.6461295,0 C35.5857681,0 42.0221169,6.43618259 42.0221169,14.3756162 C42.0221169,17.5785673 40.9745997,20.536864 39.2034562,22.9266238 Z" id="Combined-Shape"></path>
                    <path d="M17.1406003,36.4666247 C18.0653777,40.9407622 19.716766,44.2199131 22.0947651,46.3040773 C24.4727642,48.3882415 25.9859219,49.1524899 26.634238,48.5968225" id="Path-20" stroke-linecap="round" stroke-linejoin="round"></path>
                    <path d="M27.093207,49.20884 C28.0179844,55.080971 29.6693727,59.3847287 32.0473718,62.120113 C34.4253709,64.8554973 35.9385285,65.8585435 36.5868446,65.1292517" id="Path-20-Copy" stroke-linecap="round" stroke-linejoin="round" transform="translate(31.840026, 57.284179) scale(-1, 1) translate(-31.840026, -57.284179) "></path>
                    <path d="M16.3823065,63.0315478 C17.3070839,68.9036789 18.9584722,73.2074366 21.3364713,75.9428209 C23.7144704,78.6782052 25.227628,79.6812514 25.8759442,78.9519596" id="Path-20-Copy-2" stroke-linecap="round" stroke-linejoin="round"></path>
                    <path d="M27.093207,27.0925074 L27.093207,98.4176799" id="Path-19" stroke-linecap="round" stroke-linejoin="round"></path>
                </g>
                <path d="M275,40.4851127 L275,33.5034683" id="Path-18" stroke="#4F6B81" stroke-width="4"></path>
                <path d="M299,11.578125 L305.777521,0.191894531" id="Path-15" stroke="#557085" stroke-width="3.79200005" stroke-linecap="round" stroke-linejoin="round"></path>
                <path d="M309,21 L316,19" id="Path-15-Copy" stroke="#557085" stroke-width="3.79200005" stroke-linecap="round" stroke-linejoin="round"></path>
                <path d="M286,7.95833333 L286,0" id="Path-15-Copy-2" stroke="#557085" stroke-width="3.79200005" stroke-linecap="round" stroke-linejoin="round" transform="translate(286.000000, 4.000000) scale(-1, 1) translate(-286.000000, -4.000000) "></path>
            </g>
        </g>
    </g>
</svg>