<?xml version="1.0" encoding="UTF-8"?>
<svg width="180px" height="123px" viewBox="0 0 180 123" version="1.1" xmlns="http://www.w3.org/2000/svg" xmlns:xlink="http://www.w3.org/1999/xlink">
    <!-- Generator: Sketch 50.2 (55047) - http://www.bohemiancoding.com/sketch -->
    <title>Group</title>
    <desc>Created with Sketch.</desc>
    <defs></defs>
    <g id="Page-1" stroke="none" stroke-width="1" fill="none" fill-rule="evenodd" opacity="0.326992754">
        <g id="lk-turoperatora-no-routes" transform="translate(-854.000000, -250.000000)" fill-rule="nonzero">
            <g id="Group" transform="translate(854.000000, 250.000000)">
                <polygon id="Path-23" fill="#4F6B81" points="87.8627968 42.314741 87.8627968 108.418327 89.762533 108.418327 89.762533 42.314741"></polygon>
                <path d="M124.726105,113.359613 L124.434426,107.986446 C124.405327,107.45039 124.806353,106.991689 125.330143,106.961908 C125.853933,106.932127 126.302138,107.342544 126.331238,107.8786 L126.692772,114.538608 C126.721871,115.074664 126.320845,115.533365 125.797055,115.563146 C125.747794,115.565947 125.699201,115.564854 125.651562,115.56013 C125.516249,115.582931 125.373967,115.575965 125.233472,115.534298 L99.4720107,107.894109 C98.9681433,107.744674 98.6780465,107.205504 98.8240614,106.689837 C98.9700763,106.17417 99.4969099,105.87728 100.000777,106.026714 L124.726105,113.359613 Z" id="Combined-Shape" fill="#4F6B81"></path>
                <path d="M124.432718,101.582372 L124.432718,103.934716 C124.432718,104.454382 124.857988,104.875654 125.382586,104.875654 C125.907183,104.875654 126.332454,104.454382 126.332454,103.934716 L126.332454,101.582372 C126.332454,101.062706 125.907183,100.641434 125.382586,100.641434 C124.857988,100.641434 124.432718,101.062706 124.432718,101.582372 Z" id="Path-27-Copy" fill="#4F6B81"></path>
                <path d="M170.599957,100.698684 L154.033386,106.774381 C153.53954,106.955496 153.282662,107.512035 153.459633,108.017446 C153.636604,108.522857 154.180409,108.78575 154.674255,108.604635 L171.240826,102.528938 C171.734672,102.347822 171.99155,101.791283 171.814579,101.285872 C171.637608,100.780462 171.093804,100.517568 170.599957,100.698684 Z" id="Path-28" fill="#4F6B81"></path>
                <path d="M25.7450762,101.670795 L9.17850505,107.746492 C8.68465899,107.927608 8.42778105,108.484147 8.60475212,108.989558 C8.78172319,109.494968 9.32552792,109.757862 9.81937399,109.576746 L26.3859451,103.501049 C26.8797912,103.319934 27.1366691,102.763395 26.9596981,102.257984 C26.782727,101.752573 26.2389223,101.48968 25.7450762,101.670795 Z" id="Path-28-Copy" fill="#4F6B81" transform="translate(17.782225, 105.623771) scale(-1, 1) translate(-17.782225, -105.623771) "></path>
                <path d="M60.1916562,93.6182503 L67.2229062,99.4803488 C67.6296268,99.8194401 68.2279368,99.7568948 68.5592692,99.3406499 C68.8906015,98.9244051 68.8294873,98.3120841 68.4227668,97.9729928 L61.3915168,92.1108943 C60.9847963,91.771803 60.3864862,91.8343484 60.0551539,92.2505932 C59.7238216,92.6668381 59.7849357,93.279159 60.1916562,93.6182503 Z" id="Path-29-Copy-2" fill="#4F6B81"></path>
                <path d="M68.4932247,93.719187 L61.015086,99.9241373 C60.5825153,100.283061 59.9461782,100.216857 59.5937872,99.776268 C59.2413962,99.3356785 59.3063946,98.6875452 59.7389653,98.3286218 L67.217104,92.1236715 C67.6496746,91.764748 68.2860118,91.8309514 68.6384028,92.2715408 C68.9907938,92.7121303 68.9257953,93.3602635 68.4932247,93.719187 Z" id="Path-29-Copy-5" fill="#4F6B81"></path>
                <path d="M153.349968,77.1817024 L160.381218,83.0438009 C160.787938,83.3828922 161.386248,83.3203469 161.717581,82.904102 C162.048913,82.4878571 161.987799,81.8755362 161.581078,81.5364449 L154.549828,75.6743464 C154.143108,75.3352551 153.544798,75.3978004 153.213465,75.8140453 C152.882133,76.2302902 152.943247,76.8426111 153.349968,77.1817024 Z" id="Path-29-Copy-3" fill="#4F6B81"></path>
                <path d="M162.12647,77.2826391 L154.648331,83.4875894 C154.215761,83.8465128 153.579424,83.7803095 153.227033,83.33972 C152.874642,82.8991306 152.93964,82.2509973 153.372211,81.8920739 L160.850349,75.6871235 C161.28292,75.3282001 161.919257,75.3944034 162.271648,75.8349929 C162.624039,76.2755823 162.559041,76.9237156 162.12647,77.2826391 Z" id="Path-29-Copy-6" fill="#4F6B81"></path>
                <path d="M46.4047665,122.674484 C46.2121685,122.733401 46.0062721,122.728267 45.8167063,122.65982 L0.633968019,106.345623 C0.182774128,106.18271 -0.0795965974,105.701783 0.0216350111,105.223213 L12.7456002,45.0709624 C12.8629586,44.5161533 13.4178991,44.1818541 13.9488385,44.346125 L49.9534681,55.4858408 L87.7335401,41.4013436 C87.9515073,41.320085 88.1909956,41.3232674 88.4068277,41.4102907 L126.377462,56.7200128 L162.22625,44.3554405 C162.743951,44.176881 163.301769,44.48096 163.445847,45.0202692 L179.515686,105.17252 C179.647893,105.667397 179.381566,106.182229 178.907329,106.348523 L132.382346,122.662719 C132.198979,122.727017 132.000781,122.732365 131.814358,122.678045 L88.0651223,109.930303 L46.4047665,122.674484 Z M2.05548783,104.797215 L46.1570699,120.721037 L87.786622,107.986279 C87.9600455,107.933228 88.1446698,107.931992 88.3187564,107.982718 L132.048226,120.724701 L177.448052,104.805046 L161.87889,46.5269153 L126.655421,58.6758095 C126.443109,58.7490378 126.212339,58.7431041 126.003888,58.6590569 L88.045463,43.3542578 L50.3064838,57.4234354 C50.1135534,57.4953604 49.903044,57.5013674 49.7064971,57.4405564 L14.3845102,46.5120481 L2.05548783,104.797215 Z" id="Path-21" fill="#4F6B81"></path>
                <path d="M87.5765306,1.02251517 C70.3094224,1.63919844 55.9647143,15.3513324 54.3074995,32.8542546 C53.9689288,36.3548391 54.1649434,39.7465971 54.7708069,42.9932531 C54.7708069,42.9932531 54.8242654,43.3741457 55.0024606,44.0996555 C55.537046,46.5301131 56.338924,48.8880197 57.3368168,51.1008244 C60.8116219,59.4804618 68.8482223,73.5009373 86.8815696,88.7547794 C87.9863794,89.6979421 89.6079551,89.6979421 90.7305844,88.7547794 C108.763932,73.5190751 116.800532,59.4985995 120.293157,51.0826866 C121.308869,48.8698819 122.092928,46.5301131 122.627513,44.0815177 C122.787889,43.3741457 122.859167,42.9751154 122.859167,42.9751154 C123.269015,40.7985862 123.48285,38.5676438 123.48285,36.2822881 C123.48285,16.367046 107.284912,0.315143181 87.5765306,1.02251517 Z M88.806077,53.8396236 C79.5042911,53.8396236 71.9666371,46.1673582 71.9666371,36.6994562 C71.9666371,27.2315542 79.5042911,19.5592888 88.806077,19.5592888 C98.1078629,19.5592888 105.645517,27.2315542 105.645517,36.6994562 C105.645517,46.1673582 98.1078629,53.8396236 88.806077,53.8396236 Z" id="Shape-Copy" fill="#FFFFFF"></path>
                <polygon id="Path-22" fill="#4F6B81" points="125.382586 58.0436314 131.009441 121.722634 132.901456 121.547529 127.274601 57.8685259"></polygon>
                <polygon id="Path-24" fill="#4F6B81" points="49.1556728 56.8964143 43.2189974 121.298805 45.1103357 121.481411 51.0470112 57.0790208"></polygon>
                <path d="M54.8725074,113.587145 L78.2463118,106.924764 C78.7516749,106.780717 79.0472516,106.244672 78.9065008,105.727475 C78.76575,105.210277 78.2419712,104.907779 77.7366081,105.051826 L54.3628036,111.714208 C53.8574405,111.858254 53.5618638,112.394299 53.7026146,112.911496 C53.8433654,113.428694 54.3671442,113.731192 54.8725074,113.587145 Z" id="Path-25" fill="#4F6B81"></path>
                <g id="placeholder-(6)" transform="translate(53.142480, 0.000000)" fill="#4F6B81">
                    <path d="M34.4009229,0.0509949984 C54.5965634,-0.673865672 71.2902375,15.7658736 71.2902375,36.2822881 C71.2902375,38.6058325 71.0750636,40.8985163 70.6510693,43.1499311 C70.6409074,43.2068195 70.621188,43.3108268 70.5913452,43.4591319 C70.542444,43.7021488 70.4822917,43.9837908 70.4120428,44.2934954 C69.8650961,46.79871 69.0611074,49.2069878 68.0249574,51.4627073 C63.0371185,63.4815248 53.5405536,76.5377118 38.1907971,89.5061453 C36.7168689,90.7444472 34.5868833,90.7444472 33.1339503,89.5040832 C17.7895848,76.5247664 8.28686118,63.4585037 3.33188995,51.5081846 C2.28357554,49.183571 1.47160606,46.760511 0.938769671,44.3366385 C0.797067219,43.7597063 0.719469699,43.3549169 0.695321406,43.1756125 C0.051835133,39.7273461 -0.117712891,36.2478428 0.219579494,32.7604967 C1.92239504,14.7759545 16.6539432,0.684816557 34.4009229,0.0509949984 Z M34.4673424,1.99402945 C17.6701881,2.59392864 3.7211381,15.9365852 2.11026808,32.9500094 C1.79105298,36.25047 1.9514849,39.5428906 2.56854513,42.8550401 C2.65078626,43.3029769 2.70729921,43.5618268 2.78666041,43.8861719 C3.29509713,46.1977462 4.06361123,48.4911276 5.0687236,50.7210597 C9.9168546,62.4125299 19.2351072,75.2251445 34.3475333,88.008284 C35.1009151,88.6514369 36.2140809,88.6514369 36.983393,88.005114 C52.095435,75.2375118 61.4073974,62.4351223 66.2909456,50.6693577 C67.2824554,48.5092797 68.041357,46.2360567 68.5597458,43.8617962 C68.6281025,43.5602941 68.6848908,43.294403 68.7306557,43.0669722 C68.7576126,42.9330086 68.7746459,42.8431688 68.7839801,42.7911612 C69.1868884,40.6514903 69.3905013,38.4819881 69.3905013,36.2822881 C69.3905013,16.8678591 53.5899746,1.30768114 34.4673424,1.99402945 Z M35.6635968,52.867512 C44.4419396,52.867512 51.5531687,45.629287 51.5531687,36.6994562 C51.5531687,27.7696254 44.4419396,20.5314004 35.6635968,20.5314004 C26.885254,20.5314004 19.7740249,27.7696254 19.7740249,36.6994562 C19.7740249,45.629287 26.885254,52.867512 35.6635968,52.867512 Z M35.6635968,54.8117351 C25.8383679,54.8117351 17.8742888,46.7054294 17.8742888,36.6994562 C17.8742888,26.693483 25.8383679,18.5871772 35.6635968,18.5871772 C45.4888257,18.5871772 53.4529048,26.693483 53.4529048,36.6994562 C53.4529048,46.7054294 45.4888257,54.8117351 35.6635968,54.8117351 Z" id="Shape"></path>
                </g>
                <path d="M11.6645499,51.063745 C10.9454784,56.8071306 11.680478,61.4468493 13.9071009,64.9534707 C14.4156213,65.7543196 15.0356182,66.5794676 15.9006595,67.6357762 C16.249178,68.0613549 17.7974196,69.9048773 18.206581,70.404751 C22.2558382,75.3517403 23.9550819,79.0721211 23.4878662,83.9602769 C22.549733,93.7753183 28.2019666,102.402351 36.3794229,103.414642 C41.8194847,104.08807 45.5669465,102.682771 47.4071618,99.126681 L45.7283294,98.216749 C44.3101757,100.957234 41.3414641,102.070501 36.6075483,101.484487 C29.533302,100.608763 24.534625,92.9792572 25.3785781,84.1495563 C25.906937,78.6217011 24.0086306,74.4654856 19.6628683,69.1562552 C19.2434491,68.6438495 17.6950094,66.8000913 17.356654,66.3869229 C16.5367283,65.3857053 15.9587427,64.6164696 15.5000345,63.894068 C13.5456299,60.8161525 12.882728,56.6315538 13.5488808,51.3108417 L11.6645499,51.063745 Z" id="Path-31" fill="#4F6B81"></path>
                <path d="M47.887037,92.2986329 C51.7293235,79.2930914 56.0279033,73.7426795 60.5349306,75.098773 C66.0160176,76.7479457 70.0339675,76.7479457 72.5975672,74.9710147 L71.5322551,73.3612511 C69.5505876,74.7348222 66.0604983,74.7348222 61.070774,73.2334928 C55.1069899,71.4390841 50.1888811,77.7894441 46.0686016,91.7359486 L47.887037,92.2986329 Z" id="Path-32" fill="#4F6B81"></path>
                <path d="M105.129044,74.737607 C105.402513,74.8760944 105.523275,75.3362739 105.366621,75.5964396 C105.390396,75.5569548 105.565903,75.4136236 105.847503,75.2580741 C106.648003,74.8158961 107.861351,74.4787153 109.101968,74.409056 C112.444384,74.221383 115.141995,75.8194698 116.453476,79.6582171 C118.815804,86.5728309 123.222783,89.9026634 129.501813,89.4366208 L129.364398,87.4974907 C123.987137,87.8966021 120.33879,85.1399783 118.246757,79.0165256 C116.638035,74.3077419 113.139538,72.2352038 108.997897,72.4677524 C107.48388,72.5527628 105.997726,72.9657548 104.945185,73.5471543 C104.396534,73.8502167 103.983491,74.1875356 103.749308,74.5764582 C103.326839,75.2780795 103.54356,76.1039264 104.286516,76.4801667 L105.129044,74.737607 Z" id="Path-33" fill="#4F6B81"></path>
                <path d="M164.063017,50.5776892 C154.084274,52.3484857 146.98667,57.7128041 142.860467,66.6177046 C141.274181,70.0411237 140.477887,73.3023379 140.29722,76.6212635 C140.160958,79.1244453 140.332206,81.1661151 140.836759,84.6633253 C141.640566,90.2347489 141.657083,92.0356482 140.494667,94.4790533 C138.309931,99.0713817 135.026357,102.103685 130.60686,103.623539 L131.211976,105.466495 C136.122954,103.777622 139.798895,100.382977 142.202714,95.3301357 C142.9875,93.680512 143.313893,91.9464533 143.295424,89.9326917 C143.281965,88.4653532 143.178979,87.587553 142.71612,84.3793366 C141.693884,77.2939144 141.917237,73.1908403 144.576979,67.4507599 C148.434368,59.1259957 155.007814,54.1578315 164.387581,52.4933275 L164.063017,50.5776892 Z" id="Path-34" fill="#4F6B81"></path>
                <path d="M88.8126649,57.630915 C100.094725,57.630915 109.234828,48.3275829 109.234828,36.849322 C109.234828,25.3710612 100.094725,16.0677291 88.8126649,16.0677291 C77.5306047,16.0677291 68.3905013,25.3710612 68.3905013,36.849322 C68.3905013,48.3275829 77.5306047,57.630915 88.8126649,57.630915 Z M88.8126649,59.5751381 C76.4837187,59.5751381 66.4907652,49.4037252 66.4907652,36.849322 C66.4907652,24.2949188 76.4837187,14.123506 88.8126649,14.123506 C101.141611,14.123506 111.134565,24.2949188 111.134565,36.849322 C111.134565,49.4037252 101.141611,59.5751381 88.8126649,59.5751381 Z" id="Path-Copy" fill="#4F6B81"></path>
            </g>
        </g>
    </g>
</svg>