<svg id="Слой_1" data-name="Слой 1" xmlns="http://www.w3.org/2000/svg" viewBox="0 0 792.55 434.92">
  <defs>
      <filter id="filter0_d" x="0.682861" y="0.718994" width="1293.66" height="743.57" filterUnits="userSpaceOnUse" color-interpolation-filters="sRGB">
          <feFlood flood-opacity="0" result="BackgroundImageFix"/>
          <feColorMatrix in="SourceAlpha" type="matrix" values="0 0 0 0 0 0 0 0 0 0 0 0 0 0 0 0 0 0 127 0"/>
          <feOffset dy="8"/>
          <feGaussianBlur stdDeviation="19"/>
          <feColorMatrix type="matrix" values="0 0 0 0 0.419608 0 0 0 0 0.333333 0 0 0 0 0.223529 0 0 0 0.4 0"/>
          <feBlend mode="normal" in2="BackgroundImageFix" result="effect1_dropShadow"/>
          <feBlend mode="normal" in="SourceGraphic" in2="effect1_dropShadow" result="shape"/>
      </filter>
      <filter id="filter1_d" x="731.395" y="245.928" width="23.5333" height="26.4306" filterUnits="userSpaceOnUse" color-interpolation-filters="sRGB">
          <feFlood flood-opacity="0" result="BackgroundImageFix"/>
          <feColorMatrix in="SourceAlpha" type="matrix" values="0 0 0 0 0 0 0 0 0 0 0 0 0 0 0 0 0 0 127 0"/>
          <feOffset dy="7"/>
          <feGaussianBlur stdDeviation="2"/>
          <feColorMatrix type="matrix" values="0 0 0 0 0.503215 0 0 0 0 0.230473 0 0 0 0 0.129457 0 0 0 0.449926 0"/>
          <feBlend mode="normal" in2="BackgroundImageFix" result="effect1_dropShadow"/>
          <feBlend mode="normal" in="SourceGraphic" in2="effect1_dropShadow" result="shape"/>
      </filter>
      <filter id="filter2_d" x="931.861" y="533.928" width="23.5333" height="26.4306" filterUnits="userSpaceOnUse" color-interpolation-filters="sRGB">
          <feFlood flood-opacity="0" result="BackgroundImageFix"/>
          <feColorMatrix in="SourceAlpha" type="matrix" values="0 0 0 0 0 0 0 0 0 0 0 0 0 0 0 0 0 0 127 0"/>
          <feOffset dy="7"/>
          <feGaussianBlur stdDeviation="2"/>
          <feColorMatrix type="matrix" values="0 0 0 0 0.503215 0 0 0 0 0.230473 0 0 0 0 0.129457 0 0 0 0.449926 0"/>
          <feBlend mode="normal" in2="BackgroundImageFix" result="effect1_dropShadow"/>
          <feBlend mode="normal" in="SourceGraphic" in2="effect1_dropShadow" result="shape"/>
      </filter>
      <filter id="filter3_d" x="693" y="603" width="23.5333" height="26.4306" filterUnits="userSpaceOnUse" color-interpolation-filters="sRGB">
          <feFlood flood-opacity="0" result="BackgroundImageFix"/>
          <feColorMatrix in="SourceAlpha" type="matrix" values="0 0 0 0 0 0 0 0 0 0 0 0 0 0 0 0 0 0 127 0"/>
          <feOffset dy="7"/>
          <feGaussianBlur stdDeviation="2"/>
          <feColorMatrix type="matrix" values="0 0 0 0 0.503215 0 0 0 0 0.230473 0 0 0 0 0.129457 0 0 0 0.449926 0"/>
          <feBlend mode="normal" in2="BackgroundImageFix" result="effect1_dropShadow"/>
          <feBlend mode="normal" in="SourceGraphic" in2="effect1_dropShadow" result="shape"/>
      </filter>
      <filter id="filter4_d" x="439.394" y="473.928" width="38" height="38" filterUnits="userSpaceOnUse" color-interpolation-filters="sRGB">
          <feFlood flood-opacity="0" result="BackgroundImageFix"/>
          <feColorMatrix in="SourceAlpha" type="matrix" values="0 0 0 0 0 0 0 0 0 0 0 0 0 0 0 0 0 0 127 0"/>
          <feOffset dy="4"/>
          <feGaussianBlur stdDeviation="2"/>
          <feColorMatrix type="matrix" values="0 0 0 0 0 0 0 0 0 0 0 0 0 0 0 0 0 0 0.25 0"/>
          <feBlend mode="normal" in2="BackgroundImageFix" result="effect1_dropShadow"/>
          <feBlend mode="normal" in="SourceGraphic" in2="effect1_dropShadow" result="shape"/>
      </filter>
      <filter id="filter5_d" x="1085.39" y="306.928" width="38" height="38" filterUnits="userSpaceOnUse" color-interpolation-filters="sRGB">
          <feFlood flood-opacity="0" result="BackgroundImageFix"/>
          <feColorMatrix in="SourceAlpha" type="matrix" values="0 0 0 0 0 0 0 0 0 0 0 0 0 0 0 0 0 0 127 0"/>
          <feOffset dy="4"/>
          <feGaussianBlur stdDeviation="2"/>
          <feColorMatrix type="matrix" values="0 0 0 0 0 0 0 0 0 0 0 0 0 0 0 0 0 0 0.25 0"/>
          <feBlend mode="normal" in2="BackgroundImageFix" result="effect1_dropShadow"/>
          <feBlend mode="normal" in="SourceGraphic" in2="effect1_dropShadow" result="shape"/>
      </filter>
      <filter id="filter6_d" x="881.395" y="438.928" width="38" height="38" filterUnits="userSpaceOnUse" color-interpolation-filters="sRGB">
          <feFlood flood-opacity="0" result="BackgroundImageFix"/>
          <feColorMatrix in="SourceAlpha" type="matrix" values="0 0 0 0 0 0 0 0 0 0 0 0 0 0 0 0 0 0 127 0"/>
          <feOffset dy="4"/>
          <feGaussianBlur stdDeviation="2"/>
          <feColorMatrix type="matrix" values="0 0 0 0 0 0 0 0 0 0 0 0 0 0 0 0 0 0 0.25 0"/>
          <feBlend mode="normal" in2="BackgroundImageFix" result="effect1_dropShadow"/>
          <feBlend mode="normal" in="SourceGraphic" in2="effect1_dropShadow" result="shape"/>
      </filter>
      <filter id="filter7_d" x="153.394" y="460.928" width="38" height="38" filterUnits="userSpaceOnUse" color-interpolation-filters="sRGB">
          <feFlood flood-opacity="0" result="BackgroundImageFix"/>
          <feColorMatrix in="SourceAlpha" type="matrix" values="0 0 0 0 0 0 0 0 0 0 0 0 0 0 0 0 0 0 127 0"/>
          <feOffset dy="4"/>
          <feGaussianBlur stdDeviation="2"/>
          <feColorMatrix type="matrix" values="0 0 0 0 0 0 0 0 0 0 0 0 0 0 0 0 0 0 0.25 0"/>
          <feBlend mode="normal" in2="BackgroundImageFix" result="effect1_dropShadow"/>
          <feBlend mode="normal" in="SourceGraphic" in2="effect1_dropShadow" result="shape"/>
      </filter>
      <linearGradient id="paint0_linear" x1="735.395" y1="245.928" x2="735.395" y2="261.359" gradientUnits="userSpaceOnUse">
          <stop stop-color="#FBD100"/>
          <stop offset="1" stop-color="#F6A400"/>
      </linearGradient>
      <linearGradient id="paint1_linear" x1="935.861" y1="533.928" x2="935.861" y2="549.358" gradientUnits="userSpaceOnUse">
          <stop stop-color="#FBD100"/>
          <stop offset="1" stop-color="#F6A400"/>
      </linearGradient>
      <linearGradient id="paint2_linear" x1="697" y1="603" x2="697" y2="618.43" gradientUnits="userSpaceOnUse">
          <stop stop-color="#FBD100"/>
          <stop offset="1" stop-color="#F6A400"/>
      </linearGradient>
    <style>
      .cls-1 {
        fill: #F7F5F2;
        stroke: #979797;
        stroke-width: 0.5px;
      }
    </style>
  </defs>
  <g filter="url(#filter0_d)">
    <path id="KZ-AKM" class="cls-1" d="M381.52,110.14l2.86.17,1.51,3.16,2.65-1.18,3.38-.52.13,2.81h5.68l1.8,1,2,.25,1.13-.65,3.75,1.33-.2-6.1,3.94-.11,1,1.3,2.53,1,1.87,1.72.48.27,1-1-.46-.64.54-.94.7.54L420,110.1l-.2-.87-1.09-.44-.39-2,2.58.05.69-1.54.76-.44,2,.26.45-1.44.49-.08.34-1.7,1.27-.77.74-.07.3-1.09.61,0,.78-.8.48.16,1.51-.76-1.51-1.72,1,.2L430,94.22l2.73-2.52-1-1.44.63-.2.06-1.24-.31-1-1.23-.1.23-2.1-2-.16-.56-1.16-1-.33-.08-1-1.28-1.85.54-.83.75-.07L428,80l0-.75.9-.68.47.54L429.9,78l-.87.05L429,76.57l2.61.07.4-.47-.47-.54.15-.49-.58-.92,1.37.1.16-.74,1.74.13.08.89,2.5-.18-.05-1.52,1.74.14.05,1.27,1.11.22.21.77.74.19.32,1,0,1.39,1.22.35.57-1.33-1-.21-.3-1.4.75-.07.33-1.49,1,.21.42-.85L445,73l.67-.71,3.85.06.17,1.4,1,.34.2,3-.43,1,.6.3.4-.59,2.2.56,1.27-.52.16,1.64-.77.44.2.78-.75.06.07.88-.53.47,3.47-.09.27-.47.62,0,.09.51,1.81,2.28.26,1.4,1.72-.23-.33-2.15,1.61-.24.43-2.47,7.49-.21-.07.88.24,0-.26,1.73,2.86.51.19.53,1.57,0,.67-.69.49-.08.42-.58,1.1-.16.59-1.2,1.81,0-.11,1.12,3.68,4-.71,1.07-.57,2.08.57,1.56-1.13.51,0,1,.86,1,.24,1.15,5.17.65,4.2-.32.83-2.17,3.42-.76.76.71,1.65-.82,1.92,0,.57-.82.6-.05.37.94V94.5l.75.85.49,5.25,2.27-1,3.39,1.72,2.41-.05.22,1.17,1.32-.06,1.27,2.44,6.86.51h0l.05.51.93.14L523,124.2l.37.79-1.09.21-2.49,2-.56.66-.09,5.37,3.25-1.6.9,2.09,2.09.19,1.73,1-.44.67-.95.1-.69.87-1.81-.51-4,2.58-.26,2-1.92,2.26h0l-3-.9-1.15,1.77-.51-1.51-.48.17.28.52-1.45.41-.48-.79-.86.36-.29,1.41.78.35,1.09,2.44-.18.57.64.45.95-2,.91.13,2.31,1L513,149.76l-4.71,1.52.63,1.52-1,.47-1.52.16-.72,1.22-2.86-1.21-1,1.9-.7.16-.17.46.51.54-1.2,1.4-2.56.16-.11.94-.65-.32-.9.84.5.66-1.29,1.14,1.92,1.3-1.47.77-2-1.31-.7,1.09-1.31.44.39,2.65-1.19.33.25.86-2.22-1.69-3.72.39-.44.89-1.1-.36,1.62-2.29-.32-1.33.54-.77-.16-.61-.54-.3,1.21-1.63-2-1.78-1.28.09-.24-1-1.2.46-.26-.86-.82.15,0,.71-2.65,1.13-.5,2.66-1.27,0-.57,1.12-1.59-.17-1.39,1.15.37.86-2.34,1.64-1.26,0-.27.44-1.17.24-.23,5.84L466,170.14l-3.82,1.72,1.1,2.8-.57,1.11-2,.26-2.55,1.62-1.43.68-1.09-.57.07-2,1.58-2.3-.37-.85-.83.27-.54-1.57-5.52,1.6-.79-.07-.6.3-.78-.19-1,.26.43-2.29-1-.09-.52-.63-.67-1.59-.47.08-.54.88-.33-1.55-2.41,1.31.63,2-1.46.92-.79-.06-.52-.63-.18.8.52.63-.22,1.26-.47.07-.76-.64-2.28,1.2-2.3-1.47-1-.08-.29-.72-1.42.47-.61-1.09,1.27-1.41.74-3.45L433,166l-.39-2.38.86-.52.25-6.21-5.5.16-.55,1-2.16.78-3.85,2.89-1.67-1.3-2.51.53-1-.19,1.19,1.61.13,1.54h0l-2.11,1.61-7.73,1-4.18,2.65-2.52-3.9,2-1.17L402,161.2l-1.52-.56-4.39,1.28-4.73-1.68-1.4-1-2.2.58-.92-3.7-1.36.64-.58-.5-.86.42,0-1.06-.62.56,0-1.18-.2-1.08-3.32-2-1.1,3.6-3.53.4-.68-1.45,1.17-5.51L372,145.35l1-.9-1.52-2L374,140.2l-.84-.65,1.5-4.35-1.61-3.35-2.22-.12-.89-3.07,3.08.3,4.65-2.39.73-3.22.78-4.57,2.17-1.82Z"/>
    <path id="KZ-AKT" class="cls-1" d="M257,283.77l-1.51.8-1.85.39-.88.58-.78,1.08-.88,1.85-.68,2-.1,1.75-.78.39-.58,1,0,.76-7.23,2-25.58,8.09h0l-2.55-18.77-1.6-4.42h0l-1.46-2.86.33-1.08-2.09-2.7-.22-3.38-10.41-3.1-3.6-1.5-5.32-5.35-1.1-4.29-2.65-3.34,1.4-10.68.68-4.15-1.2-2.05-.39-4.94-2.76-3.09.64-2.43-1-4.23-.68-1.15.58-4.23.52-.41-.08-4.28-3.18-.27v-1.13l-1.33-1-.58,1-1.16-.3.05,1.58-.44,2.33-1.93-.19-1.07-.54-4.22-.45.71-1.81-.76-1.72.51-1.55-1.23-6.25-.93-.22-.8,2.06L165.7,203l.26-.72-2.15-1-1.4-1.3h0l-.16-2.53,1.17-4-.62-1.42,1.1.55.72-1.84,1.37-1.23h1.73l.32-1.32,2.19,0,1.51.27,1.74-1-.41-.76,1.23-1.55.37-1h2l-1-1.27,1.71-3-.06-.81.79-1.61-.23-1.39-1.2-.57-.05-.7-.84-.26-.06-2.34.33-1.92-1.33-1.85,1.89-2-.3-.79,2.24-2.66-.27-.39h0l.55.36.33-.12,1-1.61.64-.36.35-.58-.29-1.25-.71-1.63-.29-2,.54-1.14.36-1.2.53.19.43-.05.61.34h.29l.23-.16.16.15.09.53.41.13.29.46.37-.15,0-.54.41-.1.11-.25.29,0,.15-.21.45,0,.23.11.43-.55-.09-.56.76-.37.57.34.33.39.09.66-.12.32-.57.72-.14.36.14.35.5.46.85.54,3.71,3.48.32.13.55-.52,1.44.08.36.86,1.14.59,1.82,1.41h.34l.38-.32.36-.83,1.42-.83.88-.26,1.93-1L204,158l1-.73.67-.26.23-.25.09-.3-.11-.89,0-.92.69-2.3.28-.4.36-.13,1.48.76h1.09l.5-.45.19-1.23.26-.13.82.17.32-.22.1-.44-.26-1.19v-.85l.59-.68.09,0,.45.57.16.57.94.51.84,1.14.84,0,.84.46.22-.18.14-.76-.36-1-.16-1,.11-.08,1,0,.36-.13.44.05.91.73.36.07,1-.61.34.16.38.4.43.09,1.8-.68,1-.55.34.38.31,1.08.57.46.68.28.46.77,0,1,.55.71,1.61,1.09,1.22.36.3-.11.05-.2-.25-.6.07-.22,1.47-.7h.9l.48.89.75-.33.27-1,.12-3.55.15-1.27.43-.22.7-.05.41.64.55.4.28,0,.22-.28.46-.11.33.66.78,0,.23.34.87-.81.26,0,.43-.36.2.31-.07.6.16.41,1.33.31.1-.09-.11-.3.08-.25.47-.11.18-.25-.13-.81.43-.2.3-.31.15.08.16-.16.15.09.2-.3.6.25.55,1.72.26.35.46.08,1-.24.88.1.71.15.35.4.68,1.42,0,.38-.36.49-.26,1.07.13,1.83.45,1.36.41.25.55.05,1.55-.58.68.05.21.3-.21.89.14.59,1.22.58.36,1,.57.44,1,.14.77-.22.42,0,1.27.46,2,.23.47.19.3.48.34.1.42-.36,1.52.36,1.2-.33h.35l1.12,1.54v.22l-.38.17,0,.16,0,1.68,0,.22.2,0,1.4-.71,3.11-.79.83-.44,1.16-1.93,1.87-4.89.53-.77.62-.26,1.2.17.79.41.17.26,0,1.28,2.16,2.7.68.38,2.14.26,1.92.15,1.84-.1,1.09.22,1.37,0,1.76-.63,1.42-.07,7.42-3,.42-.36.27-.74.53-3.48,1.61-8.1,1.49-.5h0l1.18.57,1.3-.57.79-1.39,1.24,1.92.16,1.8.88,2.95,1.44.57.94-1.31.47-.35,2.63,1.58v1.09l-.59.1-.59,2.05,3.19,3.11-2,1.4.36,1.57v1.68l2.48-.78,1.62,8.27,2.34,3.73.36,1.42,3.86,5.77.35,1.42-.86,3L322.68,180l-2.83,2.51-.26,2.92-2.8,1.71.57,3.15.57.82-2.09-.72-1.51,2,.92,1,3.24,5.48-.58.45-.35-.35-2.65.43-.46,1.27,2.3-.21,1.27,4.39L323,209.7l3.83-2.09,1.84,1.64.11,1-1.18,1.57.68,2.29,5.78,2,1,1.16,2.89,1.09,2.87,2,3.82,7.3h0l3.25,5.68,1.61.72-3.93,4.33L324.68,253h0l-1.33.43-.78-1.11-5.1-.79.77-1.77-4.89-6.22-2.22.34-1.46-2.78-3-4.56L295.87,239l-6.1,16.32-7.42-.61-.51,5.62-5.44.45-7.14,6.63-1.5,2.34-2,2.24-3.9,5.85Z"/>
    <path id="KZ-ALM" class="cls-1" d="M601.33,251.7l2.12,1.38.88,1,2.23.2.87,2.23,7.89-.88,5.56,7.8,8.44-2.95,3.79,1.57L633,263.9l6.07,2.66,5.15,2.88,5.51.14,1,1.51h0l.84,0,1-.65h0l.52,1.3.57.67.79-1.12H655l-.67,1,.59.13h0l.62,0,.62.47.57-1.06.42,0-.33.89h0l-.89.67.25.27.78-.16-.63.83,5.87,6.89h0l1.39,5.25,2.87,3.13-.55,3.83.22,1.44.65.57,1.83-.66h0l.3.41,1.56.94.66.58,3.07.66.25.35.47,1.81-.68,3.22-1.88,2.77-.94-.66-2.24-2-.95-.24-1.43.3-1,.41-1.7,1.17-1.13.11-.52-.3-.31-.92-.17-.09-.95.25-.46-.14-.12-1-.2-.39-.22-1.15-.66-.5-.34-.59-.75-.41-.17.27-.36.18-.58-.14-.85.68-.26.5-.66.16-.26.36-.47.28-.88.15-.27-.48-.11,0-.85.8L652,302l-.19-.16-.54.51-.88.15-.35-.11-.13.18-.67.21-.26.48-.19,0-.85-.26,0,.3-.26.28,0,.32-.19.21-.36,0-.69.24-1.13,0-1.08.92-.65.06-.66-.42-1.16-.33-.4-.4-.13.05-.1.54-.35.32-1.6.68-.84-.11-.8.12-.36-.28-.41.09-.44.37-.32.88-.82.57h-.69l-.36-.47-.24-.07-.5.19-.67.56-.42.14-.78,0-.44-.4-.61.05-.59-.16-.15.25.22.5-.05.23-.26-.15-.26.05-1,1.12-1.8,1.14-.28.32-.46.14-.2.32.2.22.47-.34h.39l.58.39.47.06.52,1.54.72.39,1.43-.22.57-.51,1.33.19.63-.47.45.05.27.31-.1.31.16.08.76-.22.42.83,1.46.73.63.61.09.66-1.51.51-.72.73.76,1.17-.23.51-.47,2-.38.68.36,1.2.35,2.79.36,1v2l.26,1.68.53,1.32-.12.51,0,.25.26.33,0,.69.93,2.05-.05.75.29,1.34.33.24.91,2,2.24,5.66.27.36.24.86-.21.74,0,.47-.45.46-.88,1.88,0,.17.21.26,1.24-.08.25.11,0,.68.36.73,0,.61.31.74-.4.75-.56,0-.41.35-.46-.27-.49-.09-1.34.38-1.61,1.33-1.63.47-.37.43v.76l.28.53.58.57.81.53,1.51.39.39.68,0,.11-.19,0-.5.27-.2-.21-.07.21-.31.12-.29-.13-.12.26-1.3.55v.24l-.39.26-.27-.1-.47.19v-.2l-.49.19-.09-.26h-.16l-1,.16-.05.73-.29.73-.36,1.51-.63.61-.27,1,.18,1,.57,1.18.53.49.48,0,.19.22-.34.39-.75.37-.11.54,0,.8.37.52,0,1.3.83.59-.21.72.43.59-.16.88-.58.34-.33,0-.32-.26h-.21l-.51.42-.27-.05-.47.33-.14-.08-.12-.41.15-1.19-.33-.5-.29-.83-.41-.26-.69-.17-.71-.68-.29-.84-.26-.46-.21-.14-1.06-.07-.16.36-.24.06-.14-.17V371l-.13,0-.78-.06-.28-.18-.43.06-.24-.38-1.42-.23-.86.6-.76-.13-1.12,0-.45-.75-1.59-1.28-.43-.94-.22-.21-1-.8-.84-.23-.33-.43-.26-.1-.73-1.28-.18-1,.08-.45.21-.29-.11-.1h-.43l-.95.31-.28.61-.18.12-.54-.7-.32-.18-.69.08-.51-.19-.5.15-.48-.33-.93-.18-.46-.25-.47,0-.53-.46-.54,0-.26-.19-.66.24-.5-.68-1.82-.42-.4-.64-.68-.26-1.54.64-.57-.21-.3.59-.44.14-2.71-.62-.36.57-.88-.16-.43.14-.43.48-.35-.5-.32-.19h-.27l-.67.41-.57-.61-.56.17-.66-.32-.61,0-.32-.14-.53-.6-1.45.09-1.09-.24-1.06,0-.93-.35-.86.1-.55-.2-1.88.49-1.49,0-.65-.2-.52-.72-.32-.19-1.58-.16-.78.13-2-.53-1.47,0-.78.76-.83.12-.29.76-.28.23-2-.18-.73.07-.92-.22-.51.72-.72.07-1.72.49-.43,0-.14-.12-.27-.83-.56-.33-2.37-.1-1.75.33-.22-.1-.28-.39-.82-.09-.59-.49-.56.27-.59-.17-.86.44h0l-.14,0-.18-.86-.92.4-1-.62-1.72.19h0l-.2-.39,1-.31h0l.47-1-3.34-1.58-1.72-.36-.42-1.73-.68-.3.25-1-.68-.4.2-2.06,2.35-2.86L547,345.3l-2.65.33.26-.85-1-.13-.6.41-3-1v-1.57l3.88-3.69.68-.32.42-1.14-.41-1.76.78-.9.4-1.06-.08-3-1.84-1.26-1-1.36-1.1-.16h0L540,326.2l-.3,0h0l-4-.43-3.38-3.24-.57-.9.81-3-1.7-2.93-5.69-4-.35-1.09-.69-.83-.15-3-5-.13-.32-4.66,5.36.39-1-2.55-.77-9.31,1.69-2.85h0l1.42-3.11L527,282h0l2-2.29,3.77-3.87,4.83-4.36,10.14-5.83,4.22.85,5.42-1,6,1.07,0,.75h0l1,.27,1.21-1.43h0l.49,1.49.55-.67,1.61.58.56-1.31,1.15.18,1.63.48,2.69,1.2-1.92-1.93,1.23-.23,1.87,1,1.76-.25,1.77.94.58,1.5,1.33-.2,0-1.62,5.37-.6-.77-13.39h0l.48-.89,4.58,1,2.6-2.92,2.26,2.38h0l2.86-3.64Z"/>
    <path id="KZ-ATY" class="cls-1" d="M94.2,278.15l-.13.11-.27-.06-.55-1.14-.18-.1.15-.17-.49-1.09-.09-.73-.41-.45-.06-.21.1-.15.27-.1,1,.38.88,1,.3,1.13ZM162.4,200l1.4,1.3,2.15,1-.26.73,1.08.54.8-2.06.93.22,1.23,6.25-.51,1.55.75,1.72-.7,1.81,4.21.45,1.07.54,1.93.19.44-2.33,0-1.58,1.16.3.57-1,1.34,1v1.13l3.18.27.08,4.28-.52.4-.58,4.23.68,1.15,1,4.23-.64,2.43,2.76,3.09.39,4.94,1.2,2.05-.68,4.16-1.4,10.67,2.65,3.35,1.1,4.29,5.32,5.35,3.6,1.5,10.41,3.1.22,3.38,2.09,2.69-.33,1.08,1.45,2.86h0l-1.59-.95-1.39.1-.83-.78-1.22.63-1.88-.57-.47-1.42-.78-.35-.9.62L202,278l-1.32-.38-.29-.81.28-1.4-.61-1.83-.87-.12-.51.27-.27.46-.52.16-1.15-.71-2.14-3-4.18,4.14-2-.27-7,.73L178,276.51l-2.68.06-1.64.66-1.15.27-1.09-.05-1.26.29-.36.58L167.1,278l.25,1.13-1,1.83-4,3,1.86,1.09-1.15,1.1-1.8,1.09-2.14.92-1.27.17-1.19.78-2.74-.36-.57,1.41L151,290l-4.06-1h0l0-.23.67.11.32-.14-.68-.24-.11-.23.06-.61.37-.16-.05-.42.17-.15,1.37-.14-.72-.42-.12-.38.24-.25.72-.19-.39-.44-.25-.63-.43-.35-.1-.32.16-.16h.78l.26-.47-1-.87-.36-.14-.54-.64.37-.49h.62l-.63-.31-.07-.36-.25-.08.19-.31,0-.36.5-.38.78.1-.28-.47.27-.18-.37-.13-.05-.25.62-.34.44-.73.36.41-.05-.36.12-.35-.11-.12-.25.08-.17-.29.24-.38.05-.51.4-.57.06-.69,1.09-1.18.49-.16-.47-.17,0-.16.57-.08.1-.14-.37-.21-.36-.57-.76-.68.26-1.39-.21-.93.67-.65-.7-.26.25-.6-.35-1.27L150,266l-.25.13-.26-.13-.4.27-.24-.11.21-.41.32-.1-.57-.58-.19.07-.15-.1.15-.63.34-.26-.22-.46-.36-.15-.11.06-.43.7-.88.52-.48.77,0,.66-.3,0-.31-.22,0-.46-.16-.27.07-.3.24-.24-.11-.39-.32-.21-.34.14-.23.29-.18-.05,0-.68.15-.23-.32-.11-.06-.26-.73-.29-.1-.16.08-.16.33.09.38-.43-.16-.22.09-.44-.2-.35-.41-.28-2.63.51-.68.75-.41.2-.22,0-.32-.71-.4-.07-.48,2.2-.21.25-.53.22h-.78l-1.31-.72-1.75-.32-1.3-.72-.93.1-.4-.21,0-.2-.22.09-.1-.22-1.14-.4-1.28-.19-.65,0-.68-.48.11,1,.41.4.46.23.25.42-.06,1-.24.48-.12-.08.1.29h-.12L128,264l.16-.76-.37-.39-.32,0-.09-.36-.36-.32-.43-1.61h-.15l0,.3-.19,0-.23.33-.45.08-.6.62-.19.09-.11-.16.47-.49.45-.26.18-.73h.16l0-.15-.15-.25.3-.25.06-.49-.81.43-.66.8.39-.77v-.28l-1-1.17-2.32-.68-.71.11-.24-.19-.47.21-.88-.29-.4.19-.36,0-1.25,1.08-.28,0-.26.19-.14.67-.29-.07-.28.16-.87,0-.41-.2h-.44l-1-.48-.84.2-.36.24-.38.54-.15.07-.16-.17-.27.05-.81,1.51-.47.46-.36,0-.16-.17.17-.7-.07-.33-.23-.12-.26.12-.58.43-.46.6-.13.95-.48,1.28-.22.22L107,264l-.19-.27.23-.8-.12-.17-.59.48H106l-.16-1.07-.44-.67-.88,1.48-.18.53-.32.34-.13,0-.22-.27.15-.81h-.21l-.5.3-.26.36.16.22-.6.49-.46.95-.21.8-.32.49-.24-.27-.07-1.87-1.2,1.27-.53.37-1.28,1.91-.22.78-1.21-.33-.64.3-.7,1.11.09.87-.25.36-.47.23-.29.42-.77-.26-.48-.39.23.7-.14.56.86.69-.18.08-.54-.26-.13.15.74.6.28.47-.08.2-.48-.14-1.14-.67-.38,0-.47.76-.31,0-.25-.26-.2.05-.16.74.24.44-.33.35-.22-.14-.3-.65-.47-.56h-.16l.09.7.31.49,0,.27.53.54.11.47-.12.14-1.2-.7-.59-.47-.09-.21h-.42l-.74-.55h-.2l-.16.31-.51-1.06-.22-.12.05-.36-.12-.25.19-.32.57.16-.72-.8,0-.33-.1-.19-.92-.33-.4.05-.14.11.32.37h.34l.17.18.08.29-.1.36.22.83.93,1,.1.36-.13.37.38.24.11.21V276l-.15.16-.31,0-.17.32h-.17l-.55-.42.05-.23-.3-1,.08-.38-.24-.09.1-.26-.52-1.28-.57-.54-.77-.44,0-.19-.21-.16-.35-.06.14.21-.08.11-.46-.34-.05.09.41.88.46.2.06-.34.21.16.11.38.27.3-.08.28.14.41-.23,0-.37-.51-.56-.35-.07.16.26.19.21.54-.42.16,0-.58-.39-.35-.29-.51,0-.2.17-.1-.36-.34H82l-.08.12.22.48-.26.16.37.36,0,.36.36.47.48.42-.05.21-1-.53-1.76-.49-.31-.49-.7-.43-.5-.1-.91-.46-.74-.71-.62.05-.63-.88-.24-.66-.61-.33h-.3l-.35-.27-.57-.08-.6-1.2-.37.24-1-.22-.27-.29.09-.47-.07-.18-.6-.07-.51-.25v-.54l.53-1.4,1.23-1,1.34.07.56.43.11.75,1,1,.88.1,2-.24.74-.61.88-1.3L79.17,262l-3.36-4.54-.85-2-1.28-3.17-.32-1.1L72.74,247l-2.38,0-1.63-.46L66.9,243.6l-.78-1.87-.91-1.6-2.3-2.23-.9-.11-.72.23-3,.3-1.81,0-2.37-.75-2.56-1.09,0,.72-.19,1.44-.4,1.49-3.19-1.9-1-1-.41-.71.76-.39.07-.16-1.61-2.89-.94-1.4,2.15-1.06.36-.55.65.06.2-.53-2-.7,0-.48.42-.87,0-.77-.17-.47-.16-.23-1.06-.47-.37-.61h0l2.68.89,2.08-.11,9,1.41L74,228.94l4.91,1.38,8.68,3.44L87.43,231l5.52.3,1-.78,3,.07,3.59-3.69,9.74-6.54,1.11,0,1.66-1.58.73.36,1.63-1,1-3.09,3.67-.26,2.11-1,7.5,1.3.47,1-.61.43-.14,2.19L135,220l.63-1.11.78-.11,3.9,2.21,1.91,0,1.25-.76-.4-1.31,1.23-5.23,2.14-.09L146.2,207l1.57.69,1.06-2.46,1.09.53h6.16l2.75-.87-.47-1.09,3.43-2.91Z"/>
    <path id="KZ-KAR" class="cls-1" d="M517.12,142.86l6.11,2.22.07,2.06.78,1.2-.78,2.41-.39,2.11.1,2.76-.95.22-.48,1,.77,1.19L521,159.27l2.61,2.87,2.62-.68,2.55-.21,1.43-1.2.24.75,2.9.57,1,1.22-1,.79,1.18,3,1.24-3.11,2.48,2.65,1,0,1.37,2.35-.62.36.48,1.38,2,.81.29,1.1-.6.26.26.51-1,.31-.18-.26-2.42,1,0,.59-1.13.76.61,2.09,1.14-.05.34.76,1.78-.53,3.67-2.67.86-1.15,5.2.17.63-.36.25-.89.85-.33.78.84,6.23-1.72,2.3,1.35.84-.2.82-2.21.41.31,1.4-.8,2-.22,2,1.19.67-1.17-.11-2.73,1.1-4.4,1.82-1.78,3.42-.88,3.14,3.32,3.7.15,2.92,1.87,1,3.73-1.41,1.94,2,1.46h0l-.4,1.56L585.23,176l-1.4,1.94-2.51,1.15-.78.55-1.61,0-.49,2.11.54.8-.41,1.66.47,1.25-.36,1.43-1.58,2.48-4.62,1.7-4.19,2-.26,1.56,1.42,1.63,0,.91,1.5.49,2.66,2.2,0,1.72,1.43.83,1.72,1.79-1.7.72-.36-.52-1.48.77.16,1L573,208l1.25,2.49,7.26-1.2.73,2.17-.75,2.92,0,1.13-3.27,3.36-1.36-.47-.9.07-.92.85.2,1.39-1.4.43.66,1.35,1.53.71.25,1.17,2.77-.07.84.26-.38.94-1.56.06-.47,1.37,2.28,2.08,1.79-.14,1.26,1-3.3,1.2,1.06,1.52h-1.21l-.16,2.19-.88,0-.88,3.73-1.07,2.36.36,1,.4.18.93,4,.19,1.35-1.61-.71-1.68.26.09,2-.76,1.84-1.4.53,1.59.82.92,1.57,1.72,1.28,2.64,1,.86-2.36,1.1-.68,2.09,1,1.77-.79h0l.77,13.39-5.37.6,0,1.62-1.33.2-.58-1.5-1.77-.94-1.76.25-1.87-1-1.23.23,1.92,1.93-2.69-1.2-1.63-.48-1.15-.18-.56,1.31-1.61-.58-.55.67-.49-1.49h0l-1.21,1.43-1-.27h0l0-.75-6-1.07-5.42,1-4.22-.85-10.14,5.83-4.83,4.36L529,279.67,527,282h0l-1.55,2.56h0l-29.3-.34-17,.63-3.14-.23-14.21.36L436.7,285h0l-33.53-.53h0l-.28-2.46-.86-.26-7,.39-23.14-6.29L368.57,274l-3.23-3.65-3.69-.32-8.91-4.8-1.82-.05L342,261.74l-.78-.78L339.53,262l-5.25-2.95-2.35.18-2.67-1.8-2.12-2-7.33,1.36,4.88-3.81h0l20.91-14.61,3.93-4.33-1.61-.72-3.25-5.68h0l5-4.55-1-3.17,6.61-1.46-1.36-1.74.61-1-.67-1.61,3.76.15.91-6.87,13.67,2.26,1.31-.74,1.29.17,2-.71,1.18-2.89,5.52-.2,5.33-5.87,2.7-.32,1.15-4,2.33.24.95-2.35,2.71-2.47,3.74-2.19,5.9-6.77,3.94-5.06-.83-1.68.5-.55-.62-1.2.63-.78,3-.38,3.26-1.4,1.24-1.08L420,168l1-1.09-.3-.73-1.92-1.08-.08-.58-1-.66h0l-.13-1.54-1.19-1.61,1,.19,2.51-.53,1.67,1.3,3.85-2.89,2.16-.78.55-1,5.5-.16-.25,6.21-.86.52L433,166l-.78,1.22-.74,3.45-1.27,1.41.61,1.09,1.42-.47.29.72,1,.08,2.3,1.47,2.28-1.2.76.64.47-.07.22-1.26-.52-.63.18-.8.52.63.79.06,1.46-.92-.63-2,2.41-1.31.33,1.55.54-.88.47-.08.67,1.59.52.63,1,.09-.43,2.29,1-.26.78.19.6-.3.79.07,5.52-1.6.54,1.57.83-.27.37.85-1.58,2.3-.07,2,1.09.57,1.43-.68,2.55-1.62,2-.26.57-1.11-1.1-2.8,3.82-1.72,1.28,2.24.23-5.84,1.17-.24.27-.44,1.26,0,2.34-1.64-.37-.86,1.39-1.15,1.59.17.57-1.12,1.27,0,.5-2.66,2.65-1.13,0-.71.82-.15.26.86,1.2-.46.24,1,1.28-.09,2,1.78-1.21,1.63.54.3.16.61-.54.77.32,1.33-1.62,2.29,1.1.36.44-.89,3.72-.39,2.22,1.69-.25-.86,1.19-.33-.39-2.65,1.31-.44.7-1.09,2,1.31,1.47-.77-1.92-1.3,1.29-1.14-.5-.66.9-.84.65.32.11-.94,2.56-.16,1.2-1.4-.51-.54.17-.46.7-.16,1-1.9,2.86,1.21.72-1.22,1.52-.16,1-.47-.63-1.52,4.71-1.52,2.64-2.52-2.31-1-.91-.13-.95,2-.64-.45.18-.57-1.09-2.44-.78-.35.29-1.41.86-.36.48.79,1.45-.41-.28-.52.48-.17.51,1.51,1.15-1.77Z"/>
    <path id="KZ-KUS" class="cls-1" d="M380.29,44.39l.65-.06,1.4-.49h0l.91,3.46.37.55-.51.73,2,5.55-3.4,1.21,3.35,2.1,1.24.12,1,2.56-.5.48-1.61.16-4.63,2.44,1.85,5.95,2.27-.49,0,4.8-1.44,1.41-.79,1.08.78,2.32,3,.32.18,7.9,2.67,1.67-.45,2-2.6-.55-1.16.92L383,90.35l-.78.95.64,2.9.88.05.15,2.74-.37,0,.12,3.35-1.89.49-.22,9.33h0l-.13,6.82-2.17,1.82-.78,4.57-.73,3.22L373.05,129l-3.08-.3.89,3.07,2.22.12,1.61,3.35-1.5,4.35.84.65-2.53,2.25,1.52,2-1,.9,3.78,3.66-1.17,5.51.68,1.45,3.53-.4,1.1-3.6,3.32,2,.2,1.08,0,1.18.62-.56,0,1.06.86-.42.58.5,1.36-.64.92,3.7,2.2-.58,1.4,1,4.73,1.68,4.39-1.28,1.52.56,1.16,2.88-2,1.17,2.52,3.9,4.18-2.65,7.73-1,2.11-1.61h0l1,.66.08.58,1.92,1.08.3.73L420,168l-.57,1.36-1.24,1.08-3.26,1.4-3,.38-.63.78.62,1.2-.5.55.83,1.68-3.94,5.06-5.9,6.77-3.74,2.19L396,192.94l-.95,2.35-2.33-.24-1.15,4-2.7.32-5.33,5.87-5.52.2-1.18,2.89-2,.71-1.29-.17-1.31.74-13.67-2.26-.91,6.87-3.76-.15.67,1.61-.61,1,1.36,1.74-6.61,1.46,1,3.17-5,4.55h0l-3.82-7.3-2.87-2-2.89-1.09-1-1.16-5.78-2-.68-2.29,1.18-1.57-.11-1-1.84-1.64L323,209.7,318,204.81l-1.27-4.39-2.3.21.46-1.27,2.65-.43.35.35.58-.45-3.24-5.48-.92-1,1.51-2,2.09.72-.57-.82-.57-3.15,2.8-1.71.26-2.92,2.83-2.51,2.81,2.31.86-3-.35-1.42-3.86-5.77-.36-1.42-2.34-3.73-1.62-8.27-2.48.78v-1.68l-.36-1.57,2-1.4-3.19-3.11.59-2.05.59-.1v-1.09l-2.63-1.58-.47.35-.94,1.31-1.44-.57-.88-2.95-.16-1.8-1.24-1.92-.79,1.39-1.3.57-1.18-.57h0l.1,0-1.63-1.48-.56-.66-.75-2.08-.48-.39-.57-.16-1.22.91-.55,0-1.1-.29-1.91-1.32-.83,0-.24.15-.41-.37-1.68,0-.18-.8-.52-.08-.21-.77-.39-.57-.27-.92.21-.78-.11-.21-1.43-.16-4,.05-1.35-.34-.84-.36-1.58-1.32-.21-.37,2.12-2.12.22-.27-.05-.47-.77-.24-1.28-.18-4-2.58-.14.18.17.41v.51l-.55,0-.2-.09-.69-.44-.74-1.06-.11-.36,0-.62.23-1.07,1.18-.23,1.72-.05.75-.33.95-.79.88-1.21,2.26-2.12.68-.36,1.89.32.32-.18.58,0,.41-.17.84-.76.46-1,.8-.06,2.19-1.15.58-.8,1.18-.81.15-.24-.9-2.19-.74-1.28V107.4l-.09-.19-1.41-.13-.79-.27-.1-.26,0-2.68-.23-.25-1.41-.29-.07-.31-.52-.17,0-2.55.22-.29,1.72-.32.5-.31.37-.44.36-.88,2.13-1.52,1-1.23-.21-.45-.51-.51-.15-1,.76-.05.86.34.24-.56,1.9-1.25.61.17.91,1,.86.13.55-.34,1-1.08.76.23.2.22.39,0,.53.34,1.34,1.3.37.05.93-1.06.46.12.34-.16,1,0,.24.13.87-.46h.28l1.2,1.48.84.26.92-.52,1.37-1.07,0-1.74-.51-1.52-.57-.11-.81-.38-1.89.09L306.23,88l-.7-.69-.6-1.24-1-.75-.46.15-.12.72-.23.17-1.84.08-1-.29-.55-.76-.66-.52-.77-.19-.88.09-1.06-.08L295.32,84l-.26-.62-.19-2.05.3-.45,1.08-1.07.18-1.58.21-.37.78-.12.47.43h.88l.21.3.1.49.42.23.46,0,.65-.1.67-.34.46-.5.61-.32.16-.73-.57-1.49-.94-.49-1.56.07-.34.48-.71.4-1-.19-2.47-.1-.61-.74-.34-.16-.55,0-.68-.36-2.1-.14-.11-.18,0-.87.15-.45,1.42-.08.19.26.16.59.18.11.2-.11.12-1.71.18-.19.94-.34.74-1.34.88-.65.29-.42v-.57l-.2-.49-1.08-.88-.17-.57-.69-.21-.68.17-.53-.42-.69,0-.12-.47.28-.55.67-.68,1.12,0,1-.25.52,1.13.49.25.74-.05.08-.2-.16-.58.44-1.08-.57-1,.2-.63.77-.8.12-.38.44-.19.69,0,.43-.32,1.18.16.25.36.36,1.58.41.36.64.08.47.27.27,1,.28.25.49-1.28.31-.46.78-.2.63-.33.22.59.74.77.36-.27.18-.5,0-.38.6-.29.1.17-.27.36.11.16.52-.26.49.29-.57,1,0,.27,1,.27.32.34h.57l.8-.07.26-.2v-.47L310,62.82l-.16-.65.26-.34h.39l.58-.48h.53l.61.48,1.2.2.34-.22.24.12,1.72,0,.68-.36.51,0,.32-.26.3,0,.91.87-.32.42-1,.5,0,.26.54,1.51.22.32.78.33.58.44.34,0,.21-.41-.24-.6.16-.41.35-.39.28-.74.72-.29.24-.36,0-.27.8-.61.27-.06.38-.69.64-.24.22-.27.34-.08.33-.48-.12-.36.08-.21.62.11,1.39-.16.73.28h.85l.77.23,1-.22.47-.25.26-.33.14-.84-.28-.63.12-.36.15-.15.62-.12.21-.21.48,0,.1.23.24.11.81-.31,1.84.29.32-.17,1-.16.16-.24.42.22.18-.33.28.14,1.74-.7.2-.22.73-.15.76-.44,1.18-.27.15-.24.58.1.64-.33.48.43.26-.18.26,0,.13-.15.29.2.26-.1.07-.55.3-.44.15.19.26-.06-.16.57.05.15.31.05.52-.45.34-.65.45.19.31-.13.36.26.47-.09.28.07.59-.49.73.08.58-.29.67,0,.4-.15,1.44.17.41-.21.19-.35,0-.32.15-.16.32-.06.25.2.37.06.34-.25.35,0,.52-.28.07-.33.37-.3.46-.06.22.16,1.46-.36.13.2-.09.14v1l.18.06,1-.26.85-.47,1.09-.84.73-.34.3,0,.86.63.72.69.79,1.09,2-.05.3-.39v-.39L366.65,50l-.41-.62.36-1.14-.16-1.08.23-.29L368,46l1.21-.49h.54l1.28.36.38-.11,0-.48-.62-.85.06-.5.26-.33.59-.23,1.5.41.82,0,.68.29,1,.71.46.05.38-.2.46-.58.27-.75.05-.56.33-.66,1.09-.51.78-.07.26.06.19.31-.36,1.3,0,.81Z"/>
    <path id="KZ-KZY" class="cls-1" d="M257.92,294.42l.62-.46.29-.67.33-.41.62.33.33.37.57.21h.83l.37.7-.21.83.16,1.4-.08.91-.46.57.54,1.11.37,1.45.67.41.54.54.29.78,0,.7-8.79-6.37.09-.9.37-.25v-.87l.21-.41h.57l.49.25.74,0Zm14.42-.66h-1.89l.13-3.2,1.51-.37,3-.19,2.26.26.44.94,1.7.31,1.82.06.26.44H276.8l-2.52,1.39Zm37.32-52.67,1.46,2.78,2.21-.34,4.89,6.22-.77,1.77,5.1.8.78,1.11,1.34-.43-4.88,3.82,7.33-1.37,2.11,2,2.67,1.8,2.36-.18,5.25,2.94,1.72-1.06.78.78,8.89,3.48,1.82,0,8.91,4.8,3.69.32,3.23,3.65,3.28,1.82L395,282.15l7-.39.86.26.28,2.46-.25,2.11,2.8,2.16.54,1.72-.51,1.13-1.08,1.52L404.1,295l-.16,2.62-1.13,4.14,3.37,2.79,2.82,1.2.11,17.42-.35.49-.21,1.53,1.89,1.85,1.08-.35,2,1.14,0,.82,2,2.47,4.86,3.48-1.25,1.24-.68-.56-1.08.44-.91,1,.37.53.52,1.35-.21,2.63-.76.36L414.73,340v3.85l-1.69,1.72.15.81-.36,2-1.8.51.53,2.34.76-.47L412,349.3l1-.56-.19,1.1,1,0-.31,1.3.68,1.64,1.26-.34-.07.8-1.73,1.11-5.87,2.94L403.07,359l-4.43,3.34-5,5-2.49-1.53L384,373.28l-1.54-.37-.14-14.4-4.82,2.26L375,352.58l-.57-2.33-4.17-3.7-2.15-2.16-2.19-4.83-.38-.44-.61-.35-1.06,0-.78.2-8.38,4-.4.07-10.66-.68-6.91-.7-2.49-.4-7.83,1.38-16.11,3.17-.32,0-.62-.59L297,329.92l-2.33-2.34-.85-2.7-8.3-6,.88-.78.54-.29.62-1.78.25-1.78-.41-1.9-.75-2.44-.7-.87-1.08-.08-.37-1.16-.78-.67-.46-1.53v-1.08l.46-1,0-3.35-.41-1.49-.83-.62.21-.91.67-1.53.08-1.49-.67-2.65-.87-.95-.13-1.78.91-.62.49-2.6.37-.49.21-.88,2.52-.62.62-.87.29-1.11,1.65-1.53,1.86-.33,1.28-1.16,1.65-.62,1.73-1,1.11-1.9.29-3-.05-1.53-.68-.1-1,.78-2.73-.48-2.44.1L288,268.58l.1-3,.29-1.27-1.27-.39-.88-.78-2.44.1-.1.88,1,.48.88.1,1.17.88v1.17l-.68.39-.68.78-1,.48-1.17-.58-1.37-.39v2.83l-.66.47-.25-.86.12-2.44-.48-1-.86-.86h-1.22l-4,2.68-.73,1-.11,1.82.53.66.62,1.37.41.62,1.24.54h1l.83-.41,1-.29,2.19-.16.49.95.78.62,1.08.37,1.37-.95.67-.83.78-.16.16,1.61,1.4,2.35,0,1.82-.37,1.32-1.9,1.2h-1l-2.35.46-1.11-.37-1-1.11-.95-.54-2.81-.57-1.4-.16-.78.46-1.61,1.49-1.24.08-.57-.33.33-1.73-.37-.62-.13-1.11,0-1.37-.7-.87-1.08-.21h-3l-.57.13,0,1,1.94,3.1.46,1-.33,1.2.41,3.14L268,286l-.49.83-.57.29-.62-.33-.75,2.19-.66.54-.78-.29-1,.08-1,.37h-.95L261,289l0-.87.21-1,1-1.57.75-.83.33-.75-.75-.54-.87-.46-.78.46-.95.95-1.11.08-1.08-.16-.49-.41-.36-.14,4.83-5.95,3.9-5.85,2-2.24,1.5-2.34,7.14-6.63,5.44-.45.51-5.62,7.43.61L295.87,239l10.77-2.49Z"/>
    <path id="KZ-MAN" class="cls-1" d="M107.89,313.26l.07.1.44-.26.26.12-.88.57-.3.37.08.34-.14,0-.15-.4.2-.72-.16-1,.09-.11.37.5Zm1.21-3,.26.07.26-.15.24-.22.15-.48.16.64.24-.19.07.16-.13,1.13.1.37.8.41-.94-.2-.13.25-.57.13,0-.2.41-.36-.48-.18.27-.47-.05-.28-.6,0-.75-.89,0-.2.46-.42.07.11-.27.36Zm-11-3,.66.16.36.33-.93.13-.44.58,0,.69.26.64.09.78.22.34.21,0,.11-.27.08.09-.22.68.44.63,1.06.53.95-.36.15,0,.05.14-.35.75-.11,0-.26-.3-1.28-.18-.57-.34-.69-1.1-.59-2,.39-1.21,0-.59Zm4.74-.36.71.12.24.64-.14.68.16.49-.47.82,0,.45-.17.36-.4.28-.26,0-.36.4-.12.27.15.38-.13.1-.21-.17-.12-.51.09-.25-.13-.54.25-.53,0-.42-.1-.25-.42-.36.08-.49-.27-.56.39-.47.63,0Zm41-11.27.13,0,.14-.26.19-.05.21.16.48,1.3,0,.56.22.51-.1.35.1.55,0,.12-.61.05.25.36,0,.1-.91-.36-.19-.56-.47-.7-.61-.59-.25-.43.19-.28.84-.66,0-.11-.29-.27,0-.24.45.18ZM147,289l4.06,1,2.39.13.57-1.41,2.74.36,1.19-.78,1.27-.17,2.14-.92,1.8-1.09,1.15-1.1L162.39,284l4-3,1-1.83-.25-1.13,2.74.34.36-.58,1.26-.29,1.09.05,1.15-.27,1.64-.66,2.68-.06,3.39-1.32,7-.73,2,.27,4.18-4.14,2.14,3,1.15.71.52-.16.27-.46.51-.27.87.12.61,1.83-.28,1.4.29.81L202,278l.91.54.9-.62.78.35.47,1.42,1.88.57,1.22-.63.83.78,1.39-.1,1.59.95h0l1.61,4.42,2.54,18.77h0l-12.55,4.12,0,89.06-2.35-.09-1,1-.51-.39-.26-.05-1.72.32-.67.34-.18.5-.21.17-.26-.2-.14-.42-.32-.4-.18.08V399l-.34.24-.36-.09-.89-.53-1-.95-1.19-1.51-1-.82-.8-1.09-1.63-2.69-1.32-3.12-.83-1.22-1-1-.27-.44-.07-.48.16-1.63-.8-1.16L183,381l-6.77-4.79-2.95-1.94-.87-.52-.87-.34-4.17.13-6.5,1-2.94.8-5.11,2.25-1.75.6-1.3.85-5.86,5.25-3.31,2.75,0-.47.76-1.79.1-1.11,0-.77-.24-.91-.72-1,.14-1-.43-.46.26-1.86.33-.66,1.26-1.53.79-1.38,1.6-4,.38-1.9-.2-1.09-.44-.85-1.5-1.71-.1-.31.34-.51-.07.46.21.47.94.75.67.89.55,1.49.45-.48.23-.62.1-1.27-.16-1.24-.36-.29h-.78l-.38-.34-.61.26.26-.44-.38-1-2.44-.72-.73-.12-1.41.21-.63.46-.37.58h-.11l-1-1.6-.52-.36-.37-.09-.63,0-.29-.11-1,.16-1.4.42-1.08.54h-.36l-.32-.3-1.15-1.86-.13-.47-.66-1-.29-1.08-2-1.93.22-.24,0-.44-.36-1.14-.89-.08-1.7.35-.22.24-1,0-2.4.39-.49-.15-.07-.38.13-1.06.71-3,.06-1.94-.14-1.33-.29-.51-.12-.85-.36-.88-.82-.78-.14-.43-.57-.36-.21-.07-.14.16-.1-.08-.68-1.16-.88-2-.78-.95-.67-3.59-.86-1.26-.23-.22-.72-.17-.35-.42.14-1.62-.26-1.16-.57-1.42-.91-.89-1.91-.86-1.34-.34-3.3-.26-1.09-.46-1.27-.88-.53-.85-.08-.35,0-3.55-.24-1,0-.09.46.75,0,.35.22,0,.87-2.52.68.11.35-.08.2.2.55,0,.79.32,1-.08.82.14.58-.3.65.52,1.84.16.82-.15.33-.55.24-.05.37.26,1.25.36.5.78.17,0,.18.4.41.19.47-.09-.22.42.21.51,1.59,1.09,1.89,0,.56-.45.4-.57.41-.23.15-.41,1.53-.4h.21l.08.17-.25.39,0,.17.19-.07.49.55.39-.09.19-.18,0-.29.95.42.58-.21.13-.2-.17-.4-.68-.54-1-.47-2.21,0-.69.19,0-.31.3-.3-.06-.34-.46.31-.08-.09,0-.85-.51-1-1-1.4-.58-.21-.95-.89-.87-.45,0-.16-.54-.46-.33-.13,0,.31-.4.21-.72-.07-.73.12-.63-.36,0-.25.67.23-.18-.27.1-.45.26-.37-.3-.23v-.41l1.44-2,.24-.16.76-.35.27,0,.47.22.18-.07,1.45-1.5.61-.32.32,0,.61.35h.34l.13-.7-.21-2,.18-.9.13-.3.26-.2.21-.9.58-1,.43-.33.24-.47.36-.09.61-.87.28-.18.36.51.21.1,1.51-.08.59-.16.2-.31.63-.17,1.23-.75.16-.4.61-.78.36,0,.12.24.36.21.23-.17.57.38,1,.11.66.49.34.06.91-.09,1-.38.68,0,.9.29,1.32-.19,1.18,0,.53-.1.79-.37.52,0,1-.27.78.3,1.56.07.24.25.29.69.71.54.81.09.26,0v-.24l1.13.55.64,0v-.25l-1.21-.56L146,299l.07-.26-.21-.33,0-.47-.36-.47-.1-.36v-.67l.16-.24.94.4.87.66.92.15.74.88.86.6.12-.15-.81-.74-.87-1.33-.26-.11-.67.07-.36-.56-1.11-.53.11-.29.41-.25-.17-.28.31-.2.68-.27.53-.07.63.15.1-.11-.38-.71v-.41l-.31.09-.37.64-.84.39-.39.32-.14-.08.1-.29L146,294l.08-.46-.55-.07.47-.13-.32-.16V293l.57-.5.37-.07,0-.37.63-.06.2.37.63.38.15,0-1-1.35-.87-.68.44-.12.36-.36,0-.22h-.31v-.23l.48-.12.06.15.21-.09,0,.13.17,0,.3-.15.18-.26-.46.09Z"/>
    <path id="KZ-PAV" class="cls-1" d="M571.45,51.88l.8,0,.38.21.2.33L573,53.7l-.57.87.13,1-.07.39-.73.83-.78.43-.16,1-.55.21-1.12.82-.34-.16-.47-.88-.6.24-.41,0L566.6,58l-.93-.11h-.37l-.16.12-.06.5.15.6,1.18,1.59.16,1.26.72,1.34,3.8,3.69,14.3,11.58,5.11,4.9.93,1.09,3.2,5.3,2.79,4.23,3.31,6,.13-.13,2,3.89-.15.1,5.74,10.14,1,2.44,1.57,2.43.22.61.71,1,1.2,2.39.16-.09.17.34-.14.11,1.4,3,.35.35,0,.25,1.77,3.69h0l-1.33.16-.47,2.78-2.72.69.47,1.55-2.29,2.24-.49-.59-3.55.52.08,1.7.91-.16-.27,1.14.16,1.35-.92-.32-3.63,2.31-2.24.7-.4-.92-1.09.48-.23,1-1.92,1-.41-.33L595,147.34l2.13,3.07.48,2.83,1.35.41.82,1.24,1.44,1.13,1.19.61,3.67,2.44-.64,6.21,1.68.47.51,3.61-1.21,1.26-3,5.54L601,177.29l-2.87-.71-7.62-3.17-1-1.84-1.18.69h0l-2-1.46,1.41-1.94-1-3.73-2.92-1.87-3.7-.15-3.14-3.32-3.42.88-1.82,1.78-1.1,4.4.11,2.73-.67,1.17-2-1.19-2,.22-1.4.8-.41-.31-.82,2.21-.84.2-2.3-1.35L553.92,173l-.78-.84-.85.33-.25.89-.63.36-5.2-.17-.86,1.15-3.67,2.67-1.78.53-.34-.76-1.14.05-.61-2.09,1.13-.76,0-.59,2.42-1,.18.26,1-.31-.26-.51.6-.26-.29-1.1-2-.81-.48-1.38.62-.36L539.25,166l-1,0-2.48-2.65-1.24,3.11-1.18-3,1-.79-1-1.22-2.9-.57-.24-.75-1.43,1.2-2.55.21-2.62.68L521,159.27l1.31-1.24-.77-1.19.48-1,.95-.22-.1-2.76.39-2.11.78-2.41-.78-1.2-.07-2.06-6.11-2.22h0L519,140.6l.26-2,4-2.58,1.81.51.69-.87.95-.1.44-.67-1.73-1-2.09-.19-.9-2.09-3.25,1.6.09-5.37.56-.66,2.49-2,1.09-.21-.37-.79L522.6,106l-.93-.14-.05-.51h0l-.1-1.15-3.31-.25-.9-2.39.36-1.09.82,1.13,1.3.19.76,1.62.88-.37-.25-2.81,1.13-.46-.17-1.54.9-.48-1-2.69-1.75.61-.81-.26L518.4,98.3l-2.4,0L515.56,96l1.26-1.48-.58-1.23-2,1.38-.43-.45,1.06-.87.68-1.69,1-1.51-.12-1,1-.49-.05-.65.91-.49-.83-1.3-.92.62-.28-.68-1,.37-.06.64-2.54,2.22-.44-2.64.41-2.8,1.5.73.68-.69-1.46-2.31-.92-2.06h0l2.3-2.25.3-1.33.91.23.45-1.93,1.24.15,1.57,1,1.23-1.85,3,.68-.18,2.06,1.55.15.33-1.54,1.28.27-.18.61.64.26v1.18l.32.19.05.21-.12.68,2.16.81,1.43-3.53-.77-.45.53-2.64,3,.49.79-2.67,1,.16.51-.26.29-.51.26-1.17.16-.13.6.22,2.4,0,.25.15.38.72.4-.19,2.11-1.67,1-1,.79-.36,2.15-1.67,1.24-.67.51-.62v-.62l-1.51-2.15,2.35-1.21,1.25.53.2,0,10.88-5.07.07-.26-.46-.57v-.17l.5-1.48.16,0,1.85.83,1.92.16.86,0,1-.63,1.66,0,1-1,.47-1.12.94-.08,1.24-.75,1-.4.32,0,.12.78-.07.14-2.68,1.46Z"/>
    <path id="KZ-SEV" class="cls-1" d="M436.52,21.07l.45,1.07.23.12,1.15-.3,1.19-.55.76-.11.59.1,1.46.68.51-.21,1.32-.08,1.33.24,1.82.91,1.07.35.54.36.39.49L450,26l.39.37.9.35,1,.14,1.45,1.51.3.14,1.2,0,.3-.16.91-1,1.94-.84.26-.32.62-1.75.44-.47h.69l1.15.67.94,0,.35-.15.55-.62.41-.18,1.77-.35.33.06.17,1.26.42.85.64,1.27.73.67.24,1.09.63.64.61,1.19.13.77-.15,2.1.12,1.1-.38.93L469,36l.07.3.84,1.2L470,39l.15.54.59,1.16.79.85,1.76.46,1.08.85.08.25,0,1.22-1.39.43-.32.26-.14.29-.18,1.38.1,1.28.25,1.66.43,1.49L473,52.35l-.36.93-.16.13-.28,0-1.54-.3-1.09-.57-.15,0-.11.22v1.16l.13.27.32.26.92.23.18.3.11.68-.65.88-.06.26.2.31.53.32.27.33.26.57.11,1,.27.24.65.19.21-.07,1.33-1.16.41-.87.79-.16,2.61.82.17.4-.12.7.18.33,1.24-.24,1.25.42.41-.31.75-.21.46-.56,0-.57-.36-1,.32-1.09.42-.61,2.31.29,2.23.49.63.52,0,.59.63.36-.05.57,1.24.7.14,0,.28-.46.12-1.11-.58-.62-1.38-.73.26-.91.52-.88-.45-.72-.83-.65-.3-.68.08-.14.38-.09,1.3,0,.69.16,1.52,1.17.36,1.09-.13.84.82.52-.42,1.3.17.2,1.58,1,1.68.47.05.86-1.09-.24-.29.37-.86,0-.11.49.34.5,0,.34.67.52,0,.15-.75,2.56.92,1,.9.31.23-.12.72-1.74.36-.54,3,1.2-.19-1.3-.82-1.61-.86-.17-.76,0-.33.24-.61-.12.42-1.89.78-.39.22-.35,3.21.28.59.1.45.45,2.47.25-.05,1.34,1.15.18.47,1.55.26.16,2.06.44,1.4.47.16.22,2-.07.14-.23-.12-.61.13-.19.57.21.72.61.79.39.15-.07,0-.24-.47-1.08v-.31l1.37-.46.75-.63.18-.42-.25-.47.1-.09,1,.11,0,.33,1,.17-.47,3.13-.58,2.64-4-.6-.59,1.1.44,1-.6.28-1.3.26.21.87-.55,2.34-1.24.2,0,.94.38.07,0,.11-.64,2.11,1.88.68.19.35.65.2v.51l-.38,1.11.31.37,1,.54h0l.92,2.06,1.46,2.31-.68.69-1.5-.73-.41,2.8.44,2.64,2.54-2.22.06-.64,1-.37.28.68.92-.62.83,1.3-.91.49.05.65-1,.49.12,1-1,1.51-.68,1.69-1.06.87.43.45,2-1.38.58,1.23L515.56,96l.45,2.34,2.4,0,1.07-2.88.81.26,1.75-.61,1,2.69-.9.48.17,1.54-1.13.46.25,2.81-.88.37-.76-1.62-1.3-.19-.82-1.13-.36,1.09.9,2.39,3.31.25.1,1.15h0l-6.86-.51-1.27-2.44-1.32.06-.22-1.17-2.41.05-3.39-1.72-2.27,1-.49-5.25-.75-.85V92.33l-.37-.94-.6.05-.57.82-1.92,0-1.65.82-.76-.71-3.42.76-.83,2.17-4.2.32L483.12,95l-.24-1.15-.86-1,0-1,1.13-.51-.57-1.56.57-2.08.71-1.07-3.68-4,.11-1.12-1.81,0-.59,1.2-1.1.16-.42.58-.49.08-.67.69-1.57,0-.19-.53-2.86-.51.26-1.73-.24,0,.07-.88-7.49.21-.43,2.47-1.61.24.33,2.15-1.72.23-.26-1.4-1.81-2.28-.09-.51-.62,0-.27.47-3.47.09.53-.47-.07-.88.75-.06-.2-.78.77-.44-.16-1.64-1.27.52-2.2-.56-.4.59-.6-.3.43-1-.2-3-1-.34-.17-1.4-3.85-.06L445,73l-.87.05-.42.85-1-.21-.33,1.49-.75.07.3,1.4,1,.21-.57,1.33-1.22-.35,0-1.39-.32-1-.74-.19-.21-.77-1.11-.22L438.62,73l-1.74-.14.05,1.52-2.5.18-.08-.89-1.74-.13-.16.74-1.37-.1.58.92-.15.49.47.54-.4.47L429,76.57l.05,1.51.87-.05-.55,1.09-.47-.54-.9.68,0,.75-.51.21-.75.07-.54.83L427.43,83l.08,1,1,.33.56,1.16,2,.16-.23,2.1,1.23.1.31,1-.06,1.24-.63.2,1,1.44L430,94.22l.84,2.91-1-.2,1.51,1.72-1.51.76-.48-.16-.78.8-.61,0-.3,1.09-.74.07-1.27.77-.34,1.7-.49.08-.45,1.44-2-.26-.76.44-.69,1.54-2.58-.05.39,2,1.09.44.2.87-2.22,2.42-.7-.54-.54.94.46.64-1,1-.48-.27-1.87-1.72-2.53-1-1-1.3-3.94.11.2,6.1-3.75-1.33-1.13.65-2-.25-1.8-1H392l-.13-2.81-3.38.52-2.65,1.18-1.51-3.16-2.86-.17h0l.22-9.33,1.89-.49L383.51,97l.37,0-.15-2.74-.88-.05-.64-2.9.78-.95,1.87.13,1.16-.92,2.6.55.45-2-2.67-1.67-.18-7.9-3-.32-.78-2.32.79-1.08,1.44-1.41,0-4.8-2.27.49-1.85-5.95,4.63-2.44,1.61-.16.5-.48-1-2.56-1.24-.12-3.35-2.1,3.4-1.21-2-5.55.51-.73-.37-.55-.91-3.46h0l4.35-1.67,5.53-1.36,1.39.26.82-1.09.28-.16,2.73-.4,1.72.14.72-.77,1.27-.15,2.12-.51.2-.21.17-1,.22-.24.39,0,.78.46,1.87-.06,1.18.44.47-.15.37-.29h.67l2.22-.92.27-.54.26-1.29.27-.4.58-.48.46-.18.73,0,2,1,1.35-.35,1.81-.11.26-.27-.19-.64.24-1.08.48-.74.73-.69-.5-.45-.22-.43-.78-.9-.15-.29.14-.7-.46-.72,0-.16,1.35,0,.66-.29.26.06.67.55.23-.09.26-.37.3-.11,1.67.19,1.71-.36.37.37.31,0,.29-.54.24-1.38.17-.29.5-.24.33-.36.15-.69.27-.41-.05-.78.4-.47.33-.11.85.18,2.83,1.89.37.12.2-.18.15-.42-.26-1-.5-.57-.28-.05-.44.21-.16-.12-.08-1.29.15-.59.45-.4.65,0,1.23.37,1.48.93Z"/>
    <path id="KZ-VOS" class="cls-1" d="M620.41,137.94l.36.57,1.21,2.87,2.76,5.5.16.57,2.23,4.48.32.93.14-.36.23.64,1.2,2.11.75,1.63-.25-1.76.08-.82h.27l.13.5h1.78l0-1.56.16-.51.68-.08.22-.5,1.26,0,0-.18.25-.06.68,0,.94-1.07h.69l-.06-.54.24-1.06v-1.39l-.06-.57-.68-.72.08-2.23.57-.13,2.65.1.15-.44V142.6l.27-.77.44-.42,2,.59.63.26.52.41,1,.2-.11.33.21.26,1.6.59.91.69.44-.29.46-.73.4.15.36.54v1.09l-.38,1.77-.83,1.32-.1.94-.26.67.08,1,1.72.05,2.91-1.1,1.21,0,.07.37.16,0,.06.15,0,.73.28.12.16.77-.38.52.23.46.4.07.52,1.36,0,.35-.52,1.08v.55l.53.13L657,157l2.55-.49.12-.08.08-1.1.1-.08.26.14,0,.47,1.22-.71,2.22.32.36.16,1.44,1.26.92.28,1-.1.35-.19.54-.67.26-.07.82.08.84-.15.74.21h.73l1,.39.57,0,.33-.1,1.8-1.15.76-.78.17-.4,0-1.36.27-1.21.71-.2,1.57.64,1,.25,1,.06.47-.28.3-.51,1.29-1.26.19-.49-.12-.68.24-.14.47.06.2.22.33.09.25.59.11.1.16,0,.2.34.8-.61,1-.1,1.57.37.49-.38-.36.49.13.31,1.3.57.64-.08,1,.23,1,.47,1.25,1.09,1.32.15.5.18.35.24,2.34,2.65.28,1.72.18.33,1.15,1.25.55,1h.14l.83.77.91,1.3.82.78.26.47.1.38-.48.83,0,.52.84,2.62,0,.4-.37.82v.32l.48.9,1.09,1.25.21.13,1.31-.05.88-.76.31,0,1.45,1.32.58.27,1.32.27.47.31.74.75.35.16,1,.1.26.37.08.67,1.29,0,.45.14,1.17,1,.49.78.15.68-.21.26-.41-.27-.19.22.05.4-.25.6.06,1,.26.53.36.26,1.57.47.24.61v.61l1.39,2.53.16.54.05.67-.25,1,.08.35.24.42.75.33.42.68.84-.08.49.33.19.37.6-.19.39.28.35-.28.23-.47.68-.29,1.06,0,1.11.38.66.77.41.12,1.4-.37.57.15.72.47,1.64-.16.21,0,.21.27-.24,1,.09.23.79.3,1-.73.5-.14.77,0,1,1.48.16,0,.62-.55-.19-.88.74-1-.05-.77.11-.16,2.14-.77,1.19-.75,1.06-1.47,1-.67.36-.58.4-.09.41-.38.26-.47-.27-.47.1-.36h3.36l0,.25-.68,1.4,0,.45.26.43-.52.45-1,.55-.53-.16-.84,1.07,0,.76.26.87.4.41.93-.16,1.63.77,0,.13-.35.35.68.57-.28.92.1.61,1.69,1,.14,1.12-.24.33,0,.27.52.62.19.66.43.2.61,0,.65,1.11,2.69.24,1.4.85.23.35.56,2.35v.45l-.28,0-.48-.37-.84,0-.54-.54-1-.45-2.94,1.36-.81,0-.66-.4H750l-.47.49-.28,1.24-1.34.85-.41.51-.13.25,0,.77.24,1.28,1.36,1.72v.59l-.92.69-.13.22-.09.56.4.77-.11.8L747,213.9l-.28.79-.25.19-.67.18-.22.8-.34.4-.25,1-.83.17-1.92,1.12-.78-.41-.41.18-.86.05-.75,1-1.09.77h-.88l-2.65-.36-.87.49-.88-.23-.73.3-.62.06L729.81,222l-.51,1-.08,1-.95,2.41-.59,1.15-.07.9.1,1-.35.88-.07.61-.71,1.4-.11.89.9,5,.5,3.72-.31,2.3.65,1.72,1,1.47.16.58-.29,1.32.22.78-.11,1.65-.11.33-.23.17-1.41.14-.37.41-.26,1.42-.52,1.12-.05.86-1.49-.15-1.11.3-.51-.19-.56.36-.55-.4-1.21.22-.58,1.21-1.76,1.21-.36.69-.49.24h-.7l-.47.24-.24,1.1-.79.45-.82,0-1.15.73-.15,0-.22-.31-1.46.14-.14-.15.06-.15.68-.36.34-.8.53-.46-.26-.24,0-.42-.46-.2-.16-.66-.54-.76-.33-.22h-.39l-.54.22-1.23,0-1,.49-.8-.25-.3-.48-.27-.11-1,.34-.65-.17-2.14.11-.59.13-.93.46-1.25.33-.36,0-1.09-.78-1.2,0-1-.47-1.61-.39h-1l-2.14-.73-.45-.26-.63-.71-1.09-.93-.87.25-1-1.34-1.89-.11L684.56,252l-1.74,0-.41.08-.38.26-.66,4-.33.78-.69.36-.36,1.92-.46,1.59-1.47,3.28-.31,1.11-.45,3-.74,2.65L674,276.23l-.48,1.28-.55,2-.28,4.27-.56,1.28-1,1.7-.64,2-1.32,2.95-.34,1-.3,1.56,0,.56h0l-1.83.66-.65-.57-.22-1.44.55-3.83-2.87-3.13-1.39-5.25h0l-5.87-6.89.63-.83-.78.16-.25-.27.89-.67h0l.33-.89-.42,0-.57,1.06-.62-.47-.62,0h0l-.59-.13.67-1h-.52l-.79,1.12-.57-.67-.52-1.3h0l-1,.65-.84,0h0l-1-1.51-5.51-.14-5.15-2.88L633,263.9l.07-1.82-3.79-1.57-8.44,2.95-5.56-7.8-7.89.88-.87-2.23-2.23-.2-.88-1-2.12-1.38h0l-3-2.52-2.86,3.64h0l-2.26-2.38-2.6,2.92-4.58-1-.48.89h0l-1.77.79-2.09-1-1.1.68-.86,2.36-2.64-1-1.72-1.28-.92-1.57-1.59-.82,1.4-.53L575,249l-.09-2,1.68-.26,1.61.71-.19-1.35-.93-4-.4-.18-.36-1,1.07-2.36.88-3.73.88,0,.16-2.19h1.21l-1.06-1.52,3.3-1.2-1.26-1-1.79.14-2.28-2.08.47-1.37,1.56-.06.38-.94-.84-.26-2.77.07-.25-1.17-1.53-.71-.66-1.35,1.4-.43-.2-1.39.92-.85.9-.07,1.36.47,3.27-3.36,0-1.13.75-2.92-.73-2.17-7.26,1.2L573,208l.41-1.75-.16-1,1.48-.77.36.52,1.7-.72L575,202.46l-1.43-.83,0-1.72-2.66-2.2-1.5-.49,0-.91L568,194.68l.26-1.56,4.19-2,4.62-1.7,1.58-2.48.36-1.43-.47-1.25.41-1.66-.54-.8.49-2.11,1.61,0,.78-.55,2.51-1.15,1.4-1.94,2.61-2.17.4-1.56h0l1.18-.69,1,1.84,7.62,3.17,2.87.71,2.44-1.12,3-5.54,1.21-1.26-.51-3.61-1.68-.47.64-6.21-3.67-2.44-1.19-.61-1.44-1.13-.82-1.24-1.35-.41-.48-2.83L595,147.34l1.51-1.47.41.33,1.92-1,.23-1,1.09-.48.4.92,2.24-.7,3.63-2.31.92.32-.16-1.35.27-1.14-.91.16-.08-1.7,3.55-.52.49.59,2.29-2.24-.47-1.55,2.72-.69.47-2.78,1.33-.16h0Z"/>
    <path id="KZ-YUZ" class="cls-1" d="M403.17,284.47l33.53.53h0l3.21,5.25,1.58,5.2,2.44,6.2,2.19,9.48,1,1.44,1.36,7.47,1.6,10.82-.67.45-.32,2.11-1.23,1.92-.29,2.82-2.23,5.56,0,.51L443,347.65l1.86.66-.49.77.77,2.37,1-.42.4,0-.2.88,1.23-.19,1.88,1.37.55-1.35.4,0,.35,1.43,1.6.15.44.64.63-.25.44.55-.32,1.07.9.88.66-.44.46.35-.64,1.13.56.45.57.26-.46.46.6.85-.24,2,.05,1.19.35.43-.44,1.15,1.86,1.15,1.3-.07.2.8,1,.39.1.78.57.16.22.6.51.72,1,.18,1.2,2.11,1.41-.37.32.57-.32.9.77,0v.56l1,.9h0l-.23.46,0,.59.16.4-.08.35.23.19.9-.07-.71.89-1.07.65H466l-.5-.38-.58.55-.32.53-1.2,1.31-.05.48-.83,2.09-.45.09-.47-.43-.29-.08,0-.86-.21-.35-1-.54-1-.9h-.4l-.15.17-.2,1-.49.59-.72.56.15,1.4-.95.61-.66.21-.75.84-.68,1.45-1.73,1-.4.94h-.26l-.19-.58-.41.05-.73,1.64-1.12.46-.46-.39-.47-.13-.64.4-1.2.13-.66.57-1.25.34-1.44,1.43-.44.91-1,.3-.64.55-.28.49.16.34.45.29-.13.39-.16.07-.85-.14-1,.25-.78-.29-1.13.14-.44.26-.42.91-.85.48-.44,1.09-.26.17-.53-.29-.2.06-.76,1.18-.07,1-.61.58-.12.69h-.41l-.26.17-.79.86L429.57,404l-.28.64-.12.7-.51.47-.7.27-.55.46-.2-.62.68-.47-.5-.23-.31.15-.26-.1-.19-.58-.9.57-.12-.23-1.89-.12v.49l1.39.09.34.53-.33.35.37,1-.33,2.85,1.26,1.74.43,1.26.92.49.33.8-1.65.66-.92-.06-.31.43-1.87-.55.21-.44-.73-.6-.72.19-1.57-1.34-1.45-.51-1.38-1.54-2.21-1.3-.94-.26-.55-.77.28-.88,1.56-.05,0-2,.57-.57-.53-1.32.54-.57.95-.2-.3-.18-.23.1-.53-.49-1.17.76-.32-.46-.57.5L413,401.86l-.78-.95-.34-.09-.54-.49-5.9-.18-1,.24-.34,0-.33-.22-12.48-.93L390,384l-9.24-1.12.08-7.19.36-.42,0-2.53,1.24.54,0-.36,1.54.37,7.16-7.43,2.49,1.53,5-5,4.43-3.33,4.73-1.75,5.88-2.94,1.73-1.11.07-.8-1.26.34-.68-1.64.31-1.3-1,0,.19-1.09-1,.55.28,1.53-.76.47-.53-2.34,1.8-.52.36-2-.15-.81,1.69-1.73v-3.85l1.75,1.52.76-.36.2-2.63-.52-1.35-.37-.53.91-1,1.08-.44.68.55,1.25-1.24-4.87-3.48-2-2.47,0-.83-2-1.14-1.08.35-1.89-1.84.21-1.53.36-.5L409,305.75l-2.82-1.2-3.37-2.79,1.12-4.14.17-2.62.55-1.87,1.08-1.52.51-1.13-.54-1.72-2.8-2.16Z"/>
    <path id="KZ-ZAP" class="cls-1" d="M113.13,130.85l2.07.06.28-.2.69.5,1-.24.13.13.41-.09.1.13.36,0,0-.19,1.61-.33.43.36.07.4,1.12.27.13,1.12,0,1.06-.22.3-1.51.08-.34.05-.09.16.07.38.39.26.14.27V136l.68.28,1.34-.05.7.27,1.6-.8.45-.63v-.66l.39-.14.36.77.5-.1.23.09.33.56-.49,1,.17.28.37,0,1.1-.57.51-.5.88-.34.08-.13-.66-1.57,0-.36.34-.8,1.45-1.82,1.64.11,1.37.78.68-.21.74.09.59-.34.35-.51.23-.95.59-.12,1,.17.75-.54,0-.63.47-.22.47.18.15.17.36,2.76,1,1.38.49,1.17.61.57.17,1.09.71.48v.28l-.16.12.08.37.36.14,0-.13.54-.3,0,.49.57,0-.18-.41.16-.09.22.23.14,0,.05-.69.16,0,.19.73.32.2-.13-.57.86-.26.31.1-.09-.62.42.23v-.47l.15-.28.13.21,0,.27.18-.14.14.24.25-.13,0,.32.45-.19.48.24.47-.18,0,.17-.5.3.09.32h.16l.23-.25.23.15L149,136h.28l0,.36.24.2.26.52.14-.11-.11-.36.48.19-.07-.44.5.24.89-.38.32-.31.2,0,.16.25.34.13.82-.08v-.27l-.36-.39.06-.3.47.13.35-.43.15.1-.21.44.1.13.39.14.58-.12.24.11.29.6h.23l.2-.45.45-.26.57-.17.27.1.34.51.47.1.4.38v.4l.8.39.09.32.63.26.79,0,.1.42.37.43.52.27.1.34-.15.19-.51.07.48.61-.12.57-.21.12-.06.44.12.38.69.65.16.45-.06.36.32.4.38-.12.78.38.13.39.26-.18.36.05.43-.16.52.57.21,0,.63-.12.18-.18,1.22.59.22.28,1,.24.34.33-.06.29.18.16,1.08.35.36.35.24.61-.26.68.05.33.08,0,.14-.35.15-.06.5.74,0,.26-.31.09-.16.21.29.26,0,.4.45.17-.09.47.65.51.63,1.4.42.57.32.17,2.26.18,1.23.67.05.51-.85,1.43-.27,1.18.21,1-.68,1.34-.05.79,1.51,2.33.55,0,.47-.28h0l.27.39-2.24,2.66.3.79-1.89,2,1.33,1.85-.33,1.92.06,2.34.84.26.05.7,1.2.57.23,1.39-.79,1.61.06.81-1.71,3,1,1.27h-2l-.37,1-1.23,1.55.41.76-1.74,1-1.51-.27-2.19,0-.32,1.32H166l-1.37,1.23-.72,1.84-1.1-.55.62,1.42-1.17,4,.16,2.53h0l-.58.88-3.43,2.91.47,1.09-2.75.87h-6.16l-1.09-.53-1,2.46-1.58-.68.27,6.51-2.13.09-1.24,5.22.4,1.31-1.25.76-1.91,0-3.9-2.21-.78.1-.63,1.11-5.68-1.3.14-2.19.61-.43-.47-1-7.5-1.3-2.11,1-3.67.26-1,3.09-1.63,1-.73-.36-1.65,1.58-1.11,0-9.74,6.54-3.59,3.69-3-.07-1,.79-5.52-.3.14,2.74-8.68-3.44L74,228.93l-15.64-1.74-9-1.41-2.08.11L44.58,225h0L43,223.11l.08-.3-.12-.09-.86,0-1.25-.28-2.26-1.09-2.76-1-.53-.4,1.93-5.43,1.2-2.82.88-2.63,1-2.37,2.82-1.75,1.17-1.53L45,201.8l.25-1.23-.14-.6-.41-.58-2.78-2.49L40.44,196l0-.36.39-2.34.31-3.38.7-1.4.26-1.94v-1.82l.34-2.55.26-.59.19-.21,1,0,2.4-.92.94-.63,1.1-1.1.74-1.13,1.19-2.38.11-.31-.23-.74-1.16-1.84,1.17-1.2-.07-.33-.36-.16v-1.41l.31-.57,1.37-.1.19-.12,0-1,.34-.21.28-.85,1.16-1.11.75-.18,1.28.68.68.87,1.46.78-.16.31.58.78.17.15.68.09.06.46.54.77.94.88.75,1,.23.75.47.39.08.78.64.55.28.52.76.24.2.28.58,2.67.34.34.05.46.2.34.47.35.48.85L66,181l-.12.36.21.16.76.15.38-.25.31.07.24.47L68,182l.14.51.52-.24.29.29,0,.32.53.22.15-.13v-.72L75,179.85l2.26-2.22.26-.44-.4-1.16-.05-.56L76,175.26l-.48-.23-.12-.24,0-.49.2-.26.14-.58,0-.58-.26-.7-.85-1.39-.29-.94-.26-2.39-.88-4.6.26-.85-.26-.71-1.15-.64-.2-.38,0-.37.36-.43.38-.11.58.14,1.2,1.1,1.37.11.6.51.23,0,.77-.9,1.25-.72.78-1.16,2-2.32.89-.5,1.51-.34.79-.68,1.08-.09L87,154l.18-.54L87,153l-.75-1.73-.3-.49-.5-.39,0-.23,1-1.63-.13-1.15.23-.23L87,147l.09-.56.68.16.79.45.37,0,1.22-.44,1.79.33.72-.05,1.81-1.61.53-.69,1.18-1.06,3.92-1.48,1.14-.21,2.61-1.3.08-.11-.33-.24-.36-.88.68-.7,0-.28-.38-.41,2-.17.05-1h.85l0-.42-.42-1,.17-1.41.25-.8.26-.06.17.18.16-.13.36-1.16h1l.4.21,1.25.18,0,.54-.87.85-.05.23,1.58-.18.15-.29.25-.11.28-2-.65-.36-.33-.38-.12-1.09.21-1.11.5,0,1.61.77Z"/>
    <path id="KZ-ZHA" class="cls-1" d="M525.44,284.52,524,287.63h0l-1.69,2.85.77,9.31,1,2.55-5.36-.39.32,4.66,5,.13.15,3,.69.83.35,1.09,5.69,4,1.7,2.93-.81,3,.57.9,3.38,3.24,4,.43h0l.3,0,1.7,1.56h0l1.1.16,1,1.36,1.84,1.26.08,3-.4,1.06-.78.9.41,1.76-.42,1.14-.68.32L540,342.45V344l3,1,.6-.41,1,.13-.26.85,2.65-.33.64,1.08-2.35,2.86-.2,2.06.68.4-.25,1,.68.3.42,1.73,1.72.36,3.34,1.58-.47,1h0l-1,.31.2.39h0l1.72-.19,1,.62.92-.4.18.86.14,0h0l-.44.77-.32,1.53-.22.38-.75.57-1.82-.57-2.18-.1-.69.14-.42-.06-1.87-.82-.84.12-.75.33-.54-.09-.16-.16-.64,0-.5-.69-.79-.34-.09-.24-.79-.39-.51-.5-.73-.09-.53-.4-.16.09-.07-.44-.16-.2-1.31-.56-.35.27h-1.37l-.6-.81-.22-.77-.5-.45-.71-.36-.23-.69-.38-.18-.73-.66-.28.07-.36-.23-.16.1-.34-.61-.86-.08-.26-.31-.29.16-.36-.19-.78-.09-.15-.18-.46-.08-.25-.53-1.77.12-.44-.11-.25.15.38.79-.06.19-.27.15h-.3l-.74.41-.84.23-.87-.26-.36-.41-.51-.15-.87,1.41-.26.88-1.26-.36-.73.08-2.48,1.3-1.19.49-.23.27-.07.16.17.32,0,.29-.36.77-.47.61-.26.65.06,3-.74,1.4L512,366.6l0,1.34.3,1.44,1.33,1.72-.05.53-.35.17-.28,0-.42-.29-1.87-.17-.64-.53v-1.13l-.22-.23-1-.05-2.36-.65-1.27.13-.5-.13L504,369l-.42-.16-.72,0-.56-.42-.71-.12-.45-.25L500,366.29l-1.37-.43-1.07-.59-.34-.05-.68.16-.89-.19-3.84-1.78-.88,0-.73.24-.44-.1-.37.36-.44.08-.56-.19-.57-.59-1.28-.36-.55-.35-.26-.37-1.33-.45-.8,0-1,.57-1.51.43-.85.6-1-.24-.25-.35-.69-.48h-.32l-.53.25-1.4.05-.43.48L474,362.9l-.14.18,0,.42-.76,1.5-.94.5,0,.91L472,367l-2.2.26-.56.49,0,.22.33.5,1.17.86,0,.46-.28.6-.31.1-.4-.12-.74-.63-.29.25-.37.59-.11.79-.28.78-.36.55-.26.15-.26.61h0l-1-.9V372l-.77,0,.32-.9-.32-.57-1.41.37-1.2-2.11-1-.18-.51-.72-.22-.6-.57-.16-.1-.78-1-.39-.2-.8-1.3.07L455.87,364l.44-1.15-.35-.43-.05-1.19.24-2-.6-.85L456,358l-.57-.26-.56-.45.64-1.13-.46-.35-.66.44-.9-.88.32-1.07-.44-.55-.63.25-.44-.64-1.6-.15-.35-1.43-.4,0-.55,1.35-1.88-1.37-1.23.19.2-.88-.4,0-1,.42-.77-2.37.49-.77-1.86-.66,2.39-3.42,0-.51,2.23-5.56.29-2.82,1.23-1.92.32-2.11.67-.45L448.49,320l-1.36-7.47-1-1.44-2.19-9.48-2.44-6.2-1.58-5.2L436.7,285h0l25.11-.05,14.21-.36,3.14.23,17-.63Z"/>
    <path id="KZ-AS" class="cls-1 sea" d="M288.45,264.29l-.29,1.27V267l-.1,1.56,1.75,2.14,2.44-.1,2.73.48,1-.78.68.1.05,1.53-.29,3-1.11,1.9-1.73,1-1.65.62-1.28,1.16-1.86.33-1.65,1.53h0l-.29,1.11-.62.87h0l-1.4.29-1.11.33h0l-.21.88-.37.49h0l-.25,1.4h0l-.25,1.2-.91.62.08.78h0l0,1,.87.95.37,1.45.29,1.2h0l-.08,1.49-.67,1.53h0l-.21.91.83.62.41,1.49,0,3.35-.46,1v1.08l.46,1.53.78.67.37,1.16,1.08.08.7.87.75,2.44.41,1.9-.25,1.78-.62,1.78-.54.29-.41.41h0l-.47.37L279,314.17h0l-15.2-11h0l0-.7-.29-.78-.54-.54-.67-.41-.21-.7-.16-.75-.54-1.11.46-.57.08-.91-.16-1.4.21-.83-.37-.7h-.83l-.57-.21-.33-.37-.62-.33-.33.41-.29.67-.62.46h0l-.5.28h0l-.74,0-.49-.25h-.57l-.21.41v.87l-.37.25-.09.9h0l-4.39-3.17-1.63.63h0l0-.77.58-1,.78-.39.1-1.75.68-2,.88-1.85.78-1.08.88-.58,1.85-.39,1.49-.79h0v.08l.33.05.49.41,1.08.16h0l1.11-.08.37-.33.57-.62.78-.46.87.46.75.54h0l-.33.75-.75.83h0l-.54.78-.49.78-.21,1,0,.87h0l.13.67h.95l1-.37,1-.08h0l.78.29.66-.54.37-1,.37-1.2.62.33.57-.29.49-.83h0l.21-1.24L268,283h0l-.21-.7,0-.75.33-1.2-.46-1-1.32-2.19-.62-.91,0-1,.57-.13,1.73,0,1.24,0h0l1.08.21.7.87h0l0,1.37.13,1.11.37.62h0l-.13,1-.21.7.57.33h0l1.24-.08.7-.7.91-.78.78-.46,1.4.16,1.86.37.95.21.95.54,1,1.11,1.11.37,2.35-.46h1l.87-.57,1-.62.37-1.32,0-1.82-.54-1-.87-1.32-.13-.78,0-.83-.78.16-.67.83-1.37.95-1.08-.37-.78-.62-.49-.95h-1l-1.16.16-1,.29-.83.41h-1l-1.24-.54-.41-.62h0l-.62-1.37h0l-.53-.66.11-1.82.73-1,4-2.68h1.22l.86.86.48,1h0l-.12,2.44.25.86.66-.47v-2.83l1.37.39,1.17.58,1-.48.68-.78.68-.39v-1.13l-1.17-.88-.88-.1-1-.48.1-.88,1.56-.1h.88l.88.78Zm-14.17,29.09.88-.57.88-.37.76-.44h4.72l-.26-.44-1.82-.06-1.7-.31-.44-.94L275,290l-1.51.13-1.44.06-1.51.37-.06,1.32-.06,1.89h1.89Z"/>
  </g>


<g filter="url(#filter4_d)">
<circle cx="458.394" cy="488.928" r="15" fill="white"/>
</g>
<g filter="url(#filter5_d)">
    <circle cx="1104.39" cy="321.928" r="15" fill="white"/>
    <path d="M1094.64 323.027C1095.7 324.052 1096.91 325.214 1099.25 325.214C1101.58 325.214 1102.79 324.052 1103.85 323.027C1104.86 322.058 1105.73 321.22 1107.54 321.22C1109.36 321.22 1110.23 322.058 1111.23 323.027C1111.53 323.311 1111.97 323.273 1112.23 322.942C1112.48 322.611 1112.44 322.113 1112.15 321.829C1111.08 320.804 1109.88 319.642 1107.54 319.642C1105.21 319.642 1104 320.804 1102.94 321.829C1101.93 322.798 1101.06 323.636 1099.25 323.636C1097.43 323.636 1096.56 322.798 1095.56 321.829C1095.26 321.545 1094.82 321.583 1094.56 321.914C1094.31 322.245 1094.35 322.743 1094.64 323.027Z" fill="#23B4F5"/>
    <path d="M1094.64 319.313C1095.7 320.338 1096.91 321.499 1099.25 321.499C1101.58 321.499 1102.79 320.338 1103.85 319.313C1104.86 318.343 1105.73 317.506 1107.54 317.506C1109.36 317.506 1110.23 318.343 1111.23 319.313C1111.53 319.596 1111.97 319.558 1112.23 319.227C1112.48 318.897 1112.44 318.398 1112.15 318.115C1111.08 317.09 1109.88 315.928 1107.54 315.928C1105.21 315.928 1104 317.09 1102.94 318.115C1101.93 319.084 1101.06 319.921 1099.25 319.921C1097.43 319.921 1096.56 319.084 1095.56 318.115C1095.26 317.831 1094.82 317.869 1094.56 318.2C1094.31 318.531 1094.35 319.029 1094.64 319.313Z" fill="#23B4F5"/>
    <path d="M1112.15 325.543C1111.08 324.518 1109.88 323.356 1107.54 323.356C1105.21 323.356 1104 324.518 1102.94 325.543C1101.93 326.513 1101.06 327.35 1099.25 327.35C1097.43 327.35 1096.56 326.513 1095.56 325.543L1095.56 325.543C1095.26 325.26 1094.82 325.298 1094.56 325.628C1094.31 325.959 1094.35 326.457 1094.64 326.741C1095.7 327.766 1096.91 328.928 1099.25 328.928C1101.58 328.928 1102.79 327.766 1103.85 326.741C1104.86 325.772 1105.73 324.935 1107.54 324.935C1109.36 324.935 1110.23 325.772 1111.23 326.741C1111.53 327.025 1111.97 326.987 1112.23 326.656C1112.48 326.325 1112.44 325.827 1112.15 325.543Z" fill="#23B4F5"/>
</g>

</svg>
