<svg width="120" height="84" viewBox="0 0 120 84" fill="none" xmlns="http://www.w3.org/2000/svg">
<path d="M76.7213 35.1628H59.276C59.0263 25.4853 51.0542 17.7692 41.3055 17.7692C31.5569 17.7692 23.5848 25.4853 23.3351 35.1628H5.90161C5.90161 15.7429 21.7551 0 41.3115 0C60.8678 0 76.7213 15.7429 76.7213 35.1628Z" fill="url(#paint0_linear)"/>
<path d="M5.90161 47.8605H8.52958V57.1559L13.2647 52.1596H16.5556L11.9862 56.8073L16.7213 63.4884H13.608L10.1395 58.5851L8.52958 60.235V63.4651H5.90161V47.8605Z" fill="white"/>
<path d="M24.8362 64.2168V62.8253C23.883 63.9072 22.4588 64.5111 20.9755 64.4624C18.7132 64.4624 16.7214 63.293 16.7214 60.9542C16.7214 58.4401 18.7747 57.2356 21.5534 57.2356C22.6715 57.216 23.7852 57.3741 24.8485 57.7034V57.4929C24.8485 55.9259 23.8034 55.0605 21.91 55.0605C20.7303 55.0649 19.5651 55.3081 18.4919 55.7739L17.7419 53.6924C19.1616 53.0482 20.7183 52.7241 22.2911 52.7452C25.8198 52.7452 27.5411 54.5109 27.5411 57.5396V64.2636L24.8362 64.2168ZM24.91 59.4691C24.0437 59.1665 23.1279 59.0121 22.205 59.0131C20.4837 59.0131 19.4755 59.6796 19.4755 60.8139C19.4755 61.9482 20.496 62.4861 21.787 62.4861C23.5944 62.4861 24.9468 61.5155 24.9468 60.1474L24.91 59.4691Z" fill="white"/>
<path d="M29.5083 62.6183L36.0385 54.9049H29.7527V52.7442H39.3444V54.5911L32.8141 62.2682H39.3444V64.4651H29.5083V62.6183Z" fill="white"/>
<path d="M48.4426 64.2168V62.8253C47.4894 63.9072 46.0653 64.5111 44.582 64.4624C42.3197 64.4624 40.3279 63.293 40.3279 60.9542C40.3279 58.4401 42.3812 57.2356 45.1599 57.2356C46.2779 57.216 47.3916 57.3741 48.4549 57.7034V57.4929C48.4549 55.9259 47.4099 55.0605 45.5164 55.0605C44.3367 55.0649 43.1716 55.3081 42.0984 55.7739L41.3484 53.6924C42.768 53.0482 44.3248 52.7241 45.8976 52.7452C49.4262 52.7452 51.1476 54.5109 51.1476 57.5396V64.2636L48.4426 64.2168ZM48.5164 59.4691C47.6424 59.1638 46.718 59.0093 45.7869 59.0131C44.0656 59.0131 43.0574 59.6796 43.0574 60.8139C43.0574 61.9482 44.0779 62.4861 45.3689 62.4861C47.1762 62.4861 48.5287 61.5155 48.5287 60.1474L48.5164 59.4691Z" fill="white"/>
<path d="M54.0984 47.8605H56.7496V57.149L61.5265 52.1564H64.7509L60.1412 56.8007L64.9181 63.4768H61.8728L58.3857 58.6119L56.7615 60.2606V63.4884H54.0984V47.8605Z" fill="white"/>
<path d="M65.9016 47.8605H68.4V53.9348C69.107 52.7019 70.3901 51.9457 71.7762 51.9449C74.2746 51.9449 75.7377 53.6671 75.7377 56.297V63.4884H73.2055V57.065C73.2055 55.3079 72.3615 54.3071 70.8647 54.3071C70.1623 54.2921 69.4879 54.5921 69.0155 55.1297C68.543 55.6673 68.3186 56.39 68.4 57.1115V63.4884H65.9016V47.8605Z" fill="white"/>
<path d="M77.7051 62.8207L78.8473 61.0596C79.8811 61.9096 81.1538 62.3999 82.4797 62.4592C83.622 62.4592 84.2045 61.9927 84.2045 61.1996C84.2045 60.4065 83.1308 60.0333 81.92 59.6951L81.7258 59.6251C80.0924 59.1353 78.2991 58.4589 78.2991 56.243C78.2991 54.0271 80.0467 52.7442 82.2512 52.7442C83.7019 52.7704 85.1156 53.2151 86.3291 54.0271L85.3239 55.8698C84.3899 55.2401 83.3111 54.8703 82.1941 54.7968C81.2118 54.7968 80.6407 55.2633 80.6407 55.9631C80.6407 56.6628 81.7144 57.1293 82.9252 57.4909L83.1308 57.5609C84.7528 58.074 86.5575 58.8204 86.5575 60.908C86.5575 63.2406 84.7528 64.4651 82.4454 64.4651C80.7311 64.4645 79.0649 63.8865 77.7051 62.8207Z" fill="white"/>
<path d="M89.9222 61.1343V55.1645H88.5247V52.9332H89.9222V49.8139H92.4445V52.9332H95.4099V55.1645H92.4558V60.7254C92.3979 61.1135 92.5222 61.5068 92.7911 61.7855C93.0599 62.0643 93.4414 62.1954 93.8193 62.139C94.3644 62.1413 94.902 62.0091 95.3872 61.7535V63.8797C94.6946 64.281 93.9096 64.4828 93.1148 64.4638C91.2401 64.4638 89.9222 63.6227 89.9222 61.1343Z" fill="white"/>
<path d="M105.492 64.2168V62.8253C104.539 63.9072 103.115 64.5111 101.631 64.4624C99.369 64.4624 97.3772 63.293 97.3772 60.9542C97.3772 58.4401 99.4305 57.2356 102.209 57.2356C103.327 57.216 104.441 57.3741 105.504 57.7034V57.4929C105.504 55.9259 104.459 55.0605 102.566 55.0605C101.386 55.0649 100.221 55.3081 99.1477 55.7739L98.3977 53.6924C99.8173 53.0482 101.374 52.7241 102.947 52.7452C106.476 52.7452 108.197 54.5109 108.197 57.5396V64.2636L105.492 64.2168ZM105.566 59.4691C104.692 59.1638 103.767 59.0093 102.836 59.0131C101.103 59.0131 100.144 59.6445 100.144 60.8139C100.144 61.9833 101.164 62.4861 102.455 62.4861C104.262 62.4861 105.615 61.5155 105.615 60.1474L105.566 59.4691Z" fill="white"/>
<path d="M110.164 52.9808H112.679V54.7667C113.391 53.5136 114.683 52.745 116.079 52.7442C118.561 52.7442 120 54.4828 120 57.1558V64.4651H117.484V57.9364C117.484 56.1505 116.634 55.1333 115.127 55.1333C114.42 55.1181 113.741 55.423 113.265 55.9694C112.789 56.5158 112.563 57.2504 112.646 57.9837V64.4651H110.164V52.9808Z" fill="white"/>
<path d="M0 81.0697H2.95082V84H0V81.0697Z" fill="white"/>
<path d="M5.33183 80.6576V74.6878H3.93433V72.4564H5.33183V69.3488H7.85414V72.4681H10.8196V74.6995H7.85414V80.2604C7.79615 80.6484 7.92054 81.0417 8.18939 81.3205C8.45825 81.5992 8.83972 81.7304 9.21756 81.674C9.76266 81.6762 10.3003 81.544 10.7855 81.2884V83.4147C10.0929 83.816 9.30789 84.0177 8.51313 83.9988C6.61571 83.9871 5.33183 83.1576 5.33183 80.6576Z" fill="white"/>
<path d="M13.7705 72.4973H16.4711V75.0916C17.056 73.3437 18.7702 72.1936 20.6558 72.284V75.0679H20.4976C18.1255 75.0679 16.4711 76.5724 16.4711 79.6169V84H13.7705V72.4973Z" fill="white"/>
<path d="M28.7613 83.7978V82.3552C27.8092 83.4404 26.3866 84.0461 24.905 83.9972C22.6453 83.9972 20.6558 82.8243 20.6558 80.4786C20.6558 77.9568 22.7067 76.7488 25.4822 76.7488C26.5991 76.7291 27.7115 76.8876 28.7736 77.2179V77.0068C28.7736 75.4351 27.7297 74.5672 25.8384 74.5672C24.6615 74.5843 23.5019 74.8401 22.4365 75.3178L21.6874 73.2301C23.1054 72.5839 24.6604 72.2588 26.2314 72.28C29.7561 72.28 31.4754 74.0511 31.4754 77.0889V83.833L28.7613 83.7978ZM28.835 79.0359C27.962 78.7296 27.0387 78.5747 26.1086 78.5785C24.3892 78.5785 23.3822 79.247 23.3822 80.3847C23.3822 81.5224 24.4015 82.0737 25.6296 82.0737C27.4349 82.0737 28.7859 81.1002 28.7859 79.7279L28.835 79.0359Z" fill="white"/>
<path d="M32.459 72.2791H35.246L38.3547 80.8241L41.4871 72.2791H44.2623L39.4981 84H37.116L32.459 72.2791Z" fill="white"/>
<path d="M44.2691 78.126C44.194 76.6173 44.7328 75.1428 45.7619 74.0403C46.791 72.9379 48.2222 72.3022 49.7273 72.2791C53.2855 72.2791 55.0819 75.087 55.0819 78.3109C55.0819 78.4842 55.0819 78.9002 55.0819 79.0389H46.837C46.9886 80.6908 48.3976 81.9374 50.0497 81.8815C51.203 81.886 52.3039 81.3988 53.0782 80.5411L54.5407 81.893C53.4211 83.2829 51.7143 84.0622 49.9346 83.9961C48.3924 84.0202 46.9089 83.4032 45.8359 82.2914C44.7629 81.1796 44.1958 79.672 44.2691 78.126ZM52.5485 77.3403C52.5743 75.7408 51.3095 74.42 49.7158 74.3821C48.1236 74.4485 46.855 75.7417 46.814 77.3403H52.5485Z" fill="white"/>
<path d="M57.0493 68.3721H60.0001V84H57.0493V68.3721Z" fill="white"/>
<defs>
<linearGradient id="paint0_linear" x1="41.3114" y1="0" x2="41.3114" y2="35.1628" gradientUnits="userSpaceOnUse">
<stop stop-color="#FFD245"/>
<stop offset="1" stop-color="#FE7F21"/>
</linearGradient>
</defs>
</svg>
