<?xml version="1.0" encoding="UTF-8"?>
<svg width="105px" height="78px" viewBox="0 0 105 78" version="1.1" xmlns="http://www.w3.org/2000/svg" xmlns:xlink="http://www.w3.org/1999/xlink">
    <!-- Generator: Sketch 50.2 (55047) - http://www.bohemiancoding.com/sketch -->
    <title>kt_dark</title>
    <desc>Created with Sketch.</desc>
    <defs>
        <linearGradient x1="50%" y1="0%" x2="50%" y2="100%" id="linearGradient-1">
            <stop stop-color="#FFD245" offset="0%"></stop>
            <stop stop-color="#FE7F21" offset="100%"></stop>
        </linearGradient>
    </defs>
    <g id="Symbols" stroke="none" stroke-width="1" fill="none" fill-rule="evenodd">
        <g id="fut" transform="translate(-132.000000, -51.000000)" fill-rule="nonzero">
            <g id="kt_dark">
                <g transform="translate(132.000000, 51.000000)">
                    <path d="M86,32 L69.9883333,32 C69.7590781,23.1929836 62.4421467,16.1709057 53.4945833,16.1709057 C44.54702,16.1709057 37.2300885,23.1929836 37.0008333,32 L21,32 C21.0000003,14.3268879 35.5507458,-1.08216603e-15 53.5,0 C71.4492542,1.08216603e-15 85.9999997,14.3268879 86,32 Z" id="Shape" fill="url(#linearGradient-1)"></path>
                    <polygon id="Shape" fill="#07103C" points="0 44 2.42888403 44 2.42888403 52.3271375 6.80525164 47.8513011 9.84682713 47.8513011 5.62363239 52.0148699 10 58 7.12253829 58 3.91684902 53.6074349 2.42888403 55.0855019 2.42888403 57.9791822 0 57.9791822"></polygon>
                    <path d="M17.5,58.7669627 L17.5,57.4609889 C16.6189976,58.4763963 15.3027208,59.043178 13.9318182,58.9974287 C11.8409091,58.9974287 10,57.8999717 10,55.7050577 C10,53.3455253 11.8977273,52.2151446 14.4659091,52.2151446 C15.4992849,52.1967384 16.5285901,52.3451061 17.5113636,52.6541274 L17.5113636,52.4565851 C17.5113636,50.9859928 16.5454545,50.1738746 14.7954545,50.1738746 C13.7051641,50.1779827 12.6282691,50.4061895 11.6363636,50.8433233 L10.9431818,48.8898499 C12.2552899,48.2852871 13.6940846,47.9810919 15.1477273,48.0009098 C18.4090909,48.0009098 20,49.6580698 20,52.5004834 L20,58.810861 L17.5,58.7669627 Z M17.5681818,54.3112874 C16.7675295,54.0272627 15.9211381,53.8823577 15.0681818,53.8832792 C13.4772727,53.8832792 12.5454545,54.5088296 12.5454545,55.5733629 C12.5454545,56.6378962 13.4886364,57.1427264 14.6818182,57.1427264 C16.3522727,57.1427264 17.6022727,56.2318371 17.6022727,54.9478124 L17.5681818,54.3112874 Z" id="Shape" fill="#07103C"></path>
                    <polygon id="Shape" fill="#07103C" points="22 57.2667353 27.9751479 50.0278064 22.2236686 50.0278064 22.2236686 48 31 48 31 49.7332647 25.0248521 56.938208 31 56.938208 31 59 22 59"></polygon>
                    <path d="M39.5,58.7669627 L39.5,57.4609889 C38.6189976,58.4763963 37.3027208,59.043178 35.9318182,58.9974287 C33.8409091,58.9974287 32,57.8999717 32,55.7050577 C32,53.3455253 33.8977273,52.2151446 36.4659091,52.2151446 C37.4992849,52.1967384 38.5285901,52.3451061 39.5113636,52.6541274 L39.5113636,52.4565851 C39.5113636,50.9859928 38.5454545,50.1738746 36.7954545,50.1738746 C35.7051641,50.1779827 34.6282691,50.4061895 33.6363636,50.8433233 L32.9431818,48.8898499 C34.2552899,48.2852871 35.6940846,47.9810919 37.1477273,48.0009098 C40.4090909,48.0009098 42,49.6580698 42,52.5004834 L42,58.810861 L39.5,58.7669627 Z M39.5681818,54.3112874 C38.7603658,54.0247 37.9060429,53.8797548 37.0454545,53.8832792 C35.4545455,53.8832792 34.5227273,54.5088296 34.5227273,55.5733629 C34.5227273,56.6378962 35.4659091,57.1427264 36.6590909,57.1427264 C38.3295455,57.1427264 39.5795455,56.2318371 39.5795455,54.9478124 L39.5681818,54.3112874 Z" id="Shape" fill="#07103C"></path>
                    <polygon id="Shape" fill="#07103C" points="45 44 47.4503311 44 47.4503311 52.320951 51.8653422 47.8484398 54.8454746 47.8484398 50.584989 52.0089153 55 57.9895988 52.1854305 57.9895988 48.9624724 53.6315007 47.4613687 55.1084695 47.4613687 58 45 58"></polygon>
                    <path d="M56,44 L58.2860412,44 L58.2860412,49.4415488 C58.9329235,48.3371402 60.1069604,47.6596897 61.375286,47.6589724 C63.6613272,47.6589724 65,49.201787 65,51.5577066 L65,58 L62.6830664,58 L62.6830664,52.2457185 C62.6830664,50.6716307 61.9107551,49.7751303 60.5411899,49.7751303 C59.898493,49.7617024 59.2814872,50.0304172 58.8491686,50.5120297 C58.4168501,50.9936422 58.2115023,51.6410476 58.2860412,52.2874162 L58.2860412,58 L56,58 L56,44 Z" id="Shape" fill="#07103C"></path>
                    <path d="M66,57.4567164 L67.0322581,55.8039801 C67.9664308,56.601625 69.1165759,57.0618234 70.3148387,57.1174129 C71.3470968,57.1174129 71.8735484,56.679602 71.8735484,55.9353234 C71.8735484,55.1910448 70.9032258,54.840796 69.8090323,54.5233831 L69.6335484,54.4577114 C68.1574194,53.99801 66.5367742,53.3631841 66.5367742,51.2835821 C66.5367742,49.2039801 68.116129,48 70.1083871,48 C71.4193127,48.0245568 72.6969234,48.4419653 73.7935484,49.2039801 L72.8851613,50.9333333 C72.0410715,50.3424204 71.0661481,49.9953272 70.0567742,49.9263682 C69.1690323,49.9263682 68.6529032,50.3641791 68.6529032,51.0208955 C68.6529032,51.6776119 69.6232258,52.1154229 70.7174194,52.4547264 L70.9032258,52.520398 C72.3690323,53.00199 74,53.7024876 74,55.6616915 C74,57.8507463 72.3690323,59 70.283871,59 C68.7346653,58.9993674 67.2289153,58.4569143 66,57.4567164 Z" id="Shape" fill="#07103C"></path>
                    <path d="M77.2178218,56.0446154 L77.2178218,50.7476098 L76,50.7476098 L76,48.7677114 L77.2178218,48.7677114 L77.2178218,46 L79.4158416,46 L79.4158416,48.7677114 L82,48.7677114 L82,50.7476098 L79.4257426,50.7476098 L79.4257426,55.6818068 C79.3752083,56.0261049 79.4836,56.3750961 79.7178864,56.6224292 C79.9521729,56.8697623 80.2845989,56.9861365 80.6138614,56.936088 C81.088881,56.9380891 81.557431,56.8207827 81.980198,56.5940113 L81.980198,58.4806161 C81.3766662,58.8366894 80.6925758,59.0157435 80,58.9989141 C78.3663366,58.9989141 77.2178218,58.2525649 77.2178218,56.0446154 Z" id="Shape" fill="#07103C"></path>
                    <path d="M91.5,58.7669627 L91.5,57.4609889 C90.6189976,58.4763963 89.3027208,59.043178 87.9318182,58.9974287 C85.8409091,58.9974287 84,57.8999717 84,55.7050577 C84,53.3455253 85.8977273,52.2151446 88.4659091,52.2151446 C89.4992849,52.1967384 90.5285901,52.3451061 91.5113636,52.6541274 L91.5113636,52.4565851 C91.5113636,50.9859928 90.5454545,50.1738746 88.7954545,50.1738746 C87.7051641,50.1779827 86.6282691,50.4061895 85.6363636,50.8433233 L84.9431818,48.8898499 C86.2552899,48.2852871 87.6940846,47.9810919 89.1477273,48.0009098 C92.4090909,48.0009098 94,49.6580698 94,52.5004834 L94,58.810861 L91.5,58.7669627 Z M91.5681818,54.3112874 C90.7603658,54.0247 89.9060429,53.8797548 89.0454545,53.8832792 C87.4431818,53.8832792 86.5568182,54.4759059 86.5568182,55.5733629 C86.5568182,56.6708199 87.5,57.1427264 88.6931818,57.1427264 C90.3636364,57.1427264 91.6136364,56.2318371 91.6136364,54.9478124 L91.5681818,54.3112874 Z" id="Shape" fill="#07103C"></path>
                    <path d="M96,48.221998 L98.3018433,48.221998 L98.3018433,49.8980827 C98.9531972,48.7221113 100.13535,48.0007638 101.412442,48 C103.68318,48 105,49.6316852 105,52.1402624 L105,59 L102.698157,59 L102.698157,52.8728557 C102.698157,51.1967709 101.920507,50.2421796 100.541475,50.2421796 C99.8943351,50.2278816 99.2730643,50.5140084 98.8377574,51.0268282 C98.4024504,51.539648 98.1956832,52.2290036 98.2707373,52.9172553 L98.2707373,59 L96,59 L96,48.221998 Z" id="Shape" fill="#07103C"></path>
                    <polygon id="Shape" fill="#07103C" points="24 75 27 75 27 78 24 78"></polygon>
                    <path d="M29.2178218,75.0342495 L29.2178218,69.7372438 L28,69.7372438 L28,67.7573454 L29.2178218,67.7573454 L29.2178218,65 L31.4158416,65 L31.4158416,67.7677114 L34,67.7677114 L34,69.7476098 L31.4158416,69.7476098 L31.4158416,74.6818068 C31.3653073,75.0261049 31.473699,75.3750961 31.7079854,75.6224292 C31.9422719,75.8697623 32.2746979,75.9861365 32.6039604,75.936088 C33.07898,75.9380891 33.54753,75.8207827 33.970297,75.5940113 L33.970297,77.4806161 C33.3667652,77.8366894 32.6826748,78.0157435 31.990099,77.9989141 C30.3366337,77.9885481 29.2178218,77.2525649 29.2178218,75.0342495 Z" id="Shape" fill="#07103C"></path>
                    <path d="M37,67.2047902 L39.3533569,67.2047902 L39.3533569,69.6395492 C39.8630613,67.9991492 41.3569095,66.9197716 43,67.004673 L43,69.6173139 L42.8621908,69.6173139 C40.795053,69.6173139 39.3533569,71.0292518 39.3533569,73.8864803 L39.3533569,78 L37,78 L37,67.2047902 Z" id="Shape" fill="#07103C"></path>
                    <path d="M50.4914869,77.8102932 L50.4914869,76.4563687 C49.6114846,77.4748244 48.2967019,78.0433076 46.9273553,77.997421 C44.8388195,77.997421 43,76.8966694 43,74.6951662 C43,72.3285502 44.8955732,71.1947761 47.46084,71.1947761 C48.4930428,71.1763146 49.5211797,71.3251278 50.5028377,71.6350767 L50.5028377,71.4369414 C50.5028377,69.9619343 49.538025,69.1473781 47.7900114,69.1473781 C46.7023143,69.1634146 45.6305649,69.4035513 44.645857,69.8518591 L43.953462,67.8925213 C45.2640807,67.2861435 46.7012423,66.9810351 48.153235,67.0009125 C51.4108967,67.0009125 53,68.6630474 53,71.5139941 L53,77.8433157 L50.4914869,77.8102932 Z M50.5595914,73.3412417 C49.7526923,73.0537939 48.8993391,72.9084136 48.0397276,72.9119486 C46.4506243,72.9119486 45.5198638,73.539377 45.5198638,74.607106 C45.5198638,75.6748351 46.461975,76.1921883 47.5970488,76.1921883 C49.2656073,76.1921883 50.5141884,75.2785645 50.5141884,73.9906851 L50.5595914,73.3412417 Z" id="Shape" fill="#07103C"></path>
                    <polygon id="Shape" fill="#07103C" points="54 67 56.5973764 67 59.4944501 75.0194274 62.4137235 67 65 67 60.5600404 78 58.3400605 78"></polygon>
                    <path d="M65.0064002,72.4873313 C64.936961,71.0714512 65.4349009,69.6875572 66.3860523,68.6529485 C67.3372037,67.6183398 68.6599791,67.0217626 70.0510927,67 C73.3397214,67 75,69.6352204 75,72.6608438 C75,72.8235117 75,73.2139147 75,73.3440491 L67.3797471,73.3440491 C67.5198257,74.8943279 68.8220837,76.0643181 70.3490915,76.011803 C71.4150006,76.016071 72.4325148,75.5587754 73.1481508,74.7538378 L74.4997879,76.0226476 C73.4650158,77.3270219 71.8875756,78.0583607 70.2426633,77.9963517 C68.8173055,78.018959 67.4462318,77.4399223 66.4544844,76.3965148 C65.4627371,75.3531073 64.938625,73.9382378 65.0064002,72.4873313 Z M72.6585815,71.7499034 C72.682381,70.2488308 71.5133805,69.0092528 70.0404499,68.9737042 C68.568864,69.0359762 67.3963945,70.2496313 67.3584615,71.7499034 L72.6585815,71.7499034 Z" id="Shape" fill="#07103C"></path>
                    <polygon id="Shape" fill="#07103C" points="76 64 79 64 79 78 76 78"></polygon>
                </g>
            </g>
        </g>
    </g>
</svg>