<svg width="130" height="91" viewBox="0 0 130 91" fill="none" xmlns="http://www.w3.org/2000/svg">
<path d="M83.1146 38.093H64.2156C63.945 27.6091 55.3086 19.25 44.7476 19.25C34.1865 19.25 25.5501 27.6091 25.2795 38.093H6.39331C6.39331 17.0548 23.568 0 44.754 0C65.94 0 83.1146 17.0548 83.1146 38.093Z" fill="url(#paint0_linear)"/>
<path d="M6.39331 51.8486H9.24028V61.9187L14.37 56.506H17.9351L12.9849 61.541L18.1146 68.7789H14.7419L10.9844 63.4669L9.24028 65.2544V68.7537H6.39331V51.8486Z" fill="#3E3D53"/>
<path d="M26.906 69.5683V68.0608C25.8733 69.2329 24.3305 69.8872 22.7236 69.8344C20.2728 69.8344 18.115 68.5675 18.115 66.0339C18.115 63.3102 20.3394 62.0053 23.3496 62.0053C24.5609 61.9841 25.7674 62.1554 26.9193 62.5121V62.284C26.9193 60.5865 25.7871 59.649 23.7359 59.649C22.4579 59.6538 21.1957 59.9172 20.033 60.4218L19.2205 58.1668C20.7585 57.469 22.4449 57.1178 24.1488 57.1407C27.9715 57.1407 29.8363 59.0536 29.8363 62.3347V69.619L26.906 69.5683ZM26.9859 64.425C26.0474 64.0971 25.0553 63.9299 24.0556 63.9309C22.1908 63.9309 21.0986 64.653 21.0986 65.8818C21.0986 67.1107 22.2041 67.6934 23.6027 67.6934C25.5607 67.6934 27.0259 66.6419 27.0259 65.1597L26.9859 64.425Z" fill="#3E3D53"/>
<path d="M31.9673 67.8366L39.0417 59.4804H32.2321V57.1396H42.623V59.1404L35.5486 67.4573H42.623V69.8373H31.9673V67.8366Z" fill="#3E3D53"/>
<path d="M52.4795 69.5683V68.0608C51.4468 69.2329 49.904 69.8872 48.2971 69.8344C45.8463 69.8344 43.6885 68.5675 43.6885 66.0339C43.6885 63.3102 45.9129 62.0053 48.9231 62.0053C50.1344 61.9841 51.3408 62.1554 52.4928 62.5121V62.284C52.4928 60.5865 51.3606 59.649 49.3094 59.649C48.0314 59.6538 46.7692 59.9172 45.6065 60.4218L44.794 58.1668C46.332 57.469 48.0184 57.1178 49.7223 57.1407C53.545 57.1407 55.4098 59.0536 55.4098 62.3347V69.619L52.4795 69.5683ZM52.5594 64.425C51.6125 64.0942 50.6111 63.9269 49.6024 63.9309C47.7377 63.9309 46.6454 64.653 46.6454 65.8818C46.6454 67.1107 47.751 67.6934 49.1495 67.6934C51.1075 67.6934 52.5727 66.6419 52.5727 65.1597L52.5594 64.425Z" fill="#3E3D53"/>
<path d="M58.6067 51.8486H61.4788V61.9112L66.6538 56.5026H70.1469L65.153 61.5338L70.328 68.7663H67.029L63.2512 63.496L61.4917 65.2821V68.7789H58.6067V51.8486Z" fill="#3E3D53"/>
<path d="M71.3933 51.8486H74.0999V58.4291C74.8658 57.0935 76.2558 56.2743 77.7575 56.2734C80.4641 56.2734 82.049 58.1392 82.049 60.9882V68.7789H79.3059V61.8202C79.3059 59.9167 78.3915 58.8325 76.7699 58.8325C76.009 58.8163 75.2785 59.1412 74.7666 59.7236C74.2548 60.3061 74.0117 61.089 74.0999 61.8706V68.7789H71.3933V51.8486Z" fill="#3E3D53"/>
<path d="M84.1804 68.0559L85.4179 66.148C86.5377 67.0688 87.9165 67.6 89.3529 67.6642C90.5904 67.6642 91.2215 67.1588 91.2215 66.2997C91.2215 65.4405 90.0583 65.0362 88.7466 64.6698L88.5362 64.594C86.7667 64.0634 84.8239 63.3306 84.8239 60.93C84.8239 58.5294 86.7172 57.1396 89.1054 57.1396C90.6769 57.168 92.2085 57.6498 93.5231 58.5294L92.4341 60.5257C91.4223 59.8436 90.2536 59.4429 89.0436 59.3633C87.9794 59.3633 87.3606 59.8687 87.3606 60.6268C87.3606 61.3848 88.5238 61.8902 89.8355 62.2819L90.0583 62.3577C91.8154 62.9136 93.7706 63.7222 93.7706 65.9838C93.7706 68.5107 91.8154 69.8373 89.3158 69.8373C87.4587 69.8366 85.6536 69.2104 84.1804 68.0559Z" fill="#3E3D53"/>
<path d="M97.4156 66.2286V59.7613H95.9016V57.344H97.4156V53.9648H100.148V57.344H103.361V59.7613H100.16V65.7857C100.098 66.206 100.232 66.6321 100.524 66.9341C100.815 67.2361 101.228 67.3781 101.637 67.317C102.228 67.3195 102.81 67.1763 103.336 66.8994V69.2028C102.586 69.6375 101.735 69.8562 100.874 69.8356C98.8434 69.8356 97.4156 68.9244 97.4156 66.2286Z" fill="#3E3D53"/>
<path d="M114.283 69.5683V68.0608C113.25 69.2329 111.707 69.8872 110.101 69.8344C107.65 69.8344 105.492 68.5675 105.492 66.0339C105.492 63.3102 107.716 62.0053 110.727 62.0053C111.938 61.9841 113.144 62.1554 114.296 62.5121V62.284C114.296 60.5865 113.164 59.649 111.113 59.649C109.835 59.6538 108.573 59.9172 107.41 60.4218L106.597 58.1668C108.135 57.469 109.822 57.1178 111.526 57.1407C115.349 57.1407 117.213 59.0536 117.213 62.3347V69.619L114.283 69.5683ZM114.363 64.425C113.416 64.0942 112.415 63.9269 111.406 63.9309C109.528 63.9309 108.489 64.615 108.489 65.8818C108.489 67.1487 109.594 67.6934 110.993 67.6934C112.951 67.6934 114.416 66.6419 114.416 65.1597L114.363 64.425Z" fill="#3E3D53"/>
<path d="M119.344 57.3959H122.07V59.3307C122.841 57.9732 124.24 57.1405 125.752 57.1396C128.441 57.1396 130 59.0232 130 61.9189V69.8373H127.275V62.7646C127.275 60.8298 126.354 59.7279 124.721 59.7279C123.955 59.7114 123.219 60.0417 122.704 60.6336C122.189 61.2256 121.944 62.0213 122.033 62.8158V69.8373H119.344V57.3959Z" fill="#3E3D53"/>
<path d="M0 87.8252H3.19672V90.9996H0V87.8252Z" fill="#3E3D53"/>
<path d="M5.77617 87.379V80.9118H4.26221V78.4945H5.77617V75.1279H8.50868V78.5071H11.7212V80.9244H8.50868V86.9487C8.44585 87.3691 8.5806 87.7952 8.87186 88.0972C9.16312 88.3991 9.57638 88.5412 9.98571 88.4801C10.5762 88.4826 11.1587 88.3393 11.6843 88.0625V90.3659C10.934 90.8006 10.0836 91.0192 9.22258 90.9987C7.16704 90.986 5.77617 90.0875 5.77617 87.379Z" fill="#3E3D53"/>
<path d="M14.918 78.5391H17.8436V81.3497C18.4772 79.4561 20.3343 78.2101 22.377 78.3081V81.324H22.2057C19.6359 81.324 17.8436 82.9538 17.8436 86.252V91.0004H14.918V78.5391Z" fill="#3E3D53"/>
<path d="M31.158 90.7814V89.2185C30.1265 90.3942 28.5854 91.0504 26.9803 90.9974C24.5323 90.9974 22.377 89.7268 22.377 87.1855C22.377 84.4537 24.5988 83.1449 27.6056 83.1449C28.8155 83.1236 30.0206 83.2954 31.1713 83.6532V83.4245C31.1713 81.7218 30.0404 80.7815 27.9915 80.7815C26.7165 80.8 25.4603 81.0772 24.3061 81.5947L23.4945 79.333C25.0308 78.633 26.7153 78.2808 28.4172 78.3038C32.2356 78.3038 34.0983 80.2224 34.0983 83.5134V90.8195L31.158 90.7814ZM31.2378 85.6226C30.292 85.2908 29.2918 85.123 28.2842 85.1271C26.4215 85.1271 25.3306 85.8514 25.3306 87.0839C25.3306 88.3164 26.4348 88.9136 27.7653 88.9136C29.7211 88.9136 31.1846 87.859 31.1846 86.3723L31.2378 85.6226Z" fill="#3E3D53"/>
<path d="M35.1638 78.3027H38.1831L41.5508 87.5598L44.9443 78.3027H47.9507L42.7895 91.0004H40.2089L35.1638 78.3027Z" fill="#3E3D53"/>
<path d="M47.9582 84.6369C47.8768 83.0025 48.4604 81.4051 49.5753 80.2108C50.6902 79.0165 52.2407 78.3279 53.8712 78.3027C57.7259 78.3027 59.672 81.3447 59.672 84.8372C59.672 85.025 59.672 85.4757 59.672 85.6259H50.7401C50.9042 87.4154 52.4307 88.766 54.2205 88.7054C55.4699 88.7103 56.6626 88.1824 57.5014 87.2532L59.0857 88.7179C57.8728 90.2236 56.0238 91.0678 54.0958 90.9962C52.4251 91.0223 50.818 90.3539 49.6555 89.1495C48.4931 87.945 47.8787 86.3118 47.9582 84.6369ZM56.9275 83.7857C56.9554 82.053 55.5852 80.6221 53.8587 80.581C52.1339 80.6529 50.7596 82.0539 50.7151 83.7857H56.9275Z" fill="#3E3D53"/>
<path d="M61.8035 74.0693H65.0002V90.9996H61.8035V74.0693Z" fill="#3E3D53"/>
<defs>
<linearGradient id="paint0_linear" x1="44.754" y1="0" x2="44.754" y2="38.093" gradientUnits="userSpaceOnUse">
<stop stop-color="#FFD245"/>
<stop offset="1" stop-color="#FE7F21"/>
</linearGradient>
</defs>
</svg>
