<svg xmlns="http://www.w3.org/2000/svg" viewBox="0 0 792.55 434.92">
  <defs>
    <style>
      .cls-1 {
        fill: #ccc;
        stroke: #fff;
        stroke-width: 0.5px;
      }
    </style>
  </defs>
  <title>map-kz</title>
  <g id="Слой_2" >
    <g id="Слой_1-2">
      <g>
        <path id="KZ-AKM" class="cls-1" d="M379.82,99.88l3.13.19,1.65,3.46,2.9-1.29,3.7-.57.14,3.08h6.23l2,1.06,2.15.27,1.24-.71,4.11,1.46-.22-6.69,4.32-.12,1.14,1.42,2.77,1.12,2,1.88.53.3,1.13-1.12-.5-.7.59-1,.77.59L422,99.83l-.22-1-1.19-.48-.43-2.18,2.83.06.76-1.69.83-.48,2.14.29.49-1.58.54-.09.37-1.86,1.39-.84.81-.08.33-1.19.67,0,.86-.88.53.18,1.66-.83-1.65-1.88,1.07.22-.92-3.19,3-2.76-1.14-1.58.69-.22.07-1.36-.34-1.11-1.35-.11.25-2.3-2.17-.17-.61-1.27-1.07-.36-.09-1.1-1.4-2,.59-.91.82-.08.56-.23,0-.82,1-.75.51.59.6-1.19-1,.06-.06-1.65,2.86.08.44-.52-.52-.59.16-.54-.64-1,1.5.11.17-.81,1.91.14.09,1,2.74-.2-.06-1.67,1.91.15.06,1.39,1.22.24.23.84.81.21.35,1.13,0,1.52,1.34.38.63-1.46L446,63.22l-.33-1.54.82-.08.36-1.63,1.08.23.46-.93,1-.06.73-.78,4.22.07L454.5,60l1.07.37.22,3.33-.47,1.06.66.33.44-.65,2.41.61,1.39-.57.17,1.8-.84.48.22.85-.82.07.08,1-.58.51,3.8-.1.3-.52.68.05.1.56,2,2.5.29,1.54,1.89-.25-.36-2.36,1.76-.26.47-2.71,8.21-.23-.08,1,.26,0-.29,1.9,3.14.56.21.58,1.72,0,.73-.76.54-.09.46-.64,1.21-.17.65-1.31,2,0L488,69.76l4,4.38-.78,1.17-.63,2.28.62,1.71-1.24.56,0,1.1.94,1.06.26,1.26,5.67.71,4.6-.35.91-2.38,3.75-.83.83.78,1.81-.9,2.1,0,.63-.9.66-.06.41,1v2.37l.82.93.54,5.75,2.49-1.06,3.72,1.89,2.64-.06.24,1.28,1.45-.07,1.39,2.67,7.52.56h0l.06.56,1,.15.45,20,.41.87-1.19.23-2.73,2.15-.61.72-.1,5.89,3.56-1.75,1,2.29,2.29.21,1.9,1.09-.48.73-1,.11-.76.95-2-.56-4.33,2.83-.29,2.22-2.1,2.48h0l-3.33-1-1.26,1.94-.56-1.66-.53.19.31.57-1.59.45-.53-.87-.94.4-.32,1.55.85.38,1.2,2.67-.2.63.7.49,1-2.23,1,.14,2.53,1.14-2.89,2.76L518.78,145l.69,1.67-1.08.51-1.67.17-.79,1.34-3.14-1.33-1.14,2.08-.77.17-.19.5.56.59-1.31,1.53-2.81.17-.12,1-.71-.35-1,.92.55.72L504.45,156l2.11,1.43-1.61.84-2.23-1.44-.77,1.2-1.44.48.43,2.9-1.3.36.27.94-2.43-1.85-4.08.43-.48,1-1.21-.4,1.78-2.51-.35-1.46.59-.84-.18-.67L493,156l1.33-1.79-2.2-1.95-1.4.1-.26-1.07-1.32.5-.28-.94-.9.16,0,.78L485.06,153l-.55,2.92-1.39,0-.63,1.23-1.74-.19-1.52,1.26.41.94-2.57,1.8-1.38,0-.3.48-1.28.26-.25,6.4-1.4-2.45-4.19,1.88,1.21,3.07-.62,1.22-2.15.29-2.79,1.78-1.57.74-1.2-.62.08-2.17,1.73-2.52-.41-.93-.91.3L461,167l-6,1.75-.87-.08-.66.33-.86-.21-1.15.28.47-2.51-1.13-.1-.57-.69L449.5,164l-.51.09-.59,1-.36-1.7-2.64,1.44.69,2.24-1.6,1-.87-.07-.57-.69-.2.88.57.69-.24,1.38-.51.08-.83-.7-2.5,1.32-2.52-1.61-1.13-.09-.32-.79-1.56.51-.67-1.2,1.39-1.55.81-3.78.86-1.34-.43-2.61.94-.57.27-6.81-6,.17-.6,1.11-2.37.85-4.22,3.17L421.93,155l-2.75.58-1.15-.21,1.3,1.76.14,1.69h0l-2.31,1.76-8.47,1.1-4.58,2.91-2.76-4.27,2.16-1.28-1.27-3.16-1.67-.61-4.81,1.4-5.18-1.84L389,153.69l-2.41.64-1-4.06-1.49.7-.64-.55-.94.46,0-1.16-.68.61L382,149l-.22-1.18-3.64-2.14-1.21,3.95-3.87.44-.74-1.59,1.28-6-4.14-4,1.1-1-1.67-2.18,2.77-2.47-.92-.71,1.64-4.77-1.77-3.67-2.43-.13-1-3.37,3.38.33,5.1-2.62.8-3.53.86-5,2.38-2Z"/>
        <path id="KZ-AKT" class="cls-1" d="M243.33,290.21l-1.66.88-2,.43-1,.64-.86,1.18-1,2-.75,2.14-.11,1.92-.85.43-.64,1.07-.05.83L226.54,304l-28,8.87h0l-2.79-20.57L194,287.45h0l-1.6-3.13.36-1.18-2.29-3-.24-3.7-11.41-3.4-3.95-1.64L169,265.57l-1.21-4.7-2.9-3.66,1.53-11.71.74-4.55-1.32-2.25-.43-5.41-3-3.39.7-2.66L162,222.6l-.74-1.26.64-4.64.57-.45-.09-4.69-3.49-.3V210L157.42,209l-.64,1.08-1.27-.33.06,1.73-.48,2.55-2.12-.21-1.17-.59-4.63-.49.78-2-.83-1.89.56-1.7-1.35-6.85-1-.24-.88,2.26-1.19-.59.29-.79-2.36-1.07-1.54-1.42h0l-.18-2.77,1.28-4.37-.68-1.56,1.21.6.79-2,1.5-1.35h1.9l.35-1.45,2.4-.05,1.66.3,1.91-1.13-.45-.83,1.35-1.7.41-1.07h2.15l-1.14-1.39,1.87-3.29-.07-.89.87-1.76-.25-1.52-1.31-.62-.06-.77-.92-.28-.07-2.57.36-2.11-1.46-2,2.07-2.2-.33-.87,2.45-2.92-.3-.43h0l.6.4.36-.13,1.13-1.77.7-.39.38-.64-.32-1.37L159,151.7l-.32-2.22.59-1.25.4-1.32.58.21.47-.06.67.37h.32l.25-.18.17.16.1.58.45.14.32.5.41-.16,0-.59.45-.11.12-.27.32,0,.16-.23.49,0,.25.12.47-.6-.1-.61.83-.41.63.37.36.43.1.72-.13.35-.63.79-.15.39.15.38.55.5.93.59,4.07,3.81.35.14.6-.57,1.58.09.4.94,1.25.65,2,1.55h.37l.42-.35.39-.91,1.56-.91,1-.28,2.12-1.13,1-.95,1.1-.8.73-.28.25-.27.1-.33-.12-1,.05-1,.76-2.52.31-.44.4-.14,1.62.83h1.19l.55-.49.21-1.35.28-.14.9.19.35-.24.11-.48-.29-1.3v-.93l.65-.74.1,0,.49.62.17.63,1,.56.92,1.25.92.05.92.5.24-.2.15-.83-.39-1.07-.18-1.09.12-.09,1.13,0,.39-.14.48.06,1,.8.4.08,1.05-.67.37.18.42.44.47.1,2-.74,1.15-.6.37.42.34,1.18.63.5.75.31.5.84,0,1.07.6.78,1.76,1.2,1.34.39.33-.12.06-.22-.27-.66.08-.24,1.61-.77h1l.53,1,.82-.36.3-1.09.13-3.89.16-1.39.47-.24.77-.06.45.7.6.44.31,0,.24-.31.5-.12.36.72.85,0,.25.37.95-.89.28,0,.47-.4.22.34-.08.66.18.45,1.46.34.11-.1-.12-.33.09-.27.51-.12.2-.27-.14-.89.47-.22.33-.34.16.09.17-.18.16.1.22-.33.66.27.6,1.89.28.38.5.09,1.13-.26,1,.11.78.16.38.44.75,1.56,0,.42-.4.54-.29,1.17.14,2,.49,1.49.45.27.6.06,1.7-.64.75.06.23.33-.23,1,.15.65,1.34.64.4,1.08.62.48,1.08.15.84-.24.46,0,1.39.5,2.23.25.51.21.33.53.37.11.46-.39,1.67.4,1.32-.36h.38l1.23,1.69V156l-.42.19,0,.18,0,1.84,0,.24.22.05,1.53-.78,3.41-.87.91-.48,1.27-2.12,2.05-5.36.58-.84.68-.28L265,148l.87.45.19.28.05,1.4,2.37,3,.75.42,2.35.29,2.11.16,2-.11,1.2.24,1.5,0,1.93-.69,1.56-.08,8.13-3.31.46-.39.3-.81.58-3.81,1.76-8.88,1.63-.55h0l1.29.63,1.43-.63.87-1.52,1.36,2.1.17,2,1,3.23,1.58.62,1-1.44.52-.38,2.88,1.73V143l-.65.11-.65,2.25,3.5,3.41-2.2,1.53.39,1.72v1.84l2.72-.85,1.78,9.06,2.57,4.09.39,1.56,4.23,6.32.38,1.56-.94,3.3-3.08-2.53-3.1,2.75-.28,3.2-3.07,1.87.63,3.45.63.9-2.29-.79-1.65,2.15,1,1.15,3.55,6-.64.49-.38-.38-2.91.47-.5,1.39,2.52-.23,1.39,4.81,5.42,5.36,4.2-2.29,2,1.8.12,1.12-1.29,1.72.74,2.51,6.34,2.15,1.13,1.27,3.17,1.2,3.15,2.2,4.19,8h0l3.56,6.23,1.77.79-4.31,4.75-22.92,16h0l-1.46.47-.85-1.22-5.59-.87.84-1.94-5.36-6.82-2.43.37-1.6-3.05-3.32-5-11.81,2.72L279.25,259l-8.13-.67-.56,6.16-6,.49-7.83,7.27-1.64,2.56-2.24,2.45-4.27,6.41Z"/>
        <path id="KZ-ALM" class="cls-1" d="M620.78,255.05l2.32,1.51,1,1.14,2.45.22,1,2.44,8.65-1,6.1,8.55,9.25-3.23,4.15,1.72-.08,2,6.65,2.92,5.65,3.16,6,.15,1.09,1.66h0l.92,0,1.09-.71h0l.57,1.43.63.73.87-1.23h.57l-.73,1.14.65.14h0l.68,0,.68.51.63-1.16.46,0-.36,1h0l-1,.73.27.3.85-.17-.69.91,6.44,7.55h0l1.52,5.75,3.15,3.43-.6,4.2.24,1.58.71.62,2-.72h0l.33.45,1.71,1,.72.64,3.36.72.27.38.52,2-.74,3.53-2.06,3-1-.72-2.46-2.19-1-.26-1.57.33-1.12.45L689.58,313l-1.24.12-.57-.33-.34-1-.19-.1-1,.27-.5-.15-.13-1.11-.22-.43-.24-1.26-.72-.55-.37-.65-.82-.45-.19.3-.4.2-.64-.15-.93.74-.28.55-.72.17-.29.4-.52.31-1,.16-.3-.53-.12,0-.93.88-.61-.14-.21-.18-.59.56-1,.16-.38-.12-.14.2-.73.23-.28.53-.21.05-.93-.28,0,.33-.29.31,0,.35-.21.23-.4,0-.76.26-1.24,0-1.18,1-.71.07-.72-.46-1.27-.36-.44-.44-.14.06-.11.59-.38.35-1.75.74-.92-.12-.88.13-.39-.31-.45.1-.48.41-.35,1-.9.63H657l-.39-.52-.26-.08-.55.21-.73.61-.46.15-.85,0-.48-.44-.67.06L652,316l-.16.27.24.55-.06.25-.29-.16-.29.06-1.12,1.23-2,1.25-.31.35-.5.15-.22.35.22.24.52-.37h.43l.64.43.51.07.57,1.69.79.43,1.57-.24.62-.56,1.46.21.69-.52.49.06.3.34-.11.34.17.09.83-.24.46.91,1.6.8.69.67.1.72-1.66.56-.79.8.83,1.28-.25.56-.52,2.17-.42.74.4,1.31.38,3.06.39,1.15v2.14l.28,1.84.58,1.45L659,343l0,.27.28.36,0,.76,1,2.25-.06.82.32,1.47.36.26,1,2.23,2.46,6.2.3.4.26.94-.23.81,0,.52-.49.5-1,2.06,0,.19.23.29,1.36-.09.27.12,0,.74.4.8,0,.67.34.81-.44.82-.61,0-.45.38-.5-.3-.54-.1-1.47.42-1.77,1.46-1.79.51-.41.47v.83l.31.58.64.63.89.58,1.66.43.43.75,0,.12-.21,0-.55.3-.22-.23-.08.23-.34.13-.32-.14-.13.28-1.42.6v.26l-.43.29-.3-.11-.52.21v-.22l-.54.21-.1-.29h-.18l-1.06.18-.06.8-.32.8-.39,1.66-.69.67-.3,1.12.2,1,.62,1.29.58.54.53.05.21.24-.37.43-.82.41-.12.59,0,.88.41.57,0,1.42.91.65-.23.79.47.65-.17,1-.64.37-.36,0-.35-.28h-.23l-.56.46-.3-.06-.52.36-.15-.09-.13-.45.16-1.3-.36-.55-.32-.91-.45-.29-.76-.19-.78-.75-.32-.92-.28-.5-.23-.15-1.16-.08-.18.39-.26.07-.15-.19v-.36l-.14,0-.86-.07-.31-.2-.47.07-.26-.42-1.56-.25-.94.66-.83-.14-1.23,0-.49-.82-1.74-1.4-.47-1L638,382l-1.14-.88-.92-.25-.36-.47-.29-.11-.8-1.4-.2-1.09.09-.49.23-.32-.12-.11H634l-1,.34-.31.67-.2.13-.59-.77-.35-.2-.76.09-.56-.21-.55.16-.53-.36-1-.2-.5-.27-.51,0-.58-.5-.59,0-.28-.21-.72.26-.55-.74-2-.46-.44-.7-.75-.28-1.69.7-.62-.23-.33.65L618,375l-3-.68-.4.62-1-.17-.47.15-.47.53-.38-.55-.35-.21h-.3l-.73.45-.62-.67-.61.19-.72-.35-.67,0-.35-.15-.58-.66-1.59.1-1.19-.26-1.16,0-1-.38-.94.11-.6-.22-2.06.54-1.63,0-.71-.22-.57-.79-.35-.21L593.9,372l-.85.14-2.21-.58-1.61,0-.85.83-.91.13-.32.83-.31.25-2.24-.2-.8.08-1-.24-.56.79-.79.08-1.89.54-.47,0-.15-.13-.3-.91-.61-.36-2.6-.11-1.92.36-.24-.11-.31-.43-.9-.1-.65-.54-.61.3-.65-.19-.94.48h0l-.15,0-.2-.94-1,.44-1.08-.68-1.88.21h0l-.22-.43,1.12-.34h0l.52-1.06-3.66-1.73-1.88-.39-.46-1.9-.75-.33.27-1.15-.74-.44.22-2.26,2.58-3.13-.7-1.18-2.91.36.29-.93-1.1-.14-.66.45-3.28-1.15v-1.72l4.25-4,.74-.35.46-1.25-.45-1.93.86-1,.44-1.16-.09-3.34-2-1.38-1.1-1.49-1.21-.17h0l-1.86-1.71-.33,0h0l-4.34-.47-3.71-3.55-.63-1,.89-3.28-1.86-3.21-6.24-4.37-.38-1.19-.76-.91-.16-3.34-5.45-.14-.35-5.11,5.87.43L535,307.76l-.84-10.2,1.85-3.12h0l1.56-3.41,1.7-2.81h0l2.23-2.51,4.13-4.24,5.29-4.78L562,270.3l4.63.93,5.94-1.1,6.63,1.17,0,.82h0l1.12.3,1.33-1.57h0l.54,1.63.6-.73,1.77.64.61-1.44,1.26.2,1.79.53,3,1.31-2.1-2.12,1.35-.25,2,1.05,1.93-.27,1.94,1,.64,1.64,1.46-.22,0-1.78,5.89-.66-.84-14.68h0l.53-1,5,1.12,2.85-3.2,2.48,2.61h0l3.13-4Z"/>
        <path id="KZ-ATY" class="cls-1" d="M64.87,284.05l-.14.12-.3-.07-.6-1.25-.2-.11.16-.19-.54-1.2-.1-.8-.45-.49-.07-.23.11-.16.3-.11,1.06.42,1,1.08.33,1.24Zm74.76-85.62,1.53,1.43,2.36,1.06-.29.8,1.18.59.88-2.26,1,.24,1.35,6.85-.56,1.7.82,1.89-.77,2,4.62.49,1.17.59,2.12.21.48-2.55-.05-1.73,1.27.33.63-1.08,1.47,1.06v1.24l3.49.3.09,4.69-.57.44-.64,4.64.74,1.26,1.08,4.64-.7,2.66,3,3.39.43,5.41,1.32,2.25-.74,4.56-1.53,11.7,2.9,3.67,1.21,4.7,5.83,5.86,3.95,1.64,11.41,3.4.24,3.7,2.29,3-.36,1.18,1.59,3.13h0l-1.74-1-1.52.11-.91-.85-1.34.69-2.06-.62-.51-1.56-.86-.38-1,.68-1-.59-1.45-.42-.32-.89.31-1.54-.67-2-.95-.13-.56.3-.3.5-.57.18-1.26-.78-2.35-3.33-4.58,4.54-2.15-.3-7.68.8-3.72,1.45-2.94.07L152,283l-1.26.3-1.19-.06-1.38.32-.39.64-3-.37.27,1.24-1.05,2-4.42,3.29,2,1.2-1.26,1.21-2,1.19L136,295l-1.39.19-1.3.86-3-.4-.62,1.55-2.62-.14-4.45-1.1h0l0-.25.73.12.35-.15-.74-.26-.12-.25.07-.67.41-.18-.06-.46.19-.16,1.5-.15-.79-.46-.13-.42.26-.27.79-.21-.43-.48-.27-.69-.47-.38-.11-.35.17-.18h.85l.28-.52-1.08-1-.39-.15-.59-.7.41-.54h.68l-.69-.34-.08-.39-.27-.09.21-.34,0-.39.55-.42.85.11-.31-.52.3-.2-.41-.14-.06-.27.68-.37.48-.8.39.45-.06-.4.13-.38-.12-.13-.27.09-.19-.32.26-.42.06-.56.44-.63.07-.76,1.2-1.29.54-.18-.51-.19-.05-.17.62-.09L128,278l-.41-.23-.39-.63-.83-.74.28-1.52-.23-1,.73-.71-.77-.29.27-.66-.38-1.39-.2-.06-.27.14-.29-.14-.44.3-.26-.12.23-.45.35-.11-.63-.64-.21.08-.16-.11.16-.69.37-.28-.24-.5-.4-.16-.12.07-.47.77-1,.57-.53.84,0,.72-.33,0-.34-.24,0-.5-.17-.3.08-.33.26-.26-.12-.43-.35-.23-.37.15-.25.32-.2-.06,0-.75.16-.25-.35-.12-.07-.28-.8-.32-.11-.18.09-.17.36.1.42-.47-.17-.24.1-.48-.22-.38-.45-.31-2.88.56-.75.82-.45.22-.24,0-.35-.78-.44-.08-.53,2.41-.23.27-.58.24h-.85l-1.44-.79-1.92-.35-1.42-.79-1,.11-.44-.23,0-.22-.24.1-.11-.24-1.25-.44-1.4-.21-.71,0-.74-.53.12,1.08.45.44.5.25.27.46-.07,1.15-.26.53-.13-.09.11.32h-.13l-.34-.92.17-.83-.41-.43-.35,0-.1-.39-.39-.35-.47-1.76h-.16l0,.33-.21,0-.25.36-.49.09-.66.68-.21.1-.12-.17.52-.54.49-.28.2-.8h.18l.05-.16-.16-.27.33-.27.07-.54-.89.47-.72.88.43-.84v-.31l-1.11-1.28-2.54-.75-.78.12-.26-.21-.52.23-1-.32-.44.21-.39,0-1.37,1.18-.31,0-.28.21-.15.73-.32-.08-.31.18-.95,0-.45-.22H87.1L86,262.93l-.92.22-.4.26-.42.59-.16.08-.18-.19-.3.06-.89,1.66-.52.5-.39,0-.17-.19.19-.77-.08-.36-.25-.13-.28.13-.64.47-.5.66L80,267l-.53,1.4-.24.24-.34-.08-.21-.3.25-.88-.13-.19-.65.53h-.29l-.18-1.17-.48-.73-1,1.62L76,268l-.35.37-.14,0-.24-.3.16-.89h-.23l-.55.33-.29.39.18.24-.66.54-.5,1-.23.88-.35.54-.26-.3-.08-2-1.31,1.39-.58.41-1.4,2.09-.24.86-1.33-.36-.7.33-.77,1.22.1,1-.27.39-.51.25-.32.46-.84-.28-.53-.43.25.77-.15.61.94.76-.2.09-.59-.28-.14.16.81.66.31.52-.09.22-.53-.15-1.25-.73-.42,0-.51.83-.34,0-.27-.29-.22.06-.18.81.26.48-.36.38-.24-.15-.33-.71-.51-.61h-.17l.1.77.34.54,0,.3.58.59.12.52-.13.15-1.32-.77L58.9,281l-.1-.23h-.46l-.81-.6h-.22l-.18.34-.56-1.16-.24-.13.06-.4-.13-.27.21-.35.62.18-.79-.88,0-.36-.11-.21-1-.36-.44.06-.15.12.35.41h.37l.19.2.09.32-.11.4.24.91,1,1.12.11.4-.14.41.42.26.12.23v.28l-.16.18-.34,0-.19.35h-.19l-.6-.46.06-.25-.33-1.14.09-.42-.26-.1.11-.28-.57-1.4-.63-.59-.84-.48,0-.21-.23-.18-.38-.07.15.23-.09.12-.5-.37-.06.1.45,1,.5.22.07-.37.23.17.12.42.3.33-.09.31.15.45-.25,0-.41-.56-.61-.38-.08.18.28.21.23.59-.46.18,0-.64-.43-.38-.32-.56,0-.22.19-.11-.4-.37h-.35l-.09.13.24.53-.29.18.41.39,0,.39.39.51.53.46-.06.23-1.07-.58-1.93-.54-.34-.54-.77-.47-.55-.11-1-.5-.81-.78-.68.06-.69-1-.26-.72-.67-.36H43.6l-.38-.3-.62-.09-.66-1.31-.41.26-1.14-.24-.3-.32.1-.52-.08-.2-.66-.08-.56-.27v-.59l.58-1.54,1.35-1.15,1.47.08.61.47.12.82,1.1,1.07,1,.11,2.2-.26.81-.67,1-1.42-.67-1.92-3.68-5-.93-2.15-1.4-3.48L42,254.57l-.69-4.65-2.61-.05-1.79-.5-2-3.2-.86-2.05-1-1.75-2.52-2.44-1-.12-.79.25-3.33.33-2,0-2.6-.82-2.81-1.2,0,.79-.21,1.58-.44,1.63-3.5-2.08-1.12-1.14-.45-.78.83-.43.08-.18-1.77-3.17-1-1.54,2.36-1.16.39-.6.71.07.22-.58L12,230.05l0-.53.46-.95-.05-.84-.19-.51L12,227l-1.16-.52-.41-.67h0l2.94,1,2.28-.12,9.89,1.55L42.7,230.1l5.38,1.51,9.52,3.77-.15-3,6,.33,1.06-.86,3.27.08,3.94-4,10.68-7.17,1.22,0L85.49,219l.8.4,1.79-1.1,1.08-3.39,4-.28,2.31-1.06,8.22,1.42.52,1.06-.67.47-.15,2.4,6.23,1.42.69-1.22.85-.12,4.27,2.42,2.09-.05,1.37-.83-.44-1.44,1.35-5.73,2.35-.1-.3-7.15,1.72.76,1.16-2.7,1.2.58h6.75l3-.95-.51-1.19L139,199.4Z"/>
        <path id="KZ-KAR" class="cls-1" d="M528.46,135.75l6.7,2.43.08,2.26.85,1.31-.86,2.64-.43,2.31.11,3-1,.24-.53,1.1.84,1.3-1.44,1.36,2.86,3.15,2.87-.75,2.8-.23,1.57-1.32.26.82,3.18.62,1.07,1.34-1.12.87,1.29,3.31,1.36-3.41,2.72,2.9,1.12.05,1.5,2.58-.68.4.53,1.51,2.24.89.32,1.21L556,168l.29.56-1.05.34-.2-.29-2.65,1.12,0,.65-1.24.83.67,2.29,1.25-.06.37.83,2-.58,4-2.93.94-1.26,5.7.19.69-.39.27-1,.93-.36.86.92,6.83-1.88,2.52,1.48.92-.22.9-2.42.45.34,1.53-.88,2.19-.24,2.18,1.3L587,165l-.12-3,1.21-4.82,2-1.95,3.75-1,3.44,3.64,4.06.16,3.2,2,1.15,4.09-1.55,2.13,2.24,1.6h0l-.44,1.71-2.86,2.38-1.53,2.13-2.75,1.26-.86.6-1.77.05-.54,2.31.59.88-.45,1.82.51,1.37-.4,1.57-1.73,2.72-5.06,1.86-4.59,2.21-.29,1.71,1.56,1.79-.05,1,1.64.54,2.92,2.41,0,1.88,1.57.91,1.88,2-1.86.79-.4-.57-1.62.84.17,1.15-.45,1.92L591,209.9l8-1.31.8,2.38-.82,3.2,0,1.24-3.58,3.68-1.49-.51-1,.08-1,.93.22,1.52-1.54.47.72,1.48,1.68.78.27,1.28,3-.08.92.28-.42,1-1.71.07-.51,1.5,2.5,2.28,2-.15,1.38,1.1-3.62,1.32,1.16,1.67h-1.33l-.18,2.4-1,0-1,4.09-1.17,2.59.4,1.15.44.2,1,4.4.21,1.48-1.77-.78-1.84.29.1,2.19-.83,2-1.53.58,1.74.9,1,1.72,1.89,1.4,2.89,1.08.94-2.59,1.21-.75,2.29,1.12,1.94-.87h0l.84,14.68-5.89.66,0,1.78-1.46.22-.64-1.64-1.94-1-1.93.27-2-1.05-1.35.25,2.1,2.12-3-1.31-1.79-.53-1.26-.2-.61,1.44-1.77-.64-.6.73-.54-1.63h0l-1.33,1.57-1.12-.3h0l0-.82-6.63-1.17-5.94,1.1L562,270.3l-11.11,6.39-5.29,4.78-4.13,4.24-2.23,2.51h0l-1.7,2.81h0l-32.12-.37-18.61.69-3.44-.25-15.58.4-27.53.06h0L403.55,291h0l-.31-2.7-.94-.28-7.71.43-25.37-6.89-3.59-2-3.54-4-4.05-.35-9.77-5.26-2-.06-9.75-3.81-.85-.86-1.88,1.16L328,263.13l-2.58.2-2.93-2-2.32-2.19-8,1.49,5.35-4.18h0l22.92-16,4.31-4.75-1.77-.79-3.56-6.23h0l5.49-5-1.08-3.48,7.25-1.6-1.49-1.91.67-1.08-.73-1.77,4.12.16,1-7.53,15,2.48,1.44-.81,1.41.19,2.21-.78L376,204.4l6-.22,5.84-6.44,3-.35L392.1,193l2.55.26,1-2.58,3-2.71,4.1-2.4,6.47-7.42,4.32-5.55-.91-1.84.55-.6-.68-1.32.69-.85,3.24-.42L420,166l1.36-1.18.62-1.49,1.11-1.2-.33-.8-2.1-1.18-.09-.64-1.11-.72h0l-.14-1.69-1.3-1.76,1.15.21,2.75-.58,1.83,1.43,4.22-3.17,2.37-.85.6-1.11,6-.17-.27,6.81-.94.57.43,2.61-.86,1.34-.81,3.78-1.39,1.55.67,1.2,1.56-.51.32.79,1.13.09,2.52,1.61,2.5-1.32.83.7.51-.08.24-1.38-.57-.69.2-.88.57.69.87.07,1.6-1-.69-2.24,2.64-1.44.36,1.7.59-1,.51-.09.73,1.74.57.69,1.13.1-.47,2.51,1.15-.28.86.21.66-.33.87.08,6-1.75.59,1.72.91-.3.41.93-1.73,2.52-.08,2.17,1.2.62,1.57-.74,2.79-1.78,2.15-.29.62-1.22-1.21-3.07,4.19-1.88,1.4,2.45.25-6.4,1.28-.26.3-.48,1.38,0,2.57-1.8-.41-.94,1.52-1.26,1.74.19.63-1.23,1.39,0,.55-2.92L488,151.8l0-.78.9-.16.28.94,1.32-.5.26,1.07,1.4-.1,2.2,1.95L493,156l.59.33.18.67-.59.84.35,1.46-1.78,2.51,1.21.4.48-1,4.08-.43,2.43,1.85-.27-.94,1.3-.36-.43-2.9,1.44-.48.77-1.2,2.23,1.44,1.61-.84L504.45,156l1.41-1.25-.55-.72,1-.92.71.35.12-1,2.81-.17,1.31-1.53-.56-.59.19-.5.77-.17,1.14-2.08,3.14,1.33.79-1.34,1.67-.17,1.08-.51-.69-1.67,5.16-1.67,2.89-2.76-2.53-1.14-1-.14-1,2.23-.7-.49.2-.63-1.2-2.67-.85-.38.32-1.55.94-.4.53.87,1.59-.45-.31-.57.53-.19.56,1.66,1.26-1.94Z"/>
        <path id="KZ-KUS" class="cls-1" d="M378.47,27.8l.71-.07,1.53-.54h0l1,3.79.41.6-.56.8,2.21,6.08L380,39.79l3.67,2.3,1.36.13L386.13,45l-.55.53-1.76.17-5.08,2.68,2,6.52,2.49-.54,0,5.26-1.58,1.55-.87,1.18.85,2.54,3.28.35.2,8.66,2.93,1.83-.49,2.16-2.85-.6-1.27,1-2.05-.14-.86,1,.7,3.18,1,.06.16,3-.41,0,.13,3.67-2.07.54-.24,10.23h0l-.14,7.48-2.38,2-.86,5-.8,3.53-5.1,2.62-3.38-.33,1,3.37,2.43.13,1.77,3.67-1.64,4.77.92.71-2.77,2.47,1.67,2.18-1.1,1,4.14,4-1.28,6,.74,1.59,3.87-.44,1.21-3.95,3.64,2.14L382,149l-.05,1.29.68-.61,0,1.16.94-.46.64.55,1.49-.7,1,4.06,2.41-.64,1.54,1.11,5.18,1.84,4.81-1.4,1.67.61,1.27,3.16-2.16,1.28,2.76,4.27,4.58-2.91,8.47-1.1,2.31-1.76h0l1.11.72.09.64,2.1,1.18.33.8-1.11,1.2-.62,1.49L420,166l-3.57,1.53-3.24.42-.69.85.68,1.32-.55.6.91,1.84-4.32,5.55-6.47,7.42-4.1,2.4-3,2.71-1,2.58L392.1,193l-1.26,4.43-3,.35L382,204.18l-6,.22-1.29,3.17-2.21.78-1.41-.19-1.44.81-15-2.48-1,7.53-4.12-.16.73,1.77-.67,1.08,1.49,1.91-7.25,1.6,1.08,3.48-5.49,5h0l-4.19-8-3.15-2.2-3.17-1.2L327.78,216l-6.34-2.15-.74-2.51,1.29-1.72-.12-1.12-2-1.8-4.2,2.29-5.42-5.36-1.39-4.81-2.52.23.5-1.39,2.91-.47.38.38.64-.49-3.55-6-1-1.15,1.65-2.15,2.29.79-.63-.9-.63-3.45,3.07-1.87.28-3.2,3.1-2.75,3.08,2.53.94-3.3-.38-1.56-4.23-6.32-.39-1.56-2.57-4.09L310,153.05l-2.72.85v-1.84l-.39-1.72,2.2-1.53-3.5-3.41.65-2.25.65-.11v-1.2L304,140.11l-.52.38-1,1.44-1.58-.62-1-3.23-.17-2-1.36-2.1-.87,1.52-1.43.63-1.29-.63h0l.11,0-1.79-1.62-.61-.72-.82-2.28-.53-.43-.62-.17-1.34,1-.6,0-1.21-.32-2.09-1.45-.91-.05-.26.16-.45-.41-1.84,0-.2-.88-.57-.09-.23-.84-.43-.63-.3-1,.23-.85-.12-.23-1.57-.17-4.33.06-1.48-.37-.92-.39-1.73-1.45L270,122l2.32-2.32.24-.3-.06-.52-.84-.26-1.4-.2-4.33-2.83-.15.2.19.45v.56l-.6.05-.22-.1-.76-.48-.81-1.16-.12-.4,0-.68.25-1.17,1.29-.25,1.88-.06.82-.36,1-.87,1-1.33,2.48-2.32.74-.4,2.07.35.35-.2.64,0,.45-.19.92-.83.5-1.15.88-.07,2.4-1.26.64-.88,1.29-.89.16-.26-1-2.4-.81-1.4V96.87l-.1-.21-1.55-.14-.87-.3-.11-.29L278.7,93l-.25-.27-1.55-.32-.08-.34-.57-.19,0-2.8.24-.32,1.88-.35.55-.34.41-.48.4-1L282.11,85l1.11-1.35-.23-.49-.56-.56-.16-1.12.83-.06.94.37.26-.61,2.08-1.37L287,80l1,1.12.94.14.6-.37,1.11-1.18.83.25.22.24.43,0,.58.37L294.23,82l.41.06,1-1.16.5.13.37-.18,1.06,0,.26.14,1-.5h.31l1.31,1.62.92.28,1-.57,1.5-1.17,0-1.91L303.33,77l-.62-.12-.89-.42-2.07.1-2.46-1-.77-.76-.66-1.36-1.13-.82-.5.16-.13.79-.25.19-2,.09-1.06-.32-.6-.83-.72-.57-.84-.21-1,.1L286.49,72l-1.16-.74-.28-.68-.21-2.25.33-.49,1.18-1.17.2-1.73.23-.41.85-.13.52.47h1l.23.33.11.54.46.25.5,0,.71-.11.73-.37.5-.55.67-.35.18-.8-.63-1.63-1-.54-1.71.08-.37.53-.78.44-1.14-.21-2.71-.11-.67-.81-.37-.17-.6,0-.74-.39-2.3-.15-.12-.2,0-1,.16-.49,1.56-.09.21.28.17.65.2.12.22-.12.13-1.87.2-.21,1-.37.81-1.47,1-.71.32-.46v-.63l-.22-.54-1.18-1-.19-.63-.76-.23-.74.19-.58-.46-.76,0-.13-.52.31-.6.73-.75,1.23,0,1.11-.27.57,1.24.54.27.81-.06.09-.22-.17-.64.48-1.18-.62-1.11.22-.69.84-.88.13-.42.48-.21.76,0,.47-.35,1.29.17.27.4.4,1.73.45.4.7.09.52.3.3,1.09.31.27.54-1.4.34-.5.85-.22.69-.36.24.65.81.84.39-.3.2-.55,0-.42.66-.32.11.19-.3.4.12.17.57-.28.54.32-.62,1.09,0,.3,1.11.3.35.37h.63l.88-.08.29-.22v-.51l-.58-1.2-.18-.71.29-.37H302l.64-.53h.58l.67.53,1.32.22.37-.24.26.13,1.89,0,.74-.39.56,0,.35-.28.33,0,1,1-.35.46-1.12.55,0,.28.59,1.66.24.35.86.36.64.48.37,0,.23-.45-.26-.66L312,50l.38-.43.31-.81.79-.32.26-.4,0-.3.88-.67L315,47l.42-.76.7-.26.24-.3.37-.09.36-.53-.13-.39.09-.23.68.12,1.52-.17.8.31h.93l.84.25,1.15-.24.51-.27.28-.36.15-.92-.31-.69.13-.4.16-.16.68-.13.23-.23.53,0,.11.25.26.12.89-.34,2,.32.35-.19,1-.18.17-.26.46.24.2-.36.31.15,1.91-.77.22-.24.8-.16.83-.48,1.29-.3.16-.26.64.11.7-.36.53.47.29-.2.28,0,.14-.16.32.22.28-.11.08-.6.33-.48.16.21.28-.07-.17.62.06.16.34.06.57-.49.37-.71L342,38l.34-.14.39.29.52-.1.31.08.65-.54.8.09.64-.32.73,0,.44-.16,1.58.19.45-.23.21-.38,0-.35.16-.17.35-.07.27.22.41.07.37-.27.38,0,.57-.31.08-.36.41-.33.5-.07.24.17,1.6-.4.14.22-.1.15v1.11l.2.07,1.06-.29.93-.52,1.2-.92.8-.37.33,0,.94.69.79.76.87,1.2,2.15-.06.33-.43v-.43L363.52,34l-.45-.68.39-1.25-.17-1.18.25-.32,1.46-1,1.33-.54h.59l1.4.39.42-.12,0-.53-.68-.93.07-.55.29-.36.65-.25,1.64.45.9,0,.75.32,1.14.78.5.06.42-.22.5-.64.3-.82.06-.61.36-.72,1.19-.56.86-.08.29.07.21.34-.39,1.43,0,.89Z"/>
        <path id="KZ-KZY" class="cls-1" d="M244.33,301.88l.68-.5.32-.73.36-.45.68.36.36.41.63.23h.91l.41.77-.23.91.18,1.54-.09,1-.5.63.59,1.22.41,1.59.73.45.59.59.32.86,0,.77-9.64-7,.1-1,.41-.27v-1l.23-.45h.63l.54.27.81,0Zm15.81-.72h-2.07l.14-3.51,1.65-.41,3.24-.21,2.48.28.48,1,1.86.34,2,.07.28.48H265l-2.76,1.52ZM301,243.42l1.6,3.05,2.42-.37,5.36,6.82-.84,1.94,5.59.88L316,257l1.47-.47-5.35,4.19,8-1.5,2.31,2.2,2.93,2,2.59-.2,5.76,3.22,1.88-1.16.85.86,9.75,3.82,2,0L358,275.2l4,.35,3.54,4,3.59,2,25.38,6.89,7.7-.43.94.28.31,2.7-.27,2.31,3.07,2.37.59,1.89-.56,1.24-1.18,1.67-.61,2-.18,2.87-1.24,4.54,3.69,3.06,3.09,1.32.12,19.1-.38.54-.23,1.68,2.07,2,1.18-.38,2.23,1.25,0,.9,2.23,2.71,5.33,3.81-1.37,1.36-.75-.61-1.18.48-1,1.06.41.58.57,1.48-.23,2.88-.83.4-1.92-1.67v4.22L414.39,358l.16.89-.4,2.19-2,.56.58,2.57.83-.51-.31-1.67,1.07-.61-.21,1.21,1.13,0-.34,1.42.75,1.8,1.38-.37-.08.88-1.9,1.22-6.44,3.22-5.19,1.92-4.86,3.66-5.47,5.52-2.73-1.68-7.85,8.15-1.69-.41-.15-15.78-5.28,2.48-2.79-9-.63-2.55L367.43,359l-2.36-2.37-2.4-5.3-.42-.48-.67-.38-1.16,0-.86.22-9.19,4.37-.44.08-11.68-.74-7.57-.77-2.73-.44-8.58,1.51-17.66,3.47-.35,0-.68-.65L287.12,340.8l-2.55-2.57-.93-3-9.1-6.57,1-.86.59-.32.68-2,.27-2-.45-2.08-.82-2.67-.77-1-1.18-.09-.41-1.27-.86-.73-.5-1.68V313l.5-1.13,0-3.67-.45-1.63-.91-.68.23-1,.73-1.68.09-1.63-.73-2.9-1-1-.14-2,1-.68.54-2.85.41-.54.23-1,2.76-.68.68-1,.32-1.22,1.81-1.68,2-.36,1.4-1.27,1.81-.68,1.9-1.13,1.22-2.08.32-3.31-.06-1.68-.75-.11-1.07.86-3-.53-2.67.11-1.92-2.35.11-3.31.32-1.39-1.39-.43-1-.85-2.67.11-.11,1,1.07.53,1,.11,1.28,1v1.28l-.75.43-.75.86-1.07.53-1.28-.64-1.5-.43v3.1l-.72.51-.27-.94.13-2.67-.53-1.07-.94-.94h-1.34l-4.41,2.94-.8,1.07-.12,2,.58.72.68,1.5.45.68,1.36.59h1.09l.91-.45,1.13-.32,2.4-.18.54,1,.86.68,1.18.41,1.5-1L275,279l.86-.18.18,1.77,1.54,2.58,0,2-.41,1.45-2.08,1.31H274l-2.58.5-1.22-.41-1.13-1.22-1-.59-3.08-.63-1.54-.18-.86.5-1.77,1.63-1.36.09-.63-.36.36-1.9-.41-.68-.14-1.22,0-1.5-.77-1-1.18-.23h-3.26l-.63.14.05,1.09,2.13,3.4.5,1.13-.36,1.31.45,3.44-.23,1.36-.54.91-.63.32-.68-.36-.82,2.4-.72.59-.86-.32-1.09.09-1.09.41h-1l-.14-.73.05-1,.23-1.09,1.13-1.72.82-.91.36-.82-.82-.59-.95-.5-.86.5-1,1-1.22.09-1.18-.18-.54-.45-.39-.15,5.3-6.52,4.27-6.41,2.23-2.45,1.64-2.56,7.83-7.27,6-.49.56-6.16,8.14.67,6.68-17.89,11.81-2.73Z"/>
        <path id="KZ-MAN" class="cls-1" d="M79.87,322.54l.08.11.48-.29.29.13-1,.62-.33.41.09.37-.15,0-.16-.44.22-.79-.18-1.13.1-.12.41.55Zm1.33-3.33.28.08.28-.16.26-.24.16-.53.17.7.26-.21.08.17-.14,1.24.11.41.88.45-1-.22-.14.27-.62.14,0-.22.45-.39-.53-.2.3-.52-.06-.31-.66,0-.82-1,0-.22.5-.46.08.12-.3.4Zm-12-3.33.72.18.39.36-1,.14-.48.64-.05.76.28.7.1.86.24.37.23,0,.12-.3.09.1-.24.75.48.69,1.16.58,1-.4.16,0,.06.15-.38.82-.12,0-.28-.33-1.4-.2-.63-.37-.76-1.21-.65-2.19.43-1.33,0-.65Zm5.2-.4.78.13.26.7-.15.74.17.54-.51.9,0,.49-.19.4-.44.31-.29,0-.4.44-.13.3.16.42-.14.11-.23-.19-.13-.56.1-.27-.14-.59.27-.58,0-.46-.11-.27-.46-.39.09-.54-.3-.61L73,316l.69,0Zm45-12.35.14,0,.15-.28.21-.06.23.17.53,1.42,0,.61.24.56-.11.38.11.6,0,.13-.67.06.27.4-.05.11-1-.4-.21-.61-.51-.77-.67-.65-.27-.47.21-.31.92-.72.05-.12-.32-.3,0-.26.49.2ZM122.7,296l4.45,1.1,2.62.14.62-1.55,3,.4,1.3-.86,1.39-.19,2.35-1,2-1.19,1.26-1.21-2-1.2,4.42-3.29,1.05-2-.27-1.24,3,.37.39-.64,1.38-.32,1.19.06L152,283l1.8-.72,2.94-.07,3.72-1.45,7.68-.8,2.15.3,4.58-4.54,2.35,3.33,1.26.78.57-.18.3-.5.56-.3.95.13.67,2-.31,1.54.32.89,1.45.42,1,.59,1-.68.86.38.51,1.56,2.06.62,1.34-.69.91.85,1.52-.11,1.74,1h0l1.76,4.85,2.78,20.57h0l-13.76,4.52.05,97.63-2.58-.1-1.14,1.14-.56-.43-.28-.06-1.88.35-.73.37-.2.55-.23.19-.28-.22-.15-.46-.35-.44-.2.09v.54l-.37.26-.4-.1-1-.58-1.14-1-1.3-1.66-1.11-.9-.88-1.2-1.79-3-1.45-3.42-.91-1.34-1.08-1.06-.3-.48-.08-.53.18-1.79-.88-1.27-1.49-1.66-7.42-5.25-3.23-2.13-.95-.57-.95-.37-4.57.14L138,389.77l-3.22.88-5.6,2.47-1.92.66-1.42.93-6.42,5.76-3.63,3,0-.52.83-2,.11-1.22,0-.84-.26-1-.79-1.06.15-1.13-.47-.5.29-2,.36-.72,1.38-1.68.87-1.51,1.75-4.42.42-2.08-.22-1.19-.48-.93-1.64-1.87-.11-.34.37-.56-.08.5.23.51,1,.82.73,1,.6,1.63.49-.53.25-.68.11-1.39-.18-1.36-.39-.32h-.86l-.42-.37-.67.28.29-.48-.42-1.14-2.68-.79-.8-.13-1.55.23-.69.5-.41.64h-.12L111.71,375l-.57-.4-.41-.1-.69,0-.32-.12-1.11.17-1.53.46-1.18.59h-.4l-.35-.33-1.26-2-.14-.51-.72-1.12-.32-1.18-2.24-2.12.24-.26.05-.48-.4-1.25-1-.09-1.86.38-.24.26-1.09,0-2.63.43-.54-.16-.08-.42.14-1.16.78-3.27.07-2.13-.15-1.46-.32-.56-.13-.93-.39-1-.9-.85-.15-.47-.62-.4-.23-.08-.15.18-.11-.09L90,353.27l-1-2.24-.85-1-.73-3.94-.94-1.38-.25-.24-.79-.19-.38-.46.15-1.78L85,340.73l-.62-1.56-1-1-2.09-.94-1.47-.37-3.62-.28-1.2-.5-1.39-1-.58-.93-.09-.38-.05-3.89-.26-1.15,0-.1.5.82,0,.38.24,0,.95-2.76.74.12.38-.09.22.22.6,0,.87.35,1.09-.09.9.15.64-.33.71.57,2,.17.9-.16.36-.6.26-.06.41.28,1.37.4.55.85.19,0,.2.44.45.21.52-.1-.24.46.23.56,1.74,1.2,2.07,0,.61-.49.44-.62.45-.25.16-.45,1.68-.44h.23l.09.19-.27.43,0,.19.21-.08.54.6.43-.1.21-.2,0-.32,1,.46.64-.23.14-.22-.19-.44-.74-.59-1.15-.51-2.42,0-.76.21,0-.34.33-.33-.07-.37-.5.34-.09-.1,0-.93-.56-1.14L91,324.39l-.64-.23-1-1-.95-.49,0-.17-.59-.5-.36-.14-.05.34-.44.23-.79-.08-.8.13-.69-.4-.05-.27.73.25-.2-.3.11-.49.28-.41-.33-.25v-.45L86.77,318l.26-.17.83-.38.3,0,.51.24.2-.08,1.59-1.64.67-.35.35,0,.67.38h.37l.14-.77-.23-2.15.2-1,.14-.33.28-.22.23-1,.64-1.08.47-.36.26-.52.4-.1.67-1,.31-.2.4.56.23.11,1.65-.09.65-.17.22-.34.69-.19,1.35-.82.18-.44.67-.85.39,0,.13.26.4.23.25-.19.62.42,1.07.12.72.54.37.07,1-.1,1.05-.42.74,0,1,.32,1.45-.21,1.29,0,.58-.11.87-.41.57,0,1.15-.3.86.33,1.71.08.26.27.32.76.78.59.89.1.28,0v-.26l1.24.6.7,0v-.27l-1.33-.61.27-.1.08-.28-.23-.36,0-.51-.4-.51-.11-.39v-.73l.18-.26,1,.44.95.72,1,.16.81,1,.94.66.13-.16-.89-.81-.95-1.46-.29-.12-.73.08-.39-.61-1.22-.58.12-.32.45-.27-.19-.31.34-.22.74-.3.58-.08.69.16.11-.12-.42-.78v-.45l-.34.1-.41.7-.92.43-.43.35-.15-.09.11-.32-.22-.15.09-.5-.6-.08.51-.14-.35-.18v-.17l.63-.55.41-.08,0-.41.69-.07.22.41.69.42.16,0-1.09-1.48-.95-.75.48-.13.4-.39-.05-.24h-.34v-.25l.53-.13.07.16.23-.1,0,.14.19,0,.33-.16.2-.29-.5.1Z"/>
        <path id="KZ-PAV" class="cls-1" d="M588,36l.88,0,.42.23.22.36.18,1.44-.62,1,.14,1.1-.08.43-.8.91-.85.47L587.34,43l-.6.23-1.23.9-.37-.18-.52-1-.66.26-.45,0-.81-.48-1-.12h-.41l-.18.13-.07.55.16.66,1.29,1.74.17,1.38.79,1.47,4.17,4,15.68,12.69,5.6,5.37,1,1.2,3.51,5.81,3.06,4.64,3.63,6.59.14-.14,2.2,4.26-.16.11,6.29,11.12,1.15,2.68,1.72,2.66.24.67.78,1.07,1.32,2.62.17-.1.19.37-.15.12,1.54,3.24.38.38,0,.27,1.94,4.05h0l-1.46.17-.52,3.05-3,.76.52,1.7-2.51,2.46-.54-.65-3.89.57.09,1.86,1-.17-.3,1.25.18,1.48-1-.35-4,2.53-2.46.77-.44-1-1.19.53-.25,1.12-2.1,1.12-.45-.36-1.66,1.61,2.33,3.37.53,3.1,1.48.45.9,1.36,1.58,1.24,1.3.67,4,2.67-.7,6.81,1.84.52.56,4-1.33,1.38L623,172.26l-2.68,1.23-3.15-.78-8.35-3.48-1.15-2-1.29.76h0l-2.24-1.6,1.55-2.13-1.15-4.09-3.2-2-4.06-.16-3.44-3.64-3.75,1-2,1.95L586.93,162l.12,3-.73,1.28-2.18-1.3-2.19.24-1.53.88-.45-.34-.9,2.42-.92.22L575.63,167l-6.83,1.88-.86-.92-.93.36-.27,1-.69.39-5.7-.19-.94,1.26-4,2.93-2,.58-.37-.83-1.25.06-.67-2.29,1.24-.83,0-.65,2.65-1.12.2.29,1.05-.34L556,168l.66-.28-.32-1.21-2.24-.89-.53-1.51.68-.4-1.5-2.58L551.6,161l-2.72-2.9-1.36,3.41-1.29-3.31,1.12-.87L546.28,156l-3.18-.62-.26-.82-1.57,1.32-2.8.23-2.87.75-2.86-3.15,1.44-1.36-.84-1.3.53-1.1,1-.24-.11-3,.43-2.31.86-2.64-.85-1.31-.08-2.26-6.7-2.43h0l2.1-2.48.29-2.22,4.33-2.83,2,.56.76-.95,1-.11.48-.73-1.9-1.09-2.29-.21-1-2.29-3.56,1.75.1-5.89.61-.72,2.73-2.15,1.19-.23-.41-.87-.45-20-1-.15-.06-.56h0l-.11-1.26-3.63-.27-1-2.62.4-1.19.9,1.24,1.42.21.83,1.78,1-.41L532.9,89l1.24-.5-.19-1.69,1-.53-1.09-3-1.92.67-.89-.28-1.17,3.16-2.63,0-.49-2.57,1.38-1.62-.64-1.35-2.15,1.51-.47-.49,1.16-.95.74-1.85L527.88,78l-.13-1.15,1.12-.54-.06-.71,1-.54-.91-1.42-1,.68-.31-.75-1.11.41-.07.7-2.78,2.43-.48-2.89.45-3.07,1.64.8.74-.76-1.6-2.53-1-2.26h0l2.52-2.47.33-1.46,1,.25.49-2.12,1.36.16,1.72,1.08,1.35-2,3.32.75-.2,2.26,1.7.16.36-1.69,1.4.3-.2.67.7.28v1.29l.35.21.06.23-.13.75,2.37.89L543.42,62l-.84-.49.58-2.89,3.29.54.87-2.93,1.1.18.56-.28.32-.56.29-1.28.17-.14.66.24,2.63,0,.27.16.42.79.44-.21,2.31-1.83,1.14-1.08.87-.39L560.86,50l1.36-.73.56-.68v-.68l-1.65-2.36,2.58-1.33,1.37.58.22,0,11.93-5.56.08-.29-.5-.62v-.19l.55-1.62.17,0,2,.91,2.1.17.94-.05,1.05-.69,1.82,0,1.1-1.13.52-1.23,1-.09,1.36-.82,1.06-.44.35,0L591,34l-.08.15L588,35.74Z"/>
        <path id="KZ-SEV" class="cls-1" d="M440.11,2.24l.49,1.17.25.13,1.26-.33,1.3-.6.83-.12.65.11,1.6.74.56-.23L448.5,3l1.46.26,2,1,1.17.38.59.39.43.54.69,2,.43.41,1,.38,1.14.15L459,10.21l.33.15,1.31,0,.33-.17,1-1.13,2.13-.92.29-.35.68-1.92.48-.51h.76l1.26.73,1,0L469,6l.6-.68.45-.2L472,4.74l.36.07.19,1.38.46.93.7,1.39.8.73.26,1.2.69.7.67,1.3.14.84-.16,2.3.13,1.21-.42,1-.07.85.08.33.92,1.31.07,1.63.16.59.65,1.27.87.93,1.93.5,1.18.93.09.27,0,1.34-1.52.47-.35.28-.15.32-.2,1.51.11,1.4.27,1.82.47,1.63-.17,1.34-.4,1-.17.14-.31,0-1.69-.33-1.19-.63-.16,0-.12.24v1.27l.14.3.35.28,1,.25.2.33.12.74-.71,1-.07.29.22.34.58.35.3.36.28.63.12,1.11.3.26.71.21.23-.08,1.46-1.27.45-1,.87-.18,2.86.9.19.44-.13.77.2.36,1.36-.26,1.37.46.45-.34.82-.23.5-.61,0-.62-.39-1.15.35-1.2.46-.67,2.53.32,2.44.54.69.57.05.65.69.39-.06.63,1.36.77.15-.05.31-.5.13-1.22-.64-.68-1.51-.8.28-1,.57-1-.49-.79-.91-.71-.33-.75.09-.15.42-.1,1.42,0,.76.17,1.67,1.28.39,1.2-.14.92.9.57L501,41.78l.19.22,1.73,1.13,1.84.51.06.94-1.19-.26-.32.41-.94,0-.12.54.37.55,0,.37.73.57,0,.16-.82,2.81,1,1.09,1,.34.25-.13.79-1.91.39-.59,3.26,1.32L509,48.48l-.9-1.77-.94-.19-.83,0-.36.26-.67-.13.46-2.07.86-.43.24-.38,3.52.31.65.11.49.49,2.71.27-.06,1.47,1.26.2.52,1.7.29.18,2.26.48,1.53.51.18.24,2.18-.08.15-.25-.13-.67.14-.21.62.23.79.67.87.43.16-.08,0-.26-.51-1.18V48l1.5-.5.82-.69.2-.46-.27-.51.11-.1,1.15.12,0,.36,1.08.19-.51,3.43L528,52.77l-4.39-.66L523,53.32l.48,1-.66.31-1.43.29.23.95-.6,2.56-1.36.22,0,1,.42.08,0,.12-.7,2.31,2.06.74.21.38.71.22v.56L522,65.36l.34.41,1,.59h0l1,2.26,1.6,2.53-.74.76-1.64-.8-.45,3.07.48,2.89,2.78-2.43.07-.7,1.11-.41.31.75,1-.68.91,1.42-1,.54.06.71-1.12.54.13,1.15-1.11,1.66L526,81.47l-1.16.95.47.49,2.15-1.51.64,1.35-1.38,1.62.49,2.57,2.63,0L531,83.74l.89.28,1.92-.67,1.09,3-1,.53.19,1.69-1.24.5.27,3.08-1,.41-.83-1.78L530,90.52l-.9-1.24-.4,1.19,1,2.62,3.63.27.11,1.26h0l-7.52-.56-1.39-2.67-1.45.07-.24-1.28-2.64.06-3.72-1.89-2.49,1.06-.54-5.75-.82-.93V80.36l-.41-1-.66.06-.63.9-2.1,0-1.81.9-.83-.78-3.75.83-.91,2.38-4.6.35-5.67-.71L490.94,82,490,81l0-1.1,1.24-.56-.62-1.71.63-2.28.78-1.17-4-4.38.12-1.23-2,0-.65,1.31-1.21.17-.46.64-.54.09-.73.76-1.72,0-.21-.58-3.14-.56.29-1.9-.26,0,.08-1-8.21.23-.47,2.71-1.76.26.36,2.36-1.89.25-.29-1.54-2-2.5-.1-.56-.68-.05-.3.52-3.8.1.58-.51-.08-1,.82-.07-.22-.85.84-.48-.17-1.8-1.39.57-2.41-.61-.44.65-.66-.33.47-1.06-.22-3.33L454.5,60l-.19-1.54-4.22-.07-.73.78-1,.06-.46.93L446.87,60l-.36,1.63-.82.08.33,1.54,1.08.23-.63,1.46-1.34-.38,0-1.52-.35-1.13-.81-.21-.23-.84-1.22-.24-.06-1.39-1.91-.15.06,1.67-2.74.2-.09-1-1.91-.14-.17.81-1.5-.11.64,1-.16.54.52.59-.44.52-2.86-.08.06,1.65,1-.06-.6,1.19-.51-.59-1,.75,0,.82-.56.23-.82.08-.59.91,1.4,2,.09,1.1,1.07.36.61,1.27,2.17.17-.25,2.3,1.35.11.34,1.11-.07,1.36-.69.22,1.14,1.58-3,2.76.92,3.19-1.07-.22,1.65,1.88-1.66.83-.53-.18-.86.88-.67,0L430.37,90l-.81.08-1.39.84-.37,1.86-.54.09-.49,1.58-2.14-.29-.83.48L423,96.28l-2.83-.06.43,2.18,1.19.48.22,1-2.43,2.65-.77-.59-.59,1,.5.7-1.13,1.12-.53-.3-2-1.88-2.77-1.12L411.14,100l-4.32.12.22,6.69-4.11-1.46-1.24.71-2.15-.27-2-1.06h-6.23l-.14-3.08-3.7.57-2.9,1.29-1.65-3.46-3.13-.19h0l.24-10.23,2.07-.54L382,85.44l.41,0-.16-3-1-.06-.7-3.18.86-1,2.05.14,1.27-1,2.85.6.49-2.16-2.93-1.83-.2-8.66-3.28-.35-.85-2.54.87-1.18,1.58-1.55,0-5.26-2.49.54-2-6.52,5.08-2.68,1.76-.17.55-.53-1.06-2.81-1.36-.13L380,39.79l3.73-1.33-2.21-6.08.56-.8-.41-.6-1-3.79h0l4.77-1.83,6.06-1.49,1.52.28L394,23l.31-.17,3-.44,1.88.15.79-.84,1.39-.16,2.32-.56.22-.23.19-1.06.24-.26.43.05.86.5,2-.07,1.29.48.51-.16.41-.32h.73l2.43-1,.3-.59.29-1.41.3-.44.64-.53.5-.2.8,0,2.22,1.1,1.48-.38,2-.12.29-.3-.21-.7.26-1.18.53-.81.8-.76-.55-.49-.24-.47-.85-1-.16-.32.15-.77-.5-.79,0-.17,1.48,0,.72-.32.28.07.73.6.25-.1.29-.41.33-.12,1.83.21,1.87-.4.41.41.34,0,.32-.59.26-1.51.19-.32.55-.26.36-.4.16-.76.3-.45-.06-.85.44-.51.36-.12.93.2L436.49,5l.41.13.22-.2.16-.46L437,3.33l-.55-.62-.31-.06-.48.23-.18-.13-.09-1.41.16-.65L436,.25l.71,0,1.35.41,1.62,1Z"/>
        <path id="KZ-VOS" class="cls-1" d="M641.69,130.35l.39.62,1.33,3.15,3,6,.18.62,2.44,4.91.35,1,.15-.39.25.7,1.32,2.31.82,1.79-.27-1.93.09-.9h.3l.14.55h2l0-1.71.18-.56.75-.09.24-.55,1.38,0,0-.2.27-.07.74,0,1-1.17h.76l-.07-.59.26-1.16v-1.52l-.07-.63-.75-.79.09-2.44.62-.14,2.91.11.16-.48v-1.35l.3-.84.48-.46,2.2.65.69.28.57.45,1,.22-.12.36.23.29,1.75.65,1,.76.48-.32.5-.8.44.16.39.59v1.19l-.42,1.94-.91,1.45-.11,1-.28.73.09,1.12,1.88.06,3.19-1.21,1.33,0,.08.41.17,0,.07.16,0,.8.31.13.18.84-.42.57.25.5.44.08.57,1.49,0,.38-.57,1.18v.6l.58.14,2.71.12,2.8-.54.13-.09.09-1.21.11-.09.28.15,0,.51,1.34-.78,2.43.35.39.17,1.58,1.38,1,.31,1.08-.11.38-.21.59-.73.29-.08.9.09.92-.16.81.23h.8l1.14.43.63,0,.36-.11,2-1.26.83-.85.19-.44,0-1.49.3-1.33.78-.22,1.72.7,1.12.27,1,.07.51-.31.33-.56,1.41-1.38.21-.54-.13-.74.26-.15.52.07.22.24.36.1.27.65.12.11.17,0,.22.37.88-.67,1.13-.11,1.72.41.54-.42-.39.54.14.34,1.42.62.7-.09,1.06.25,1.12.52,1.37,1.19,1.45.16.55.2.38.26,2.56,2.9.31,1.88.2.36,1.26,1.37.6,1.14h.15l.91.84,1,1.42.9.86.28.52.11.42-.53.91,0,.57.92,2.87,0,.44-.41.9V165l.53,1,1.2,1.37.23.14,1.44-.06,1-.83.34,0,1.59,1.45.64.3,1.45.3.52.34.81.82.38.18,1.15.11.29.41.09.73,1.41,0,.49.15,1.28,1,.54.86.16.74-.23.28-.45-.3-.21.24.06.44-.27.66.07,1.15.29.58.39.28,1.72.52.26.67v.67l1.52,2.77.17.59.06.73-.27,1.15.09.38.26.46.82.36.46.75.92-.09.54.36.21.41.66-.21.43.31.38-.31.25-.51L757,186l1.16-.05,1.22.42.72.84.45.13L762,187l.63.16.79.51,1.8-.18.23.05.23.3-.26,1.1.1.25.87.33,1-.8.55-.15.84,0,1.07,1.62.17,0,.68-.6-.21-1,.81-1-.06-.84.12-.18,2.35-.84,1.3-.82,1.16-1.61,1.08-.73.4-.64.44-.1.45-.42.29-.52-.3-.51.11-.4h3.68l0,.27-.74,1.53,0,.49.28.47-.57.49-1.07.6-.58-.18-.92,1.17,0,.83.28.95.44.45,1-.17,1.79.84,0,.14-.38.38.75.62-.31,1,.11.67,1.85,1.05.15,1.23-.26.36,0,.3.57.68.21.72.47.22.67,0,.71,1.22,3,.26,1.53.93.25.38.61,2.58v.49l-.31,0-.53-.41-.92,0-.59-.59-1.1-.49-3.22,1.49-.89,0-.72-.44h-.27l-.52.54-.31,1.36-1.47.93-.45.56-.14.27,0,.84.26,1.4,1.49,1.89v.65l-1,.76-.14.24-.1.61.44.84-.12.88-1.2,1.36-.31.87-.27.21-.73.2-.24.88-.37.44-.27,1.07-.91.19-2.1,1.23-.85-.45-.45.2-.94.06-.82,1.07-1.19.84h-1l-2.91-.39-1,.54-1-.25-.8.33-.68.07-2.11,1.73-.56,1.07-.09,1.11-1,2.64-.65,1.26-.08,1,.11,1.14-.38,1-.08.67-.78,1.54-.12,1,1,5.47.55,4.08-.34,2.52.71,1.88,1.13,1.61.17.64-.32,1.45.24.86-.12,1.81-.12.36-.25.19-1.55.15-.41.45-.28,1.56-.57,1.23-.06.94-1.63-.16-1.22.33-.56-.21-.61.4-.6-.44-1.33.24-.64,1.33-1.93,1.33-.4.76-.54.26h-.77l-.52.26-.26,1.21-.87.49-.9,0-1.26.8-.16,0-.24-.34-1.6.15-.15-.16.07-.16.74-.4.37-.88.58-.5L743,264l0-.46-.5-.22-.17-.72-.59-.83-.36-.24h-.43l-.59.24-1.35,0-1.1.54-.88-.27-.33-.53-.3-.12-1.1.37-.71-.19-2.35.12-.65.14-1,.5-1.37.36-.39,0-1.19-.86-1.31,0-1.12-.52-1.76-.43h-1.15l-2.35-.8-.49-.29-.69-.78-1.2-1-1,.27-1.12-1.47-2.07-.12L712,255.35l-1.91-.05-.45.09-.42.29-.72,4.43-.36.85-.76.39-.39,2.11-.5,1.74-1.61,3.59-.34,1.22-.49,3.26-.81,2.91-2.8,5.76-.53,1.4-.6,2.24-.31,4.68-.61,1.4-1,1.86-.7,2.17-1.45,3.23-.37,1.08-.33,1.71,0,.61h0l-2,.72-.71-.62-.24-1.58.6-4.2L689,293.21l-1.52-5.75h0l-6.44-7.55.69-.91-.85.17-.27-.3,1-.73h0l.36-1-.46,0-.63,1.16-.68-.51-.68,0h0l-.65-.14.73-1.14H679l-.87,1.23-.63-.73-.57-1.43h0l-1.09.71-.92,0h0l-1.09-1.66-6-.15-5.65-3.16-6.65-2.92.08-2-4.15-1.72-9.25,3.23-6.1-8.55-8.65,1-1-2.44-2.45-.22-1-1.14-2.32-1.51h0l-3.28-2.76-3.13,4h0l-2.48-2.61-2.85,3.2-5-1.12-.53,1h0l-1.94.87-2.29-1.12-1.21.75-.94,2.59-2.89-1.08-1.89-1.4-1-1.72-1.74-.9,1.53-.58.83-2-.1-2.19,1.84-.29,1.77.78-.21-1.48-1-4.4-.44-.2-.4-1.15,1.17-2.59,1-4.09,1,0,.18-2.4H598l-1.16-1.67,3.62-1.32-1.38-1.1-2,.15-2.5-2.28.51-1.5,1.71-.07.42-1-.92-.28-3,.08-.27-1.28-1.68-.78-.72-1.48,1.54-.47-.22-1.52,1-.93,1-.08,1.49.51,3.58-3.68,0-1.24.82-3.2-.8-2.38-8,1.31-1.37-2.73.45-1.92-.17-1.15,1.62-.84.4.57,1.86-.79-1.88-2-1.57-.91,0-1.88-2.92-2.41-1.64-.54.05-1-1.56-1.79.29-1.71,4.59-2.21,5.06-1.86,1.73-2.72.4-1.57-.51-1.37.45-1.82-.59-.88.54-2.31,1.77-.05.86-.6,2.75-1.26,1.53-2.13,2.86-2.38.44-1.71h0l1.29-.76,1.15,2,8.35,3.48,3.15.78,2.68-1.23,3.34-6.07,1.33-1.38-.56-4-1.84-.52.7-6.81-4-2.67-1.3-.67-1.58-1.24-.9-1.36-1.48-.45-.53-3.1-2.33-3.37,1.66-1.61.45.36,2.1-1.12.25-1.12,1.19-.53.44,1,2.46-.77,4-2.53,1,.35-.18-1.48.3-1.25-1,.17-.09-1.86,3.89-.57.54.65,2.51-2.46-.52-1.7,3-.76.52-3.05,1.46-.17h0Z"/>
        <path id="KZ-YUZ" class="cls-1" d="M403.55,291l36.76.58h0l3.52,5.75,1.73,5.7,2.67,6.8,2.4,10.39,1.11,1.58,1.49,8.19L455,341.83l-.73.49-.35,2.31-1.35,2.11-.32,3.09-2.44,6.09.05.56-2.62,3.75,2,.72-.54.84.84,2.6,1-.46.44,0-.22,1,1.35-.21,2.06,1.5.6-1.48.44,0,.38,1.57,1.75.16.48.7.69-.27.48.6-.35,1.17,1,1,.72-.48.5.38-.7,1.24.61.49.63.28-.5.5.66.93-.26,2.16.06,1.3.38.47-.48,1.26,2,1.26,1.43-.08.22.88,1.15.43.11.86.63.17.24.66.56.79,1.06.2,1.32,2.31,1.55-.41.35.63-.35,1,.84,0v.61l1.09,1h0l-.25.5,0,.65.18.44-.09.38.25.21,1-.08-.78,1-1.17.71h-.29l-.55-.42-.64.6-.35.58-1.31,1.44-.06.53-.91,2.29-.49.1-.51-.47-.32-.09,0-.94-.23-.38-1.06-.59-1.13-1h-.44l-.16.19-.22,1-.54.65-.79.61.16,1.53-1,.67-.72.23-.82.92-.74,1.59-1.9,1.07-.44,1h-.29l-.21-.64-.45.06-.8,1.8-1.23.5-.5-.43-.52-.14-.7.44-1.32.14-.72.63-1.37.37-1.58,1.57-.48,1-1.12.33-.7.6-.31.54.17.37.49.32-.14.43-.17.08-.93-.15-1.12.27-.85-.32-1.24.15-.48.29-.46,1-.93.53-.48,1.2-.28.19-.58-.32-.22.07-.83,1.29-.08,1.14-.67.64-.13.76h-.45l-.28.19-.87.94L432.49,422l-.31.7-.13.77-.56.51-.77.3-.6.5-.22-.68.75-.51-.55-.25-.34.16-.28-.11-.21-.64-1,.62-.13-.25-2.07-.13v.54l1.52.1.37.58-.36.38.41,1.06-.36,3.12,1.38,1.91.47,1.38,1,.54.36.88-1.81.72-1-.07-.34.47-2-.6.23-.48-.8-.66-.79.21-1.72-1.47-1.59-.56-1.51-1.69L417.08,428l-1-.28-.6-.84.31-1,1.71-.06,0-2.19L418,423l-.58-1.45.59-.62,1-.22-.33-.2-.25.11-.58-.54-1.28.83-.35-.5-.62.55-1.39-1.3-.86-1-.37-.1-.59-.54-6.47-.2-1,.26-.37-.05-.36-.24-13.68-1-1.46-16.66L379,398.84,379,391l.39-.46,0-2.77,1.36.59,0-.39,1.69.41,7.85-8.14,2.73,1.68,5.47-5.52,4.86-3.65,5.19-1.92,6.45-3.22,1.9-1.22.08-.88-1.38.37L415,364l.34-1.42-1.13.05.21-1.2-1.06.6.31,1.68-.83.51-.58-2.57,2-.57.4-2.19-.16-.89,1.85-1.9v-4.22l1.92,1.67.83-.4.22-2.88-.57-1.48-.41-.58,1-1.06,1.18-.48.75.6,1.37-1.36-5.34-3.81L415,339.43l0-.91-2.23-1.25-1.18.38-2.07-2,.23-1.68.39-.55L410,314.3,406.87,313l-3.69-3.06,1.23-4.54.19-2.87.6-2.05,1.18-1.67.56-1.24-.59-1.89-3.07-2.37Z"/>
        <path id="KZ-ZAP" class="cls-1" d="M85.62,122.58l2.27.07.31-.22L89,123l1.09-.26.14.14.45-.1.11.14.4,0,0-.21,1.77-.36.47.39.08.44,1.23.3.14,1.23,0,1.16-.24.33-1.66.09-.37.06-.1.17.08.42.43.29.15.3v.72l.74.31,1.47-.06.77.3,1.75-.88.49-.69v-.72l.43-.15.39.84.55-.11.25.1.36.61-.54,1.07.19.31.41,0,1.21-.63.56-.55,1-.37.09-.14-.72-1.72,0-.39.37-.88,1.59-2,1.8.12,1.5.85.75-.23.81.1.65-.37.38-.56.25-1,.65-.13,1.05.19.82-.59,0-.69.51-.24.51.2.16.19.4,3,1.14,1.51.54,1.28.67.63.19,1.19.78.53v.31l-.17.13.09.41.39.15,0-.14.59-.33,0,.54.62.05-.2-.45.18-.1.24.25.15,0,.06-.76.18,0,.21.8.35.22-.14-.62.94-.29.34.11-.1-.68.46.25v-.52l.16-.31.14.23,0,.3.2-.15.15.26.27-.14.05.35.49-.21.53.26.52-.2,0,.19-.55.33.1.35h.17l.25-.27.25.16.14-.61h.31l0,.39.26.22.28.57.15-.12-.12-.39.53.21-.08-.48.55.26,1-.42.35-.34.22,0,.17.27.37.14.9-.09v-.3l-.39-.43.07-.33.52.14.38-.47.16.11-.23.48.11.14.43.15.64-.13.26.12.32.66h.25l.22-.49.49-.28.62-.19.3.11.37.56.51.11.44.42v.44l.88.43.1.35.69.29.87.05.11.46.41.47.57.3.11.37-.16.21-.56.08.53.67-.13.62-.23.13-.07.48.13.42.76.71.17.49-.07.4.35.44.42-.13.85.42.14.43.29-.2.39.06.47-.17.57.63.23,0,.69-.13.2-.2,1.34.65.24.31,1.08.26.37.36-.07.32.2.17,1.18.38.39.38.26.67-.29.75.06.36.09,0,.15-.38.16-.07.55.81,0,.28-.34.1-.17.23.32.29,0,.44.49.19-.1.52.71.56.69,1.53.46.63.35.19,2.48.2,1.35.73.06.56-.93,1.57-.3,1.29.23,1.11-.74,1.47-.06.87,1.65,2.55.6,0,.51-.31h0l.3.43-2.45,2.92.33.87-2.07,2.2,1.46,2-.36,2.11.07,2.57.92.28.06.77,1.31.62.25,1.52-.87,1.76.07.89-1.87,3.29,1.14,1.39h-2.15l-.41,1.07-1.35,1.7.45.83-1.91,1.13-1.66-.3-2.4.05-.35,1.45h-1.9l-1.5,1.35-.79,2-1.21-.6.68,1.56-1.28,4.37.18,2.77h0l-.64,1-3.76,3.19.51,1.19-3,.95H126l-1.2-.58-1.15,2.7-1.73-.75.3,7.14-2.34.1-1.36,5.72.44,1.44-1.37.83-2.09,0L111.21,219l-.85.11-.69,1.22-6.23-1.42.15-2.4.67-.47-.52-1.06-8.22-1.42-2.31,1.06-4,.28-1.09,3.39-1.79,1.1-.8-.4-1.81,1.73-1.22,0L71.8,227.87l-3.94,4-3.27-.08-1.06.87-6-.33.15,3-9.51-3.77-5.39-1.51-17.14-1.91-9.89-1.55-2.28.12-2.94-1h0l-1.74-2.06.09-.33-.13-.1-.94,0L6.39,223,3.91,221.8l-3-1.15-.58-.44,2.12-6,1.32-3.09,1-2.88,1.15-2.6,3.09-1.92,1.28-1.68.68-1.74.27-1.35-.15-.66-.45-.64-3-2.73L5.94,194l0-.39.43-2.57.34-3.71.77-1.53.29-2.13v-2l.37-2.8.28-.65.21-.23,1.07,0,2.63-1,1-.69,1.21-1.21.81-1.24,1.3-2.61.12-.34-.25-.81-1.27-2,1.28-1.31-.08-.36-.39-.17v-1.55l.34-.63,1.5-.11.21-.13,0-1.15.37-.23.31-.93L20,160.29l.82-.2,1.4.74.74.95,1.6.85-.17.34.64.85.19.16.74.1.07.5.59.84,1,1,.82,1.1.25.82.52.43.09.85.7.6.31.57.83.26.22.31.64,2.93.37.37.06.5.22.37.52.38.53.93.15.7-.13.39.23.17.83.16.42-.27.34.08.26.51.29.12.15.56.57-.26.32.32,0,.35.58.24.16-.14V179l5.85-2.66,2.48-2.43.29-.48-.44-1.27-.06-.61-1.22-.24-.53-.25-.13-.26,0-.54.22-.28.15-.64,0-.64-.28-.77-.93-1.52-.32-1-.29-2.62-1-5,.28-.93-.29-.78-1.26-.7-.22-.42,0-.41.39-.47.42-.12.64.15,1.31,1.21,1.5.12.66.56.25,0,.84-1,1.37-.79.86-1.27,2.14-2.54,1-.55,1.65-.37.87-.75,1.18-.1,1.49-.53.2-.59-.18-.57-.82-1.9-.33-.54-.55-.43,0-.25,1.07-1.79-.14-1.26.25-.25.6-.15.1-.61.75.17.87.49.41,0,1.34-.48,2,.36.79-.06,2-1.77.58-.76,1.29-1.16,4.3-1.62,1.25-.23,2.86-1.43.09-.12-.36-.26-.39-1,.75-.77,0-.31-.42-.45,2.15-.19.06-1.1h.93l.05-.46-.46-1,.19-1.55.27-.88.29-.07.19.2L79,125l.39-1.27h1.08l.44.23,1.37.2,0,.59-.95.93-.06.25,1.73-.2.16-.32.27-.12.31-2.16-.71-.39-.36-.42-.13-1.2.23-1.22.55,0,1.77.84Z"/>
        <path id="KZ-ZHA" class="cls-1" d="M537.59,291,536,294.44h0l-1.85,3.12.84,10.2,1.06,2.79-5.87-.43.35,5.11,5.45.14.16,3.34.76.91.38,1.19,6.24,4.37,1.86,3.21-.89,3.28.63,1,3.71,3.55,4.34.47h0l.33,0,1.86,1.71h0l1.21.17,1.1,1.49,2,1.38.09,3.34-.44,1.16-.86,1,.45,1.93-.46,1.25-.74.35-4.25,4v1.72l3.28,1.15.66-.45,1.1.14-.29.93,2.91-.36.7,1.18L559.3,362l-.22,2.26.74.44-.27,1.15.75.33.46,1.9,1.88.39,3.66,1.73-.52,1.06h0l-1.12.34.22.43h0l1.88-.21,1.08.68,1-.44.2.94.15,0h0l-.48.84-.35,1.68-.24.42-.82.62-2-.63-2.39-.11-.76.15-.46-.07-2-.9-.92.13-.82.36-.59-.1-.17-.18-.7,0-.55-.76L555,374l-.1-.26-.87-.43-.56-.55-.8-.1-.58-.44-.17.1-.08-.48-.18-.22-1.44-.61-.38.3h-1.5l-.66-.89-.24-.84-.55-.49-.78-.39-.25-.76-.42-.2-.8-.72-.31.08-.39-.25-.18.11-.37-.67-.94-.09-.28-.34-.32.18-.39-.21-.85-.1-.16-.2-.5-.09-.27-.58-1.94.13-.48-.12L537,365l.42.87-.07.21-.3.16h-.33l-.81.45L535,367l-.95-.29-.39-.45-.56-.16-1,1.55-.28,1-1.38-.39-.8.09L527,369.71l-1.3.54-.25.3-.08.17.19.35,0,.32-.39.84-.52.67-.28.71.07,3.27-.81,1.54-.74,2.58,0,1.47.33,1.58,1.46,1.88-.06.58-.38.19-.31,0-.46-.32-2-.19-.7-.58v-1.24l-.24-.25-1.12-.06-2.59-.71-1.39.14-.55-.14-.61.21-.46-.17-.79,0-.61-.46-.78-.13-.49-.27-1.35-1.87-1.5-.47-1.17-.65-.37-.06-.74.18-1-.21-4.21-1.95-1,0-.8.26-.48-.11L498,378l-.48.09-.61-.21-.62-.65-1.4-.4-.6-.38-.29-.41-1.46-.49-.88,0-1.12.62-1.65.47-.93.66-1.1-.26-.27-.38-.76-.53h-.35l-.58.27-1.54.06-.47.53-1.73-.09-.15.2,0,.46-.83,1.64-1,.55,0,1-.23.65-2.41.28-.61.54,0,.24.36.55,1.28.94,0,.5-.31.66-.34.11-.44-.13-.81-.69-.32.27-.41.65-.12.87-.31.86-.39.6-.29.16-.29.67h0l-1.09-1v-.61l-.84,0,.35-1-.35-.63-1.55.41-1.32-2.31-1.06-.2-.56-.79-.24-.66-.63-.17-.11-.86-1.15-.43-.22-.88-1.43.08-2-1.26.48-1.26-.38-.47-.06-1.3.26-2.16-.66-.93.5-.5-.63-.28-.61-.49.7-1.24-.5-.38-.72.48-1-1,.35-1.17-.48-.6-.69.27-.48-.7-1.75-.16-.38-1.57-.44,0-.6,1.48-2.06-1.5-1.35.21.22-1-.44,0-1,.46-.84-2.6.54-.84-2-.72,2.62-3.75-.05-.56,2.44-6.09.32-3.09,1.35-2.11.35-2.31.73-.49L453.23,330l-1.49-8.19-1.11-1.58-2.4-10.39-2.67-6.8-1.73-5.7-3.52-5.75h0l27.53-.06,15.58-.4,3.44.25,18.61-.69Z"/>
        <path id="KZ-AS" class="cls-1" d="M277.8,268.86l-.32,1.39v1.6l-.11,1.71,1.92,2.35,2.67-.11,3,.53,1.07-.86.75.11.06,1.68-.32,3.31-1.22,2.08-1.9,1.13-1.81.68-1.4,1.27-2,.36-1.81,1.68h0L276,289l-.68,1h0l-1.54.32-1.22.36h0l-.23,1-.41.54h0l-.27,1.54h0l-.27,1.31-1,.68.09.86h0l0,1.09,1,1,.41,1.59.32,1.31h0l-.09,1.63-.73,1.68h0l-.23,1,.91.68.45,1.63,0,3.67-.5,1.13v1.18l.5,1.68.86.73.41,1.27,1.18.09.77,1,.82,2.67.45,2.08-.27,2-.68,2-.59.32-.45.45h0l-.52.41-7.16-5.17h0l-16.66-12h0l0-.77-.32-.86-.59-.59-.73-.45-.23-.77-.18-.82L248,306l.5-.63.09-1-.18-1.54.23-.91-.41-.77h-.91l-.63-.23-.36-.41-.68-.36-.36.45-.32.73-.68.5h0l-.55.31h0l-.81,0-.54-.27h-.63l-.23.45v1l-.41.27-.1,1h0l-4.81-3.47-1.79.69h0l.05-.84.64-1.07.86-.43.11-1.92.75-2.14,1-2,.85-1.18,1-.64,2-.43,1.63-.87h0v.09l.36.06.54.45,1.18.18h0l1.22-.09.41-.36.63-.68.86-.5.95.5.82.59h0l-.36.82-.82.91h0l-.59.86-.54.86-.23,1.09-.05,1h0l.14.73h1l1.09-.41,1.09-.09h0l.86.32.72-.59.41-1.09.41-1.31.68.36.63-.32.54-.91h0l.23-1.36-.18-1.86h0l-.23-.77,0-.82.36-1.31-.5-1.13-1.45-2.4-.68-1-.05-1.09.63-.14,1.9,0,1.36,0h0l1.18.23.77,1h0l0,1.5.14,1.22.41.68h0l-.14,1.13-.23.77.63.36h0l1.36-.09.77-.77,1-.86.86-.5,1.54.18,2,.41,1,.23,1,.59,1.13,1.22,1.22.41,2.58-.5H275l1-.63,1.13-.68.41-1.45,0-2L277,282l-1-1.45-.14-.86,0-.91L275,279l-.73.91-1.5,1-1.18-.41-.86-.68-.54-1H269l-1.27.18-1.13.32-.91.45h-1.09l-1.36-.59-.45-.68h0l-.68-1.5h0l-.58-.72.12-2,.8-1.07,4.41-2.94h1.34l.94.94.53,1.07h0l-.13,2.67.27.94.72-.51v-3.1l1.5.43,1.28.64,1.07-.53.75-.86.75-.43v-1.24l-1.28-1-1-.11-1.07-.53.11-1,1.71-.11h1l1,.85Zm-15.53,31.89,1-.62,1-.41.83-.48h5.17l-.28-.48-2-.07-1.86-.34-.48-1-2.48-.28-1.65.14-1.58.07-1.65.41-.07,1.45-.07,2.07h2.07Z"/>
      </g>
    </g>
  </g>
</svg>
