<svg width="347" height="271" viewBox="0 0 347 271" fill="none" xmlns="http://www.w3.org/2000/svg">
<path fill-rule="evenodd" clip-rule="evenodd" d="M8.5759 149.61C10.5094 149.61 11.6142 147.969 12.719 148.79C13.8239 149.61 19.0719 152.618 19.0719 150.977C19.0719 149.337 20.7291 146.602 17.1384 145.782C13.5477 144.962 11.0618 144.688 9.40451 144.688C7.74728 144.688 6.64245 143.595 6.36623 142.228C6.09001 140.861 5.8138 139.22 6.09001 137.033C6.36623 134.845 6.09001 133.752 6.09001 131.291C6.09001 128.83 6.09001 124.455 5.26139 123.635C4.43276 122.815 2.7755 119.808 2.49929 118.167C2.22308 116.527 1.39446 113.246 2.7755 111.605C4.15655 109.965 6.09001 108.05 7.19485 106.684C8.29968 105.316 9.12833 105.043 8.85211 102.309C8.5759 99.5746 9.12833 98.2074 9.12833 97.114C9.12833 96.0202 8.85211 92.4657 8.29968 91.6454C7.74728 90.8251 4.98518 83.4431 8.29968 82.3493C11.6142 81.2555 14.9287 83.1696 16.8622 82.3493C18.7957 81.5289 21.0053 79.0683 22.1102 78.2479C23.215 77.4276 25.1485 76.881 25.9771 74.9669C26.8057 73.0532 28.7392 65.6708 29.2916 64.0301C29.2916 64.0301 30.6726 59.6557 31.2251 58.5619C31.7775 57.4681 35.092 56.6481 36.473 56.1012C37.8539 55.5543 41.1685 56.3747 42.2736 56.1012C43.3783 55.8278 43.9307 52.8202 44.483 51.1796C45.0354 49.5392 48.3499 52.8202 49.7312 51.7265C51.1121 50.6327 49.7312 48.9923 48.9026 46.8051C48.0737 44.6176 49.1788 44.0707 50.0074 43.2507C50.8359 42.4303 53.3219 46.2582 54.4266 47.3517C55.5314 48.4455 55.2552 50.3592 55.5314 52.2733C55.8075 54.1871 61.3319 48.7189 63.2655 47.8986C65.1988 47.0782 68.5133 47.0782 69.8942 47.0782C71.2755 47.0782 73.2088 47.3517 75.1424 47.3517C77.0757 47.3517 77.3522 45.4379 79.0093 44.6176C80.6664 43.7972 84.2574 43.7972 85.9145 43.7972C87.5716 43.7972 100.554 43.2507 101.658 43.2507C102.763 43.2507 104.697 43.5241 108.011 45.4379C111.326 47.3517 111.878 45.4379 113.812 45.4379C115.745 45.4379 120.165 43.5241 120.993 43.2507C121.822 42.9772 125.412 41.61 126.241 41.3366C127.07 41.0631 131.765 43.2507 133.699 44.0707C135.632 44.891 139.499 45.7113 141.709 45.7113C143.918 45.7113 143.642 44.891 144.471 43.5241C145.3 42.1569 151.652 46.8051 153.586 47.6251C155.519 48.4454 156.9 47.6251 158.557 46.5317C160.215 45.4379 162.701 45.1644 164.634 45.1644C166.568 45.1644 167.12 46.2582 169.053 46.8051C170.987 47.3517 170.435 42.9772 170.435 41.8834C170.435 40.7897 180.102 40.7897 182.864 41.0631C185.626 41.3366 189.217 38.8759 189.769 37.7821C190.322 36.6887 192.255 28.486 193.36 26.8455C194.465 25.205 197.227 23.8379 198.332 22.1974C199.437 20.5569 193.636 14.2683 191.979 13.9948C190.322 13.7214 190.322 14.8151 188.112 16.729C185.902 18.643 183.416 16.729 181.207 17.2759C178.997 17.8227 183.14 21.3771 184.245 23.0176C185.35 24.6581 184.798 24.6581 183.969 25.7518C183.14 26.8455 180.931 24.6581 179.826 23.5645C178.721 22.4708 177.616 21.1037 175.683 20.5569C173.749 20.01 171.263 24.1113 170.159 25.205C169.053 26.2987 167.396 28.486 165.187 28.486C162.977 28.486 164.358 35.3214 163.529 37.5087C162.701 39.6962 157.729 34.7746 156.624 33.6809C155.519 32.5872 154.138 31.767 152.205 31.2202C150.271 30.6733 144.747 30.6733 142.261 30.6733C139.775 30.6733 132.594 32.3138 130.661 32.3138L128.084 15.1804C129.189 12.993 129.187 8.98147 131.03 10.4404C132.872 11.8994 136.554 15.1826 138.027 14.452C139.501 13.7214 142.816 5.33735 144.656 6.43103C146.497 7.52468 148.709 9.34674 150.55 8.61836C152.39 7.88998 156.074 1.32795 159.019 2.05634C161.965 2.78472 173.751 10.8035 178.171 10.4404C182.59 10.0773 191.427 6.79411 195.11 9.34674C198.793 11.8994 208.001 19.9204 210.947 19.9204C213.892 19.9204 216.84 20.2835 217.945 18.0961C219.05 15.9088 220.154 11.171 220.154 11.171C220.154 11.171 228.993 8.98366 234.148 10.0773C239.304 11.171 246.671 11.8972 249.985 12.6277C253.3 13.3583 260.296 12.6278 262.505 13.7214C264.715 14.8151 275.763 18.0961 279.078 18.0961C282.392 18.0961 291.967 17.0046 293.441 15.5457L292.705 24.295L332.11 63.3017L333.398 64.0301C337.264 64.577 345 65.1239 345 65.1239V84.81L332.846 79.8886C332.846 79.8886 322.902 86.9975 319.588 86.9975C316.273 86.9975 315.721 84.2631 314.063 82.6227C312.406 80.9821 309.092 77.1545 306.33 78.7948C303.567 80.4355 291.967 90.8251 285.89 93.0126C279.814 95.1999 250.535 105.59 248.878 107.23C247.221 108.871 237.83 117.62 237.83 117.62C237.83 117.62 241.144 121.448 245.564 120.901C249.983 120.354 256.06 118.167 256.06 118.167L267.66 121.448C267.66 121.448 263.241 129.104 263.793 134.572C264.346 140.04 267.108 158.633 267.108 158.633L287.547 188.709L285.89 200.739L291.967 201.286L294.729 208.395C294.729 208.395 280.918 212.769 280.918 216.597C280.918 220.425 280.366 223.159 280.366 223.159L287.547 226.987L274.289 233.002C274.289 233.002 270.422 240.658 272.632 243.939C274.842 247.22 279.261 255.423 279.813 258.704C280.366 261.985 280.918 268 280.918 268C280.918 268 268.213 260.344 264.898 257.063C261.584 253.782 246.116 256.516 243.354 255.969C240.592 255.423 232.858 244.486 231.201 242.845C229.543 241.205 221.257 241.752 217.943 241.205C214.628 240.658 198.608 239.564 194.741 240.111C190.874 240.658 164.358 245.033 161.043 245.58C157.729 246.126 148.89 243.939 146.128 243.392C143.366 242.845 140.604 242.845 137.289 243.392C133.975 243.939 116.85 250.501 111.326 250.501C105.802 250.501 83.7047 250.501 83.7047 250.501C80.9429 247.767 68.2371 243.939 68.2371 243.939L69.3419 226.987C65.475 226.987 56.6364 224.253 56.6364 224.253C56.6364 224.253 60.5033 216.05 62.1604 213.863C63.8179 211.676 65.475 204.02 64.9226 199.099C64.3702 194.177 50.5597 190.896 46.6928 189.802C42.8259 188.709 37.8539 187.615 33.4347 185.428C29.0154 183.24 28.463 177.225 28.463 173.944C28.463 170.663 25.7009 165.195 25.7009 165.195C25.7009 165.195 14.6525 159.727 11.8904 157.539C9.12833 155.352 8.5759 149.61 8.5759 149.61Z" stroke="white" stroke-width="3"/>
</svg>
