<?xml version="1.0" encoding="UTF-8"?>
<svg width="8px" height="14px" viewBox="0 0 8 14" version="1.1" xmlns="http://www.w3.org/2000/svg" xmlns:xlink="http://www.w3.org/1999/xlink">
    <!-- Generator: Sketch 50.2 (55047) - http://www.bohemiancoding.com/sketch -->
    <title>Shape</title>
    <desc>Created with Sketch.</desc>
    <defs></defs>
    <g id="Page-1" stroke="none" stroke-width="1" fill="none" fill-rule="evenodd">
        <g id="lk-turoperatora-setting" transform="translate(-436.000000, -1330.000000)" fill="#FFFFFF" fill-rule="nonzero">
            <g id="about" transform="translate(405.000000, 865.000000)">
                <path d="M38.6987435,465.002913 L36.7799073,465 C34.6241606,465 33.2310223,466.35233 33.2310223,468.445419 L33.2310223,470.033988 L31.3017183,470.033988 C31.1350036,470.033988 31,470.161866 31,470.319601 L31,472.621256 C31,472.778992 31.1351575,472.906724 31.3017183,472.906724 L33.2310223,472.906724 L33.2310223,478.714532 C33.2310223,478.872268 33.3660259,479 33.5327407,479 L36.0499336,479 C36.2166484,479 36.3516519,478.872122 36.3516519,478.714532 L36.3516519,472.906724 L38.6074583,472.906724 C38.7741731,472.906724 38.9091766,472.778992 38.9091766,472.621256 L38.9101003,470.319601 C38.9101003,470.243865 38.8782351,470.171333 38.8217399,470.117735 C38.7652447,470.064137 38.6882757,470.033988 38.608228,470.033988 L36.3516519,470.033988 L36.3516519,468.687338 C36.3516519,468.040084 36.5146722,467.711505 37.4058189,467.711505 L38.6984356,467.711068 C38.8649964,467.711068 39,467.58319 39,467.425601 L39,465.288381 C39,465.130936 38.8651504,465.003204 38.6987435,465.002913 Z" id="Shape"></path>
            </g>
        </g>
    </g>
</svg>