<svg xmlns="http://www.w3.org/2000/svg" xmlns:xlink="http://www.w3.org/1999/xlink" width="64" height="36" viewBox="0 0 64 36"><defs><path id="43qya" d="M378.044 422.642c.242-.034 1.21.683 1.659 1.811.207.478.242.923.07 1.025l-1.798 1.093-3.283-1.845zm-9.228.58l13.064 7.34-6.532 3.96-8.295-10.24c-.069-.103-.034-.445.208-.752.138-.205.415-.444.898-.444.208 0 .415.034.657.137zm-6.395 12.712l6.35 2.597-3.382 2.05-3.693-4.579c.104-.068.346-.17.725-.068zm8.227 3.348l.034-.136 21.014-12.745c.587-.342 1.244-.479 1.9-.308.657.17 1.21.581 1.556 1.128.726 1.161.346 2.699-.83 3.417l-26.197 15.888c-.588.342-1.244.478-1.901.308a2.617 2.617 0 0 1-1.555-1.128c-.346-.58-.484-1.23-.311-1.88a2.592 2.592 0 0 1 1.14-1.537l5.046-3.04zm19.907 3.52c.173-.103.553.102.899.511.795.921 1.037 2.08.864 2.285l-4.078 2.456-.173-3.684zm-17.236 2.426l-.59 7.337c-.068.341-.242.512-.38.58l-2.634-5.733zm12.856-7.79l.692 14.76c-.07.923-.623 1.162-.969 1.23-.415.069-.727-.068-.761-.136l-5.503-11.891zm-.01 17.528c1.003-.205 2.144-.991 2.247-2.7v-.034l-.103-2.357 4.77-2.905c.31-.17.829-.615.829-1.606 0-1.366-1.072-3.177-2.247-3.827-.691-.375-1.382-.375-1.97-.034l-1.728 1.094-.276-6.082 7.361-4.682a3.988 3.988 0 0 0 1.348-5.535 3.91 3.91 0 0 0-2.523-1.81 4.198 4.198 0 0 0-3.076.478l-7.465 4.544-3.906-2.187 1.072-.649c.553-.342.864-.957.83-1.708-.035-1.367-1.176-3.11-2.42-3.725-.864-.444-1.52-.17-1.797 0l-4.044 2.529-3.56-2.016-.069-.035c-1.59-.683-2.834-.034-3.456.752-.657.82-.76 1.914-.207 2.631l8.19 10.148-3.594 2.187-7.465-3.007-.035-.034c-1.175-.376-2.073.103-2.523.65-.38.478-.449 1.024-.207 1.469l3.94 4.886a4.291 4.291 0 0 0-1.21 2.05 4.07 4.07 0 0 0 .484 3.04 3.91 3.91 0 0 0 2.523 1.812c.83.205 1.694.137 2.454-.171l2.73 5.98.07.102c.276.444.83.615 1.417.478.69-.136 1.555-.751 1.728-1.947l.691-8.542 3.318-2.016 5.426 11.754c.346.649 1.071 1.059 1.935 1.059.173 0 .346-.034.519-.034z"/><path id="43qyb" d="M348.19 434h-9.38c-.457 0-.81-.435-.81-1s.353-1 .81-1h9.38c.457 0 .81.435.81 1s-.353 1-.81 1z"/><path id="43qyc" d="M351.43 432.11c.483.262.706.823.483 1.347-.223.486-.817.673-1.337.449-.52-.225-.706-.823-.483-1.347a.976.976 0 0 1 1.337-.448z"/><path id="43qyd" d="M355.21 438h-20.42c-.446 0-.79-.435-.79-1s.344-1 .79-1h20.42c.446 0 .79.435.79 1s-.344 1-.79 1zm-4.366 4.45h-11.79c-.448 0-.791-.435-.791-1 0-.566.343-1 .79-1h11.79c.448 0 .791.434.791 1 0 .565-.343 1-.79 1z"/></defs><g><g transform="translate(-334 -420)"><g><use fill="#f9c23b" xlink:href="#43qya"/><use fill="#fff" fill-opacity="0" stroke="#f9c23b" stroke-miterlimit="50" stroke-width=".5" xlink:href="#43qya"/></g><g><use fill="#f9c23b" xlink:href="#43qyb"/></g><g><use fill="#f9c23b" xlink:href="#43qyc"/></g><g><use fill="#f9c23b" xlink:href="#43qyd"/></g></g></g></svg>