<?xml version="1.0" encoding="UTF-8"?>
<svg width="20px" height="20px" viewBox="0 0 20 20" version="1.1" xmlns="http://www.w3.org/2000/svg" xmlns:xlink="http://www.w3.org/1999/xlink">
    <!-- Generator: Sketch 50.2 (55047) - http://www.bohemiancoding.com/sketch -->
    <title>chat-bubble</title>
    <desc>Created with Sketch.</desc>
    <defs></defs>
    <g id="Page-1" stroke="none" stroke-width="1" fill="none" fill-rule="evenodd">
        <g id="контакты" transform="translate(-1087.000000, -314.000000)" fill="#FFFFFF" fill-rule="nonzero">
            <g id="chat-bubble" transform="translate(1087.000000, 314.000000)">
                <path d="M18,0 L2,0 C0.9,0 0,0.9 0,2 L0,20 L4,16 L18,16 C19.1,16 20,15.1 20,14 L20,2 C20,0.9 19.1,0 18,0 Z M4,7 L16,7 L16,9 L4,9 L4,7 Z M12,12 L4,12 L4,10 L12,10 L12,12 Z M16,6 L4,6 L4,4 L16,4 L16,6 Z" id="Shape"></path>
            </g>
        </g>
    </g>
</svg>