<?xml version="1.0" encoding="UTF-8"?>
<svg width="18px" height="21px" viewBox="0 0 18 21" version="1.1" xmlns="http://www.w3.org/2000/svg" xmlns:xlink="http://www.w3.org/1999/xlink">
    <!-- Generator: Sketch 50.2 (55047) - http://www.bohemiancoding.com/sketch -->
    <title>front-bus</title>
    <desc>Created with Sketch.</desc>
    <defs></defs>
    <g id="Page-1" stroke="none" stroke-width="1" fill="none" fill-rule="evenodd">
        <g id="turop-page" transform="translate(-324.000000, -749.000000)" fill="#B1B1B1" fill-rule="nonzero">
            <g id="front-bus" transform="translate(324.000000, 749.000000)">
                <path d="M0,15.4736842 C0,16.4684211 0.45,17.3526316 1.125,17.9052632 L1.125,19.8947368 C1.125,20.5578947 1.575,21 2.25,21 L3.375,21 C4.05,21 4.5,20.5578947 4.5,19.8947368 L4.5,18.7894737 L13.5,18.7894737 L13.5,19.8947368 C13.5,20.5578947 13.95,21 14.625,21 L15.75,21 C16.425,21 16.875,20.5578947 16.875,19.8947368 L16.875,17.9052632 C17.55,17.3526316 18,16.4684644 18,15.4736842 L18,4.42105263 C18,0.552631579 13.95,0 9,0 C4.05,0 0,0.552631579 0,4.42105263 L0,15.4736842 Z M3.9375,16.5789474 C3.0375,16.5789474 2.25,15.8052632 2.25,14.9210526 C2.25,14.0368421 3.0375,13.2631579 3.9375,13.2631579 C4.8375,13.2631579 5.625,14.0368421 5.625,14.9210526 C5.625,15.8052632 4.8375,16.5789474 3.9375,16.5789474 Z M14.0625,16.5789474 C13.1625,16.5789474 12.375,15.8052632 12.375,14.9210526 C12.375,14.0368421 13.1625,13.2631579 14.0625,13.2631579 C14.9625,13.2631579 15.75,14.0368421 15.75,14.9210526 C15.75,15.8052632 14.9625,16.5789474 14.0625,16.5789474 Z M15.75,9.94736842 L2.25,9.94736842 L2.25,4.42105263 L15.75,4.42105263 L15.75,9.94736842 Z" id="Shape"></path>
            </g>
        </g>
    </g>
</svg>