<?xml version="1.0" encoding="UTF-8"?>
<svg width="106px" height="106px" viewBox="0 0 106 106" version="1.1" xmlns="http://www.w3.org/2000/svg" xmlns:xlink="http://www.w3.org/1999/xlink">
    <!-- Generator: Sketch 50.2 (55047) - http://www.bohemiancoding.com/sketch -->
    <title>Group</title>
    <desc>Created with Sketch.</desc>
    <defs></defs>
    <g id="Page-1" stroke="none" stroke-width="1" fill="none" fill-rule="evenodd">
        <g id="ошибка-форма" transform="translate(-665.000000, -220.000000)">
            <g id="Group" transform="translate(666.000000, 221.000000)">
                <circle id="Oval-15-Copy" fill="#EA1D4D" cx="52" cy="52" r="38"></circle>
                <g id="close-browser" transform="translate(36.000000, 36.000000)" fill="#FFFFFF" fill-rule="nonzero">
                    <path d="M22.6911908,16.5019448 L31.978419,7.21350121 C33.340527,5.85142245 33.340527,3.62230913 31.978419,2.26023038 L30.740782,1.02261988 C29.3786741,-0.340873292 27.149513,-0.340873292 25.787405,1.02261988 L16.5001768,10.3110635 L7.21153413,1.02261988 C5.85084063,-0.33945888 3.62167954,-0.33945888 2.2595716,1.02261988 L1.02052013,2.26023038 C-0.340173376,3.62230913 -0.340173376,5.85142245 1.02052013,7.21350121 L10.3077484,16.5005304 L1.02052013,25.788974 C-0.340173376,27.1510528 -0.340173376,29.3801661 1.02052013,30.7408304 L2.2595716,31.9784409 C3.62167954,33.3405197 5.85084063,33.3405197 7.21153413,31.9784409 L16.5001768,22.6928261 L25.787405,31.9784409 C27.149513,33.3405197 29.3786741,33.3405197 30.740782,31.9784409 L31.978419,30.7408304 C33.340527,29.3787517 33.340527,27.1496384 31.978419,25.788974 L22.6911908,16.5019448 Z" id="Shape"></path>
                </g>
                <circle id="Oval-15" stroke="#EA1D4D" stroke-width="2" cx="52" cy="52" r="52"></circle>
            </g>
        </g>
    </g>
</svg>