<svg width="113" height="113" viewBox="0 0 113 113" fill="none" xmlns="http://www.w3.org/2000/svg">
<path fill-rule="evenodd" clip-rule="evenodd" d="M56.5 113C87.7041 113 113 87.7041 113 56.5C113 25.2959 87.7041 0 56.5 0C25.2959 0 0 25.2959 0 56.5C0 87.7041 25.2959 113 56.5 113Z" fill="white"/>
<path fill-rule="evenodd" clip-rule="evenodd" d="M70.7026 55.0162L51.8529 43.2767C51.2957 42.9488 50.6037 43.0034 50.0811 43.0034C47.9907 43.0034 48 44.5987 48 45.0029V68.997C48 69.3387 47.9908 70.9966 50.0811 70.9966C50.6037 70.9966 51.2958 71.051 51.8529 70.7232L70.7025 58.9839C72.2497 58.0739 71.9823 57 71.9823 57C71.9823 57 72.2498 55.926 70.7026 55.0162Z" fill="#67A1D6"/>
</svg>
