<svg xmlns="http://www.w3.org/2000/svg" xmlns:xlink="http://www.w3.org/1999/xlink" width="64" height="33" viewBox="0 0 64 33"><defs><path id="esfka" d="M338.197 990h47.418c1.148 0 2.136.536 2.959 1.401.472.497.796.991.984 1.363l6.365 13.473c.05.107.077.225.077.344v8.615a.803.803 0 0 1-.802.804h-7.78a.803.803 0 0 1-.801-.804c0-2.113-1.66-3.805-3.724-3.805s-3.725 1.692-3.725 3.805a.803.803 0 0 1-.802.804h-26.45a.803.803 0 0 1-.801-.804c0-2.113-1.661-3.805-3.725-3.805-2.063 0-3.724 1.692-3.724 3.805a.803.803 0 0 1-.802.804h-4.667a4.203 4.203 0 0 1-4.197-4.208v-17.584a4.203 4.203 0 0 1 4.197-4.208zm56.21 16.762l-6.28-13.29a4.819 4.819 0 0 0-.705-.961c-.547-.575-1.151-.903-1.798-.903h-47.427a2.597 2.597 0 0 0-2.593 2.6v17.584c0 1.435 1.161 2.6 2.593 2.6h3.924c.38-2.612 2.585-4.609 5.271-4.609s4.891 1.997 5.271 4.609h24.967c.38-2.612 2.585-4.609 5.27-4.609 2.687 0 4.892 1.997 5.272 4.609h6.234z"/><path id="esfkb" d="M394.93 1007.81l-59.93-5.054.14-1.613 10.744.896v-10.537h1.58v10.645l9.514.788V991.18h1.58v11.9l10.181.86V991h1.58v13.082l9.865.825v-13.405h1.58v13.548l13.236 1.111zm-47.356 3.835c-2.04 0-3.692 1.72-3.692 3.835s1.653 3.835 3.692 3.835 3.691-1.72 3.691-3.835c0-2.114-1.652-3.835-3.691-3.835zm-.005 9.355c-2.914 0-5.302-2.473-5.302-5.484 0-3.01 2.388-5.484 5.302-5.484 2.914 0 5.301 2.473 5.301 5.484 0 3.01-2.387 5.484-5.301 5.484zm35.248-9.355c-2.036 0-3.686 1.72-3.686 3.835s1.65 3.835 3.686 3.835c2.037 0 3.687-1.684 3.687-3.799s-1.65-3.87-3.687-3.87zm0 9.355c-2.914 0-5.3-2.473-5.3-5.484 0-3.01 2.386-5.484 5.3-5.484 2.914 0 5.302 2.473 5.302 5.484 0 3.01-2.388 5.484-5.302 5.484z"/><path id="esfkc" d="M366.19 1013h-9.38c-.457 0-.81-.435-.81-1s.353-1 .81-1h9.38c.457 0 .81.435.81 1s-.388 1-.81 1z"/><path id="esfkd" d="M368.429 1011.117c.484.261.708.82.484 1.342-.224.484-.82.67-1.342.447-.484-.26-.708-.82-.484-1.342.26-.521.82-.708 1.342-.447z"/></defs><g><g transform="translate(-333 -989)"><g><use fill="#f9c23b" xlink:href="#esfka"/><use fill="#fff" fill-opacity="0" stroke="#f9c23b" stroke-miterlimit="50" stroke-width=".5" xlink:href="#esfka"/></g><g><use fill="#f9c23b" xlink:href="#esfkb"/><use fill="#fff" fill-opacity="0" stroke="#f9c23b" stroke-miterlimit="50" stroke-width=".5" xlink:href="#esfkb"/><use fill="#fff" fill-opacity="0" stroke="#f9c23b" stroke-miterlimit="50" stroke-width=".5" xlink:href="#esfkb"/></g><g><use fill="#f9c23b" xlink:href="#esfkc"/></g><g><use fill="#f9c23b" xlink:href="#esfkd"/></g></g></g></svg>