<svg width="18" height="13" viewBox="0 0 18 13" fill="none" xmlns="http://www.w3.org/2000/svg">
<path d="M1.32752 0.720483L7.89327 5.69132C8.191 5.91647 8.60128 6.01653 8.99978 5.99777C9.39762 6.01653 9.8079 5.91709 10.1056 5.69132L16.6714 0.720483C17.1975 0.324593 17.0784 0 16.4109 0H9.00043H1.58992C0.921825 0 0.802734 0.324593 1.32752 0.720483Z" fill="#6D9FFF"/>
<path d="M17.0437 2.20637L9.95857 7.73569C9.69365 7.94026 9.34666 8.03989 9.00097 8.03524C8.65463 8.03989 8.30764 7.9396 8.04272 7.73569L0.956313 2.20637C0.430341 1.79657 0 2.01642 0 2.69455V11.7666C0 12.4447 0.540187 13 1.19991 13H8.99968H16.8001C17.4598 13 18 12.4447 18 11.7666V2.69455C18 2.01642 17.5697 1.79657 17.0437 2.20637Z" fill="#6D9FFF"/>
</svg>
