<svg xmlns="http://www.w3.org/2000/svg" xmlns:xlink="http://www.w3.org/1999/xlink" width="17" height="20" viewBox="0 0 17 20"><defs><path id="n56ia" d="M569.885 2060.474h-5.322v-5.263h5.322zm-1.604 6.315c-.85 0-1.593-.736-1.593-1.578 0-.843.743-1.58 1.593-1.58s1.594.737 1.594 1.58c0 .842-.744 1.578-1.594 1.578zm-5.843-6.315h-5.313v-5.263h5.313zm-3.724 6.315c-.848 0-1.589-.736-1.589-1.578 0-.843.741-1.58 1.589-1.58.847 0 1.589.737 1.589 1.58 0 .842-.742 1.578-1.59 1.578zM563.5 2051c-4.675 0-8.5.526-8.5 4.21v10c0 2 1.7 3.685 3.719 3.685l-1.594 1.579v.526h12.75v-.526l-1.594-1.58c2.019 0 3.719-1.683 3.719-3.683v-10c0-3.685-3.825-4.211-8.5-4.211z"/></defs><g><g transform="translate(-555 -2051)"><use fill="#3e3d53" xlink:href="#n56ia"/></g></g></svg>