<svg width="18" height="25" viewBox="0 0 18 25" fill="none" xmlns="http://www.w3.org/2000/svg">
<path fill-rule="evenodd" clip-rule="evenodd" d="M0 9.05402C0 4.06165 4.03735 0 9 0C13.9626 0 17.9999 4.06165 18 9.05402C18 15.2498 9.94586 24.3454 9.60297 24.7296C9.28143 25.0898 8.71912 25.0905 8.39703 24.7296C8.05414 24.3454 0 15.2498 0 9.05402ZM4.15387 9.02777C4.15387 11.7082 6.32782 13.8889 9.00006 13.8889C11.6722 13.8889 13.8462 11.7083 13.8462 9.02783C13.8462 6.34735 11.6722 4.16669 9.00006 4.16669C6.32788 4.16669 4.15387 6.34735 4.15387 9.02777Z" fill="#949494"/>
</svg>
