<svg width="74" height="74" viewBox="0 0 74 74" fill="none" xmlns="http://www.w3.org/2000/svg">
<path d="M37.6841 74.0001C37.2181 74.0001 36.7935 73.6846 36.6744 73.2122C35.9326 70.2656 32.4856 67.4624 27.2179 65.5201C26.6776 65.3208 26.4015 64.7219 26.6004 64.1817C26.7998 63.6405 27.3999 63.364 27.9389 63.5642C33.9496 65.7805 37.7698 69.0264 38.6956 72.7033C38.836 73.2614 38.4976 73.828 37.9395 73.9688C37.8542 73.99 37.7685 74.0001 37.6841 74.0001Z" fill="#F9C23B"/>
<path d="M33.6866 68.7388C33.4851 68.7388 33.282 68.6803 33.103 68.559C32.6263 68.2367 32.5016 67.5887 32.8244 67.112C36.6009 61.5369 47.4412 57.7905 59.7993 57.7905C64.2214 57.7905 68.6383 58.2859 72.5731 59.2231C73.1329 59.3563 73.4789 59.9178 73.3458 60.4784C73.2126 61.0382 72.6515 61.386 72.0904 61.2502C68.3113 60.3503 64.0611 59.8754 59.7993 59.8754C48.2852 59.8754 37.9025 63.3317 34.5504 68.2808C34.349 68.5785 34.0207 68.7388 33.6866 68.7388Z" fill="#F9C23B"/>
<path d="M52.9888 55.3369C52.823 55.3369 52.6546 55.2971 52.4981 55.2131C48.4972 53.0732 43.2927 51.4684 37.4483 50.5719C36.8792 50.4854 36.4886 49.9527 36.5759 49.3844C36.6629 48.8145 37.1892 48.4311 37.7643 48.5117C43.8394 49.4438 49.2742 51.1257 53.4812 53.3759C53.9888 53.6474 54.1801 54.2784 53.9087 54.7865C53.7208 55.1368 53.3608 55.3369 52.9888 55.3369Z" fill="#F9C23B"/>
<path d="M39.7138 45.4242C39.4687 45.4242 39.2223 45.3377 39.0242 45.163L20.6698 28.9399L1.67929 43.5981C1.22254 43.9493 0.569441 43.8653 0.217438 43.4098C-0.134566 42.9544 -0.0501687 42.2996 0.405309 41.9476L20.0778 26.7635C20.4739 26.459 21.0307 26.4785 21.4048 26.8076L40.4042 43.6007C40.8355 43.9823 40.8762 44.6405 40.495 45.0722C40.2893 45.3046 40.0022 45.4242 39.7138 45.4242Z" fill="#F9C23B"/>
<path d="M72.9569 42.6082C72.8046 42.6082 72.6499 42.5743 72.5031 42.5039L52.3688 32.7456L33.8673 39.8559C33.3295 40.0637 32.7269 39.794 32.5203 39.2571C32.3138 38.7193 32.5822 38.1171 33.1191 37.9102L52.0427 30.6379C52.3124 30.5336 52.6122 30.5463 52.8713 30.6727L73.4124 40.6277C73.9302 40.8788 74.1465 41.5022 73.8954 42.0204C73.7156 42.3919 73.3437 42.6082 72.9569 42.6082Z" fill="#F9C23B"/>
<path d="M62.6883 37.631C62.3482 37.631 62.0144 37.4648 61.8147 37.1578L39.5069 2.96353L22.7581 29.1798C22.4481 29.6633 21.8035 29.8058 21.3188 29.4962C20.8336 29.1866 20.6915 28.542 21.0015 28.0568L38.6193 0.480919C38.8097 0.183209 39.1388 0.0016946 39.4925 0C39.4942 0 39.4959 0 39.4976 0C39.8496 0 40.1778 0.178118 40.3704 0.473282L63.5603 36.0195C63.875 36.5013 63.7388 37.1467 63.257 37.4614C63.081 37.5759 62.8838 37.631 62.6883 37.631Z" fill="#F9C23B"/>
<path d="M42.5388 15.7855C42.2317 15.7855 41.9289 15.6498 41.7241 15.3945L39.4488 12.5505L38.2075 13.922C37.9971 14.1561 37.6905 14.2825 37.3784 14.2638C37.0646 14.2469 36.7753 14.0891 36.5909 13.8347L33.5518 9.63958C33.2142 9.17309 33.3181 8.52169 33.7842 8.18411C34.2511 7.84738 34.9017 7.95087 35.2397 8.41651L37.5247 11.5709L38.7249 10.2443C38.9297 10.0179 39.2338 9.86944 39.529 9.90167C39.8348 9.911 40.1206 10.0535 40.3114 10.2918L42.7606 13.3537L46.1054 11.1714C46.588 10.8567 47.2331 10.9916 47.5478 11.475C47.8624 11.9568 47.7263 12.6023 47.2445 12.9169L43.1075 15.6158C42.9323 15.7303 42.7347 15.7855 42.5388 15.7855Z" fill="#F9C23B"/>
<path d="M52.5256 38.1503C52.3136 38.1503 52.102 38.085 51.9217 37.957L46.8648 34.3615C46.3958 34.0282 46.2859 33.3777 46.6193 32.9086C46.953 32.4396 47.604 32.3293 48.0726 32.6635L52.5871 35.873L57.1707 33.2598C57.6691 32.9731 58.3065 33.1486 58.5923 33.6482C58.8773 34.1486 58.703 34.7848 58.203 35.0698L53.0418 38.0129C52.8815 38.1045 52.7033 38.1503 52.5256 38.1503Z" fill="#F9C23B"/>
<path d="M16.9149 36.956C16.7601 36.956 16.6036 36.9212 16.4581 36.85L12.179 34.76C11.6616 34.5073 11.447 33.8839 11.6998 33.3665C11.9521 32.8491 12.5768 32.6345 13.0934 32.8873L16.7045 34.6506L19.001 32.3538C19.3793 31.9763 19.9828 31.945 20.398 32.2842L21.9353 33.5421L24.0443 30.66C24.3836 30.1952 25.0354 30.0934 25.5007 30.4335C25.965 30.7736 26.0664 31.4259 25.7263 31.8898L22.968 35.66C22.7992 35.8915 22.5426 36.0425 22.2589 36.079C21.973 36.1095 21.6881 36.0332 21.4671 35.8517L19.808 34.4946L17.6524 36.6506C17.4522 36.8508 17.1855 36.956 16.9149 36.956Z" fill="#F9C23B"/>
<path fill-rule="evenodd" clip-rule="evenodd" d="M9.03144 69.1802C9.19258 69.5698 9.57246 69.8247 9.99409 69.8247H25.1945C25.6159 69.8247 25.996 69.5698 26.1572 69.1802C26.3188 68.7915 26.2292 68.3433 25.9316 68.0454L22.01 64.1235H24.217C24.6384 64.1235 25.0185 63.8696 25.1796 63.48C25.3413 63.0903 25.2517 62.6431 24.9541 62.3442L21.7189 59.1099H23.2741C23.6957 59.1099 24.0756 58.856 24.2368 58.4663C24.3264 58.2505 24.3388 58.0171 24.2814 57.8003C24.2353 57.6265 24.144 57.4634 24.0112 57.3306L18.3312 51.6509C17.9404 51.2603 17.2482 51.2603 16.8571 51.6509L11.1772 57.3306C11.0436 57.4644 10.9521 57.6284 10.9062 57.8032C10.8498 58.019 10.8625 58.2515 10.9516 58.4663C11.1127 58.856 11.4929 59.1099 11.9143 59.1099H13.4694L10.2346 62.3442C9.93672 62.6431 9.84736 63.0903 10.009 63.48C10.1701 63.8696 10.55 64.1235 10.9716 64.1235H13.1787L9.25703 68.0454C8.95918 68.3433 8.86982 68.7915 9.03144 69.1802ZM18.7568 63.8188L22.6782 67.7397H12.5102L16.4318 63.8188C16.7294 63.52 16.819 63.0718 16.6574 62.6831C16.5722 62.4771 16.4255 62.3081 16.2438 62.1958C16.0825 62.0952 15.8933 62.0396 15.6948 62.0396H13.4877L16.7228 58.8052C17.0205 58.5063 17.1098 58.0581 16.9484 57.6694C16.7873 57.2798 16.4072 57.0259 15.9855 57.0259H14.4301L17.5942 53.8618L20.7585 57.0259H19.2028C18.7812 57.0259 18.4013 57.2798 18.2402 57.6694C18.0786 58.0581 18.1682 58.5063 18.4658 58.8052L21.7009 62.0396H19.4938C19.0722 62.0396 18.6923 62.2935 18.531 62.6831C18.3696 63.0718 18.4589 63.52 18.7568 63.8188Z" fill="#F9C23B"/>
<path d="M17.5942 73.9221C17.0187 73.9221 16.5522 73.4556 16.5522 72.8797V68.7822C16.5522 68.2062 17.0187 67.7397 17.5942 67.7397C18.1697 67.7397 18.6362 68.2062 18.6362 68.7822V72.8797C18.6362 73.4556 18.1697 73.9221 17.5942 73.9221Z" fill="#F9C23B"/>
<path fill-rule="evenodd" clip-rule="evenodd" d="M55.5661 57.2854H70.7661C71.1874 57.2854 71.5676 57.0305 71.7287 56.6418C71.8293 56.3987 71.8325 56.1331 71.7487 55.8958C71.6979 55.7522 71.6154 55.6184 71.5031 55.5061L67.5815 51.5842H69.7885C70.2102 51.5842 70.59 51.3303 70.7512 50.9407C70.9128 50.552 70.8232 50.1038 70.5256 49.8049L67.2905 46.5715H68.8457C69.2673 46.5715 69.6472 46.3167 69.8083 45.927C69.9699 45.5383 69.8806 45.0901 69.5827 44.7913L63.9028 39.1125C63.4958 38.7053 62.8359 38.7053 62.4287 39.1125L56.7492 44.7913C56.4516 45.0901 56.362 45.5383 56.5236 45.927C56.6848 46.3167 57.0649 46.5715 57.4863 46.5715H59.0415L55.8066 49.8049C55.5087 50.1038 55.4194 50.552 55.581 50.9407C55.676 51.1702 55.8469 51.3528 56.0576 51.4641C56.2045 51.5413 56.3706 51.5842 56.5436 51.5842H58.7507L54.8291 55.5061C54.5312 55.804 54.4418 56.2522 54.6035 56.6418C54.7646 57.0305 55.1445 57.2854 55.5661 57.2854ZM68.2502 55.2004H58.0817L62.0034 51.2795C62.1716 51.1106 62.2731 50.8938 62.3007 50.6672C62.322 50.4934 62.2993 50.3137 62.229 50.1438C62.0678 49.7542 61.6877 49.5002 61.2663 49.5002H59.0598L62.2946 46.2659C62.5925 45.967 62.6818 45.5198 62.5202 45.1301C62.3591 44.7405 61.9792 44.4866 61.5576 44.4866H60.0024L63.1657 41.3235L66.3295 44.4866H64.7744C64.3527 44.4866 63.9728 44.7405 63.8117 45.1301C63.6501 45.5198 63.7397 45.967 64.0373 46.2659L67.2722 49.5002H65.0656C64.6442 49.5002 64.2641 49.7542 64.103 50.1438C64.0197 50.345 64.0031 50.5608 64.0476 50.7639C64.0891 50.9553 64.1845 51.135 64.3286 51.2795L68.2502 55.2004Z" fill="#F9C23B"/>
<path d="M63.1658 61.3826C62.5903 61.3826 62.1238 60.9161 62.1238 60.3401V56.2426C62.1238 55.6667 62.5903 55.2002 63.1658 55.2002C63.7413 55.2002 64.2078 55.6667 64.2078 56.2426V60.3401C64.2078 60.9161 63.7413 61.3826 63.1658 61.3826Z" fill="#F9C23B"/>
<path fill-rule="evenodd" clip-rule="evenodd" d="M22.7631 51.2761C22.9243 51.6658 23.3041 51.9207 23.7258 51.9207H34.2434C34.6647 51.9207 35.0449 51.6658 35.206 51.2761C35.3005 51.0486 35.309 50.8015 35.2404 50.575C35.1916 50.4148 35.104 50.2644 34.9804 50.1404L32.8154 47.9763H33.5668C33.9885 47.9763 34.3684 47.7214 34.5295 47.3328C34.6911 46.9431 34.602 46.4949 34.3039 46.197L32.613 44.5066H32.9145C33.1386 44.5066 33.351 44.4343 33.5249 44.3083C33.6782 44.197 33.8017 44.0447 33.8771 43.863C34.0388 43.4734 33.9494 43.0251 33.6516 42.7273L29.7216 38.7976C29.3144 38.3904 28.6545 38.3904 28.2475 38.7976L24.3173 42.7273C24.0197 43.0251 23.9301 43.4734 24.0917 43.863C24.2529 44.2517 24.6328 44.5066 25.0544 44.5066H25.3559L23.665 46.197C23.3669 46.4949 23.2778 46.9431 23.4394 47.3328C23.6005 47.7214 23.9807 47.9763 24.402 47.9763H25.1538L22.9887 50.1404C22.6909 50.4392 22.6015 50.8875 22.7631 51.2761ZM29.5622 47.6707L31.7272 49.8357H26.2419L28.4069 47.6707C28.7045 47.3728 28.7941 46.9246 28.6325 46.5349C28.4714 46.1462 28.0913 45.8914 27.6699 45.8914H26.9179L28.6088 44.2009C28.7646 44.0447 28.8635 43.8474 28.8991 43.6394C28.9316 43.45 28.9116 43.2507 28.8344 43.0652C28.6733 42.6765 28.2932 42.4216 27.8718 42.4216H27.5705L28.9846 41.0085L30.3984 42.4216H30.0974C29.6757 42.4216 29.2958 42.6765 29.1347 43.0652C28.9731 43.4548 29.0624 43.9021 29.3603 44.2009L31.0512 45.8914H30.2993C29.8776 45.8914 29.4978 46.1462 29.3366 46.5349C29.175 46.9246 29.2644 47.3728 29.5622 47.6707Z" fill="#F9C23B"/>
<path d="M28.9846 54.7557C28.4091 54.7557 27.9426 54.2892 27.9426 53.7133V50.8779C27.9426 50.3019 28.4091 49.8354 28.9846 49.8354C29.5601 49.8354 30.0266 50.3019 30.0266 50.8779V53.7133C30.0266 54.2892 29.5601 54.7557 28.9846 54.7557Z" fill="#F9C23B"/>
<path d="M1.04366 63.604C0.544927 63.604 0.104294 63.2452 0.0177805 62.7371C-0.0793371 62.1697 0.302348 61.6311 0.869787 61.5344C3.0615 61.1604 5.35246 60.9152 7.67778 60.8058C8.25497 60.7736 8.74098 61.2223 8.76813 61.7973C8.79527 62.3724 8.35082 62.8601 7.77617 62.8873C5.53483 62.9933 3.32912 63.2291 1.2201 63.5887C1.16072 63.5989 1.10177 63.604 1.04366 63.604Z" fill="#F9C23B"/>
<path d="M1.04355 54.9498C0.661439 54.9498 0.293748 54.7394 0.110961 54.3747C-0.146892 53.8599 0.0609146 53.2339 0.57577 52.9761C5.90324 50.3052 13.0853 48.5045 20.7987 47.9074C21.3708 47.8531 21.8738 48.2924 21.9183 48.8658C21.9629 49.44 21.5337 49.9413 20.9599 49.9854C13.5094 50.5622 6.60173 52.2865 1.50963 54.8387C1.35992 54.9141 1.20046 54.9498 1.04355 54.9498Z" fill="#F9C23B"/>
<path d="M46.7821 69.9839C46.5201 69.9839 46.258 69.8855 46.0557 69.6887C45.643 69.2876 45.6337 68.6277 46.0349 68.2146C49.3276 64.8295 53.9646 63.3656 59.4524 63.9848C60.0245 64.0492 60.4359 64.5649 60.3714 65.1366C60.307 65.7091 59.7849 66.1196 59.2192 66.056C54.3293 65.5081 50.3963 66.721 47.529 69.6684C47.325 69.8779 47.0536 69.9839 46.7821 69.9839Z" fill="#F9C23B"/>
<path d="M44.9517 61.898C44.6803 61.898 44.4089 61.792 44.2045 61.5825C42.8516 60.1915 40.9779 59.6181 38.6386 59.8827C38.0619 59.9464 37.5504 59.5358 37.4864 58.9633C37.4219 58.3916 37.8337 57.876 38.4054 57.8115C41.3787 57.4799 43.8991 58.2788 45.699 60.1287C46.1002 60.5418 46.0908 61.2017 45.6782 61.6028C45.4759 61.7996 45.2138 61.898 44.9517 61.898Z" fill="#F9C23B"/>
</svg>
