<svg width="118" height="95" viewBox="0 0 118 95" fill="none" xmlns="http://www.w3.org/2000/svg">
<path fill-rule="evenodd" clip-rule="evenodd" d="M67.4653 59.2173C68.6396 58.979 69.8374 58.8579 71.0354 58.8579C80.979 58.8579 89.0664 66.938 89.0664 76.8677C89.0664 86.7964 80.9766 94.8755 71.0342 94.8755H18.1226C8.17896 94.8755 0.0891113 86.7964 0.0891113 76.8677C0.0891113 66.938 8.17896 58.8579 18.1226 58.8579C19.9438 58.8579 21.7351 59.1313 23.4712 59.6763C25.8096 49.4341 34.8594 42.1489 45.5278 42.1489C55.937 42.1489 64.9619 49.2515 67.4653 59.2173ZM18.1226 91.1265H71.0354C78.9075 91.1265 85.3137 84.729 85.3137 76.8667C85.3137 69.0044 78.9087 62.6069 71.0366 62.6069C69.5332 62.6069 68.0449 62.8442 66.6118 63.3159L64.5088 64.0034L64.1697 61.8237C62.7214 52.5972 54.8818 45.8979 45.5291 45.8979C35.9946 45.8979 27.9387 53.0239 26.7908 62.4741L26.479 65.0396L24.1333 63.9478C22.2207 63.0601 20.1992 62.6108 18.1226 62.6108C10.2493 62.6108 3.84424 69.0063 3.84424 76.8677C3.84424 84.73 10.2493 91.1265 18.1226 91.1265Z" fill="#F9C23B"/>
<path d="M67.4692 85.8563V88.3563C75.0159 88.3563 81.1581 82.2238 81.1581 74.6851H78.6546C78.6534 80.8451 73.6365 85.8563 67.4692 85.8563Z" fill="#F9C23B"/>
<path fill-rule="evenodd" clip-rule="evenodd" d="M65.0195 35.9102C65.0195 26.5166 72.6714 18.875 82.0767 18.875C91.481 18.875 99.134 26.5166 99.134 35.9102C99.134 45.3037 91.4822 52.9453 82.0767 52.9453C72.6714 52.9453 65.0195 45.3037 65.0195 35.9102ZM68.7747 35.9092C68.7747 43.2334 74.7429 49.1934 82.0767 49.1934C89.4104 49.1934 95.3787 43.2354 95.3787 35.9102C95.3787 28.585 89.4119 22.625 82.0767 22.625C74.7417 22.625 68.7747 28.584 68.7747 35.9092Z" fill="#F9C23B"/>
<path d="M83.9544 0.125L79.8713 17.4788H83.9544V0.125Z" fill="#F9C23B"/>
<path d="M70.3507 21.551L58.0613 9.27979L67.4642 24.4348L70.3507 21.551Z" fill="#F9C23B"/>
<path d="M93.8018 50.27L106.091 62.5388L96.6882 47.3838L93.8018 50.27Z" fill="#F9C23B"/>
<path d="M63.6203 34.0352H46.2439L63.6203 38.1114V34.0352Z" fill="#F9C23B"/>
<path d="M100.532 37.7863H117.911L100.532 33.7075V37.7863Z" fill="#F9C23B"/>
<path d="M108.746 11.9302L93.5664 21.3214L96.4541 24.2039L108.746 11.9302Z" fill="#F9C23B"/>
</svg>
