<svg width="18" height="18" viewBox="0 0 18 18" fill="none" xmlns="http://www.w3.org/2000/svg">
<path d="M17.2884 15.8509L11.8805 10.4065C11.4875 10.0108 10.8504 10.0108 10.4574 10.4065C10.0644 10.8021 10.0644 11.4436 10.4574 11.8392L15.8653 17.2836C16.2582 17.6792 16.8954 17.6792 17.2884 17.2836C17.6814 16.888 17.6814 16.2465 17.2884 15.8509Z" fill="#67A1D6"/>
<path fill-rule="evenodd" clip-rule="evenodd" d="M6.84285 13.7781C3.06365 13.7781 0 10.6938 0 6.88906C0 3.08434 3.06365 0 6.84285 0C10.622 0 13.6857 3.08434 13.6857 6.88906C13.6857 10.6938 10.622 13.7781 6.84285 13.7781ZM6.84285 11.7446C9.50648 11.7446 11.6658 9.57068 11.6658 6.88906C11.6658 4.20745 9.50648 2.03356 6.84285 2.03356C4.17922 2.03356 2.01992 4.20745 2.01992 6.88906C2.01992 9.57068 4.17922 11.7446 6.84285 11.7446Z" fill="#67A1D6"/>
</svg>
