<svg xmlns="http://www.w3.org/2000/svg" xmlns:xlink="http://www.w3.org/1999/xlink" width="65" height="35" viewBox="0 0 65 35"><defs><path id="palga" d="M367.76 666.139c.07 0 .14.073.14.147v4.309c0 .074-.07.147-.14.147h-6.158c-.07 0-.142-.073-.142-.147v-4.309c0-.074.071-.147.142-.147zm1.723 4.464v-4.315c0-.995-.778-1.806-1.732-1.806h-6.15c-.955 0-1.733.81-1.733 1.806v4.351c0 .996.778 1.807 1.732 1.807h6.151c.954 0 1.732-.81 1.732-1.843zm-21.328-4.427c.07 0 .141.073.141.147v4.309c0 .073-.07.147-.141.147h-6.122c-.07 0-.142-.074-.142-.147v-4.31c0-.073.071-.146.142-.146zm1.734 4.456v-4.31c0-.993-.779-1.804-1.734-1.804h-6.158c-.955 0-1.734.81-1.734 1.805v4.309c0 .994.779 1.804 1.734 1.804h6.158c.955 0 1.77-.81 1.734-1.804zm45.153 5.337a7.142 7.142 0 0 1-.672 1.513h-13.128v-9.539c0-1.4-1.239-2.578-2.796-2.578h-2.548c-1.521 0-2.795 1.142-2.795 2.578v9.539h-16.88v-17.825h24.665c.07 0 .141.037.212.037l.106.037c.106 0 .177.037.283.037a6.591 6.591 0 0 0-.141 1.436v.847c0 4.603 3.822 8.36 8.528 8.36 1.097 0 2.831-.553 3.893-.958.476.777.867 1.538 1.143 2.265a2.148 2.148 0 1 0 .13 4.252zm1.788-2.116c0 1.06-.768 1.944-1.788 2.116a7.36 7.36 0 0 0 .32-1.765c.058-.751-.11-1.592-.45-2.486a2.147 2.147 0 0 1 1.918 2.135zm-4.098-5.772c-.954.332-2.156.663-2.828.663-3.817 0-6.928-3.017-6.928-6.695v-.846c0-.331.035-.662.07-.957 1.45.184 7.389 4.12 9.686 7.835zm-18.037-.1c0-.516.566-.922 1.203-.922h2.548c.637 0 1.203.406 1.203.921v9.354h-4.954zm-39.067-7.182c0-.626.46-1.142.955-1.142h18.048v17.825h-19.003zm57.327 18.377c-2.407 2.062-6.582 3.13-12.456 3.13h-24.276v-3.13zm-38.324 0v3.157h-2.23l-15.818-.11c-.53 0-.955-.514-.955-1.138v-1.91zm42.358-4.825c.177-2.799-1.77-6.555-5.273-10.127-3.326-3.388-7.254-5.745-10.262-6.15-.212-.037-.39-.074-.566-.074h-44.34c-1.416 0-2.548 1.252-2.548 2.799v20.292c0 1.546 1.132 2.799 2.548 2.799l15.818.11h28.133c13.022 0 16.136-5.266 16.49-9.649z"/><path id="palgb" d="M396.199 691H367.8c-.453 0-.801-.435-.801-1s.348-1 .801-1H396.2c.453 0 .801.435.801 1s-.348 1-.801 1z"/><path id="palgc" d="M360.279 691H334.72c-.407 0-.721-.435-.721-1s.314-1 .721-1h25.558c.407 0 .721.435.721 1s-.314 1-.721 1z"/><path id="palgd" d="M364.437 689.104c.499.244.707.855.457 1.344a1.002 1.002 0 0 1-1.788-.896.994.994 0 0 1 1.33-.448z"/></defs><g><g transform="translate(-333 -657)"><g><use fill="#f9c23b" xlink:href="#palga"/><use fill="#fff" fill-opacity="0" stroke="#f9c23b" stroke-miterlimit="50" stroke-width=".5" xlink:href="#palga"/></g><g><use fill="#f9c23b" xlink:href="#palgb"/><use fill="#fff" fill-opacity="0" stroke="#f9c23b" stroke-miterlimit="50" stroke-width=".5" xlink:href="#palgb"/></g><g><use fill="#f9c23b" xlink:href="#palgc"/><use fill="#fff" fill-opacity="0" stroke="#f9c23b" stroke-miterlimit="50" stroke-width=".5" xlink:href="#palgc"/></g><g><use fill="#f9c23b" xlink:href="#palgd"/></g></g></g></svg>