<?xml version="1.0" encoding="UTF-8"?>
<svg width="14px" height="18px" viewBox="0 0 14 18" version="1.1" xmlns="http://www.w3.org/2000/svg" xmlns:xlink="http://www.w3.org/1999/xlink">
    <!-- Generator: Sketch 50.2 (55047) - http://www.bohemiancoding.com/sketch -->
    <title>Shape</title>
    <desc>Created with Sketch.</desc>
    <defs></defs>
    <g id="Page-1" stroke="none" stroke-width="1" fill="none" fill-rule="evenodd" opacity="0.900000036">
        <g id="контакты" transform="translate(-449.000000, -308.000000)" fill="#6D9FFF" fill-rule="nonzero">
            <g id="placeholder-(6)-copy" transform="translate(449.000000, 308.000000)">
                <path d="M6.75042129,0.00458131564 C3.26414745,0.130062086 0.367913772,2.92016392 0.0333178315,6.48160342 C-0.035040479,7.19389132 0.00453538499,7.88403556 0.126860783,8.54465491 C0.126860783,8.54465491 0.1376542,8.62215774 0.173632258,8.76978217 C0.281566433,9.26432403 0.443467694,9.74410345 0.64494482,10.194358 C1.34651695,11.8994202 2.96912738,14.7522624 6.61010686,17.8560662 C6.83317082,18.0479779 7.16057115,18.0479779 7.38723291,17.8560662 C11.0282124,14.755953 12.6508228,11.9031108 13.3559928,10.1906674 C13.5610677,9.74041284 13.7193711,9.26432403 13.8273053,8.76609156 C13.8596856,8.62215774 13.8740768,8.5409643 13.8740768,8.5409643 C13.9568263,8.09809099 14,7.64414585 14,7.17912888 C14,3.12683813 10.7295945,-0.139352509 6.75042129,0.00458131564 Z M6.99866989,10.7516402 C5.12061525,10.7516402 3.59874339,9.19051181 3.59874339,7.26401293 C3.59874339,5.33751405 5.12061525,3.77638564 6.99866989,3.77638564 C8.87672452,3.77638564 10.3985964,5.33751405 10.3985964,7.26401293 C10.3985964,9.19051181 8.87672452,10.7516402 6.99866989,10.7516402 Z" id="Shape"></path>
            </g>
        </g>
    </g>
</svg>