<?xml version="1.0" encoding="UTF-8"?>
<svg width="5px" height="7px" viewBox="0 0 5 7" version="1.1" xmlns="http://www.w3.org/2000/svg" xmlns:xlink="http://www.w3.org/1999/xlink">
    <!-- Generator: Sketch 50.2 (55047) - http://www.bohemiancoding.com/sketch -->
    <title>Shape Copy</title>
    <desc>Created with Sketch.</desc>
    <defs></defs>
    <g id="Page-1" stroke="none" stroke-width="1" fill="none" fill-rule="evenodd">
        <g id="вид-туризма" transform="translate(-663.000000, -168.000000)" fill="#FFFFFF" fill-rule="nonzero">
            <path d="M668.833725,169.570268 L668.496817,169.188342 C668.380066,169.062792 668.243706,169 668.088054,169 C667.929191,169 667.794453,169.062792 667.683619,169.188342 L665.500016,171.662982 L663.316428,169.188413 C663.20561,169.062864 663.07084,169.000071 662.91204,169.000071 C662.756309,169.000071 662.619982,169.062864 662.503215,169.188413 L662.170728,169.57034 C662.056888,169.69926 662,169.853753 662,170.033677 C662,170.216954 662.056951,170.3697 662.170713,170.491879 L665.095612,173.80654 C665.203488,173.935478 665.33821,174 665.5,174 C665.658753,174 665.795064,173.935495 665.908794,173.80654 L668.83371,170.491879 C668.944544,170.366258 669,170.21353 669,170.033677 C669.000016,169.857106 668.944559,169.702701 668.833725,169.570268 Z" id="Shape-Copy" transform="translate(665.500000, 171.500000) rotate(-90.000000) translate(-665.500000, -171.500000) "></path>
        </g>
    </g>
</svg>