<svg width="40" height="29" viewBox="0 0 40 29" fill="none" xmlns="http://www.w3.org/2000/svg">
<path d="M26.1541 0C25.6018 0 25.1284 0.475939 25.1284 1.0312V3.84718C25.1284 4.40244 25.6018 4.87838 26.1541 4.87838C26.7063 4.87838 27.1797 4.40244 27.1797 3.84718V1.0312C27.1797 0.475939 26.7063 0 26.1541 0Z" fill="#67A1D6"/>
<path d="M35.8682 4.13755C35.4874 3.75623 34.8781 3.75623 34.4973 4.13755L32.5932 6.04416C32.2124 6.42549 32.2124 7.0356 32.5932 7.41692C32.974 7.79824 33.5833 7.79824 33.9641 7.41692L35.8682 5.51031C36.249 5.12899 36.249 4.51888 35.8682 4.13755Z" fill="#67A1D6"/>
<path d="M19.7144 6.04416L17.8103 4.13755C17.4295 3.75623 16.8202 3.75623 16.4394 4.13755C16.0586 4.51888 16.0586 5.12899 16.4394 5.51031L18.3435 7.41692C18.7243 7.79824 19.3335 7.79824 19.7144 7.41692C20.0952 7.0356 20.0952 6.42549 19.7144 6.04416Z" fill="#67A1D6"/>
<path fill-rule="evenodd" clip-rule="evenodd" d="M35.8594 22.0449L33.937 20.1216C33.5449 19.729 32.917 19.729 32.5249 20.1216C32.3677 20.2783 32.2896 20.4355 32.25 20.6318C32.2109 19.729 31.9756 18.9048 31.6616 18.1196C32.0537 17.6094 32.4072 17.0205 32.6426 16.4316C32.832 15.9893 32.9648 15.5244 33.0474 15.0488C33.1187 14.6387 33.1523 14.2202 33.1523 13.8018C33.1523 11.8784 32.3677 10.1514 31.1123 8.93457C29.8569 7.71777 28.1304 6.93262 26.2476 6.93262C24.9526 6.93262 23.7363 7.28564 22.6772 7.91406C22.2734 8.16895 21.8926 8.4585 21.541 8.78271C21.2437 9.05713 20.9673 9.35645 20.7153 9.68018C19.146 8.62061 17.2627 7.99219 15.2617 7.99219C12.8687 7.99219 10.6714 8.85596 8.98438 10.3081C7.49365 11.6035 6.39502 13.3306 5.88525 15.3721C4.35498 15.5684 2.98193 16.2749 1.96191 17.2954C0.745605 18.5122 0 20.1997 0 22.0449C0 23.8896 0.745605 25.5776 1.96191 26.7944C3.17773 28.0112 4.86475 28.7568 6.70898 28.7568H24.5601C26.6787 28.7568 28.562 27.8936 29.9746 26.5195C31.3477 25.1455 32.2109 23.2222 32.2109 21.1025V21.0635C32.25 21.2207 32.3286 21.3774 32.4854 21.4951L34.4473 23.458C34.8394 23.8506 35.4673 23.8506 35.8594 23.458C36.252 23.0654 36.252 22.4375 35.8594 22.0449ZM28.6011 25.1064C27.5811 26.127 26.1689 26.7549 24.6387 26.7549H6.74805C5.45361 26.7549 4.27637 26.2446 3.41309 25.3813C2.55029 24.5176 2.04004 23.3398 2.04004 22.0449C2.04004 20.7495 2.55029 19.5718 3.41309 18.7085C4.27637 17.8447 5.45361 17.3345 6.74805 17.3345C6.90479 17.3345 7.10107 17.2954 7.21875 17.2168C7.33398 17.1401 7.43018 17.0444 7.50342 16.9346C7.57959 16.8198 7.63037 16.6899 7.65039 16.5493C7.92529 14.7046 8.8667 13.0562 10.2007 11.9175C11.5347 10.7793 13.3003 10.0728 15.1831 10.0728C16.792 10.0728 18.2827 10.583 19.5381 11.4468C20.48 12.1138 21.3037 12.9775 21.853 14.0371C21.7744 14.0762 21.6963 14.1055 21.6177 14.1353L21.6104 14.1382C21.5342 14.167 21.4585 14.1953 21.3823 14.2334C20.4014 14.665 19.5381 15.3325 18.793 16.1177C18.4399 16.5493 18.479 17.1772 18.8711 17.5308C19.3027 17.8838 19.9307 17.8447 20.2837 17.4521C20.6289 17.082 21.0054 16.7583 21.4126 16.4814C21.6533 16.3179 21.9048 16.1704 22.167 16.0391C22.5391 15.8735 22.9331 15.7407 23.3433 15.6523C23.7114 15.5728 24.0923 15.5288 24.4819 15.5288C26.0513 15.5288 27.4243 16.1567 28.4443 17.1772C29.4644 18.1978 30.0923 19.6108 30.0923 21.1421C30.21 22.7119 29.582 24.0859 28.6011 25.1064ZM30.6953 15.8433C30.7173 15.791 30.7383 15.7383 30.7593 15.6855C30.9946 15.1362 31.1123 14.5083 31.0732 13.8408C31.0732 12.5063 30.563 11.2896 29.6606 10.3867C28.7979 9.52295 27.542 8.97363 26.208 8.97363C25.3057 8.97363 24.4429 9.20898 23.6973 9.68018C23.1479 10.0332 22.6382 10.4653 22.2456 11.0146C22.9517 11.7212 23.5405 12.585 23.9717 13.5269C24.1128 13.4985 24.2739 13.4907 24.4268 13.4888L24.5996 13.4878C26.7183 13.4878 28.6406 14.3511 30.0137 15.7251C30.1709 15.8818 30.3276 16.0391 30.4849 16.2354C30.5708 16.1206 30.6357 15.9849 30.6953 15.8433Z" fill="#67A1D6"/>
<path d="M38.9704 12.5811H36.1582C35.6037 12.5811 35.1284 13.0551 35.1284 13.6081C35.1284 14.1611 35.6037 14.6351 36.1582 14.6351H38.9704C39.5249 14.6351 40.0002 14.1611 40.0002 13.6081C39.9606 13.0551 39.5249 12.5811 38.9704 12.5811Z" fill="#67A1D6"/>
</svg>
