<svg width="64" height="63" viewBox="0 0 64 63" fill="none" xmlns="http://www.w3.org/2000/svg">
<path fill-rule="evenodd" clip-rule="evenodd" d="M61.4782 2.94253C62.8645 4.35757 63.655 6.22671 63.6469 8.07242C63.6408 9.45523 63.1845 10.7316 62.354 11.715C63.4118 13.0324 64.0061 14.6515 64 16.2541C63.9929 17.7873 63.4331 19.1896 62.4214 20.2043C62.143 20.4826 61.8342 20.7257 61.4978 20.9347C62.8174 23.4464 62.5508 26.3791 60.7505 28.1837C60.5798 28.3546 60.3994 28.5119 60.2102 28.6554C59.6347 29.0919 58.9765 29.4015 58.2578 29.5744C59.1484 31.8996 58.7509 34.4337 57.1552 36.0343C55.3196 37.8732 52.3994 38.0539 49.9599 36.6964C50.0085 38.0529 49.7749 39.8341 48.5124 41.1173C46.7671 42.8908 43.6406 43.1173 39.2173 41.7931C28.5791 38.6056 23.5134 42.6544 22.716 43.38C22.6479 43.4484 22.5976 43.4962 22.5693 43.5216L17.3322 48.7716C17.1801 48.924 16.9817 49.0002 16.7842 49.0002C16.5803 49.0002 16.3772 48.9191 16.2234 48.758C16.0676 48.5949 15.9934 48.381 16.0005 48.1701C16.0071 47.9709 16.0857 47.7736 16.2361 47.6222L16.2422 47.6164L21.4958 42.3498L21.5854 42.2609L21.7485 42.0968C22.7356 41.0226 26.436 36.1271 23.4907 25.7492C22.2314 21.3107 22.4636 18.1642 24.1799 16.3966C25.4355 15.1027 27.1887 14.8595 28.5366 14.9093C27.9258 13.8224 27.5949 12.6154 27.6003 11.4191C27.6067 9.88492 28.1675 8.48257 29.1789 7.46793C30.8044 5.84 33.3535 5.47867 35.6706 6.46402C35.9106 5.51285 36.3811 4.67203 37.061 3.99039C38.6152 2.43082 40.9636 2.01578 43.218 2.84976C43.4658 2.37027 43.7827 1.9357 44.1645 1.55191C46.3945 -0.683442 50.2226 -0.470551 52.8503 1.97476C55.1887 -0.00961346 58.9651 0.380035 61.4782 2.94253ZM61.3237 19.0529C62.0332 18.3419 62.4262 17.3439 62.4309 16.2433C62.437 14.8253 61.8144 13.3732 60.7221 12.2599C60.5661 12.0998 60.4753 11.8732 60.4846 11.6486C60.4948 11.423 60.5888 11.2052 60.7575 11.0607L60.7751 11.0461C60.8713 10.964 60.9228 10.9211 60.9707 10.8722C61.6797 10.1623 62.0725 9.16422 62.0771 8.06461C62.0835 6.64468 61.4616 5.19351 60.3701 4.08121C58.3454 2.01675 55.321 1.71793 53.6289 3.41519C53.571 3.47281 53.5215 3.53336 53.4714 3.59195M61.3237 19.0529C60.9817 19.3957 60.5669 19.6662 60.0918 19.8556L61.3237 19.0529ZM60.0918 19.8556C59.8667 19.9464 59.6958 20.1369 59.6259 20.3742L60.0918 19.8556ZM59.6259 20.3742C59.6067 20.4396 59.5959 20.507 59.5932 20.5744L59.6259 20.3742ZM59.5932 20.5744C59.5866 20.7492 59.6364 20.923 59.7373 21.0685L59.5932 20.5744ZM59.7373 21.0685C61.1277 23.0812 61.093 25.59 59.6535 27.0334L59.7373 21.0685ZM59.6535 27.0334C58.9814 27.7062 58.0813 28.0841 57.0493 28.1232L59.6535 27.0334ZM57.0493 28.1232C56.7724 28.1339 56.5232 28.2931 56.3906 28.5421L57.0493 28.1232ZM56.3906 28.5421C56.258 28.7902 56.2636 29.0919 56.404 29.3341L56.3906 28.5421ZM56.404 29.3341C57.5425 31.3048 57.403 33.5343 56.0581 34.883L56.404 29.3341ZM56.0581 34.883C54.3645 36.5802 51.3401 36.2814 49.3161 34.2169L56.0581 34.883ZM49.3161 34.2169C49.0088 33.9025 48.5141 33.9035 48.2075 34.2189L49.3161 34.2169ZM48.2075 34.2189C47.9016 34.5343 47.9023 35.0412 48.209 35.3556L48.2075 34.2189ZM48.209 35.3556L48.2185 35.3654L48.209 35.3556ZM48.2185 35.3654C48.3706 36.0753 48.7829 38.5822 47.4028 39.9787L48.2185 35.3654ZM47.4028 39.9787C46.1098 41.2873 43.4304 41.3791 39.6565 40.2492L47.4028 39.9787ZM39.6565 40.2492C36.553 39.3195 33.8835 38.9669 31.6198 38.9669L39.6565 40.2492ZM31.6198 38.9669C29.5442 38.9669 27.8113 39.2628 26.3984 39.6808L31.6198 38.9669ZM26.3984 39.6808L35.1491 30.9093L26.3984 39.6808ZM35.1491 30.9093L43.0439 32.4972L35.1491 30.9093ZM43.0439 32.4972C43.0949 32.507 43.145 32.5119 43.1953 32.5119L43.0439 32.4972ZM43.1953 32.5119C43.5622 32.5119 43.8908 32.2472 43.9636 31.8634L43.1953 32.5119ZM43.9636 31.8634C44.0078 31.633 43.9507 31.4054 43.8239 31.2296L43.9636 31.8634ZM43.8239 31.2296C43.7116 31.0744 43.5447 30.9601 43.3449 30.9201L43.8239 31.2296ZM43.3449 30.9201L36.509 29.5461L43.3449 30.9201ZM36.509 29.5461L41.3227 24.7209L36.509 29.5461ZM41.3227 24.7209L49.3679 26.3371L41.3227 24.7209ZM49.3679 26.3371L49.4489 26.3488L49.3679 26.3371ZM49.4489 26.3488L49.5193 26.3517L49.4489 26.3488ZM49.5193 26.3517C49.8862 26.3517 50.2148 26.0861 50.2878 25.7033L49.5193 26.3517ZM50.2878 25.7033C50.3708 25.2677 50.094 24.8459 49.6692 24.7599L50.2878 25.7033ZM49.6692 24.7599L42.6831 23.3566L49.6692 24.7599ZM42.6831 23.3566L47.7495 18.2785L42.6831 23.3566ZM47.7495 18.2785L55.9516 19.9269L47.7495 18.2785ZM55.9516 19.9269C56.0024 19.9367 56.0527 19.9416 56.1028 19.9416L55.9516 19.9269ZM56.1028 19.9416C56.4699 19.9416 56.7983 19.6759 56.8713 19.2931L56.1028 19.9416ZM56.8713 19.2931C56.9543 18.8576 56.6777 18.4357 56.2527 18.3498L56.8713 19.2931ZM56.2527 18.3498L49.1098 16.9142L56.2527 18.3498ZM49.1098 16.9142L54.4531 11.5587L49.1098 16.9142ZM54.4531 11.5587C54.7627 11.2482 54.7683 10.7394 54.4655 10.423L54.4531 11.5587ZM54.4655 10.423C54.3362 10.2873 54.1709 10.2091 54.0002 10.1877L54.4655 10.423ZM54.0002 10.1877C53.7717 10.1593 53.5332 10.2336 53.3569 10.4103L54.0002 10.1877ZM53.3569 10.4103L48.2575 15.5216L53.3569 10.4103ZM48.2575 15.5216L47.2029 8.85464L48.2575 15.5216ZM47.2029 8.85464C47.134 8.41714 46.7317 8.12222 46.3034 8.19058L47.2029 8.85464ZM46.3034 8.19058C45.8762 8.26187 45.5852 8.67496 45.655 9.11148L46.3034 8.19058ZM45.655 9.11148L46.8862 16.8957L45.655 9.11148ZM46.8862 16.8957L41.6999 22.0939L46.8862 16.8957ZM41.6999 22.0939L40.6194 15.2638L41.6999 22.0939ZM40.6194 15.2638C40.5503 14.8253 40.1465 14.5314 39.7199 14.5998L40.6194 15.2638ZM39.7199 14.5998C39.2927 14.6711 39.0017 15.0841 39.0715 15.5207L39.7199 14.5998ZM39.0715 15.5207L40.3283 23.4679L39.0715 15.5207ZM40.3283 23.4679L35.3994 28.4084L40.3283 23.4679ZM35.3994 28.4084L34.2944 21.422L35.3994 28.4084ZM34.2944 21.422C34.2256 20.9845 33.8232 20.6886 33.3952 20.758L34.2944 21.422ZM33.3952 20.758C33.2456 20.7834 33.1128 20.8498 33.0063 20.9445L33.3952 20.758ZM33.0063 20.9445C32.8083 21.1212 32.7014 21.3957 32.7466 21.6798L33.0063 20.9445ZM32.7466 21.6798L34.0288 29.7824L32.7466 21.6798ZM34.0288 29.7824L25.4448 38.3888L34.0288 29.7824ZM25.4448 38.3888C26.3176 35.4474 26.6587 31.1584 24.9956 25.299L25.4448 38.3888ZM24.9956 25.299C23.9236 21.5226 24.0246 18.8371 25.2871 17.5324L24.9956 25.299ZM25.2871 17.5324C26.9096 15.8556 30.0759 16.7423 30.1081 16.7502L25.2871 17.5324ZM30.1081 16.7502C30.4531 16.8498 30.8186 16.6994 30.998 16.383L30.1081 16.7502ZM30.998 16.383C31.1777 16.0666 31.1281 15.6662 30.875 15.4084L30.998 16.383ZM30.875 15.4084C29.7834 14.2961 29.1616 12.8439 29.1679 11.425L30.875 15.4084ZM29.1679 11.425C29.1726 10.3244 29.5654 9.3273 30.2751 8.61636L29.1679 11.425ZM30.2751 8.61636C31.6308 7.25894 33.9314 7.15445 35.8706 8.36539L30.2751 8.61636ZM35.8706 8.36539C36.1059 8.51382 36.3999 8.52164 36.6445 8.3898L35.8706 8.36539ZM36.6445 8.3898C36.7666 8.32437 36.8674 8.22769 36.9394 8.11246L36.6445 8.3898ZM36.9394 8.11246C37.0112 7.99722 37.0544 7.86343 37.0617 7.72281L36.9394 8.11246ZM37.0617 7.72281C37.0779 7.41519 37.1233 7.12027 37.1965 6.83902L37.0617 7.72281ZM37.1965 6.83902C37.3681 6.18179 37.6931 5.60269 38.1572 5.13785L37.1965 6.83902ZM38.1572 5.13785C39.4055 3.88589 41.4167 3.68277 43.2822 4.61929L38.1572 5.13785ZM43.2822 4.61929C43.3752 4.66714 43.4756 4.69449 43.5766 4.70132L43.2822 4.61929ZM43.5766 4.70132C43.6958 4.70914 43.8164 4.68863 43.9284 4.64078L43.5766 4.70132ZM43.9284 4.64078C44.1369 4.55191 44.2978 4.37515 44.3698 4.1564L43.9284 4.64078ZM44.3698 4.1564C44.5564 3.59488 44.8559 3.10367 45.2607 2.69839L44.3698 4.1564ZM45.2607 2.69839C46.9543 1.00211 49.978 1.29898 52.0041 3.36636L45.2607 2.69839ZM52.0041 3.36636L52.1074 3.47671L52.0041 3.36636ZM52.1074 3.47671L52.2544 3.64664L52.1074 3.47671ZM52.2544 3.64664C52.4026 3.81753 52.6347 3.89273 52.8645 3.89273L52.2544 3.64664Z" fill="#F9C23B"/>
<path fill-rule="evenodd" clip-rule="evenodd" d="M17.1578 26.9952L17.179 26.9971C17.3475 26.9971 17.5113 26.9375 17.6458 26.8243C17.8042 26.6924 17.9075 26.4981 17.9324 26.2842C18.5083 21.2979 15.3416 16.7334 10.7952 15.8018C10.8462 15.2989 11.23 14.3955 13.1026 13.5616C13.4895 13.3897 13.6724 12.9141 13.5122 12.5C13.3514 12.085 12.9075 11.8916 12.5205 12.0616C10.9219 12.7725 9.89701 13.7012 9.47514 14.8194C9.36601 15.1084 9.31205 15.378 9.28861 15.6231C4.80522 15.5303 0.88041 19.0889 0.317422 23.9522C0.269815 24.3711 0.532266 24.7422 0.908487 24.834L0.0625393 32.1612C-0.491904 36.9551 2.70219 41.3389 7.18315 41.9317C7.52445 41.9776 7.86601 42 8.20512 42C10.0183 42 11.7703 41.3584 13.2232 40.1455C14.9478 38.7071 16.0455 36.6348 16.3142 34.3116L17.1578 26.9952ZM10.0276 17.3037C13.7998 17.8028 16.5569 21.292 16.481 25.2735L1.95487 23.3516C2.78715 19.4698 6.25517 16.8067 10.0276 17.3037ZM7.3682 40.3203C9.13603 40.5518 10.8833 40.0371 12.2884 38.8653C13.6927 37.6914 14.5872 36.0039 14.8057 34.1114L14.9886 32.5313L9.43095 31.7959C9.01518 31.7412 8.72025 31.3369 8.77104 30.8907C8.82255 30.4453 9.20731 30.1231 9.61698 30.1856L15.1744 30.92L15.6509 26.7998L2.41215 25.0479L2.17314 27.1133L4.99638 27.4873C5.41215 27.541 5.70731 27.9463 5.65653 28.3926C5.62748 28.6426 5.49516 28.8516 5.31107 28.9776C5.19267 29.0586 5.05253 29.1045 4.90458 29.1045C4.87357 29.1045 4.84232 29.1026 4.81059 29.0977L1.98734 28.7246L1.56693 32.3594C1.11552 36.2657 3.71806 39.836 7.3682 40.3203Z" fill="#F9C23B"/>
<path d="M11.2979 33.4225L7.89797 33.0067C7.46519 32.9497 7.0604 33.2609 7.006 33.6949C6.95241 34.1297 7.2636 34.5248 7.70198 34.5779L11.1019 34.9937C11.1355 34.9984 11.1683 35 11.2011 35C11.5994 35 11.9434 34.7062 11.9938 34.3055C12.0482 33.8707 11.737 33.4756 11.2979 33.4225Z" fill="#F9C23B"/>
<path fill-rule="evenodd" clip-rule="evenodd" d="M50.5639 51.886C50.2707 51.8449 50.009 51.8537 49.7773 51.886C49.3186 49.9055 48.1955 48.1535 46.5498 46.886C44.6545 45.426 42.2961 44.7776 39.9099 45.0686C39.5134 45.1155 39.2356 45.4553 39.2449 45.842L32.2978 46.6799C30.0957 46.9455 28.1296 48.0422 26.7634 49.7649C25.3972 51.4885 24.7929 53.634 25.063 55.8049C25.3332 57.9758 26.4438 59.9143 28.1921 61.261C29.6677 62.3987 31.4472 63.0002 33.2915 63.0002C33.6318 63.0002 33.9743 62.9797 34.3176 62.9377L41.2646 62.0989C41.3032 62.2698 41.3908 62.427 41.5317 62.5354C41.6679 62.6408 41.8349 62.6965 42.0058 62.6965C42.0376 62.6965 42.0683 62.6946 42.0998 62.6907C46.8276 62.1194 50.2468 58.011 49.9844 53.3889C50.4599 53.3235 51.386 53.4914 52.6123 55.1203C52.7632 55.3215 52.9956 55.427 53.2312 55.427C53.3904 55.427 53.5512 55.3782 53.6892 55.2766C54.03 55.0276 54.1018 54.552 53.8484 54.216C52.8008 52.8254 51.6963 52.0412 50.5639 51.886ZM34.1306 61.4338C32.3371 61.6477 30.5642 61.1643 29.1404 60.0666C27.7163 58.968 26.811 57.3908 26.5908 55.6213C26.3708 53.8528 26.8633 52.1047 27.9763 50.7014C29.0896 49.2971 30.6907 48.4055 32.4848 48.1877L35.9302 47.7717L36.2812 50.5979C36.3288 50.9826 36.6614 51.2639 37.0439 51.2639C37.0757 51.2639 37.1072 51.2629 37.1387 51.258C37.2732 51.2424 37.3955 51.1926 37.4978 51.1194C37.6626 51.0002 37.7759 50.8205 37.8064 50.6164C37.8164 50.55 37.8176 50.4817 37.8091 50.4123L37.4582 47.5871L39.4165 47.3508L41.062 60.5959L37.1557 61.0686L36.4651 55.508C36.4365 55.2766 36.3059 55.0803 36.1228 54.9612C36.0693 54.927 36.0115 54.8987 35.9504 54.8782C35.844 54.843 35.7275 54.8303 35.6076 54.8469C35.1858 54.8967 34.8857 55.2756 34.9372 55.6916L35.6277 61.2532L34.1306 61.4338ZM40.8659 46.5207L42.6719 61.0539C46.3528 60.2258 48.8828 56.759 48.414 52.9866C48.1716 51.0354 47.1733 49.2932 45.6023 48.0823C44.2351 47.0285 42.5786 46.511 40.8659 46.5207Z" fill="#F9C23B"/>
<path d="M33.6969 54.007C33.2622 54.0598 32.9528 54.4588 33.0059 54.8979L33.4193 58.2978C33.4685 58.7033 33.8104 59 34.2055 59C34.238 59 34.2705 58.9984 34.3031 58.9936C34.7378 58.9408 35.0472 58.5417 34.9941 58.1026L34.5807 54.7028C34.5276 54.2637 34.1277 53.9486 33.6969 54.007Z" fill="#F9C23B"/>
</svg>
