<?xml version="1.0" encoding="UTF-8"?>
<svg width="18px" height="18px" viewBox="0 0 18 18" version="1.1" xmlns="http://www.w3.org/2000/svg" xmlns:xlink="http://www.w3.org/1999/xlink">
    <!-- Generator: Sketch 50.2 (55047) - http://www.bohemiancoding.com/sketch -->
    <title>Shape</title>
    <desc>Created with Sketch.</desc>
    <defs></defs>
    <g id="Page-1" stroke="none" stroke-width="1" fill="none" fill-rule="evenodd">
        <g id="транспорт" transform="translate(-353.000000, -2053.000000)" fill="#3E3D53" fill-rule="nonzero">
            <g id="plane-(2)" transform="translate(353.000000, 2053.000000)">
                <path d="M17.8270303,2.22810852 C18.100884,1.40616333 18.0496489,0.77262088 17.6726502,0.327211253 C17.2274579,-0.0495942255 16.5938337,-0.100788666 15.7717776,0.172728205 C14.9498114,0.446739925 14.2134471,0.909064411 13.5626395,1.55979164 L11.5078816,3.61490203 L2.96762959,1.57279269 C2.83061275,1.52992072 2.70218757,1.56415531 2.58239903,1.67545149 L0.938421772,3.31947682 C0.844363259,3.41376816 0.805723249,3.52933804 0.822906583,3.6663214 C0.848591619,3.80348472 0.921418368,3.90609853 1.04125188,3.97465769 L7.565431,7.55808859 L4.23906138,10.8847375 L1.74756788,10.2041844 C1.73047452,10.195547 1.69633276,10.1912283 1.64491771,10.1912283 C1.52499423,10.1912283 1.42661739,10.2296916 1.3495173,10.3068432 L0.116680545,11.5526045 C0.0310787515,11.6551284 -0.00738132892,11.7622408 0.00116535561,11.873447 C0.0181687596,12.0104304 0.0738121742,12.1089505 0.168095599,12.1690072 L3.40441016,14.5963345 L5.83162358,17.8328308 C5.90872367,17.9272121 6.0115088,17.9825903 6.13993398,18 L6.16561902,18 C6.2855425,18 6.38391933,17.9615367 6.46101943,17.8845651 L7.6938112,16.6517598 C7.80509803,16.5316913 7.83937473,16.3989816 7.79664131,16.2534508 L7.11592037,13.7617481 L10.442245,10.4348743 L14.025555,16.9599611 C14.0768351,17.0713023 14.1667102,17.1397714 14.2952254,17.1655036 C14.3207754,17.174096 14.3507788,17.1782797 14.3851455,17.1782797 C14.4876607,17.1782797 14.5691241,17.1525476 14.6289959,17.1012632 L16.273198,15.8683229 C16.4184917,15.7485243 16.4699067,15.6073572 16.4273083,15.4446416 L14.3725054,6.50536354 L16.4402183,4.437567 C17.0907559,3.78656986 17.5530416,3.05005371 17.8270303,2.22810852 Z" id="Shape"></path>
            </g>
        </g>
    </g>
</svg>