<svg width="15" height="15" viewBox="0 0 15 15" fill="none" xmlns="http://www.w3.org/2000/svg">
<path fill-rule="evenodd" clip-rule="evenodd" d="M11.7188 1.40625H13.7502C14.4407 1.40625 15 1.96582 15 2.65625V13.75C15 14.124 14.8357 14.46 14.5752 14.6895C14.355 14.8828 14.0664 15 13.7502 15H1.25024C0.55957 15 0 14.4404 0 13.75V2.65625C0 2.35449 0.106689 2.07812 0.284668 1.8623C0.513916 1.58398 0.861328 1.40625 1.25024 1.40625H3.28125V0.46875C3.28125 0.30957 3.36108 0.167969 3.48291 0.0830078C3.55859 0.0302734 3.65063 0 3.75 0C4.00879 0 4.21875 0.209961 4.21875 0.46875V1.40625H7.03125V0.46875C7.03125 0.209961 7.24121 0 7.5 0C7.75879 0 7.96875 0.209961 7.96875 0.46875V1.40625H10.7812V0.46875C10.7812 0.209961 10.9907 0 11.25 0C11.5093 0 11.7188 0.209961 11.7188 0.46875V1.40625ZM13.7502 14.0625C13.9224 14.0625 14.0625 13.9219 14.0625 13.75V2.65625C14.0625 2.48438 13.9224 2.34375 13.7502 2.34375H11.7188V3.28125C11.7188 3.54004 11.5093 3.75 11.25 3.75C10.9907 3.75 10.7812 3.54004 10.7812 3.28125V2.34375H7.96875V3.28125C7.96875 3.54004 7.75879 3.75 7.5 3.75C7.24121 3.75 7.03125 3.54004 7.03125 3.28125V2.34375H4.21875V3.28125C4.21875 3.54004 4.00879 3.75 3.75 3.75C3.49121 3.75 3.28125 3.54004 3.28125 3.28125V2.34375H1.25024C1.07764 2.34375 0.9375 2.48438 0.9375 2.65625V13.75C0.9375 13.9219 1.07764 14.0625 1.25024 14.0625H13.7502Z" fill="#1A4FA4"/>
<path d="M3.28125 5.625H5.15625V7.03125H3.28125V5.625Z" fill="#1A4FA4"/>
<path d="M3.28125 7.96875H5.15625V9.375H3.28125V7.96875Z" fill="#1A4FA4"/>
<path d="M3.28125 10.3125H5.15625V11.7188H3.28125V10.3125Z" fill="#1A4FA4"/>
<path d="M6.5625 10.3125H8.4375V11.7188H6.5625V10.3125Z" fill="#1A4FA4"/>
<path d="M6.5625 7.96875H8.4375V9.375H6.5625V7.96875Z" fill="#1A4FA4"/>
<path d="M6.5625 5.625H8.4375V7.03125H6.5625V5.625Z" fill="#1A4FA4"/>
<path d="M9.84375 10.3125H11.7188V11.7188H9.84375V10.3125Z" fill="#1A4FA4"/>
<path d="M9.84375 7.96875H11.7188V9.375H9.84375V7.96875Z" fill="#1A4FA4"/>
<path d="M9.84375 5.625H11.7188V7.03125H9.84375V5.625Z" fill="#1A4FA4"/>
</svg>
