<svg width="67" height="67" viewBox="0 0 67 67" fill="none" xmlns="http://www.w3.org/2000/svg">
<path fill-rule="evenodd" clip-rule="evenodd" d="M61.2236 9.05859C61.6147 8.9707 62.0205 8.93359 62.4263 8.93359H62.6492C65.1016 9.04492 66.9966 11.0547 66.8853 13.4004V17.8672H42.3606V13.4004V13.1768C42.3606 11.3896 43.9211 10.0498 45.7048 10.0498C46.2622 10.0498 46.7083 10.1621 47.1541 10.3848C47.9343 7.48145 49.718 4.4668 53.5081 4.4668C57.0754 4.4668 58.8589 7.14648 59.6394 9.82715C60.104 9.42773 60.6477 9.1875 61.2236 9.05859ZM44.5901 15.6338H64.6558V13.4004C64.6558 12.1719 63.6523 11.167 62.4263 11.167C61.2 11.167 60.1965 12.1719 60.1965 13.4004H57.967C57.967 13.1768 57.8557 6.7002 53.5081 6.7002C49.1606 6.7002 49.0491 13.1768 49.0491 13.4004H47.8228H46.8196C46.8196 12.7305 46.3738 12.2832 45.7048 12.2832C45.0359 12.2832 44.5901 12.7305 44.5901 13.4004V15.6338Z" fill="#F9C23B"/>
<path fill-rule="evenodd" clip-rule="evenodd" d="M21.4033 22.333C23.1868 22.333 24.5247 23.8965 24.5247 25.6836V30.1504H0V25.6836V25.46C0.111572 23.0029 2.11792 21.1055 4.45898 21.2168C5.08887 21.2168 5.71851 21.3047 6.29321 21.5361C6.63403 21.6738 6.95532 21.8613 7.24585 22.1104C8.02612 19.4297 9.80981 16.75 13.377 16.75C17.1672 16.75 18.9509 19.7646 19.7312 22.668C19.9426 22.5625 20.1541 22.4814 20.3774 22.4258C20.625 22.3643 20.8872 22.333 21.1804 22.333H21.4033ZM2.22974 27.917H22.2952V25.6836C22.2952 25.0137 21.8494 24.5664 21.1804 24.5664C20.5115 24.5664 20.0657 25.0137 20.0657 25.6836H17.8362C17.8362 25.46 17.7246 18.9834 13.3772 18.9834C9.02954 18.9834 8.91821 25.46 8.91821 25.6836H6.68872V25.46C6.57715 24.2314 5.57397 23.3389 4.45923 23.4502H4.23608C3.01001 23.5615 2.11816 24.5664 2.22974 25.6836V27.917Z" fill="#F9C23B"/>
<path fill-rule="evenodd" clip-rule="evenodd" d="M33.4426 11.167C33.4426 13.623 31.436 15.6338 28.9836 15.6338C26.5312 15.6338 24.5247 13.623 24.5247 11.167C24.5247 8.70996 26.5312 6.7002 28.9836 6.7002C31.436 6.7002 33.4426 8.70996 33.4426 11.167ZM31.2131 11.167C31.2131 9.93848 30.21 8.93359 28.9836 8.93359C27.7573 8.93359 26.7542 9.93848 26.7542 11.167C26.7542 12.3955 27.7573 13.4004 28.9836 13.4004C30.21 13.4004 31.2131 12.3955 31.2131 11.167Z" fill="#F9C23B"/>
<path d="M27.8689 0H30.0984V4.46667H27.8689V0Z" fill="#F9C23B"/>
<path d="M17.8362 10.0498H22.2952V12.2831H17.8362V10.0498Z" fill="#F9C23B"/>
<path d="M35.6721 10.0498H40.1311V12.2831H35.6721V10.0498Z" fill="#F9C23B"/>
<path d="M27.8689 17.8667H30.0984V22.3334H27.8689V17.8667Z" fill="#F9C23B"/>
<path d="M32.6677 16.4395L34.2442 14.863L37.5605 18.1793L35.984 19.7558L32.6677 16.4395Z" fill="#F9C23B"/>
<path d="M20.4055 4.15576L21.982 2.57928L25.2983 5.89558L23.7218 7.47206L20.4055 4.15576Z" fill="#F9C23B"/>
<path d="M20.4072 18.1748L23.7178 14.8642L25.297 16.4434L21.9864 19.754L20.4072 18.1748Z" fill="#F9C23B"/>
<path d="M32.6699 5.8916L35.9805 2.58098L37.5597 4.16017L34.2491 7.47079L32.6699 5.8916Z" fill="#F9C23B"/>
<path fill-rule="evenodd" clip-rule="evenodd" d="M65.7705 64.7671H34.5574V60.3003C37.1213 60.3003 39.4624 59.1831 41.2458 57.397C42.918 55.3872 43.6982 52.8188 43.4753 50.1382C43.364 49.5806 42.918 49.1333 42.3606 49.1333C39.3508 49.022 36.4524 50.2505 34.5574 52.5952V51.2554C37.1213 50.6968 39.0164 48.4634 39.0164 45.7837C38.905 44.6665 38.6819 43.5503 38.1245 42.6567C39.0164 43.2153 40.1311 43.439 41.2458 43.5503C44.3672 43.5503 46.8196 41.0933 46.8196 37.9673C46.8196 34.8403 44.3672 32.3833 41.2458 32.3833C40.1311 32.4956 39.0164 32.7183 38.1245 33.2769C38.6819 32.3833 38.905 31.2671 39.0164 30.1499C39.0164 27.0239 36.564 24.5669 33.4426 24.5669C30.3213 24.5669 27.8689 27.0239 27.8689 30.1499C27.9802 31.2671 28.2034 32.3833 28.7607 33.2769C27.8689 32.7183 26.7542 32.4956 25.6394 32.3833C22.5181 32.3833 20.0657 34.8403 20.0657 37.9673C20.0657 41.0933 22.5181 43.5503 25.6394 43.5503C26.7542 43.439 27.8689 43.2153 28.7607 42.6567C28.2034 43.5503 27.9802 44.6665 27.8689 45.7837C27.8689 48.4634 29.7639 50.6968 32.3279 51.2554V64.7671H1.11475C0.445801 64.7671 0 65.2134 0 65.8833C0 66.5532 0.445801 67.0005 1.11475 67.0005H65.7705C66.1396 67.0005 66.4409 66.8638 66.637 66.6294C66.7959 66.439 66.8853 66.1831 66.8853 65.8833C66.8853 65.2134 66.4395 64.7671 65.7705 64.7671ZM41.2461 51.3667C41.2461 53.0415 40.5771 54.605 39.574 55.8335C38.2361 57.1733 36.564 57.9546 34.6689 57.9546C35.0034 55.9448 36.2295 51.9253 41.2461 51.3667ZM33.4426 35.7339C32.2163 35.7339 31.2131 36.7388 31.2131 37.9673C31.2131 39.1958 32.2163 40.2007 33.4426 40.2007C34.6689 40.2007 35.6721 39.1958 35.6721 37.9673C35.6721 36.7388 34.6689 35.7339 33.4426 35.7339ZM44.5901 37.9663C44.5901 39.8647 43.1409 41.3169 41.2458 41.3169C39.9082 41.0933 38.5703 40.5347 37.5671 39.7534C38.0129 38.6362 38.0129 37.4077 37.5671 36.2915C38.6819 35.5103 39.9082 34.9517 41.2458 34.728C43.1409 34.6167 44.5901 36.0679 44.5901 37.9663ZM36.7869 30.1499C36.7869 28.2524 35.3376 26.8003 33.4426 26.8003C31.5476 26.8003 30.0984 28.2524 30.21 30.1499C30.4329 31.4907 30.9902 32.7183 31.7705 33.8354C32.8853 33.3882 34.1116 33.3882 35.2263 33.8354C36.0066 32.8306 36.564 31.4907 36.7869 30.1499ZM22.2952 37.9663C22.2952 36.0688 23.7444 34.6167 25.6394 34.6167C26.9771 34.8403 28.3149 35.3979 29.3181 36.1802C28.8723 37.2964 28.8723 38.5249 29.3181 39.6421C28.2034 40.4233 26.9771 40.9819 25.6394 41.2046C23.7444 41.3169 22.2952 39.8647 22.2952 37.9663ZM31.6589 42.0981C30.8787 43.103 30.3213 44.4429 30.0984 45.7827C30.0984 47.6812 31.5476 49.1333 33.3311 49.1333C35.2263 49.1333 36.6755 47.6812 36.6755 45.7827C36.4524 44.4429 35.895 43.2144 35.1147 42.0981C34 42.5444 32.7737 42.5444 31.6589 42.0981Z" fill="#F9C23B"/>
</svg>
