<?xml version="1.0" encoding="UTF-8"?>
<svg width="14px" height="14px" viewBox="0 0 14 14" version="1.1" xmlns="http://www.w3.org/2000/svg" xmlns:xlink="http://www.w3.org/1999/xlink">
    <!-- Generator: Sketch 50.2 (55047) - http://www.bohemiancoding.com/sketch -->
    <title>clock copy</title>
    <desc>Created with Sketch.</desc>
    <defs></defs>
    <g id="Page-1" stroke="none" stroke-width="1" fill="none" fill-rule="evenodd">
        <g id="city-card" transform="translate(-574.000000, -3460.000000)" fill="#949494" fill-rule="nonzero">
            <g id="clock-copy" transform="translate(574.000000, 3460.000000)">
                <path d="M6.99993,0 C3.1339989,0 0,3.13406089 0,6.99981333 C0,10.8655658 3.1339989,14 6.99988333,14 C10.8657678,14 14,10.8657058 14,6.99981333 C14,3.13392089 10.8658144,0 6.99993,0 Z M7.48331139,7.85577904 C7.48293805,7.87416583 7.48018467,7.89255262 7.47761796,7.91098607 C7.47579793,7.9247995 7.47495792,7.93893959 7.4718312,7.95251968 C7.46870448,7.96665978 7.46333772,7.9806132 7.45876431,7.9947533 C7.45330422,8.01183341 7.44821747,8.02886686 7.44107735,8.04496697 C7.439724,8.04776699 7.43925732,8.05075367 7.43804397,8.05355369 C7.42749712,8.07604717 7.41527025,8.09714065 7.4018767,8.11711411 C7.40103668,8.11832746 7.39991667,8.1195408 7.39907665,8.12075414 C7.3838164,8.14315429 7.36640944,8.16350109 7.3481158,8.18258788 C7.34302905,8.18781459 7.33784896,8.19252795 7.33248221,8.19747465 C7.31638194,8.21282809 7.29944166,8.22687485 7.28142802,8.23970826 C7.2758746,8.24372162 7.27055451,8.24792165 7.26472108,8.25179501 C7.24162069,8.26691511 7.21740029,8.2802152 7.19219987,8.29113527 C7.18673978,8.29356196 7.18104635,8.29500863 7.17549292,8.29720198 C7.15421257,8.30541537 7.13265221,8.31222875 7.11039184,8.31740878 C7.10241171,8.31932213 7.09452491,8.32104881 7.08640477,8.32249548 C7.0578443,8.32772218 7.02891048,8.33131554 6.99960333,8.33131554 C6.99367656,8.33131554 6.98760979,8.32949553 6.98168303,8.3292622 C6.95358923,8.32818885 6.92577543,8.32599551 6.89903498,8.32030214 C6.89068151,8.31848212 6.88246804,8.3148421 6.87411457,8.31255542 C6.84919415,8.30578871 6.82483375,8.29827532 6.80159336,8.28786859 C6.79893332,8.28651524 6.79613327,8.28628191 6.79347322,8.28506857 L4.10939516,7.01904013 C3.86756446,6.9050327 3.76396273,6.61649078 3.8779713,6.3746625 C3.99197987,6.13297422 4.28052468,6.02923353 4.52235537,6.14324095 L6.51580193,7.08330056 L6.51580193,2.9049727 C6.51580193,2.63761758 6.73257221,2.42084947 6.99993,2.42084947 C7.26728779,2.42084947 7.48405807,2.63761758 7.48405807,2.9049727 L7.48405807,7.84705231 L7.4841514,7.84705231 C7.4841514,7.84994567 7.48331139,7.85283902 7.48331139,7.85577904 Z" id="Shape"></path>
            </g>
        </g>
    </g>
</svg>