<?xml version="1.0" encoding="UTF-8"?>
<svg width="12px" height="15px" viewBox="0 0 12 15" version="1.1" xmlns="http://www.w3.org/2000/svg" xmlns:xlink="http://www.w3.org/1999/xlink">
    <!-- Generator: Sketch 50.2 (55047) - http://www.bohemiancoding.com/sketch -->
    <title>placeholder (6) copy</title>
    <desc>Created with Sketch.</desc>
    <defs></defs>
    <g id="Page-1" stroke="none" stroke-width="1" fill="none" fill-rule="evenodd">
        <g id="add-rout" transform="translate(-555.000000, -172.000000)" fill="#4F6B81" fill-rule="nonzero">
            <g id="placeholder-(6)-copy" transform="translate(555.000000, 172.000000)">
                <path d="M5.78607539,0.00381776303 C2.79784067,0.108385071 0.315354662,2.43346993 0.0285581413,5.40133619 C-0.0300346962,5.99490944 0.00388747285,6.57002963 0.108737814,7.12054576 C0.108737814,7.12054576 0.117989314,7.18513145 0.14882765,7.30815181 C0.241342657,7.72027003 0.380115167,8.12008621 0.552809846,8.49529831 C1.15415739,9.9161835 2.54496632,12.293552 5.66580588,14.8800551 C5.85700356,15.0399816 6.13763241,15.0399816 6.33191393,14.8800551 C9.45275348,12.2966275 10.8435624,9.91925901 11.4479938,8.4922228 C11.6237723,8.1170107 11.759461,7.72027003 11.851976,7.3050763 C11.8797305,7.18513145 11.8920658,7.11747025 11.8920658,7.11747025 C11.962994,6.74840916 12,6.37012154 12,5.9826074 C12,2.60569844 9.1967953,-0.116127091 5.78607539,0.00381776303 Z M5.9988599,8.95970018 C4.38909879,8.95970018 3.08463719,7.65875984 3.08463719,6.05334411 C3.08463719,4.44792837 4.38909879,3.14698804 5.9988599,3.14698804 C7.60862102,3.14698804 8.91308261,4.44792837 8.91308261,6.05334411 C8.91308261,7.65875984 7.60862102,8.95970018 5.9988599,8.95970018 Z" id="Shape"></path>
            </g>
        </g>
    </g>
</svg>