<svg width="31" height="31" viewBox="0 0 31 31" fill="none" xmlns="http://www.w3.org/2000/svg">
<path fill-rule="evenodd" clip-rule="evenodd" d="M1 15.5C1 7.50439 7.50488 1 15.5 1C23.4956 1 30 7.50439 30 15.5C30 23.4951 23.4951 30 15.5 30C7.50488 30 1 23.4951 1 15.5ZM2.6748 15.5C2.6748 22.5718 8.42822 28.3252 15.5 28.3252C22.5718 28.3252 28.3252 22.5718 28.3252 15.5C28.3252 8.42822 22.5718 2.6748 15.5 2.6748C8.42822 2.6748 2.6748 8.42822 2.6748 15.5Z" fill="#67A1D6"/>
<path d="M15.5 0.75C7.36682 0.75 0.75 7.36632 0.75 15.5H1.25C1.25 7.64247 7.64295 1.25 15.5 1.25V0.75ZM30.25 15.5C30.25 7.36632 23.6337 0.75 15.5 0.75V1.25C23.3575 1.25 29.75 7.64247 29.75 15.5H30.25ZM15.5 30.25C23.6332 30.25 30.25 23.6332 30.25 15.5H29.75C29.75 23.357 23.357 29.75 15.5 29.75V30.25ZM0.75 15.5C0.75 23.6332 7.36681 30.25 15.5 30.25V29.75C7.64295 29.75 1.25 23.357 1.25 15.5H0.75ZM15.5 28.0752C8.56629 28.0752 2.9248 22.4337 2.9248 15.5H2.4248C2.4248 22.7098 8.29015 28.5752 15.5 28.5752V28.0752ZM28.0752 15.5C28.0752 22.4337 22.4337 28.0752 15.5 28.0752V28.5752C22.7098 28.5752 28.5752 22.7098 28.5752 15.5H28.0752ZM15.5 2.9248C22.4337 2.9248 28.0752 8.56629 28.0752 15.5H28.5752C28.5752 8.29015 22.7098 2.4248 15.5 2.4248V2.9248ZM2.9248 15.5C2.9248 8.56629 8.56629 2.9248 15.5 2.9248V2.4248C8.29015 2.4248 2.4248 8.29015 2.4248 15.5H2.9248Z" fill="#67A0D5"/>
<path fill-rule="evenodd" clip-rule="evenodd" d="M21 14.2335H17.4092V24H14.5251V14.2335H11V12H21V14.2335Z" fill="#67A1D5"/>
<path fill-rule="evenodd" clip-rule="evenodd" d="M21 11H11V9H21V11Z" fill="#67A1D5"/>
</svg>
