<svg width="25" height="30" viewBox="0 0 25 30" fill="none" xmlns="http://www.w3.org/2000/svg">
<path d="M12.0898 1.00732L12.1238 2.00675L12.1241 2.00674L12.0898 1.00732ZM1.05469 11.0825L2.04959 11.1834L2.0498 11.1813L1.05469 11.0825ZM23.793 14.2861L22.8119 14.0921L22.8098 14.1032L23.793 14.2861ZM23.7163 14.6362L22.7433 14.4052L22.7415 14.4133L23.7163 14.6362ZM22.9419 16.8521L22.0408 16.4185L22.0325 16.4358L22.0248 16.4533L22.9419 16.8521ZM13.1362 28.7759L13.7619 29.556L13.7639 29.5544L13.1362 28.7759ZM11.8594 28.7759L12.4911 28.0007L12.4875 27.9977L11.8594 28.7759ZM2.05957 16.8579L2.97675 16.4594L2.97041 16.4448L2.96362 16.4305L2.05957 16.8579ZM1.28516 14.6421L2.25961 14.4175L2.25681 14.4053L2.25371 14.3933L1.28516 14.6421ZM1.2085 14.2915L2.19804 14.1473L2.19453 14.1232L2.18986 14.0993L1.2085 14.2915ZM12.0558 0.00790226C5.85092 0.218965 0.66114 4.92217 0.0595759 10.9838L2.0498 11.1813C2.54784 6.16279 6.87369 2.18533 12.1238 2.00675L12.0558 0.00790226ZM25 12.1675C25 5.27147 19.1311 -0.23467 12.0556 0.00791138L12.1241 2.00674C18.1228 1.80108 23 6.45607 23 12.1675H25ZM24.774 14.4801C24.9227 13.7278 25 12.9568 25 12.1675H23C23 12.8254 22.9357 13.4665 22.812 14.0922L24.774 14.4801ZM24.6893 14.8673C24.718 14.7464 24.739 14.6504 24.7532 14.5829C24.7603 14.5491 24.7657 14.5225 24.7695 14.5034C24.7714 14.4938 24.7728 14.4861 24.7739 14.4804C24.7745 14.4775 24.775 14.4751 24.7753 14.4732C24.7755 14.4723 24.7756 14.4715 24.7758 14.4708C24.7758 14.4704 24.7759 14.4701 24.776 14.4698C24.776 14.4697 24.776 14.4695 24.776 14.4694C24.776 14.4693 24.7761 14.4693 24.7761 14.4692C24.7761 14.4692 24.7761 14.4691 24.7761 14.4691C24.7761 14.4691 24.7761 14.469 23.793 14.2861C22.8098 14.1032 22.8098 14.1032 22.8099 14.1031C22.8099 14.1031 22.8099 14.1031 22.8099 14.1031C22.8099 14.103 22.8099 14.103 22.8099 14.1029C22.8099 14.1028 22.8099 14.1027 22.8099 14.1026C22.81 14.1025 22.81 14.1023 22.81 14.1022C22.8101 14.102 22.8101 14.1019 22.8101 14.102C22.8101 14.102 22.81 14.1026 22.8098 14.1036C22.8094 14.1056 22.8086 14.1095 22.8075 14.1153C22.8052 14.1268 22.8014 14.1456 22.796 14.1714C22.7852 14.2229 22.7679 14.302 22.7434 14.4052L24.6893 14.8673ZM23.843 17.2856C24.2123 16.5182 24.4973 15.7068 24.6911 14.8592L22.7415 14.4133C22.5809 15.1155 22.3453 15.7855 22.0408 16.4185L23.843 17.2856ZM13.7639 29.5544C19.8709 24.6308 22.6363 20.0631 23.859 17.2508L22.0248 16.4533C20.9311 18.9692 18.3644 23.2764 12.5086 27.9974L13.7639 29.5544ZM11.2277 29.5511C11.9651 30.152 13.0267 30.1457 13.7619 29.5559L12.5105 27.9958C12.5093 27.9968 12.5079 27.9976 12.5056 27.9984C12.503 27.9993 12.4995 28 12.4956 28C12.4917 28 12.4893 27.9993 12.4886 27.9991C12.4884 27.999 12.4896 27.9994 12.4911 28.0007L11.2277 29.5511ZM1.14239 17.2564C2.35931 20.0574 5.12476 24.6249 11.2313 29.554L12.4875 27.9977C6.6311 23.2706 4.06452 18.9632 2.97675 16.4594L1.14239 17.2564ZM0.310703 14.8667C0.505164 15.7104 0.795943 16.5248 1.15552 17.2853L2.96362 16.4305C2.66109 15.7906 2.41964 15.1119 2.25961 14.4175L0.310703 14.8667ZM1.2085 14.2915C0.218951 14.4357 0.218966 14.4358 0.218981 14.4359C0.218986 14.436 0.219001 14.4361 0.219011 14.4361C0.219031 14.4363 0.219051 14.4364 0.219072 14.4366C0.219113 14.4368 0.219156 14.4371 0.219199 14.4374C0.219287 14.438 0.219379 14.4386 0.219477 14.4393C0.219672 14.4406 0.219886 14.442 0.220121 14.4436C0.220591 14.4467 0.221144 14.4502 0.221784 14.4542C0.223064 14.4623 0.224697 14.4722 0.226729 14.484C0.230793 14.5075 0.236454 14.5385 0.24409 14.5767C0.259362 14.653 0.282528 14.7583 0.316607 14.8909L2.25371 14.3933C2.2287 14.2959 2.21354 14.2259 2.20525 14.1844C2.20111 14.1637 2.19868 14.1501 2.1976 14.1439C2.19706 14.1408 2.19686 14.1395 2.19695 14.14C2.19699 14.1403 2.19711 14.1411 2.19729 14.1423C2.19739 14.1429 2.1975 14.1436 2.19762 14.1444C2.19768 14.1448 2.19775 14.1453 2.19782 14.1458C2.19785 14.146 2.19789 14.1462 2.19793 14.1465C2.19795 14.1466 2.19796 14.1468 2.19798 14.1469C2.19799 14.1469 2.19801 14.147 2.19801 14.1471C2.19803 14.1472 2.19804 14.1473 1.2085 14.2915ZM0.0597858 10.9817C-0.0630828 12.1938 0.00834948 13.3664 0.227134 14.4837L2.18986 14.0993C2.0063 13.1619 1.94785 12.1871 2.04959 11.1834L0.0597858 10.9817ZM12.4976 16.7251C9.93682 16.7251 7.91211 14.7169 7.91211 12.2998H5.91211C5.91211 15.8758 8.8874 18.7251 12.4976 18.7251V16.7251ZM17.0835 12.2998C17.0835 14.7168 15.0584 16.7251 12.4976 16.7251V18.7251C16.1076 18.7251 19.0835 15.876 19.0835 12.2998H17.0835ZM12.4976 7.87451C15.0585 7.87451 17.0835 9.88237 17.0835 12.2998H19.0835C19.0835 8.7231 16.1075 5.87451 12.4976 5.87451V7.87451ZM7.91211 12.2998C7.91211 9.88225 9.93676 7.87451 12.4976 7.87451V5.87451C8.88746 5.87451 5.91211 8.72321 5.91211 12.2998H7.91211Z" fill="#67A1D6"/>
</svg>
