<svg xmlns="http://www.w3.org/2000/svg" xmlns:xlink="http://www.w3.org/1999/xlink" width="19" height="21" viewBox="0 0 19 21"><defs><path id="557ma" d="M335.184 2184.576s-.275.844-.429 2.22c-.255 2.273.24 3.852 2.488 4.17 1.898.271 3.116-1.137 3.37-3.412.153-1.374.166-2.25.166-2.25zm6.303-2.903c-.063.307-.276.594-.666.501-1.406-.328-3.608-.427-4.913-.115-.479.115-.703-.091-.883-.657-.448-1.406-1.156-3.101-1.004-5.273.341-4.866 2.375-6.213 3.907-6.125 1.533.088 5.47 2.493 3.56 11.669z"/><path id="557mb" d="M324.22 2185.303s.014.877.167 2.251c.254 2.275 1.471 3.683 3.369 3.413 2.249-.32 2.744-1.897 2.488-4.172-.154-1.375-.429-2.219-.429-2.219zm2.852-15.3c1.532-.086 3.566 1.26 3.907 6.126.152 2.172-.556 3.868-1.004 5.273-.181.565-.404.771-.883.657-1.305-.312-3.507-.214-4.913.115-.39.092-.603-.194-.666-.501-1.912-9.176 2.027-11.581 3.559-11.67z"/></defs><g><g transform="translate(-323 -2170)"><use fill="#b1b1b1" xlink:href="#557ma"/></g><g transform="translate(-323 -2170)"><use fill="#b1b1b1" xlink:href="#557mb"/></g></g></svg>