<?xml version="1.0" encoding="UTF-8"?>
<svg width="18px" height="13px" viewBox="0 0 18 13" version="1.1" xmlns="http://www.w3.org/2000/svg" xmlns:xlink="http://www.w3.org/1999/xlink">
    <!-- Generator: Sketch 50.2 (55047) - http://www.bohemiancoding.com/sketch -->
    <title>black-envelope</title>
    <desc>Created with Sketch.</desc>
    <defs></defs>
    <g id="Page-1" stroke="none" stroke-width="1" fill="none" fill-rule="evenodd">
        <g id="контакты" transform="translate(-741.000000, -311.000000)" fill="#6D9FFF" fill-rule="nonzero">
            <g id="black-envelope" transform="translate(741.000000, 311.000000)">
                <path d="M1.32752231,0.720482952 L7.89326982,5.69131499 C8.19099905,5.91646591 8.60127648,6.01653298 8.99977561,5.99777041 C9.39762038,6.01653298 9.80789781,5.91709133 10.105627,5.69131499 L16.6713746,0.720482952 C17.1974719,0.32459258 17.0783802,0 16.4109433,0 L9.00042996,0 L1.58991665,0 C0.921825335,5.55483863e-16 0.802733642,0.32459258 1.32752231,0.720482952 Z" id="Shape"></path>
                <path d="M17.0436874,2.20637352 L9.95857415,7.73569113 C9.69364971,7.94025928 9.34666332,8.03988662 9.00096924,8.03523734 C8.654629,8.03988662 8.3076426,7.93959509 8.04271817,7.73569113 L0.956312596,2.20637352 C0.430340668,1.79657305 0,2.01641739 0,2.69454751 L0,11.7666135 C0,12.4447436 0.540187386,13 1.19991385,13 L8.99967692,13 L16.8000862,13 C17.4598126,13 18,12.4447436 18,11.7666135 L18,2.69454751 C18,2.01641739 17.5696593,1.79657305 17.0436874,2.20637352 Z" id="Shape"></path>
            </g>
        </g>
    </g>
</svg>