<svg xmlns="http://www.w3.org/2000/svg" xmlns:xlink="http://www.w3.org/1999/xlink" width="62" height="40" viewBox="0 0 62 40"><defs><path id="kjy7a" d="M354 1438h19a2 2 0 0 1 2 2v3a2 2 0 0 1-2 2h-19a2 2 0 0 1-2-2v-3a2 2 0 0 1 2-2zm0 2v3h19v-3z"/><path id="kjy7b" d="M363 1449v10h2v-10z"/><path id="kjy7c" d="M368 1443v6h2v-6z"/><path id="kjy7d" d="M357 1443v6h2v-6z"/><path id="kjy7e" d="M337 1473a3 3 0 0 1-3-3v-10a3 3 0 0 1 3-3h56a3 3 0 0 1 3 3v10a3 3 0 0 1-3 3h-4.37c.24-.626.37-1.299.37-2 0-3.314-2.91-6-6.5-6s-6.5 2.686-6.5 6c0 .701.13 1.374.37 2h-20.74c.24-.626.37-1.299.37-2 0-3.314-2.91-6-6.5-6s-6.5 2.686-6.5 6c0 .701.13 1.374.37 2zm12.5-10c4.66 0 8.5 3.544 8.5 8h16c0-4.456 3.84-8 8.5-8s8.5 3.544 8.5 8h2a1 1 0 0 0 1-1v-10a1 1 0 0 0-1-1h-56a1 1 0 0 0-1 1v10a1 1 0 0 0 1 1h4c0-4.456 3.84-8 8.5-8z"/><path id="kjy7f" d="M382.5 1476a5.5 5.5 0 1 0 0-11 5.5 5.5 0 0 0 0 11zm0 2a7.5 7.5 0 1 1 0-15 7.5 7.5 0 0 1 0 15z"/><path id="kjy7g" d="M382.5 1472a1.5 1.5 0 1 0 0-3 1.5 1.5 0 0 0 0 3zm0 2a3.5 3.5 0 1 1 0-7 3.5 3.5 0 0 1 0 7z"/><path id="kjy7h" d="M349.5 1472a1.5 1.5 0 1 0 0-3 1.5 1.5 0 0 0 0 3zm0 2a3.5 3.5 0 1 1 0-7 3.5 3.5 0 0 1 0 7z"/><path id="kjy7i" d="M349.5 1476a5.5 5.5 0 1 0 0-11 5.5 5.5 0 0 0 0 11zm0 2a7.5 7.5 0 1 1 0-15 7.5 7.5 0 0 1 0 15z"/><path id="kjy7j" d="M389.05 1458c-.21 1.669.246 3.265 1.325 4.733 1.109 1.508 2.679 2.267 4.625 2.267v-2.101c-1.39 0-2.408-.493-3.139-1.487-.76-1.035-1.052-2.057-.918-3.124z"/><path id="kjy7k" d="M374.965 1449.99l9.339 8.738c.403.378 1.04.36 1.421-.04a.988.988 0 0 0-.04-1.407l-9.629-9.009a1.011 1.011 0 0 0-.69-.272h-22.909c-.341 0-.659.171-.844.455l-5.452 8.342a.99.99 0 0 0 .298 1.376 1.012 1.012 0 0 0 1.39-.295l5.155-7.887z"/><path id="kjy7l" d="M367 1464h4a1 1 0 0 0 0-2h-4a1 1 0 0 0 0 2z"/><path id="kjy7m" d="M357 1464h4a1 1 0 0 0 0-2h-4a1 1 0 0 0 0 2z"/></defs><g><g transform="translate(-334 -1438)"><use fill="#f9c23b" xlink:href="#kjy7a"/></g><g transform="translate(-334 -1438)"><use fill="#f9c23b" xlink:href="#kjy7b"/></g><g transform="translate(-334 -1438)"><use fill="#f9c23b" xlink:href="#kjy7c"/></g><g transform="translate(-334 -1438)"><use fill="#f9c23b" xlink:href="#kjy7d"/></g><g transform="translate(-334 -1438)"><use fill="#f9c23b" xlink:href="#kjy7e"/></g><g transform="translate(-334 -1438)"><use fill="#f9c23b" xlink:href="#kjy7f"/></g><g transform="translate(-334 -1438)"><use fill="#f9c23b" xlink:href="#kjy7g"/></g><g transform="translate(-334 -1438)"><use fill="#f9c23b" xlink:href="#kjy7h"/></g><g transform="translate(-334 -1438)"><use fill="#f9c23b" xlink:href="#kjy7i"/></g><g transform="translate(-334 -1438)"><use fill="#f9c23b" xlink:href="#kjy7j"/></g><g transform="translate(-334 -1438)"><use fill="#f9c23b" xlink:href="#kjy7k"/></g><g transform="translate(-334 -1438)"><use fill="#f9c23b" xlink:href="#kjy7l"/></g><g transform="translate(-334 -1438)"><use fill="#f9c23b" xlink:href="#kjy7m"/></g></g></svg>