<?xml version="1.0" encoding="UTF-8"?>
<svg width="30px" height="30px" viewBox="0 0 30 30" version="1.1" xmlns="http://www.w3.org/2000/svg" xmlns:xlink="http://www.w3.org/1999/xlink">
    <!-- Generator: Sketch 50.2 (55047) - http://www.bohemiancoding.com/sketch -->
    <title>musica-searcher</title>
    <desc>Created with Sketch.</desc>
    <defs></defs>
    <g id="Page-1" stroke="none" stroke-width="1" fill="none" fill-rule="evenodd">
        <g id="search" transform="translate(-1194.000000, -281.000000)" fill="#67A1D6" fill-rule="nonzero">
            <g id="musica-searcher" transform="translate(1194.000000, 281.000000)">
                <path d="M29.2657963,25.720381 L22.7484499,19.2031545 C22.7138132,19.1685177 22.6731839,19.1443079 22.636989,19.1120681 C23.9193886,17.1667759 24.6678545,14.8382019 24.6678545,12.3340471 C24.6678545,5.52210841 19.1457461,0 12.3339273,0 C5.52210841,0 0,5.52210841 0,12.3339273 C0,19.1456263 5.52198856,24.6678545 12.3338074,24.6678545 C14.8380821,24.6678545 17.1665362,23.9193886 19.1118284,22.636989 C19.1440682,22.673064 19.1681581,22.7136933 19.2027949,22.7483301 L25.7202611,29.2657963 C26.6993192,30.2447346 28.2866183,30.2447346 29.2657963,29.2657963 C30.2447346,28.2867382 30.2447346,26.6994391 29.2657963,25.720381 Z M12.3339273,20.3920707 C7.88340151,20.3920707 4.27566397,16.7843332 4.27566397,12.3339273 C4.27566397,7.88340151 7.88352137,4.27566397 12.3339273,4.27566397 C16.7842133,4.27566397 20.3920707,7.88352137 20.3920707,12.3339273 C20.3920707,16.7843332 16.7842133,20.3920707 12.3339273,20.3920707 Z" id="Shape"></path>
            </g>
        </g>
    </g>
</svg>