<?xml version="1.0" encoding="UTF-8"?>
<svg width="23px" height="14px" viewBox="0 0 23 14" version="1.1" xmlns="http://www.w3.org/2000/svg" xmlns:xlink="http://www.w3.org/1999/xlink">
    <!-- Generator: Sketch 50.2 (55047) - http://www.bohemiancoding.com/sketch -->
    <title>chevron-arrow-down copy 6</title>
    <desc>Created with Sketch.</desc>
    <defs></defs>
    <g id="Page-1" stroke="none" stroke-width="1" fill="none" fill-rule="evenodd">
        <g id="вебресурсы" transform="translate(-1074.000000, -357.000000)" fill="#6D9FFF" fill-rule="nonzero">
            <g id="chevron-arrow-down-copy-6" transform="translate(1085.500000, 364.000000) rotate(90.000000) translate(-1085.500000, -364.000000) translate(1078.500000, 352.500000)">
                <path d="M17.4774222,6.21421334 L16.4185667,5.16806653 C16.0516346,4.82417069 15.6230773,4.65217391 15.133884,4.65217391 C14.6346011,4.65217391 14.211138,4.82417069 13.8628023,5.16806653 L7.00004945,11.9464296 L0.137346059,5.16826193 C-0.210940207,4.82436608 -0.634502203,4.65236931 -1.13358722,4.65236931 C-1.62302785,4.65236931 -2.05148623,4.82436608 -2.41846778,5.16826193 L-3.46342549,6.21440873 C-3.82120777,6.56753701 -4,6.99071453 -4,7.4835505 C-4,7.98557005 -3.82100994,8.40396038 -3.46347495,8.7386238 L5.72906671,17.8179138 C6.06810425,18.171091 6.49151787,18.3478261 6.99999999,18.3478261 C7.49893664,18.3478261 7.92734556,18.1711398 8.28478164,17.8179138 L17.4773728,8.7386238 C17.8257085,8.39453256 18,7.97619107 18,7.4835505 C18.0000494,6.99989812 17.8257579,6.57696484 17.4774222,6.21421334 Z" id="Shape" transform="translate(7.000000, 11.500000) scale(-1, -1) rotate(-90.000000) translate(-7.000000, -11.500000) "></path>
            </g>
        </g>
    </g>
</svg>