<svg xmlns="http://www.w3.org/2000/svg" xmlns:xlink="http://www.w3.org/1999/xlink" width="64" height="39" viewBox="0 0 64 39"><defs><path id="b5r9a" d="M348 1229.1c-3.173 0-6.16 1.26-8.4 3.5s-3.5 5.227-3.5 8.4 1.26 6.16 3.5 8.4 5.227 3.5 8.4 3.5 6.16-1.26 8.4-3.5 3.5-5.227 3.5-8.4c0-6.533-5.32-11.9-11.9-11.9zm0 25.9c-3.733 0-7.233-1.447-9.893-4.107-2.66-2.66-4.107-6.16-4.107-9.893 0-3.733 1.447-7.28 4.107-9.893 2.66-2.614 6.16-4.107 9.893-4.107v1.073V1227c7.7 0 14 6.3 14 14 0 3.733-1.447 7.28-4.107 9.893-2.613 2.66-6.113 4.107-9.893 4.107z"/><path id="b5r9b" d="M361.301 1241.093c0 .514.095 1.027.285 1.494-2.138-.28-4.61-.607-6.748-.887-2.662-.373-4.99-.653-5.988-.747-.475-.046-.666-.233-.666-.28 0-.093.238-.326.903-.326l12.404-.607c-.142.42-.237.887-.19 1.353zm2.032-.046c0-.56.286-1.12.714-1.447h.239v-.14c.285-.187.618-.28 1-.28.523 0 1 .187 1.38.56.381.373.571.84.571 1.353 0 .514-.19.98-.57 1.354-.382.373-.81.56-1.334.56-.095-.047-.238-.047-.38-.047a2.063 2.063 0 0 1-1.62-1.913zm1.995 4.06c1.092 0 2.09-.42 2.85-1.12a3.99 3.99 0 0 0 1.186-2.847 3.99 3.99 0 0 0-1.187-2.847c-.807-.746-1.804-1.166-2.897-1.166-.664 0-1.33.186-1.9.466l-14.388.7c-1.9 0-2.945 1.167-2.992 2.334 0 1.026.807 2.286 2.66 2.426.95.094 3.229.374 5.888.747 3.61.513 7.646 1.027 10.163 1.26.19.047.427.047.617.047zm18.425-16.007c3.23 0 6.269 1.213 8.548 3.5 2.28 2.24 3.562 5.227 3.562 8.4s-1.282 6.16-3.562 8.4a12.146 12.146 0 0 1-8.548 3.5c-6.695 0-12.11-5.367-12.11-11.9 0-3.173 1.283-6.16 3.562-8.4 2.28-2.24 5.32-3.5 8.548-3.5zm0 25.9c3.847 0 7.409-1.447 10.068-4.107 2.707-2.613 4.179-6.16 4.179-9.893 0-3.733-1.472-7.233-4.179-9.893-2.707-2.66-6.268-4.107-10.068-4.107-3.799 0-7.36 1.447-10.067 4.107-2.707 2.613-4.18 6.16-4.18 9.893 0 7.7 6.412 14 14.247 14z"/><path id="b5r9c" d="M352.324 1222.113c-.614 0-1.085-.46-1.085-1.057s.471-1.056 1.085-1.056h8.117c.613 0 1.085.46 1.085 1.056 0 .597-.472 1.057-1.085 1.057h-8.117zm33.6 19.887c-.188 0-.33-.046-.518-.138-5.286-2.801-6.938-5.833-8.448-15.8l-17.697.414-10.335 14.835c-.33.46-.99.597-1.463.276-.472-.322-.613-.965-.283-1.424l10.618-15.295c.189-.275.52-.459.85-.459l19.207-.46c.519 0 .99.368 1.085.874 1.605 11.16 3.256 12.952 7.504 15.202.519.276.708.919.424 1.424-.188.367-.566.551-.943.551z"/><path id="b5r9d" d="M377.927 1227c-.584 0-1.07-.495-1.119-1.09l-.292-7.63h-5.398c-.632 0-1.118-.496-1.118-1.14 0-.645.486-1.14 1.119-1.14h6.419c.583 0 1.07.495 1.118 1.09l.34 8.72c.05.645-.437 1.19-1.07 1.19z"/><path id="b5r9e" d="M355 1233v-2h15v2z"/><path id="b5r9f" d="M387.038 1250c-.512 0-.977-.38-1.024-.904a1.071 1.071 0 0 1 .884-1.238c2.932-.476 5.165-3.522 4.98-5.664-.047-.572.372-1.143.93-1.19.558-.048 1.117.38 1.163.952.373 3.474-2.931 7.378-6.7 7.996-.14.048-.187.048-.233.048z"/><path id="b5r9g" d="M384.143 1247.166c.726.393 1.062 1.234.726 2.02-.335.729-1.23 1.01-2.012.673-.726-.393-1.062-1.235-.726-2.02.39-.73 1.285-1.066 2.012-.673z"/></defs><g><g transform="translate(-334 -1216)"><g><use fill="#f9c23b" xlink:href="#b5r9a"/></g><g><use fill="#f9c23b" xlink:href="#b5r9b"/></g><g><use fill="#f9c23b" xlink:href="#b5r9c"/></g><g><use fill="#f9c23b" xlink:href="#b5r9a"/></g><g><use fill="#f9c23b" xlink:href="#b5r9d"/></g><g transform="rotate(56.887 362.5 1232)"><use fill="#f9c23b" xlink:href="#b5r9e"/></g><g><use fill="#f9c23b" xlink:href="#b5r9f"/></g><g><use fill="#f9c23b" xlink:href="#b5r9g"/></g></g></g></svg>