<svg width="17" height="17" viewBox="0 0 17 17" fill="none" xmlns="http://www.w3.org/2000/svg">
<path d="M11.6894 8.501L16.4737 3.71605C17.1754 3.01437 17.1754 1.86604 16.4737 1.16436L15.8362 0.526804C15.1345 -0.175601 13.9861 -0.175601 13.2844 0.526804L8.50009 5.31176L3.71503 0.526804C3.01407 -0.174873 1.86571 -0.174873 1.16402 0.526804L0.525723 1.16436C-0.175241 1.86604 -0.175241 3.01437 0.525723 3.71605L5.31005 8.50027L0.525723 13.2852C-0.175241 13.9869 -0.175241 15.1352 0.525723 15.8362L1.16402 16.4737C1.86571 17.1754 3.01407 17.1754 3.71503 16.4737L8.50009 11.6902L13.2844 16.4737C13.9861 17.1754 15.1345 17.1754 15.8362 16.4737L16.4737 15.8362C17.1754 15.1345 17.1754 13.9862 16.4737 13.2852L11.6894 8.501Z" fill="#EA1D4D"/>
</svg>
