<svg width="54" height="54" viewBox="0 0 54 54" fill="none" xmlns="http://www.w3.org/2000/svg">
<path fill-rule="evenodd" clip-rule="evenodd" d="M27 53C41.3594 53 53 41.3594 53 27C53 12.6406 41.3594 1 27 1C12.6406 1 1 12.6406 1 27C1 41.3594 12.6406 53 27 53Z" stroke="#B8B8B8" stroke-width="1.38375" class="border"/>
<path d="M39.8621 34.6435C39.8306 34.5795 39.8013 34.5264 39.774 34.4838C39.3229 33.7171 38.4609 32.7759 37.1884 31.6601L37.1615 31.6346L37.1481 31.6221L37.1345 31.6092H37.1208C36.5433 31.0896 36.1776 30.7403 36.0245 30.5614C35.7442 30.2207 35.6815 29.8759 35.8346 29.5264C35.9428 29.2624 36.3492 28.7048 37.053 27.853C37.4231 27.4015 37.7163 27.0397 37.9328 26.7671C39.4942 24.808 40.1711 23.5561 39.9634 23.011L39.8828 22.8836C39.8286 22.8069 39.6887 22.7367 39.4634 22.6727C39.2375 22.6089 38.9488 22.5983 38.5967 22.6409L34.6981 22.6663C34.635 22.6452 34.5448 22.6471 34.4273 22.6727C34.31 22.6983 34.2513 22.7112 34.2513 22.7112L34.1834 22.7432L34.1295 22.7816C34.0844 22.807 34.0348 22.8517 33.9806 22.9156C33.9267 22.9793 33.8816 23.054 33.8455 23.1392C33.4211 24.1698 32.9385 25.128 32.3969 26.0137C32.063 26.5419 31.7563 26.9996 31.4762 27.3872C31.1965 27.7746 30.9619 28.06 30.7725 28.243C30.5828 28.4262 30.4117 28.5729 30.2579 28.6837C30.1045 28.7946 29.9873 28.8415 29.9062 28.8243C29.8249 28.8072 29.7483 28.7902 29.6758 28.7732C29.5495 28.6965 29.448 28.5922 29.3714 28.4602C29.2945 28.3282 29.2427 28.162 29.2156 27.9619C29.1887 27.7616 29.1728 27.5893 29.1682 27.4444C29.164 27.2998 29.1659 27.0951 29.1751 26.8311C29.1845 26.567 29.1887 26.3882 29.1887 26.2945C29.1887 25.9708 29.1954 25.6195 29.2088 25.2405C29.2225 24.8615 29.2335 24.5612 29.2428 24.3399C29.252 24.1185 29.2562 23.8842 29.2562 23.6372C29.2562 23.3902 29.2403 23.1965 29.2088 23.0559C29.1777 22.9154 29.13 22.7791 29.067 22.647C29.0037 22.515 28.9111 22.4129 28.7895 22.3404C28.6677 22.268 28.5163 22.2105 28.3361 22.1678C27.8577 22.0657 27.2486 22.0104 26.5084 22.0018C24.8299 21.9848 23.7513 22.0871 23.273 22.3086C23.0835 22.4021 22.912 22.53 22.7587 22.6917C22.5962 22.8791 22.5735 22.9814 22.6908 22.9983C23.2324 23.0748 23.6158 23.258 23.8414 23.5475L23.9227 23.701C23.986 23.8117 24.0492 24.0077 24.1124 24.2887C24.1755 24.5697 24.2162 24.8806 24.2341 25.2211C24.2792 25.843 24.2792 26.3753 24.2341 26.8181C24.1889 27.2611 24.1463 27.606 24.1055 27.853C24.0648 28.1 24.0039 28.3002 23.9227 28.4535C23.8414 28.6068 23.7873 28.7005 23.7602 28.7345C23.7331 28.7685 23.7106 28.7899 23.6926 28.7983C23.5753 28.8407 23.4533 28.8624 23.3271 28.8624C23.2006 28.8624 23.0473 28.8027 22.8668 28.6834C22.6864 28.5641 22.4992 28.4002 22.3051 28.1915C22.111 27.9827 21.8922 27.691 21.6484 27.3163C21.4049 26.9416 21.1521 26.4987 20.8904 25.9877L20.6739 25.6171C20.5385 25.3787 20.3536 25.0315 20.1189 24.5759C19.8841 24.1202 19.6766 23.6793 19.4962 23.2535C19.4241 23.0746 19.3157 22.9384 19.1714 22.8447L19.1036 22.8063C19.0586 22.7723 18.9863 22.7362 18.8871 22.6977C18.7877 22.6593 18.6841 22.6317 18.5757 22.6147L14.8665 22.6401C14.4875 22.6401 14.2303 22.7212 14.0949 22.883L14.0407 22.9596C14.0137 23.0022 14 23.0704 14 23.1641C14 23.2578 14.0271 23.3728 14.0813 23.509C14.6227 24.71 15.2116 25.8683 15.8478 26.9841C16.484 28.0998 17.0368 28.9986 17.506 29.6795C17.9753 30.361 18.4536 31.0042 18.9409 31.6087C19.4283 32.2135 19.7509 32.6011 19.9088 32.7713C20.0668 32.9419 20.1909 33.0694 20.2811 33.1546L20.6196 33.4612C20.8362 33.6656 21.1543 33.9105 21.5739 34.1957C21.9937 34.4812 22.4584 34.7622 22.9683 35.0392C23.4783 35.3158 24.0716 35.5415 24.7485 35.7161C25.4253 35.8908 26.0841 35.961 26.7249 35.9271H28.2817C28.5975 35.9014 28.8367 35.8077 28.9992 35.646L29.0531 35.5819C29.0893 35.5311 29.1232 35.4521 29.1545 35.3459C29.1862 35.2394 29.2019 35.1221 29.2019 34.9945C29.1927 34.6284 29.2222 34.2984 29.2897 34.0045C29.3572 33.7108 29.4341 33.4894 29.5201 33.3402C29.6061 33.1912 29.7031 33.0655 29.8111 32.9635C29.9193 32.8614 29.9964 32.7995 30.0416 32.7782C30.0865 32.7567 30.1224 32.7422 30.1495 32.7335C30.3661 32.6654 30.621 32.7313 30.9146 32.9317C31.2079 33.1318 31.4831 33.379 31.7404 33.6727C31.9977 33.9667 32.3067 34.2965 32.6676 34.6627C33.0288 35.029 33.3446 35.3013 33.6152 35.4804L33.8858 35.6337C34.0666 35.736 34.3012 35.8297 34.5901 35.9149C34.8784 36 35.131 36.0213 35.3479 35.9787L38.8133 35.9277C39.1561 35.9277 39.4228 35.8742 39.612 35.7679C39.8015 35.6614 39.9141 35.5441 39.9504 35.4166C39.9867 35.2888 39.9886 35.144 39.9573 34.982C39.9252 34.8204 39.8936 34.7074 39.8621 34.6435Z" fill="#B8B8B8" class="icon"/>
</svg>
