<?xml version="1.0" encoding="UTF-8"?>
<svg width="17px" height="20px" viewBox="0 0 17 20" version="1.1" xmlns="http://www.w3.org/2000/svg" xmlns:xlink="http://www.w3.org/1999/xlink">
    <!-- Generator: Sketch 50.2 (55047) - http://www.bohemiancoding.com/sketch -->
    <title>Shape</title>
    <desc>Created with Sketch.</desc>
    <defs></defs>
    <g id="Page-1" stroke="none" stroke-width="1" fill="none" fill-rule="evenodd">
        <g id="транспорт" transform="translate(-555.000000, -2051.000000)" fill="#FFFFFF" fill-rule="nonzero">
            <g id="public-transport-subway" transform="translate(555.000000, 2051.000000)">
                <path d="M8.5,0 C3.825,0 0,0.526315789 0,4.21052632 L0,14.2105263 C0,16.2105263 1.7,17.8947368 3.71875,17.8947368 L2.125,19.4736842 L2.125,20 L14.875,20 L14.875,19.4736842 L13.28125,17.8947368 C15.3,17.8947368 17,16.2105263 17,14.2105263 L17,4.21052632 C17,0.526315789 13.175,0 8.5,0 Z M3.71875,15.7894737 C2.86875,15.7894737 2.125,15.0526316 2.125,14.2105263 C2.125,13.3684211 2.86875,12.6315789 3.71875,12.6315789 C4.56875,12.6315789 5.3125,13.3684211 5.3125,14.2105263 C5.3125,15.0526316 4.56875,15.7894737 3.71875,15.7894737 Z M7.4375,9.47368421 L2.125,9.47368421 L2.125,4.21052632 L7.4375,4.21052632 L7.4375,9.47368421 Z M13.28125,15.7894737 C12.43125,15.7894737 11.6875,15.0526316 11.6875,14.2105263 C11.6875,13.3684211 12.43125,12.6315789 13.28125,12.6315789 C14.13125,12.6315789 14.875,13.3684211 14.875,14.2105263 C14.875,15.0526316 14.13125,15.7894737 13.28125,15.7894737 Z M14.875,9.47368421 L9.5625,9.47368421 L9.5625,4.21052632 L14.875,4.21052632 L14.875,9.47368421 Z" id="Shape"></path>
            </g>
        </g>
    </g>
</svg>