<?xml version="1.0" encoding="UTF-8"?>
<svg width="32px" height="26px" viewBox="0 0 32 26" version="1.1" xmlns="http://www.w3.org/2000/svg" xmlns:xlink="http://www.w3.org/1999/xlink">
    <!-- Generator: Sketch 50.2 (55047) - http://www.bohemiancoding.com/sketch -->
    <title>right-quotation-sign</title>
    <desc>Created with Sketch.</desc>
    <defs></defs>
    <g id="Page-1" stroke="none" stroke-width="1" fill="none" fill-rule="evenodd">
        <g id="public-detail" transform="translate(-350.000000, -2691.000000)" fill="#FFFFFF" fill-rule="nonzero">
            <g id="right-quotation-sign" transform="translate(350.000000, 2691.000000)">
                <path d="M31.3388649,10.4745527 C29.6616944,4.40559058 25.5242053,0 21.5023832,0 C21.1793465,0 20.8566294,0.0284502804 20.5422199,0.0847042439 C20.3639266,0.116387511 20.2079999,0.222429465 20.1115043,0.376319618 C20.0153282,0.531179667 19.9881689,0.719339476 20.0370557,0.895213937 L20.864937,3.89154574 C20.9448175,4.18089802 21.2205649,4.3764937 21.507176,4.36323846 L21.5729975,4.36194526 C23.0645257,4.36194526 25.7903671,6.62374255 27.1799678,11.6507131 C27.2349256,11.8501884 27.2870077,12.0541898 27.3371726,12.2669203 C25.7772667,11.4858308 23.9163711,11.3051069 22.2312126,11.7800326 C18.429541,12.8562938 16.2024734,16.8606707 17.2652032,20.7066314 C18.1266343,23.822907 20.959835,26 24.155054,26 C24.8059201,26 25.4558277,25.9091531 26.0868834,25.7303689 C28.5938522,25.021375 30.4787119,22.9154077 31.3944617,19.8017185 C32.2210649,16.9925766 32.2002959,13.5930914 31.3388649,10.4745527 Z" id="Shape"></path>
                <path d="M4.50121589,0 C4.1788266,0 3.85579828,0.0278043746 3.54171635,0.0840597371 C3.36374723,0.115097179 3.20750505,0.221788383 3.11133144,0.375682364 C3.01515782,0.530546264 2.98799916,0.718710752 3.03656524,0.894589587 L3.86474466,3.89099591 C3.94462308,4.18035539 4.21525116,4.37595593 4.50696713,4.36270036 L4.57214792,4.36140713 C6.06363772,4.36140713 8.78972832,6.62326067 10.1792933,11.6503563 C10.2345691,11.8511297 10.2866499,12.0551362 10.336494,12.2665788 C8.77598924,11.4854699 6.91578067,11.3047414 5.23066559,11.7796789 C1.42973101,12.8559669 -0.797918276,16.8604434 0.265423207,20.7064997 C1.12683205,23.8228528 3.95995974,26 7.1550964,26 C7.80594574,26 8.45583654,25.9091508 9.08719555,25.7303622 C11.5937803,25.0213507 13.4785914,22.915331 14.3946371,19.8015643 C15.2208994,16.9923526 15.2004505,13.5924595 14.3387222,10.4735199 C12.6606364,4.40505353 8.52389295,0 4.50121589,0 Z" id="Shape"></path>
            </g>
        </g>
    </g>
</svg>