<svg width="26" height="26" viewBox="0 0 26 26" fill="none" xmlns="http://www.w3.org/2000/svg">
<path fill-rule="evenodd" clip-rule="evenodd" d="M19.0986 16.6597L23.9795 11.7803C26.6736 9.08545 26.6736 4.71582 23.9795 2.021C21.2839 -0.673828 16.915 -0.673828 14.2197 2.021L10.5225 5.71826C11.999 5.50195 13.5161 5.64941 14.9241 6.19775L16.6592 4.46045C18.0054 3.11523 20.1938 3.11523 21.5383 4.46045C22.8848 5.80566 22.8848 7.99463 21.5383 9.34082L16.6592 14.2197C15.3147 15.5645 13.1255 15.5659 11.7803 14.2197C11.3589 13.7983 11.0852 13.2915 10.9285 12.7554L10.8525 12.7983C10.7498 12.8555 10.647 12.9126 10.5603 13L8.29248 15.2676C8.58398 15.7593 8.91602 16.2363 9.34033 16.6597C12.0347 19.355 16.4048 19.355 19.0986 16.6597ZM9.34033 21.54L11.0767 19.8032C12.4836 20.3501 14.001 20.499 15.4785 20.2812L11.78 23.979C9.08521 26.6733 4.71582 26.6733 2.021 23.979C-0.673584 21.2837 -0.673584 16.9155 2.021 14.2197L6.90015 9.34033C9.59497 6.64551 13.9653 6.64551 16.6589 9.34033C17.0835 9.76416 17.4172 10.2393 17.707 10.7329L15.4392 12.9995C15.3535 13.0854 15.2529 13.1416 15.1509 13.1978L15.0723 13.2422C14.9138 12.7075 14.6399 12.2002 14.2197 11.7798C12.8745 10.4341 10.6868 10.4341 9.34033 11.7798L4.46045 16.6592C3.11523 18.0049 3.11523 20.1938 4.46045 21.54C5.80591 22.8848 7.99512 22.8848 9.34033 21.54Z" fill="#2A7CD8"/>
</svg>
