<?xml version="1.0" encoding="UTF-8"?>
<svg width="5px" height="7px" viewBox="0 0 5 7" version="1.1" xmlns="http://www.w3.org/2000/svg" xmlns:xlink="http://www.w3.org/1999/xlink">
    <!-- Generator: Sketch 50.2 (55047) - http://www.bohemiancoding.com/sketch -->
    <title>Shape</title>
    <desc>Created with Sketch.</desc>
    <defs></defs>
    <g id="Page-1" stroke="none" stroke-width="1" fill="none" fill-rule="evenodd">
        <g id="public-detail" transform="translate(-684.000000, -186.000000)" fill="#868593" fill-rule="nonzero">
            <path d="M689.833725,187.570268 L689.496817,187.188342 C689.380066,187.062792 689.243706,187 689.088054,187 C688.929191,187 688.794453,187.062792 688.683619,187.188342 L686.500016,189.662982 L684.316428,187.188413 C684.20561,187.062864 684.07084,187.000071 683.91204,187.000071 C683.756309,187.000071 683.619982,187.062864 683.503215,187.188413 L683.170728,187.57034 C683.056888,187.69926 683,187.853753 683,188.033677 C683,188.216954 683.056951,188.3697 683.170713,188.491879 L686.095612,191.80654 C686.203488,191.935478 686.33821,192 686.5,192 C686.658753,192 686.795064,191.935495 686.908794,191.80654 L689.83371,188.491879 C689.944544,188.366258 690,188.21353 690,188.033677 C690.000016,187.857106 689.944559,187.702701 689.833725,187.570268 Z" id="Shape" transform="translate(686.500000, 189.500000) rotate(-90.000000) translate(-686.500000, -189.500000) "></path>
        </g>
    </g>
</svg>