<?xml version="1.0" encoding="UTF-8"?>
<svg width="19px" height="21px" viewBox="0 0 19 21" version="1.1" xmlns="http://www.w3.org/2000/svg" xmlns:xlink="http://www.w3.org/1999/xlink">
    <!-- Generator: Sketch 47.1 (45422) - http://www.bohemiancoding.com/sketch -->
    <title>icon (1) copy</title>
    <desc>Created with Sketch.</desc>
    <defs></defs>
    <g id="Page-1" stroke="none" stroke-width="1" fill="none" fill-rule="evenodd">
        <g id="guide-page" transform="translate(-322.000000, -2657.000000)" fill-rule="nonzero" fill="#B1B1B1">
            <g id="icon-(1)-copy" transform="translate(322.000000, 2657.000000)">
                <path d="M18.4873639,11.672895 C18.4235146,11.9799939 18.2112364,12.2666195 17.8206776,12.1740804 C16.4151637,11.8456893 14.2127772,11.7474177 12.908427,12.0594301 C12.4291426,12.1740804 12.2052555,11.9677099 12.0253165,11.401829 C11.5767129,9.99572561 10.8685661,8.30053975 11.021141,6.12873643 C11.3619471,1.26347114 13.3960036,-0.083669312 14.9283869,0.00395623689 C16.4607703,0.0915817858 20.398697,2.49678026 18.4873639,11.672895 Z M12.1836959,14.5760031 C12.1836959,14.5760031 11.9092268,15.4203203 11.7549935,16.7953044 C11.4995962,19.069474 11.9946357,20.6475528 14.243458,20.9669357 C16.1406946,21.2371827 17.3588067,19.8286225 17.6125455,17.5544529 C17.7659496,16.1802877 17.779217,15.3032133 17.779217,15.3032133 L12.1836959,14.5760031 Z" id="Shape"></path>
                <path d="M4.07157787,0.00388740713 C5.60397497,-0.082919496 7.63804969,1.26340644 7.97885878,6.12868768 C8.13143511,8.30049812 7.42328191,9.99650846 6.97467432,11.4017976 C6.79390453,11.9668614 6.57084456,12.1732325 6.09155586,12.0594008 C4.78719405,11.7473873 2.58478783,11.8448404 1.17926127,12.1740514 C0.788699022,12.2657719 0.576418905,11.9799643 0.512569026,11.6728644 C-1.39878125,2.49671961 2.54000999,0.0915132433 4.07157787,0.00388740713 Z M1.21989301,15.3031946 C1.21989301,15.3031946 1.23398974,16.1802719 1.38656607,17.5544416 C1.64113637,19.8286186 2.85843017,21.2371835 4.75568372,20.9669356 C7.00452621,20.6475517 7.49957008,19.0702866 7.24417056,16.7952906 C7.08993579,15.420302 6.81546423,14.5759821 6.81546423,14.5759821 L1.21989301,15.3031946 Z" id="Shape"></path>
            </g>
        </g>
    </g>
</svg>