<?xml version="1.0" encoding="UTF-8"?>
<svg width="27px" height="19px" viewBox="0 0 27 19" version="1.1" xmlns="http://www.w3.org/2000/svg" xmlns:xlink="http://www.w3.org/1999/xlink">
    <!-- Generator: Sketch 47.1 (45422) - http://www.bohemiancoding.com/sketch -->
    <title>sports-car (1) copy</title>
    <desc>Created with Sketch.</desc>
    <defs></defs>
    <g id="Page-1" stroke="none" stroke-width="1" fill="none" fill-rule="evenodd">
        <g id="guide-page" transform="translate(-322.000000, -2876.000000)" fill-rule="nonzero" fill="#B1B1B1">
            <g id="sports-car-(1)-copy" transform="translate(322.000000, 2876.000000)">
                <path d="M26.8448575,5.87908251 C26.7128149,5.71892043 26.515788,5.62543527 26.3090826,5.62543527 L23.6813663,5.62543527 C23.0329059,3.92483019 22.18811,2.25859465 21.2278632,1.62963197 C17.9060593,-0.543210658 9.09515571,-0.543210658 5.77335175,1.62963197 C4.81241366,2.25928204 3.97107434,3.92757975 3.31915735,5.62543527 L0.691441037,5.62543527 C0.482661683,5.62543527 0.286326131,5.71892043 0.155666204,5.87908251 C0.0243149542,6.0385572 -0.0282255456,6.24958621 0.0146364411,6.45236652 L0.403850933,8.3275689 C0.47021788,8.64720567 0.75366005,8.87541944 1.08065553,8.87541944 L1.85908451,8.87541944 C1.1076171,9.73740763 0.743290215,10.8227979 0.738450958,11.9088755 C0.733611701,13.2506625 1.24588157,14.4632201 2.18262338,15.3210839 C2.19299322,15.33002 2.20336305,15.3362065 2.21304156,15.3451426 L2.21304156,17.9689137 C2.21304156,18.5373859 2.67761019,19 3.25002511,19 L5.67380133,19 C6.24621625,19 6.71078488,18.5373859 6.71078488,17.9689137 L6.71078488,16.914456 L20.2890475,16.914456 L20.2890475,17.9689137 C20.2890475,18.5373859 20.7536161,19 21.326031,19 L23.7498072,19 C24.3208395,19 24.7867908,18.5373859 24.7867908,17.9689137 L24.7867908,15.3966969 C25.7809123,14.4914031 26.2558508,13.2458508 26.2620727,12.0023606 C26.2662206,10.8791639 25.885302,9.75390501 25.08959,8.87404466 L25.9198681,8.87404466 C26.2482463,8.87404466 26.5316884,8.64583088 26.5966727,8.32550672 L26.9865785,6.45099174 C27.0266752,6.24958621 26.9762087,6.03993198 26.8448575,5.87908251 Z M6.91195968,3.35154618 C9.55972434,1.61863372 17.440108,1.61863372 20.08649,3.35154618 C20.6008338,3.68699294 21.2624294,5.04321518 21.8687191,6.70395159 L5.13111327,6.70395159 C5.73602034,5.04390257 6.39761584,3.68836772 6.91195968,3.35154618 Z M3.81068755,12.1673345 C3.81068755,11.0468873 4.72461572,10.1395313 5.85077985,10.1395313 C6.97832663,10.1395313 7.89087215,11.0468873 7.89087215,12.1673345 C7.89087215,13.2877816 6.97832663,14.195825 5.85077985,14.195825 C4.72461572,14.195825 3.81068755,13.2877816 3.81068755,12.1673345 Z M21.1760141,14.195825 C20.0498499,14.195825 19.1359218,13.2877816 19.1359218,12.1673345 C19.1359218,11.0468873 20.0498499,10.1395313 21.1760141,10.1395313 C22.3035608,10.1395313 23.2161064,11.0468873 23.2161064,12.1673345 C23.2161064,13.2877816 22.3021782,14.195825 21.1760141,14.195825 Z" id="Shape"></path>
            </g>
        </g>
    </g>
</svg>