<svg width="54" height="67" viewBox="0 0 54 67" fill="none" xmlns="http://www.w3.org/2000/svg">
<path fill-rule="evenodd" clip-rule="evenodd" d="M0.128418 24.126C1.41895 10.8694 12.5903 0.484131 26.0371 0.0170898C41.3857 -0.518799 54 11.6387 54 26.7224C54 28.4531 53.8335 30.1428 53.5142 31.7913C53.5142 31.7913 53.4951 31.895 53.4546 32.0886C53.4258 32.2256 53.3857 32.4075 53.334 32.6294C52.9175 34.4839 52.3071 36.2559 51.5161 37.9319C48.7959 44.3059 42.5376 54.925 28.4937 66.4644C27.6191 67.1785 26.3564 67.1785 25.4961 66.4644C11.4521 54.9111 5.19385 44.2922 2.48779 37.9456C1.71045 36.2698 1.08594 34.4839 0.669922 32.6431C0.530762 32.0935 0.489258 31.8052 0.489258 31.8052C0.0175781 29.3462 -0.135254 26.7773 0.128418 24.126ZM13.8809 27.0383C13.8809 34.2092 19.751 40.02 26.9946 40.02C34.2388 40.02 40.1089 34.2092 40.1089 27.0383C40.1089 19.8674 34.2388 14.0566 26.9946 14.0566C19.751 14.0566 13.8809 19.8674 13.8809 27.0383Z" fill="#67A1D6"/>
</svg>
