<?xml version="1.0" encoding="UTF-8"?>
<svg width="18px" height="20px" viewBox="0 0 18 20" version="1.1" xmlns="http://www.w3.org/2000/svg" xmlns:xlink="http://www.w3.org/1999/xlink">
    <!-- Generator: Sketch 50.2 (55047) - http://www.bohemiancoding.com/sketch -->
    <title>settings</title>
    <desc>Created with Sketch.</desc>
    <defs></defs>
    <g id="Page-1" stroke="none" stroke-width="1" fill="none" fill-rule="evenodd">
        <g id="lk-turoperatora-setting" transform="translate(-402.000000, -176.000000)" fill="#4F6B81" fill-rule="nonzero">
            <g id="main" transform="translate(363.000000, 156.000000)">
                <g id="settings" transform="translate(39.000000, 20.000000)">
                    <path d="M17.3413718,8.54371489 L15.5583186,8.21320113 C15.4287264,7.62449512 15.2397721,7.06174895 14.9936855,6.5368823 L16.1351456,4.96429125 C16.3779176,4.63194713 16.3668889,4.15375464 16.1109387,3.83299535 L15.4017874,2.94618632 C15.1447324,2.62576186 14.7184501,2.55799393 14.3932944,2.78625311 L12.8684413,3.85134358 C12.1977599,3.33067336 11.4380453,2.94618632 10.6185066,2.7230834 L10.3201894,0.731228495 C10.257593,0.309464631 9.92912259,0 9.54354003,0 L8.47486122,0 C8.09006212,0 7.76048686,0.309464631 7.69927658,0.731228495 L7.39933216,2.7237084 C6.72176031,2.90803896 6.08647517,3.20558393 5.50671521,3.59745937 L4.05655193,2.44750273 C3.74401189,2.19939978 3.3147364,2.23819446 3.04199209,2.54060551 L2.28699837,3.38011538 C2.01483662,3.68317375 1.97992246,4.16016089 2.20379096,4.50743807 L3.2411314,6.12185951 C2.89176877,6.76119058 2.62673851,7.46306637 2.46086609,8.20925023 L0.658045637,8.54373721 C0.27905217,8.61329086 0,8.97829127 0,9.40675157 L0,10.5932708 C0,11.0216864 0.27905217,11.3867315 0.658045637,11.4562851 L2.46086609,11.7907721 C2.59708758,12.4047906 2.79484077,12.9913091 3.05768136,13.5351267 L1.92142416,15.0988338 C1.67947582,15.4308654 1.6896407,15.9093704 1.94559086,16.2298395 L2.65419977,17.1166709 C2.9112749,17.437698 3.33777814,17.5042383 3.66297407,17.2765595 L5.20980418,16.1968708 C5.86431421,16.6943043 6.6047637,17.0599074 7.39933216,17.2765595 L7.69927658,19.2687492 C7.76050695,19.6905354 8.09006212,20 8.47486122,20 L9.54354003,20 C9.92912259,20 10.257593,19.6905577 10.3201894,19.2687715 L10.6190088,17.2765818 C11.2881233,17.0947289 11.9153529,16.8023625 12.4899501,16.4172058 L14.0005402,17.6159795 C14.3125177,17.8649753 14.7421146,17.8259128 15.0145777,17.5225419 L15.7698727,16.6833222 C16.0417131,16.381179 16.0785357,15.9044597 15.8527788,15.5565575 L14.77731,13.8811316 C15.1276771,13.2396576 15.3941136,12.5365318 15.5589414,11.7870221 L17.3419745,11.4562181 C17.7220728,11.3866645 18,11.0216418 18,10.5932038 L18,9.40668461 C17.9994375,8.97829127 17.7215103,8.61329086 17.3413718,8.54371489 Z M9.0282648,13.7500153 C7.16475638,13.7500153 5.65336274,12.070326 5.65336274,10.0000112 C5.65336274,7.92938385 7.16475638,6.25000698 9.0282648,6.25000698 C10.8914518,6.25000698 12.4031267,7.92938385 12.4031267,10.0000112 C12.4031267,12.070326 10.8914518,13.7500153 9.0282648,13.7500153 Z" id="settings_1_"></path>
                </g>
            </g>
        </g>
    </g>
</svg>