<?xml version="1.0" encoding="UTF-8"?>
<svg width="15px" height="15px" viewBox="0 0 15 15" version="1.1" xmlns="http://www.w3.org/2000/svg" xmlns:xlink="http://www.w3.org/1999/xlink">
    <!-- Generator: Sketch 50.2 (55047) - http://www.bohemiancoding.com/sketch -->
    <title>external-link-square-with-an-arrow-in-right-diagonal (1)</title>
    <desc>Created with Sketch.</desc>
    <defs></defs>
    <g id="Page-1" stroke="none" stroke-width="1" fill="none" fill-rule="evenodd">
        <g id="вебресурсы" transform="translate(-440.000000, -488.000000)" fill="#2A7CD8" fill-rule="nonzero">
            <g id="Group-2" transform="translate(331.000000, 419.000000)">
                <g id="external-link-square-with-an-arrow-in-right-diagonal-(1)" transform="translate(109.000000, 69.000000)">
                    <path d="M14.1748683,0.825118519 C13.6249515,0.275073711 12.9623971,0 12.1877181,0 L2.81252138,0 C2.03784234,0 1.37528789,0.275073711 0.82513169,0.825118519 C0.275078102,1.37526594 0,2.0377756 0,2.81247648 L0,12.1874209 C0,12.9620534 0.275078102,13.6246314 0.82513169,14.1747789 C1.37528789,14.7249263 2.03784234,15 2.81252138,15 L12.1876154,15 C12.9622945,15 13.6248489,14.7249263 14.1747657,14.1747789 C14.7249219,13.6246314 15,12.9620876 15,12.1874209 L15,2.81247648 C14.9999658,2.0377756 14.7248877,1.37516333 14.1748683,0.825118519 Z M12.5001482,7.81240808 C12.5001482,8.08583996 12.3730075,8.2777964 12.1192393,8.38855102 C12.0347183,8.42107964 11.9530363,8.43736104 11.8750485,8.43736104 C11.699439,8.43736104 11.552904,8.37541644 11.4356144,8.25183508 L10.0294393,6.84561394 L4.81475612,12.0605217 C4.69089914,12.1841373 4.54453515,12.2460819 4.37521948,12.2460819 C4.2058354,12.2460819 4.0593346,12.1841373 3.93564864,12.0605217 L2.93955944,11.0642774 C2.81583928,10.9407986 2.7539621,10.7940265 2.7539621,10.6248504 C2.7539621,10.4557426 2.81583928,10.3091757 2.93955944,10.1855602 L8.15455043,4.97058401 L6.74827264,3.56436287 C6.54639363,3.37555326 6.50086653,3.14781877 6.6114861,2.88078315 C6.72210567,2.62695052 6.9142704,2.49988028 7.18770666,2.49988028 L11.8750827,2.49988028 C12.0443299,2.49988028 12.1908649,2.56179068 12.3147561,2.68554307 C12.4383395,2.80915863 12.5001824,2.95569131 12.5001824,3.12497007 L12.5001824,7.81240808 L12.5001482,7.81240808 Z" id="Shape"></path>
                </g>
            </g>
        </g>
    </g>
</svg>