<svg width="14" height="17" viewBox="0 0 14 17" fill="none" xmlns="http://www.w3.org/2000/svg">
<path fill-rule="evenodd" clip-rule="evenodd" d="M0 6.81445C0 3.05762 3.13965 0 6.99634 0C10.853 0 13.9927 3.05762 14 6.81445C14 7.24219 13.9561 7.67285 13.8755 8.09375L13.8599 8.17578L13.8281 8.32227C13.771 8.57129 13.699 8.81641 13.6128 9.05664C13.5388 9.26367 13.4543 9.46582 13.3596 9.66504C12.606 11.3936 10.9446 14.0488 7.31104 16.8936C7.21948 16.9648 7.10986 17 7 17C6.89014 17 6.78052 16.9648 6.68896 16.8936C3.05176 14.0488 1.39404 11.3936 0.640381 9.66504C0.435547 9.23438 0.278076 8.78125 0.171875 8.32227L0.13208 8.13672L0.124512 8.09375C0.079834 7.87012 0.0473633 7.64355 0.0268555 7.41602C0.00878906 7.21582 0 7.01465 0 6.81445ZM12.8584 8.10156L12.8914 7.94824L12.895 7.92676C12.9683 7.5625 13.0049 7.18848 13.0049 6.81055C13.0049 3.58594 10.3079 0.958984 6.99634 0.958984C3.68481 0.958984 0.988037 3.58594 0.988037 6.81055C0.988037 7.18555 1.02466 7.55566 1.0979 7.92285L1.09985 7.9375L1.10156 7.94824C1.10522 7.96582 1.11255 8.01953 1.13452 8.10156C1.22949 8.50781 1.36499 8.89941 1.54053 9.27051C1.54419 9.27344 1.54419 9.28125 1.54785 9.28418C2.23218 10.8633 3.73242 13.2725 6.99634 15.8994C10.2605 13.2725 11.7607 10.8633 12.4448 9.28418L12.4485 9.27734L12.4521 9.27051C12.6316 8.89551 12.7668 8.50781 12.8584 8.10156Z" fill="#1A4FA4"/>
<path fill-rule="evenodd" clip-rule="evenodd" d="M3 7C3 4.7959 4.79565 3 7 3C9.20435 3 11 4.7959 11 7C11 9.2041 9.20435 11 7 11C4.79565 11 3 9.2041 3 7ZM3.88892 7C3.88892 8.71387 5.28296 10.1113 7 10.1113C8.71704 10.1113 10.1111 8.71387 10.1111 7C10.1111 5.28613 8.71387 3.88867 7 3.88867C5.28638 3.88867 3.88892 5.28613 3.88892 7Z" fill="#1A4FA4"/>
</svg>
