<svg width="54" height="54" viewBox="0 0 54 54" fill="none" xmlns="http://www.w3.org/2000/svg">
<path fill-rule="evenodd" clip-rule="evenodd" d="M27 53C41.3594 53 53 41.3594 53 27C53 12.6406 41.3594 1 27 1C12.6406 1 1 12.6406 1 27C1 41.3594 12.6406 53 27 53Z" stroke="#B8B8B8" stroke-width="1.38375" class="border"/>
<path d="M19.3333 22H16.6667C16.3001 22 16 22.3359 16 22.75V36.2501C16 36.664 16.2988 37 16.6667 37H19.3333C19.7012 37 20 36.664 20 36.2501V22.75C20 22.3359 19.6999 22 19.3333 22Z" fill="#B8B8B8" class="icon"/>
<path d="M37.1244 22.1952C37.0035 22.1743 31.3388 22.1952 31.3388 22.1952L32.13 19.9915C32.676 18.4694 32.3225 16.1454 30.8077 15.3191C30.3144 15.0501 29.6253 14.915 29.0697 15.0577C28.7511 15.1396 28.4711 15.355 28.3041 15.6435C28.1122 15.9754 28.132 16.3627 28.0637 16.7307C27.8903 17.664 27.4584 18.5514 26.7894 19.2175C25.6231 20.3788 22 23.729 22 23.729V36H34.5202C36.2097 36.001 37.3168 34.0749 36.4836 32.5704C37.4768 31.921 37.8165 30.553 37.2348 29.5027C38.2281 28.8532 38.5678 27.4853 37.9861 26.435C39.6998 25.3144 39.1269 22.541 37.1244 22.1952Z" fill="#B8B8B8" class="icon"/>
</svg>
