<svg xmlns="http://www.w3.org/2000/svg" xmlns:xlink="http://www.w3.org/1999/xlink" width="18" height="18" viewBox="0 0 18 18"><defs><path id="5wqva" d="M370.827 2055.228c.274-.822.223-1.455-.154-1.9-.446-.378-1.08-.429-1.901-.155a5.607 5.607 0 0 0-2.21 1.387l-2.054 2.055-8.54-2.042c-.137-.043-.266-.009-.386.102l-1.644 1.644a.396.396 0 0 0-.115.347.43.43 0 0 0 .218.309l6.524 3.583-3.326 3.327-2.491-.68a.264.264 0 0 0-.103-.014.4.4 0 0 0-.295.116l-1.233 1.246a.44.44 0 0 0-.116.32c.017.137.073.236.167.296l3.236 2.427 2.428 3.237c.077.094.18.15.308.167h.026a.4.4 0 0 0 .295-.115l1.233-1.233a.392.392 0 0 0 .103-.399l-.681-2.491 3.326-3.327 3.584 6.525c.05.111.14.18.27.206a.283.283 0 0 0 .09.012.363.363 0 0 0 .243-.077l1.644-1.233c.145-.12.197-.26.154-.423l-2.054-8.94 2.067-2.067a5.61 5.61 0 0 0 1.387-2.21z"/></defs><g><g transform="translate(-353 -2053)"><use fill="#fff" xlink:href="#5wqva"/></g></g></svg>