<svg width="18" height="13" viewBox="0 0 18 13" fill="none" xmlns="http://www.w3.org/2000/svg">
<path d="M0.985424 0.308795L0.325455 0.934483C0.108505 1.15131 0 1.40454 0 1.69361C0 1.98864 0.108505 2.23887 0.325455 2.44471L4.60163 6.49997L0.325578 10.5552C0.108629 10.761 0.000123267 11.0113 0.000123267 11.3062C0.000123267 11.5954 0.108629 11.8486 0.325578 12.0655L0.985547 12.6829C1.20832 12.8944 1.47529 13 1.78619 13C2.1029 13 2.36684 12.8942 2.57797 12.683L8.3057 7.25101C8.52851 7.05067 8.64 6.80047 8.64 6.5C8.64 6.20517 8.52854 5.95202 8.3057 5.74081L2.57797 0.308825C2.36089 0.102991 2.09698 0 1.78619 0C1.48108 -2.95639e-05 1.21427 0.102961 0.985424 0.308795Z" fill="#F9C23B"/>
<path d="M10.3453 0.308795L9.68532 0.934483C9.46837 1.15131 9.35986 1.40454 9.35986 1.69361C9.35986 1.98864 9.46837 2.23887 9.68532 2.44471L13.9615 6.49997L9.68544 10.5552C9.46849 10.761 9.35999 11.0113 9.35999 11.3062C9.35999 11.5954 9.46849 11.8486 9.68544 12.0655L10.3454 12.6829C10.5682 12.8944 10.8351 13 11.1461 13C11.4628 13 11.7267 12.8942 11.9378 12.683L17.6656 7.25101C17.8884 7.05067 17.9999 6.80047 17.9999 6.5C17.9999 6.20517 17.8884 5.95202 17.6656 5.74081L11.9378 0.308825C11.7208 0.102991 11.4568 0 11.1461 0C10.8409 -2.95639e-05 10.5741 0.102961 10.3453 0.308795Z" fill="#F9C23B"/>
</svg>
