<?xml version="1.0" encoding="UTF-8"?>
<svg width="10px" height="8px" viewBox="0 0 10 8" version="1.1" xmlns="http://www.w3.org/2000/svg" xmlns:xlink="http://www.w3.org/1999/xlink">
    <!-- Generator: Sketch 50.2 (55047) - http://www.bohemiancoding.com/sketch -->
    <title>correct-symbol (3)</title>
    <desc>Created with Sketch.</desc>
    <defs></defs>
    <g id="Page-1" stroke="none" stroke-width="1" fill="none" fill-rule="evenodd">
        <g id="lk-guide" transform="translate(-427.000000, -980.000000)" fill="#FFFFFF" fill-rule="nonzero">
            <g id="Group" transform="translate(405.000000, 798.000000)">
                <g id="correct-symbol-(3)" transform="translate(22.000000, 182.000000)">
                    <path d="M9.819358,1.10434049 L8.94195452,0.188526378 C8.82164711,0.0628578505 8.67533034,0 8.50334317,0 C8.33119781,0 8.18488104,0.0628578505 8.06457363,0.188526378 L3.83225654,4.61279918 L1.93547146,2.62623165 C1.81502847,2.50051595 1.66880208,2.43772886 1.49681491,2.43772886 C1.32471475,2.43772886 1.17848837,2.50051595 1.05804538,2.62623165 L0.180641894,3.54206936 C0.0601988998,3.66776147 0,3.82043647 0,4.00004717 C0,4.17951636 0.0601988998,4.33233288 0.180641894,4.4580014 L2.51608352,6.89563592 L3.3935548,7.81145004 C3.51393,7.93721291 3.66020158,8 3.83225654,8 C4.00424371,8 4.15051529,7.9370478 4.27095828,7.81145004 L5.14840696,6.89563592 L9.819358,2.02022537 C9.93968801,1.89450967 9.9999999,1.74185826 9.9999999,1.56224755 C10.0000903,1.38273119 9.93968801,1.23005619 9.819358,1.10434049 Z" id="Shape"></path>
                </g>
            </g>
        </g>
    </g>
</svg>