<svg width="18" height="16" viewBox="0 0 18 16" fill="none" xmlns="http://www.w3.org/2000/svg">
<path d="M17.3235 0.912868L16.8416 0.484965C16.0415 -0.225503 14.8393 -0.146309 14.133 0.663113L6.07017 9.90177L3.63637 7.73562C2.83718 7.02436 1.63478 7.10196 0.927604 7.91051L0.501455 8.39781C0.155867 8.79275 -0.0235701 9.31373 0.00248845 9.8459C0.0288039 10.3778 0.258413 10.8771 0.64118 11.2341L5.10244 15.4559C5.4887 15.8307 6.00635 16.0262 6.53544 15.9972C7.06454 15.9682 7.55922 15.717 7.90484 15.302L17.5298 3.74495C17.8661 3.34117 18.0333 2.81594 17.9945 2.28488C17.9558 1.75343 17.7145 1.25999 17.3235 0.912868Z" fill="#fff"/>
</svg>
