<?xml version="1.0" encoding="UTF-8"?>
<svg width="13px" height="16px" viewBox="0 0 13 16" version="1.1" xmlns="http://www.w3.org/2000/svg" xmlns:xlink="http://www.w3.org/1999/xlink">
    <!-- Generator: Sketch 50.2 (55047) - http://www.bohemiancoding.com/sketch -->
    <title>Shape</title>
    <desc>Created with Sketch.</desc>
    <defs></defs>
    <g id="Page-1" stroke="none" stroke-width="1" fill="none" fill-rule="evenodd">
        <g id="public-detail" transform="translate(-217.000000, -7888.000000)" fill="#949494" fill-rule="nonzero">
            <g id="placeholder-(5)" transform="translate(217.000000, 7888.000000)">
                <path d="M6.26824834,0.00407228057 C3.03099406,0.115610743 0.341634217,2.59570126 0.0309379864,5.76142526 C-0.0325375876,6.39457007 0.00421142892,7.00803161 0.117799298,7.59524881 C0.117799298,7.59524881 0.127821757,7.66414021 0.161229954,7.79536193 C0.261454545,8.23495469 0.41179143,8.66142529 0.598877333,9.06165153 C1.25033717,10.5772624 2.75704685,13.1131222 6.13795637,15.8720588 C6.34508719,16.0426471 6.64910178,16.0426471 6.85957342,15.8720588 C10.2404829,13.1164027 11.7471926,10.5805429 12.4019933,9.05837099 C12.59242,8.65814474 12.7394161,8.23495469 12.8396407,7.79208139 C12.869708,7.66414021 12.8830713,7.59196826 12.8830713,7.59196826 C12.9599102,7.1983031 13,6.79479631 13,6.38144789 C13,2.77941167 9.96319491,-0.123868897 6.26824834,0.00407228057 Z M6.49876489,9.55701353 C4.75485702,9.55701353 3.34169029,8.16934383 3.34169029,6.45690038 C3.34169029,4.74445693 4.75485702,3.35678724 6.49876489,3.35678724 C8.24267277,3.35678724 9.6558395,4.74445693 9.6558395,6.45690038 C9.6558395,8.16934383 8.24267277,9.55701353 6.49876489,9.55701353 Z" id="Shape"></path>
            </g>
        </g>
    </g>
</svg>
