<?xml version="1.0" encoding="UTF-8"?>
<svg width="15px" height="23px" viewBox="0 0 15 23" version="1.1" xmlns="http://www.w3.org/2000/svg" xmlns:xlink="http://www.w3.org/1999/xlink">
    <!-- Generator: Sketch 50.2 (55047) - http://www.bohemiancoding.com/sketch -->
    <title>chevron-arrow-down copy 9</title>
    <desc>Created with Sketch.</desc>
    <defs></defs>
    <g stroke="none" stroke-width="1" fill="none" fill-rule="evenodd">
        <g transform="translate(-606.000000, -6399.000000)" fill="#67A1D6" fill-rule="nonzero">
            <g transform="translate(613.500000, 6410.500000) rotate(-90.000000) translate(-613.500000, -6410.500000) translate(602.000000, 6403.000000)">
                <path d="M22.1874196,1.71080508 L21.0935606,0.565025253 C20.7144985,0.188377418 20.2717741,0 19.7664091,0 C19.250621,0 18.8131591,0.188377418 18.4533082,0.565025253 L11.3636875,7.98894667 L4.27411783,0.565239257 C3.91431797,0.188591423 3.47675392,0.000214004451 2.96117023,0.000214004451 C2.45554975,0.000214004451 2.01292745,0.188591423 1.63381428,0.565239257 L0.554312509,1.71101909 C0.184702712,2.09777863 0,2.56125877 0,3.1010315 C0,3.65086244 0.184907086,4.10909947 0.554261416,4.47563559 L10.0506888,14.4196199 C10.4009341,14.806433 10.8383449,15 11.3636364,15 C11.8790668,15 12.321638,14.8064865 12.6908901,14.4196199 L22.1873686,4.47563559 C22.5472195,4.09877375 22.7272727,3.64059022 22.7272727,3.1010315 C22.7273238,2.57131698 22.5472706,2.10810435 22.1874196,1.71080508 Z"></path>
            </g>
        </g>
    </g>
</svg>
