<?xml version="1.0" encoding="UTF-8"?>
<svg width="14px" height="14px" viewBox="0 0 14 14" version="1.1" xmlns="http://www.w3.org/2000/svg" xmlns:xlink="http://www.w3.org/1999/xlink">
    <!-- Generator: Sketch 50.2 (55047) - http://www.bohemiancoding.com/sketch -->
    <title>instagram (1)</title>
    <desc>Created with Sketch.</desc>
    <defs></defs>
    <g id="Page-1" stroke="none" stroke-width="1" fill="none" fill-rule="evenodd">
        <g id="lk-turoperatora-setting" transform="translate(-433.000000, -1438.000000)" fill="#FFFFFF" fill-rule="nonzero">
            <g id="about" transform="translate(405.000000, 865.000000)">
                <g id="twitter-(1)-copy" transform="translate(19.000000, 564.000000)">
                    <g id="instagram-(1)" transform="translate(9.000000, 9.000000)">
                        <path d="M9.625,0 L4.375,0 C1.959125,0 0,1.959125 0,4.375 L0,9.625 C0,12.040875 1.959125,14 4.375,14 L9.625,14 C12.040875,14 14,12.040875 14,9.625 L14,4.375 C14,1.959125 12.040875,0 9.625,0 Z M12.6875,9.625 C12.6875,11.31375 11.31375,12.6875 9.625,12.6875 L4.375,12.6875 C2.68625,12.6875 1.3125,11.31375 1.3125,9.625 L1.3125,4.375 C1.3125,2.68625 2.68625,1.3125 4.375,1.3125 L9.625,1.3125 C11.31375,1.3125 12.6875,2.68625 12.6875,4.375 L12.6875,9.625 Z" id="Shape"></path>
                        <path d="M7.11764706,4.11764706 C5.46089706,4.11764706 4.11764706,5.46089706 4.11764706,7.11764706 C4.11764706,8.77439706 5.46089706,10.1176471 7.11764706,10.1176471 C8.77439706,10.1176471 10.1176471,8.77439706 10.1176471,7.11764706 C10.1176471,5.46089706 8.77439706,4.11764706 7.11764706,4.11764706 Z M7.11764706,8.99264706 C6.08414706,8.99264706 5.24264706,8.15114706 5.24264706,7.11764706 C5.24264706,6.08339706 6.08414706,5.24264706 7.11764706,5.24264706 C8.15114706,5.24264706 8.99264706,6.08339706 8.99264706,7.11764706 C8.99264706,8.15114706 8.15114706,8.99264706 7.11764706,8.99264706 Z" id="Shape"></path>
                    </g>
                </g>
            </g>
        </g>
    </g>
</svg>