<svg width="39" height="39" viewBox="0 0 39 39" fill="none" xmlns="http://www.w3.org/2000/svg">
<g filter="url(#filter0_d)">
<circle cx="19.3945" cy="15.928" r="15" fill="white"/>
</g>
<path d="M9.63989 17.027C10.7047 18.052 11.9116 19.2138 14.246 19.2138C16.5804 19.2137 17.7874 18.052 18.8522 17.027C19.8592 16.0577 20.7289 15.2205 22.5429 15.2205C24.3569 15.2205 25.2266 16.0577 26.2336 17.027C26.5284 17.3107 26.9723 17.2726 27.2251 16.9418C27.4779 16.611 27.4439 16.1128 27.1492 15.8291C26.0843 14.8041 24.8774 13.6423 22.5429 13.6423C20.2084 13.6423 19.0015 14.8041 17.9367 15.8291C16.9296 16.7984 16.06 17.6356 14.246 17.6356C12.432 17.6356 11.5624 16.7985 10.5555 15.8291C10.2607 15.5454 9.81684 15.5835 9.56399 15.9143C9.31115 16.2451 9.34514 16.7433 9.63989 17.027Z" fill="#23B4F5"/>
<path d="M9.6399 13.3126C10.7047 14.3376 11.9115 15.4994 14.246 15.4994C16.5805 15.4994 17.7874 14.3376 18.8522 13.3126C19.8592 12.3433 20.7289 11.5061 22.5429 11.5061C24.3569 11.5061 25.2266 12.3433 26.2337 13.3126C26.5284 13.5964 26.9723 13.5582 27.2251 13.2274C27.4779 12.8966 27.4439 12.3984 27.1491 12.1147C26.0843 11.0897 24.8774 9.92798 22.5429 9.92798C20.2085 9.92798 19.0015 11.0897 17.9367 12.1148C16.9297 13.0841 16.06 13.9212 14.246 13.9212C12.432 13.9212 11.5624 13.0841 10.5555 12.1148C10.2607 11.831 9.8168 11.8691 9.56399 12.1999C9.31115 12.5307 9.34514 13.0289 9.6399 13.3126Z" fill="#23B4F5"/>
<path d="M27.1492 19.5432C26.0843 18.5182 24.8774 17.3564 22.5429 17.3564C20.2084 17.3564 19.0015 18.5182 17.9366 19.5432C16.9296 20.5125 16.0599 21.3497 14.2459 21.3497C12.4321 21.3497 11.5624 20.5126 10.5555 19.5433L10.5554 19.5432C10.2607 19.2596 9.81681 19.2977 9.56396 19.6284C9.31115 19.9592 9.34515 20.4574 9.6399 20.7411C10.7047 21.7661 11.9116 22.9279 14.2459 22.9279C16.5804 22.9279 17.7873 21.7661 18.8522 20.7411C19.8592 19.7718 20.7289 18.9346 22.5429 18.9346C24.3569 18.9346 25.2266 19.7718 26.2336 20.7411C26.5284 21.0248 26.9723 20.9867 27.2251 20.6559C27.4779 20.3251 27.4439 19.8269 27.1492 19.5432Z" fill="#23B4F5"/>
<defs>
<filter id="filter0_d" x="0.394531" y="0.927979" width="38" height="38" filterUnits="userSpaceOnUse" color-interpolation-filters="sRGB">
<feFlood flood-opacity="0" result="BackgroundImageFix"/>
<feColorMatrix in="SourceAlpha" type="matrix" values="0 0 0 0 0 0 0 0 0 0 0 0 0 0 0 0 0 0 127 0"/>
<feOffset dy="4"/>
<feGaussianBlur stdDeviation="2"/>
<feColorMatrix type="matrix" values="0 0 0 0 0 0 0 0 0 0 0 0 0 0 0 0 0 0 0.25 0"/>
<feBlend mode="normal" in2="BackgroundImageFix" result="effect1_dropShadow"/>
<feBlend mode="normal" in="SourceGraphic" in2="effect1_dropShadow" result="shape"/>
</filter>
</defs>
</svg>
