<?xml version="1.0" encoding="UTF-8"?>
<svg width="62px" height="62px" viewBox="0 0 62 62" version="1.1" xmlns="http://www.w3.org/2000/svg" xmlns:xlink="http://www.w3.org/1999/xlink">
    <!-- Generator: Sketch 50.2 (55047) - http://www.bohemiancoding.com/sketch -->
    <title>chevron-arrow-down copy 3</title>
    <desc>Created with Sketch.</desc>
    <defs></defs>
    <g id="Page-1" stroke="none" stroke-width="1" fill="none" fill-rule="evenodd">
        <g id="popup" transform="translate(-369.000000, -599.000000)">
            <g id="chevron-arrow-down-copy-3" transform="translate(400.000000, 630.000000) scale(-1, 1) rotate(-90.000000) translate(-400.000000, -630.000000) translate(369.000000, 599.000000)">
                <circle id="Oval-3" fill="#C2C2C2" opacity="0.304291214" cx="31" cy="31" r="31"></circle>
                <path d="M39.2020224,27.9712119 L38.3731204,27.1161207 C38.0858756,26.8350298 37.7503888,26.6944444 37.3674344,26.6944444 C36.9765817,26.6944444 36.6450828,26.8350298 36.3723957,27.1161207 L31.0000387,32.6565658 L25.6277204,27.1162804 C25.3550721,26.8351895 25.0234958,26.6946042 24.6327979,26.6946042 C24.2496499,26.6946042 23.9142406,26.8351895 23.626957,27.1162804 L22.8089346,27.9713717 C22.5288525,28.2600089 22.3888889,28.6059024 22.3888889,29.0087328 C22.3888889,29.4190696 22.5290074,29.7610502 22.8088959,30.0345947 L30.0050775,37.4557534 C30.2704857,37.7444305 30.6019458,37.8888889 31,37.8888889 C31.3905817,37.8888889 31.7259523,37.7444705 32.0057634,37.4557534 L39.2019837,30.0345947 C39.4746708,29.7533441 39.6111111,29.4114034 39.6111111,29.0087328 C39.6111498,28.6134088 39.4747095,28.2677149 39.2020224,27.9712119 Z" id="Shape" fill="#6D9FFF" fill-rule="nonzero"></path>
            </g>
        </g>
    </g>
</svg>