<?xml version="1.0" encoding="UTF-8"?>
<svg width="16px" height="14px" viewBox="0 0 16 14" version="1.1" xmlns="http://www.w3.org/2000/svg" xmlns:xlink="http://www.w3.org/1999/xlink">
    <!-- Generator: Sketch 50.2 (55047) - http://www.bohemiancoding.com/sketch -->
    <title>telegram</title>
    <desc>Created with Sketch.</desc>
    <defs></defs>
    <g id="Page-1" stroke="none" stroke-width="1" fill="none" fill-rule="evenodd">
        <g id="lk-turoperatora-setting" transform="translate(-431.000000, -1547.000000)" fill="#FFFFFF" fill-rule="nonzero">
            <g id="about" transform="translate(405.000000, 865.000000)">
                <g id="telegram" transform="translate(26.000000, 682.000000)">
                    <path d="M0.28260756,6.71294914 L3.96933239,8.0957974 L5.39632092,12.7078107 C5.48762771,13.0031936 5.84704151,13.1123742 6.08560182,12.9163635 L8.14064452,11.232719 C8.35605813,11.0563254 8.6628852,11.0475352 8.88800549,11.2117619 L12.5945703,13.916195 C12.8497707,14.1026115 13.2113178,13.9620755 13.2753179,13.6521675 L15.9905748,0.526311152 C16.0604416,0.187781323 15.7294545,-0.0946305945 15.4087074,0.0300401437 L0.278287554,5.89594309 C-0.0950996011,6.04065977 -0.0918462635,6.57193078 0.28260756,6.71294914 Z M5.16634729,7.3596719 L12.3715834,2.89987907 C12.5010769,2.8199633 12.6343037,2.99592806 12.5231036,3.09958808 L6.5766958,8.65456457 C6.36768219,8.85009288 6.23285535,9.11176208 6.19466863,9.39578196 L5.99210837,10.9043729 C5.96528167,11.1057971 5.68373463,11.1257894 5.62842789,10.9308507 L4.84938687,8.17989387 C4.76016009,7.86612667 4.89018693,7.53097356 5.16634729,7.3596719 Z" id="XMLID_497_"></path>
                </g>
            </g>
        </g>
    </g>
</svg>