<?xml version="1.0" encoding="UTF-8"?>
<svg width="14px" height="11px" viewBox="0 0 14 11" version="1.1" xmlns="http://www.w3.org/2000/svg" xmlns:xlink="http://www.w3.org/1999/xlink">
    <!-- Generator: Sketch 50.2 (55047) - http://www.bohemiancoding.com/sketch -->
    <title>Shape</title>
    <desc>Created with Sketch.</desc>
    <defs></defs>
    <g id="Page-1" stroke="none" stroke-width="1" fill="none" fill-rule="evenodd">
        <g id="lk-turoperatora-setting" transform="translate(-433.000000, -1387.000000)" fill="#FFFFFF" fill-rule="nonzero">
            <g id="about" transform="translate(405.000000, 865.000000)">
                <path d="M42,523.302231 C41.479375,523.523077 40.924625,523.669462 40.34625,523.740538 C40.94125,523.397 41.395375,522.857154 41.608875,522.206462 C41.054125,522.526308 40.441625,522.752231 39.788875,522.878308 C39.262125,522.335923 38.511375,522 37.692375,522 C36.103375,522 34.824125,523.247231 34.824125,524.776231 C34.824125,524.996231 34.843375,525.207769 34.890625,525.409154 C32.5045,525.296615 30.393125,524.190692 28.97475,522.506 C28.727125,522.921462 28.581875,523.397 28.581875,523.908923 C28.581875,524.870154 29.09375,525.722231 29.85675,526.215538 C29.395625,526.207077 28.94325,526.077615 28.56,525.873692 C28.56,525.882154 28.56,525.893154 28.56,525.904154 C28.56,527.252923 29.554875,528.373231 30.8595,528.631308 C30.625875,528.693077 30.37125,528.722692 30.107,528.722692 C29.92325,528.722692 29.73775,528.712538 29.563625,528.675308 C29.9355,529.774462 30.99075,530.582538 32.2455,530.608769 C31.269,531.347462 30.029125,531.792538 28.686875,531.792538 C28.4515,531.792538 28.22575,531.782385 28,531.754462 C29.271375,532.547308 30.778125,533 32.403,533 C37.6845,533 40.572,528.769231 40.572,525.102 C40.572,524.979308 40.567625,524.860846 40.5615,524.743231 C41.131125,524.352308 41.60975,523.864077 42,523.302231 Z" id="Shape"></path>
            </g>
        </g>
    </g>
</svg>