<?xml version="1.0" encoding="UTF-8"?>
<svg width="14px" height="11px" viewBox="0 0 14 11" version="1.1" xmlns="http://www.w3.org/2000/svg" xmlns:xlink="http://www.w3.org/1999/xlink">
    <!-- Generator: Sketch 50.2 (55047) - http://www.bohemiancoding.com/sketch -->
    <title>XMLID_823_</title>
    <desc>Created with Sketch.</desc>
    <defs></defs>
    <g id="Page-1" stroke="none" stroke-width="1" fill="none" fill-rule="evenodd">
        <g id="lk-turoperatora-setting" transform="translate(-433.000000, -1495.000000)" fill="#FFFFFF" fill-rule="nonzero">
            <g id="about" transform="translate(405.000000, 865.000000)">
                <g id="youtube" transform="translate(19.000000, 619.000000)">
                    <path d="M22.4543161,11.9442718 C21.9489613,11.2735807 21.015929,11 19.2340452,11 L12.7658194,11 C10.9431548,11 9.99431613,11.2912278 9.49085806,12.0052804 C9,12.7014842 9,13.7272856 9,15.1470211 L9,17.8530293 C9,20.6035083 9.5824,22 12.7658194,22 L19.2340903,22 C20.779329,22 21.6355871,21.7585875 22.1895355,21.1667033 C22.7576194,20.5597435 23,19.5687321 23,17.8530293 L23,15.1470211 C23,13.6497896 22.9620194,12.6179377 22.4543161,11.9442718 Z M17.9880452,16.8736146 L15.0508452,18.5874518 C14.9851806,18.6257712 14.9133742,18.6447797 14.8416581,18.6447797 C14.7604581,18.6447797 14.6794387,18.6203762 14.6076774,18.5718719 C14.4725548,18.4804598 14.3900452,18.3169467 14.3900452,18.1405764 L14.3900452,14.7238937 C14.3900452,14.547826 14.472329,14.3844641 14.6071806,14.2930017 C14.7420774,14.2015392 14.9098516,14.1952871 15.0498065,14.2764638 L17.9870065,15.9792589 C18.1364452,16.065881 18.2302903,16.2381168 18.2305161,16.4260334 C18.2306968,16.6141012 18.1372581,16.7865891 17.9880452,16.8736146 Z" id="XMLID_823_"></path>
                </g>
            </g>
        </g>
    </g>
</svg>