<svg width="241" height="241" viewBox="0 0 241 241" fill="none" xmlns="http://www.w3.org/2000/svg">
<path fill-rule="evenodd" clip-rule="evenodd" d="M241 73.8535C241 67.4243 235.768 62.1924 229.339 62.1924C228.001 62.1924 226.734 62.4648 225.537 62.8804L208.119 41.1094C209.231 39.3252 209.903 37.2378 209.903 34.9834C209.903 28.5542 204.671 23.3223 198.242 23.3223C194.973 23.3223 192.026 24.6826 189.908 26.8516L159.266 12.7104C159.297 12.3608 159.371 12.0225 159.371 11.6611C159.371 5.23193 154.139 0 147.709 0C142.648 0 138.373 3.26123 136.764 7.77393H92.5752C90.9658 3.26123 86.6899 0 81.6289 0C75.1997 0 69.9678 5.23193 69.9678 11.6611C69.9678 12.1431 70.0532 12.6055 70.1113 13.0762L50.8315 22.7158C48.7324 20.6943 45.895 19.4351 42.7583 19.4351C36.3286 19.4351 31.0967 24.667 31.0967 31.0962C31.0967 33.3506 31.769 35.438 32.8809 37.2222L15.4629 58.9937C14.2656 58.5776 12.9985 58.3057 11.6611 58.3057C5.23193 58.3057 0 63.5376 0 69.9668C0 75.0273 3.26123 79.3032 7.77441 80.9126V105.669C3.26123 107.274 0 111.55 0 116.611C0 123.04 5.23193 128.272 11.6611 128.272C15.98 128.272 19.7114 125.885 21.729 122.391L42.9487 126.247C43.8467 131.79 48.6274 136.046 54.4194 136.046C54.4531 136.046 54.4868 136.044 54.5205 136.042L54.5718 136.036L54.6313 136.028L54.6724 136.022C54.7402 136.013 54.8081 136.003 54.8779 136L62.2944 154.544C59.8691 156.683 58.3066 159.776 58.3066 163.255C58.3066 169.685 63.5386 174.917 69.9678 174.917C73.8779 174.917 77.3262 172.965 79.4404 170.007L112.8 179.538C113.099 184.272 116.208 188.218 120.5 189.75V218.393C115.987 220.002 112.726 224.278 112.726 229.339C112.726 235.768 117.958 241 124.387 241C130.816 241 136.048 235.768 136.048 229.339C136.048 224.278 132.787 220.002 128.274 218.393V189.75C132.787 188.14 136.048 183.864 136.048 178.804C136.048 175.08 134.26 171.795 131.536 169.657L136.177 155.73L171.056 167.356C171.149 172.32 174.359 176.499 178.807 178.084V218.389C174.293 219.999 171.032 224.274 171.032 229.335C171.032 235.764 176.264 240.996 182.693 240.996C189.123 240.996 194.355 235.764 194.355 229.335C194.355 224.274 191.094 219.999 186.581 218.389V178.088C191.094 176.479 194.355 172.204 194.355 167.143C194.355 165.724 194.063 164.379 193.597 163.119L223.422 138.266C225.16 139.3 227.17 139.933 229.339 139.933C235.768 139.933 241 134.701 241 128.272C241 123.211 237.739 118.936 233.226 117.326V84.7954C237.739 83.1904 241 78.9146 241 73.8535ZM198.242 31.0962C200.384 31.0962 202.129 32.8374 202.129 34.9834C202.129 37.1289 200.384 38.8701 198.242 38.8701C196.1 38.8701 194.355 37.1289 194.355 34.9834C194.355 32.8374 196.1 31.0962 198.242 31.0962ZM198.242 46.6445C196.232 46.6445 194.367 46.0889 192.714 45.187L170.138 65.5083C170.709 66.8804 171.032 68.3887 171.032 69.9668C171.032 71.3857 170.741 72.7305 170.274 73.9937L190.328 90.7041L217.864 75.6846C217.767 75.082 217.677 74.4795 217.677 73.854C217.677 71.5996 218.35 69.5161 219.458 67.7319L202.04 45.9565C200.842 46.3726 199.579 46.6445 198.242 46.6445ZM143.822 108.837C142.027 108.837 140.347 109.276 138.828 110.007L122.358 93.5376L151.434 78.46C153.521 80.4111 156.296 81.6279 159.371 81.6279C161.54 81.6279 163.545 80.9941 165.287 79.9604L182.985 94.708L151.565 111.846C149.501 109.996 146.808 108.837 143.822 108.837ZM143.823 124.385C145.964 124.385 147.71 122.644 147.71 120.498C147.71 118.352 145.964 116.611 143.823 116.611C141.681 116.611 139.936 118.352 139.936 120.498C139.936 122.644 141.681 124.385 143.823 124.385ZM88.9404 77.6899L95.4668 98.7188L62.3564 115.888C60.9688 114.594 59.2705 113.653 57.3813 113.151L51.9937 71.8403L78.6279 70.5068C80.3188 74.604 84.2837 77.5034 88.9404 77.6899ZM89.4033 62.1924C87.2612 62.1924 85.5161 63.9336 85.5161 66.0796C85.5161 68.2251 87.2612 69.9663 89.4033 69.9663C91.5449 69.9663 93.2905 68.2251 93.2905 66.0796C93.2905 63.9336 91.5449 62.1924 89.4033 62.1924ZM97.8032 106.268L107.661 138.036L66.0576 124.167C66.0547 124.001 66.0439 123.836 66.0288 123.673C66.001 123.379 65.9575 123.089 65.9175 122.799L97.8032 106.268ZM109.352 91.5244L97.7759 79.9526L102.476 95.0889L109.352 91.5244ZM99.8984 71.0742C100.625 69.5542 101.064 67.875 101.064 66.0791C101.064 64.4233 100.707 62.853 100.085 61.4268L118.541 44.1992L148.293 66.5107C148.111 67.0918 147.959 67.6836 147.856 68.29C147.763 68.8359 147.71 69.3936 147.71 69.9663C147.71 70.5107 147.799 71.0273 147.869 71.5522L116.59 87.769L99.8984 71.0742ZM159.371 66.0796C157.229 66.0796 155.484 67.8208 155.484 69.9668C155.484 72.1123 157.229 73.8535 159.371 73.8535C161.513 73.8535 163.258 72.1123 163.258 69.9668C163.258 67.8208 161.513 66.0796 159.371 66.0796ZM189.411 100.06L217.262 123.27L156.915 117.785L189.411 100.06ZM151.597 11.6611C151.597 9.51514 149.852 7.77393 147.71 7.77393C145.568 7.77393 143.823 9.51514 143.823 11.6611C143.823 13.8066 145.568 15.5479 147.71 15.5479C149.852 15.5479 151.597 13.8066 151.597 11.6611ZM142.369 21.9658C143.975 22.8018 145.774 23.3223 147.71 23.3223C150.979 23.3223 153.925 21.9619 156.048 19.7891L186.686 33.9302C186.675 34.0601 186.658 34.1875 186.641 34.3149L186.625 34.4351C186.615 34.5078 186.606 34.5806 186.599 34.6543C186.594 34.709 186.589 34.7642 186.585 34.8193C186.583 34.8735 186.581 34.9282 186.581 34.9834C186.581 36.5654 186.903 38.0698 187.475 39.4458L164.898 59.7632C163.247 58.8613 161.381 58.3057 159.371 58.3057C156.984 58.3057 154.765 59.0327 152.915 60.2686L124.313 38.8159L142.369 21.9658ZM136.868 15.8599C136.835 15.7554 136.802 15.6509 136.764 15.5483H93.2905L117.993 34.0737L137.028 16.3101L136.987 16.2085C136.971 16.1646 136.955 16.1206 136.939 16.0762C136.915 16.0044 136.892 15.9321 136.868 15.8599ZM81.6289 7.77393C83.7705 7.77393 85.5161 9.51514 85.5161 11.6611C85.5161 13.8066 83.7705 15.5479 81.6289 15.5479C79.4868 15.5479 77.7417 13.8066 77.7417 11.6611C77.7417 9.51514 79.4868 7.77393 81.6289 7.77393ZM54.3721 30.4072C54.3994 30.6343 54.4194 30.8628 54.4194 31.0962C54.4194 35.6206 51.8032 39.5078 48.0288 41.4395L50.9829 64.105L78.2861 62.7407C79.7319 57.9438 84.1401 54.4185 89.4028 54.4185C91.3389 54.4185 93.1387 54.9355 94.7441 55.771L112.22 39.4609L88.0854 21.3594C86.2349 22.5952 84.0156 23.3223 81.6289 23.3223C78.4922 23.3223 75.6543 22.063 73.5552 20.0454L54.2754 29.6851C54.2896 29.8008 54.3057 29.9165 54.3218 30.0322C54.3394 30.1567 54.3569 30.2817 54.3721 30.4072ZM42.7583 27.2095C44.8999 27.2095 46.6455 28.9507 46.6455 31.0967C46.6455 33.2422 44.8999 34.9834 42.7583 34.9834C40.6162 34.9834 38.8711 33.2422 38.8711 31.0967C38.8711 28.9507 40.6162 27.2095 42.7583 27.2095ZM39.1807 42.147L38.9565 42.0693L21.5386 63.8408C21.6489 64.0181 21.7563 64.1963 21.8599 64.377C21.9619 64.5547 22.0601 64.7349 22.1528 64.918C22.2549 65.1196 22.3501 65.3252 22.4365 65.5352L43.1899 64.4976L40.3208 42.4932C39.9287 42.4087 39.5552 42.2783 39.1807 42.147ZM11.6616 66.0796C13.8032 66.0796 15.5488 67.8208 15.5488 69.9668C15.5488 72.1123 13.8032 73.8535 11.6616 73.8535C9.51953 73.8535 7.77441 72.1123 7.77441 69.9668C7.77441 67.8208 9.51953 66.0796 11.6616 66.0796ZM7.77441 116.611C7.77441 118.757 9.51953 120.498 11.6616 120.498C13.8032 120.498 15.5488 118.757 15.5488 116.611C15.5488 114.465 13.8032 112.724 11.6616 112.724C9.51953 112.724 7.77441 114.465 7.77441 116.611ZM44.3516 118.605L23.1357 114.75C22.4478 110.516 19.4937 107.072 15.5483 105.665V80.9087C19.0195 79.6689 21.7095 76.8506 22.7783 73.3018L44.2041 72.229L49.6226 113.781C47.3916 114.796 45.5684 116.495 44.3516 118.605ZM50.5322 124.385C50.5322 126.531 52.2773 128.272 54.4194 128.272C56.561 128.272 58.3066 126.531 58.3066 124.385C58.3066 122.239 56.561 120.498 54.4194 120.498C52.2773 120.498 50.5322 122.239 50.5322 124.385ZM69.9678 167.142C67.8257 167.142 66.0806 165.401 66.0806 163.255C66.0806 161.109 67.8257 159.368 69.9678 159.368C72.1094 159.368 73.855 161.109 73.855 163.255C73.855 165.401 72.1094 167.142 69.9678 167.142ZM81.5591 162.521L114.918 172.052C115.618 171.076 116.473 170.225 117.433 169.502L110.502 147.175L63.5693 131.529C63.1226 132.097 62.6328 132.618 62.0923 133.096L69.5088 151.641C69.6646 151.633 69.812 151.594 69.9678 151.594C76.1479 151.594 81.1665 156.438 81.5591 162.521ZM124.387 233.222C122.245 233.222 120.5 231.48 120.5 229.335C120.5 227.189 122.245 225.448 124.387 225.448C126.529 225.448 128.274 227.189 128.274 229.335C128.274 231.48 126.529 233.222 124.387 233.222ZM120.5 178.804C120.5 180.949 122.245 182.69 124.387 182.69C126.529 182.69 128.274 180.949 128.274 178.804C128.274 176.658 126.529 174.917 124.387 174.917C122.245 174.917 120.5 176.658 120.5 178.804ZM124.519 166.116L119.579 150.203L128.799 153.277L124.519 166.116ZM116.745 141.061L131.259 145.9L136.678 129.644C133.949 127.51 132.161 124.222 132.161 120.498C132.161 118.702 132.601 117.023 133.331 115.503L115.12 97.2925L104.819 102.633L116.745 141.061ZM182.694 233.222C180.552 233.222 178.807 231.48 178.807 229.335C178.807 227.189 180.552 225.448 182.694 225.448C184.835 225.448 186.581 227.189 186.581 229.335C186.581 231.48 184.835 233.222 182.694 233.222ZM178.807 167.143C178.807 169.288 180.552 171.029 182.694 171.029C184.835 171.029 186.581 169.288 186.581 167.143C186.581 164.997 184.835 163.255 182.694 163.255C180.552 163.255 178.807 164.997 178.807 167.143ZM188.61 157.145C186.868 156.115 184.862 155.481 182.693 155.481C178.97 155.481 175.681 157.27 173.547 159.998L138.633 148.36L144.04 132.136C148.635 132.05 152.564 129.298 154.384 125.361L218.078 131.148C218.179 131.537 218.295 131.918 218.436 132.292L188.61 157.145ZM221.595 82.5024L196.753 96.0527L223.422 118.279C223.668 118.133 223.92 117.996 224.176 117.869C224.588 117.665 225.015 117.484 225.455 117.326V84.7959C224.013 84.2827 222.711 83.5054 221.595 82.5024ZM229.339 132.159C227.197 132.159 225.452 130.418 225.452 128.272C225.452 126.126 227.197 124.385 229.339 124.385C231.48 124.385 233.226 126.126 233.226 128.272C233.226 130.418 231.48 132.159 229.339 132.159ZM225.452 73.854C225.452 75.9995 227.197 77.7407 229.339 77.7407C231.48 77.7407 233.226 75.9995 233.226 73.854C233.226 71.708 231.48 69.9668 229.339 69.9668C227.197 69.9668 225.452 71.708 225.452 73.854Z" fill="white"/>
<rect x="8" width="8" height="8" fill="white"/>
<rect x="8" y="16" width="8" height="8" fill="white"/>
<rect x="16" y="8" width="8" height="8" fill="white"/>
<rect y="8" width="8" height="8" fill="white"/>
<rect x="202" y="178" width="8" height="8" fill="white"/>
<rect x="202" y="194" width="8" height="8" fill="white"/>
<rect x="209" y="186" width="8" height="8" fill="white"/>
<rect x="194" y="186" width="8" height="8" fill="white"/>
<rect x="225" y="16" width="8" height="8" fill="white"/>
<rect x="225" y="31" width="8" height="8" fill="white"/>
<rect x="233" y="23" width="8" height="8" fill="white"/>
<rect x="217" y="23" width="8" height="8" fill="white"/>
<rect x="47" y="186" width="8" height="8" fill="white"/>
<rect x="47" y="202" width="8" height="8" fill="white"/>
<rect x="54" y="194" width="8" height="8" fill="white"/>
<rect x="39" y="194" width="8" height="8" fill="white"/>
<rect x="23" y="144" width="8" height="8" fill="white"/>
<rect x="23" y="159" width="8" height="8" fill="white"/>
<rect x="31" y="151" width="8" height="8" fill="white"/>
<rect x="16" y="151" width="8" height="8" fill="white"/>
</svg>
